%FSTAX23Y23*%
%MOIN*%
%SFA1B1*%

%IPPOS*%
%ADD131C,0.114236*%
%ADD132C,0.078803*%
%ADD133C,0.064000*%
%ADD134C,0.023685*%
%LNmdriver2_control-1*%
%LPD*%
G54D131*
X05567Y0257D03*
Y0207D03*
G54D132*
X05627Y03532D03*
Y03036D03*
G54D133*
X01383Y02531D03*
X0422Y0329D03*
X0432D03*
Y0339D03*
X04052Y03276D03*
X04118Y02908D03*
X01283Y02531D03*
X04018Y02908D03*
X04052Y03376D03*
G54D134*
X05543Y01783D03*
Y01153D03*
X05385Y00838D03*
X05543Y00523D03*
X05385Y00208D03*
X05228Y01783D03*
X0507Y01468D03*
X05228Y01153D03*
X0507Y00838D03*
X05228Y00523D03*
X0507Y00208D03*
X04913Y01783D03*
Y01153D03*
Y00523D03*
X04598Y01783D03*
X0444Y01468D03*
X04598Y01153D03*
Y00523D03*
X04283Y01783D03*
X04125Y01468D03*
X04283Y01153D03*
X04125Y00838D03*
X04283Y00523D03*
X04125Y00208D03*
X03968Y01783D03*
X0381Y01468D03*
X03968Y01153D03*
X0381Y00838D03*
X03968Y00523D03*
X0381Y00208D03*
X03653Y03673D03*
Y02413D03*
X03495Y02098D03*
X03653Y01783D03*
X03495Y01468D03*
Y00838D03*
X03653Y00523D03*
X03495Y00208D03*
X0318Y02728D03*
Y01468D03*
Y00838D03*
X03338Y00523D03*
X03023Y03043D03*
Y02413D03*
Y01783D03*
Y01153D03*
Y00523D03*
X02551Y02728D03*
X02708Y02413D03*
Y01153D03*
X02551Y00838D03*
X02708Y00523D03*
X02551Y00208D03*
X02236Y02098D03*
X02393Y01153D03*
X02236Y00838D03*
X02393Y00523D03*
X02236Y00208D03*
X01921Y01468D03*
X02078Y01153D03*
X01921Y00838D03*
X02078Y00523D03*
X01921Y00208D03*
X01606Y03358D03*
X01763Y01783D03*
Y01153D03*
Y00523D03*
X01291Y03358D03*
X01448Y03043D03*
X01291Y02098D03*
X01448Y01783D03*
X01291Y01468D03*
X01448Y00523D03*
X00976Y03358D03*
X01133Y03043D03*
X00976Y02098D03*
Y01468D03*
Y00838D03*
X01133Y00523D03*
X00976Y00208D03*
X00661Y03358D03*
X00818Y03043D03*
X00661Y02098D03*
Y01468D03*
Y00838D03*
X00818Y00523D03*
X00661Y00208D03*
X00503Y03673D03*
X00346Y03358D03*
X00503Y03043D03*
X00346Y02728D03*
Y02098D03*
Y01468D03*
Y00838D03*
X00503Y00523D03*
X00346Y00208D03*
X00188Y03673D03*
X00031Y03358D03*
X00188Y03043D03*
X00031Y02728D03*
X00188Y02413D03*
X00031Y02098D03*
X00188Y01783D03*
X00031Y01468D03*
X00188Y01153D03*
X00031Y00838D03*
X00188Y00523D03*
X00031Y00208D03*
X04055Y01087D03*
X04075Y01124D03*
X03673Y02295D03*
X03327Y02203D03*
X0456Y01617D03*
X04499Y01763D03*
X04775Y01488D03*
X04844Y0135D03*
X03166Y03466D03*
X0325Y02673D03*
X03338Y05222D03*
X03274Y03177D03*
X03552Y03103D03*
X04049Y0216D03*
X02154Y01432D03*
X02459Y01513D03*
X02094Y01379D03*
X05386Y01383D03*
X05261Y01474D03*
X05181Y0139D03*
Y01474D03*
X04426Y02665D03*
X04293Y0133D03*
X0443D03*
X04155D03*
X04047Y01443D03*
X03751Y018D03*
X0379Y01832D03*
X03163Y0221D03*
X03187Y02203D03*
X04047Y01251D03*
X05671Y02452D03*
X05602Y02314D03*
X05671Y02177D03*
X05602Y01763D03*
X05464Y03141D03*
Y0259D03*
X05533Y02452D03*
X05464Y02314D03*
X05533Y02177D03*
X05464Y01763D03*
X05395Y02728D03*
X05326Y0259D03*
X05395Y02452D03*
X05326Y02314D03*
X05395Y02177D03*
X05326Y02039D03*
X05395Y01901D03*
X05326Y01763D03*
X05395Y0135D03*
X05257Y02728D03*
X05188Y0259D03*
X05257Y02452D03*
X05188Y02314D03*
X05257Y02177D03*
X05188Y02039D03*
X05257Y01901D03*
X05188Y01763D03*
X05257Y01625D03*
X05188Y01212D03*
X05119Y02728D03*
X05051Y0259D03*
X05119Y02452D03*
X05051Y02314D03*
X05119Y02177D03*
X05051Y02039D03*
X05119Y01901D03*
X05051Y01763D03*
X05119Y01625D03*
X05051Y01212D03*
X04982Y02728D03*
X04913Y0259D03*
X04982Y02452D03*
X04913Y02314D03*
X04982Y02177D03*
X04913Y02039D03*
X04982Y01901D03*
X04913Y01763D03*
X04982Y01625D03*
X04913Y01212D03*
X04844Y02728D03*
Y01901D03*
X04775Y01763D03*
Y01212D03*
X04706Y02728D03*
Y01901D03*
X04637Y01763D03*
X04706Y01625D03*
Y0135D03*
X04637Y01212D03*
X04568Y02728D03*
X04499Y0259D03*
Y02039D03*
X04568Y01901D03*
X04499Y01488D03*
X04568Y0135D03*
X0443Y02728D03*
X04362Y0259D03*
X0443Y02177D03*
X04362Y02039D03*
X0443Y01901D03*
Y01625D03*
X04362Y01212D03*
X04293Y02728D03*
X04224Y0259D03*
X04293Y02177D03*
X04224Y02039D03*
Y01763D03*
X04155Y02728D03*
X04086Y0259D03*
Y02039D03*
X04155Y01901D03*
Y01625D03*
M02*