%FSTAX23Y23*%
%MOIN*%
%SFA1B1*%

%IPPOS*%
%ADD16C,0.010000*%
%ADD18C,0.006000*%
%ADD140C,0.008000*%
%ADD148C,0.110236*%
%ADD149C,0.074803*%
%ADD150C,0.060000*%
%ADD151C,0.019685*%
%ADD152C,0.157480*%
%LNmdriver2_control-1*%
%LPD*%
G36*
X04392Y0327D02*
X04389Y03267D01*
X04352*
X0435Y03271*
X04353Y03276*
X04355Y03285*
Y03295*
X04353Y03303*
X04348Y03311*
X04342Y03318*
X04334Y03323*
X04325Y03325*
X04316*
X04307Y03323*
X04299Y03318*
X04292Y03311*
X04288Y03303*
X04285Y03295*
Y03285*
X04288Y03276*
X04291Y03271*
X04289Y03267*
X04252*
X0425Y03271*
X04253Y03276*
X04255Y03285*
Y03295*
X04253Y03303*
X04248Y03311*
X04242Y03318*
X04234Y03323*
X04225Y03325*
X04216*
X04207Y03323*
X04199Y03318*
X04192Y03311*
X04188Y03303*
X04185Y03295*
Y03285*
X04188Y03276*
X04191Y03271*
X04189Y03267*
X0409*
X04087Y0327*
X04087Y03272*
Y03281*
X04085Y0329*
X04081Y03298*
X04074Y03304*
X04066Y03309*
X04057Y03311*
X04048*
X04039Y03309*
X04031Y03304*
X04024Y03298*
X0402Y0329*
X04017Y03281*
Y03272*
X04018Y0327*
X04015Y03267*
X03245*
Y03272*
X03242Y03277*
X03238Y03282*
X03233Y03284*
X03227*
X03221Y03282*
X03217Y03277*
X03215Y03272*
Y03267*
X032*
X03197Y03271*
X03199Y03274*
Y0328*
X03196Y03286*
X03192Y0329*
X03187Y03292*
X03181*
X03178Y03291*
X03174Y03294*
Y03453*
X03178Y03458*
X03181Y03463*
Y03469*
X03178Y03474*
X03174Y03478*
X03169Y03481*
X03163*
X03157Y03478*
X03153Y03474*
X03151Y03469*
Y03463*
X03153Y03458*
X03156Y03455*
Y03282*
X03152Y03281*
X03149Y03284*
X03143Y03286*
X03137*
X03132Y03284*
X03128Y0328*
X03125Y03275*
Y03269*
X03124Y03267*
X02986*
X02985Y03271*
X02987Y03276*
Y03282*
X02984Y03287*
X0298Y03291*
X02975Y03294*
X02969*
X02963Y03291*
X02961Y03289*
X02958Y03288*
X02955Y03289*
X02953Y03291*
X02947Y03294*
X02941*
X02936Y03291*
X02932Y03287*
X02931Y03287*
X02927*
X02927Y03287*
X02923Y03291*
X02918Y03294*
X02912*
X02906Y03291*
X02902Y03287*
X029Y03282*
Y03276*
X02902Y03271*
X029Y03267*
X02895*
X02893Y0327*
X02894Y03272*
Y03278*
X02891Y03283*
X02887Y03287*
X02882Y0329*
X02876*
X0287Y03287*
X02866Y03283*
X02864Y03279*
X02861Y03278*
X0286Y03278*
X02859Y0328*
X02855Y03284*
X0285Y03287*
X02844*
X02838Y03284*
X02834Y0328*
X02832Y03275*
Y03269*
X02831Y03267*
X02819*
Y03297*
X02821Y03299*
X02825*
X02831Y03302*
X02835Y03306*
X02837Y03311*
Y03317*
X02835Y03323*
X02831Y03327*
X02825Y03329*
X02819*
X02814Y03327*
X0281Y03323*
X02807Y03317*
Y03311*
X02808Y0331*
X02805Y03307*
X02803Y03304*
X02802Y03301*
Y03267*
X02786*
X02784Y0327*
Y03276*
X02782Y03281*
X02778Y03285*
X02773Y03287*
X02771Y03291*
X0278Y033*
X0278Y03299*
X02786*
X02791Y03302*
X02795Y03306*
X02798Y03311*
Y03317*
X02795Y03323*
X02791Y03327*
X02786Y03329*
X0278*
X02774Y03327*
X0277Y03323*
X02768Y03317*
Y03311*
X02768Y03311*
X02742Y03285*
X02738Y03284*
X02736Y03286*
X02731Y03289*
X02725*
X02719Y03286*
X02715Y03282*
X02713Y03277*
Y03271*
X02713Y0327*
X02711Y03267*
X02693*
X02692Y03271*
X02729Y03308*
X02731Y03306*
X02737Y03303*
X02742*
X02748Y03306*
X02752Y0331*
X02754Y03315*
Y03321*
X02752Y03327*
X02748Y03331*
X02742Y03333*
X02737*
X02731Y03331*
X02727Y03327*
X02727Y03326*
X02725Y03326*
X02722Y03324*
X02719Y03321*
X02715Y03322*
X02713Y03327*
X02709Y03331*
X02703Y03333*
X02697*
X02692Y03331*
X02688Y03327*
X02685Y03321*
Y03317*
X02684Y03315*
X0268Y03317*
X0268Y03317*
Y03317*
X02677Y03323*
X02673Y03327*
X02668Y03329*
X02662*
X02656Y03327*
X02652Y03323*
X0265Y03317*
Y03311*
X0265Y03311*
X02633Y03294*
X0263Y03296*
Y03306*
X0263Y03306*
X02634Y0331*
X02636Y03315*
Y03321*
X02634Y03327*
X0263Y03331*
X02624Y03333*
X02618*
X02613Y03331*
X02609Y03327*
X02607Y03321*
Y03315*
X02609Y0331*
X02613Y03306*
X02613Y03306*
Y03267*
X02606*
Y03298*
X02606*
X02606Y03301*
X02604Y03304*
X02597Y03311*
X02597Y03311*
Y03317*
X02595Y03323*
X0259Y03327*
X02585Y03329*
X02579*
X02574Y03327*
X02569Y03323*
X02567Y03317*
Y03311*
X02567Y03311*
X02564Y03308*
X02557Y03315*
X02557Y03315*
Y03321*
X02555Y03327*
X02551Y03331*
X02546Y03333*
X0254*
X02534Y03331*
X0253Y03327*
X02528Y03321*
Y03315*
X0253Y0331*
X02534Y03306*
X0254Y03303*
X02546*
X02546Y03304*
X0256Y0329*
X02558Y03286*
X02556*
X0255Y03283*
X02546Y03279*
X02544Y03274*
Y03268*
X02543Y03267*
X02535*
X02535Y03267*
Y03273*
X02532Y03279*
X02528Y03283*
X02523Y03285*
X02517*
X02511Y03283*
X02507Y03279*
X02505Y03273*
Y03267*
X02505Y03267*
X01869*
X01763Y03161*
Y02688*
X01488*
Y03161*
X01859Y03532*
X02424*
X02424Y03528*
X02424Y03528*
X0242Y03524*
X02418Y03518*
Y03514*
X02416Y03511*
X02414Y0351*
X0241*
X02404Y03508*
X024Y03504*
X02398Y03498*
Y03492*
X024Y03487*
X02404Y03483*
X0241Y03481*
X02416*
X02421Y03483*
X02425Y03487*
X02428Y03492*
Y03497*
X02429Y03499*
X02431Y035*
X02435*
X02441Y03503*
X02445Y03507*
X02447Y03512*
Y03518*
X02445Y03524*
X02441Y03528*
X0244Y03528*
X02441Y03532*
X02531*
X02532Y03528*
X02536Y03524*
X02542Y03522*
X02546*
X02549Y03519*
X02549Y03518*
X02548Y03515*
Y03509*
X0255Y03503*
X02554Y03499*
X0256Y03497*
X02566*
X02571Y03499*
X02575Y03503*
X02577Y03509*
Y03515*
X02575Y0352*
X02571Y03524*
X02566Y03527*
X02564*
X02561Y03531*
X02561Y03532*
X02562Y03532*
X02594*
X02596Y03528*
X02593Y03525*
X02591Y0352*
Y03514*
X02593Y03508*
X02597Y03504*
X02602Y03502*
X02608*
X02614Y03504*
X02618Y03508*
X0262Y03514*
Y0352*
X02618Y03525*
X02615Y03528*
X02617Y03532*
X02634*
X02635Y03528*
X02635Y03528*
X0263Y03524*
X02628Y03518*
Y03512*
X0263Y03507*
X02635Y03503*
X0264Y035*
X02646*
X02651Y03503*
X02656Y03507*
X02658Y03512*
Y03518*
X02656Y03524*
X02651Y03528*
X02651Y03528*
X02652Y03532*
X0267*
X0267Y03532*
X02671Y03528*
X02668Y03524*
X02666Y03519*
Y03513*
X02668Y03508*
X02672Y03503*
X02677Y03501*
X02683*
X02689Y03503*
X02693Y03508*
X02695Y03513*
Y03519*
X02693Y03524*
X0269Y03528*
X02691Y03532*
X02691Y03532*
X02714*
X02715Y03528*
X02712Y03527*
X02708Y03523*
X02706Y03517*
Y03511*
X02708Y03506*
X02712Y03502*
X02718Y03499*
X02724*
X02729Y03502*
X02733Y03506*
X02736Y03511*
Y03517*
X02733Y03523*
X02729Y03527*
X02726Y03528*
X02727Y03532*
X02754*
X02755Y03528*
X02752Y03527*
X02748Y03523*
X02745Y03517*
Y03511*
X02748Y03506*
X02752Y03502*
X02757Y03499*
X02763*
X02769Y03502*
X02773Y03506*
X02775Y03511*
Y03517*
X02773Y03523*
X02769Y03527*
X02766Y03528*
X02767Y03532*
X02794*
X02795Y03528*
X02794Y03527*
X0279Y03523*
X02788Y03518*
Y03512*
X0279Y03506*
X02794Y03502*
X028Y035*
X02805*
X02811Y03502*
X02815Y03506*
X02817Y03512*
Y03518*
X02815Y03523*
X02811Y03527*
X0281Y03528*
X02811Y03532*
X0439*
X04392Y0327*
G37*
%LNmdriver2_control-2*%
%LPC*%
G36*
X0402Y0351D02*
X04014D01*
X04008Y03507*
X04004Y03503*
X04004Y03503*
X04*
X04Y03503*
X03996Y03507*
X0399Y0351*
X03984*
X03979Y03507*
X03975Y03503*
X03974Y03503*
X0397*
X0397Y03503*
X03966Y03507*
X03961Y0351*
X03955*
X03949Y03507*
X03945Y03503*
X03943Y03498*
Y03492*
X03945Y03486*
X03949Y03482*
X03955Y0348*
X03961*
X03966Y03482*
X0397Y03486*
X0397Y03487*
X03974*
X03975Y03486*
X03979Y03482*
X03984Y0348*
X0399*
X03996Y03482*
X04Y03486*
X04Y03487*
X04004*
X04004Y03486*
X04008Y03482*
X04014Y0348*
X0402*
X04025Y03482*
X04029Y03486*
X04032Y03492*
Y03498*
X04029Y03503*
X04025Y03507*
X0402Y0351*
G37*
G36*
X0214Y0351D02*
X02134D01*
X02129Y03508*
X02125Y03504*
X02122Y03498*
Y03492*
X02125Y03487*
X02129Y03483*
X02134Y03481*
X0214*
X02146Y03483*
X0215Y03487*
X02152Y03492*
Y03498*
X0215Y03504*
X02146Y03508*
X0214Y0351*
G37*
G36*
X025Y0352D02*
X02494D01*
X02489Y03517*
X02484Y03513*
X02482Y03508*
Y03504*
X0248Y03501*
X02478Y03501*
X02474*
X02468Y03498*
X02464Y03494*
X02462Y03489*
Y03483*
X02464Y03477*
X02468Y03474*
X02468Y03473*
X02466Y0347*
X02466Y0347*
X02464Y03471*
X02458*
X02453Y03469*
X02448Y03464*
X02446Y03459*
Y03453*
X02448Y03448*
X02453Y03443*
X02458Y03441*
X02464*
X02469Y03443*
X02473Y03448*
X02476Y03453*
Y03459*
X02473Y03464*
X0247Y03468*
X02469Y03469*
X02471Y03472*
X02472Y03472*
X02474Y03471*
X0248*
X02485Y03473*
X02489Y03477*
X02491Y03483*
Y03487*
X02494Y03489*
X02495Y0349*
X025*
X02505Y03492*
X0251Y03496*
X02512Y03502*
Y03508*
X0251Y03513*
X02505Y03517*
X025Y0352*
G37*
G36*
X02853Y035D02*
X02847D01*
X02842Y03498*
X02837Y03494*
X02835Y03489*
Y03483*
X02837Y03477*
X02842Y03473*
X02847Y03471*
X02853*
X02858Y03473*
X02863Y03477*
X02865Y03483*
Y03489*
X02863Y03494*
X02858Y03498*
X02853Y035*
G37*
G36*
X0405Y03471D02*
X04044D01*
X04038Y03469*
X04034Y03464*
X04034Y03464*
X04029*
X04029Y03464*
X04025Y03468*
X0402Y0347*
X04014*
X04008Y03468*
X04004Y03464*
X04004Y03463*
X04*
X04Y03464*
X03996Y03468*
X0399Y0347*
X03984*
X03979Y03468*
X03975Y03464*
X03974Y03463*
X0397*
X0397Y03464*
X03966Y03468*
X03961Y0347*
X03955*
X03949Y03468*
X03945Y03464*
X03943Y03458*
Y03452*
X03945Y03447*
X03949Y03443*
X03955Y03441*
X03961*
X03966Y03443*
X0397Y03447*
X0397Y03447*
X03974*
X03975Y03447*
X03979Y03443*
X03984Y03441*
X0399*
X03996Y03443*
X04Y03447*
X04Y03447*
X04004*
X04004Y03447*
X04008Y03443*
X04014Y03441*
X0402*
X04025Y03443*
X04029Y03447*
X0403Y03448*
X04034*
X04034Y03448*
X04038Y03443*
X04044Y03441*
X0405*
X04055Y03443*
X04059Y03448*
X04061Y03453*
Y03459*
X04059Y03464*
X04055Y03469*
X0405Y03471*
G37*
G36*
X02081Y0351D02*
X02075D01*
X0207Y03508*
X02066Y03504*
X02063Y03498*
Y03492*
X02066Y03487*
X0207Y03483*
X02075Y03481*
X02079*
X02082Y03479*
X02083Y03477*
Y03473*
X02085Y03467*
X02089Y03463*
X02095Y03461*
X02101*
X02106Y03463*
X0211Y03467*
X02113Y03473*
Y03479*
X0211Y03484*
X02106Y03488*
X02101Y03491*
X02096*
X02094Y03492*
X02093Y03494*
Y03498*
X02091Y03504*
X02086Y03508*
X02081Y0351*
G37*
G36*
X03832Y03476D02*
X03827D01*
X03821Y03474*
X03817Y0347*
X03815Y03465*
Y03459*
X03817Y03453*
X03821Y03449*
X03827Y03447*
X03832*
X03838Y03449*
X03842Y03453*
X03844Y03459*
Y03465*
X03842Y0347*
X03838Y03474*
X03832Y03476*
G37*
G36*
X03811Y03444D02*
X03805D01*
X03799Y03442*
X03795Y03437*
X03793Y03432*
Y03426*
X03795Y03421*
X03799Y03416*
X03805Y03414*
X03811*
X03816Y03416*
X0382Y03421*
X03823Y03426*
Y03432*
X0382Y03437*
X03816Y03442*
X03811Y03444*
G37*
G36*
X03643Y03441D02*
X03637D01*
X03632Y03439*
X03627Y03435*
X03625Y0343*
Y03424*
X03627Y03418*
X03632Y03414*
X03637Y03412*
X03643*
X03648Y03414*
X03653Y03418*
X03655Y03424*
Y0343*
X03653Y03435*
X03648Y03439*
X03643Y03441*
G37*
G36*
X03131Y03427D02*
X03125D01*
X0312Y03425*
X03116Y03421*
X03114Y03416*
Y0341*
X03116Y03404*
X0312Y034*
X03125Y03398*
X03131*
X03137Y034*
X03141Y03404*
X03143Y0341*
Y03416*
X03141Y03421*
X03137Y03425*
X03131Y03427*
G37*
G36*
X02788Y03427D02*
X02782D01*
X02776Y03424*
X02772Y0342*
X0277Y03415*
Y03409*
X02772Y03403*
X02776Y03399*
X02782Y03397*
X02788*
X02793Y03399*
X02797Y03403*
X028Y03409*
Y03415*
X02797Y0342*
X02793Y03424*
X02788Y03427*
G37*
G36*
X02744Y03426D02*
X02739D01*
X02733Y03424*
X02729Y0342*
X02727Y03414*
Y03408*
X02729Y03403*
X02733Y03399*
X02739Y03396*
X02744*
X0275Y03399*
X02754Y03403*
X02756Y03408*
Y03414*
X02754Y0342*
X0275Y03424*
X02744Y03426*
G37*
G36*
X02705D02*
X02699D01*
X02694Y03424*
X0269Y0342*
X02687Y03414*
Y03408*
X0269Y03403*
X02694Y03399*
X02699Y03396*
X02705*
X02711Y03399*
X02715Y03403*
X02717Y03408*
Y03414*
X02715Y0342*
X02711Y03424*
X02705Y03426*
G37*
G36*
X02666D02*
X0266D01*
X02654Y03424*
X0265Y0342*
X02648Y03414*
Y03408*
X0265Y03403*
X02654Y03399*
X0266Y03396*
X02666*
X02671Y03399*
X02675Y03403*
X02678Y03408*
Y03414*
X02675Y0342*
X02671Y03424*
X02666Y03426*
G37*
G36*
X02587D02*
X02581D01*
X02576Y03424*
X02571Y0342*
X02569Y03414*
Y03408*
X02571Y03403*
X02576Y03399*
X02581Y03396*
X02587*
X02592Y03399*
X02597Y03403*
X02599Y03408*
Y03414*
X02597Y0342*
X02592Y03424*
X02587Y03426*
G37*
G36*
X02548D02*
X02542D01*
X02536Y03424*
X02532Y0342*
X0253Y03414*
Y03408*
X02532Y03403*
X02536Y03399*
X02542Y03396*
X02548*
X02553Y03399*
X02557Y03403*
X02559Y03408*
Y03414*
X02557Y0342*
X02553Y03424*
X02548Y03426*
G37*
G36*
X02626Y03426D02*
X0262D01*
X02615Y03424*
X02611Y0342*
X02609Y03414*
Y03408*
X02611Y03403*
X02615Y03399*
X0262Y03396*
X02626*
X02632Y03399*
X02636Y03403*
X02638Y03408*
Y03414*
X02636Y0342*
X02632Y03424*
X02626Y03426*
G37*
G36*
X02827Y03424D02*
X02821D01*
X02816Y03422*
X02812Y03418*
X02809Y03412*
Y03406*
X02812Y03401*
X02816Y03397*
X02821Y03394*
X02827*
X02833Y03397*
X02837Y03401*
X02839Y03406*
Y03412*
X02837Y03418*
X02833Y03422*
X02827Y03424*
G37*
G36*
X02887Y03424D02*
X02881D01*
X02876Y03422*
X02872Y03418*
X02869Y03412*
Y03406*
X02872Y03401*
X02876Y03397*
X02881Y03394*
X02887*
X02893Y03397*
X02897Y03401*
X02899Y03406*
Y03412*
X02897Y03418*
X02893Y03422*
X02887Y03424*
G37*
G36*
X03449Y03412D02*
X03443D01*
X03437Y0341*
X03433Y03406*
X03431Y034*
Y03394*
X03433Y03389*
X03437Y03385*
X03443Y03383*
X03449*
X03454Y03385*
X03458Y03389*
X03461Y03394*
Y034*
X03458Y03406*
X03454Y0341*
X03449Y03412*
G37*
G36*
X03884Y03385D02*
X03878D01*
X03872Y03382*
X03868Y03378*
X03866Y03373*
Y03367*
X03868Y03361*
X03872Y03357*
X03878Y03355*
X03884*
X03889Y03357*
X03893Y03361*
X03895Y03367*
Y03373*
X03893Y03378*
X03889Y03382*
X03884Y03385*
G37*
G36*
X03682Y03374D02*
X03676D01*
X03671Y03372*
X03667Y03367*
X03664Y03362*
Y03356*
X03667Y03351*
X03671Y03346*
X03676Y03344*
X03682*
X03688Y03346*
X03692Y03351*
X03694Y03356*
Y03362*
X03692Y03367*
X03688Y03372*
X03682Y03374*
G37*
G36*
X04057Y03411D02*
X04048D01*
X04039Y03409*
X04031Y03404*
X04024Y03398*
X0402Y0339*
X04017Y03381*
Y03372*
X0402Y03363*
X04024Y03355*
X04031Y03348*
X04039Y03344*
X04048Y03341*
X04057*
X04066Y03344*
X04074Y03348*
X04081Y03355*
X04085Y03363*
X04087Y03372*
Y03381*
X04085Y0339*
X04081Y03398*
X04074Y03404*
X04066Y03409*
X04057Y03411*
G37*
G36*
X03132Y03364D02*
X03126D01*
X03121Y03362*
X03117Y03358*
X03115Y03353*
Y03347*
X03117Y03341*
X03121Y03337*
X03126Y03335*
X03132*
X03138Y03337*
X03142Y03341*
X03144Y03347*
Y03353*
X03142Y03358*
X03138Y03362*
X03132Y03364*
G37*
G36*
X03553Y03364D02*
X03548D01*
X03542Y03362*
X03538Y03358*
X03536Y03352*
Y03346*
X03538Y03341*
X03542Y03337*
X03548Y03334*
X03553*
X03559Y03337*
X03563Y03341*
X03565Y03346*
Y03352*
X03563Y03358*
X03559Y03362*
X03553Y03364*
G37*
G36*
X0289Y03363D02*
X02884D01*
X02879Y03361*
X02875Y03357*
X02872Y03351*
Y03345*
X02875Y0334*
X02879Y03336*
X02884Y03334*
X0289*
X02896Y03336*
X029Y0334*
X02902Y03345*
Y03351*
X029Y03357*
X02896Y03361*
X0289Y03363*
G37*
G36*
X03881Y03348D02*
X03875D01*
X0387Y03346*
X03866Y03341*
X03863Y03336*
Y0333*
X03866Y03325*
X0387Y0332*
X03875Y03318*
X03881*
X03887Y0332*
X03891Y03325*
X03893Y0333*
Y03336*
X03891Y03341*
X03887Y03346*
X03881Y03348*
G37*
G36*
X03079Y0333D02*
X03073D01*
X03068Y03328*
X03064Y03323*
X03062Y03318*
Y03312*
X03064Y03307*
X03068Y03302*
X03073Y033*
X03079*
X03085Y03302*
X03089Y03307*
X03091Y03312*
Y03318*
X03089Y03323*
X03085Y03328*
X03079Y0333*
G37*
G36*
X02995Y03325D02*
X02989D01*
X02984Y03323*
X0298Y03319*
X02977Y03313*
Y03307*
X0298Y03302*
X02984Y03298*
X02989Y03295*
X02993*
X02996Y03292*
X02996Y03292*
X02995Y03289*
Y03283*
X02997Y03278*
X03002Y03274*
X03007Y03271*
X03013*
X03018Y03274*
X03023Y03278*
X03025Y03283*
Y03289*
X03028Y0329*
X03031Y03287*
Y03284*
X03034Y03278*
X03038Y03274*
X03043Y03272*
X03049*
X03055Y03274*
X03059Y03278*
X03061Y03284*
Y0329*
X03059Y03295*
X03055Y03299*
X03049Y03301*
X03047*
X03044Y03305*
Y03311*
X03042Y03316*
X03038Y0332*
X03032Y03322*
X03026*
X03021Y0332*
X03017Y03316*
X03014Y03311*
Y03305*
X03012Y03302*
X03008Y03302*
X03006Y03305*
X03007Y03307*
Y03313*
X03005Y03319*
X03001Y03323*
X02995Y03325*
G37*
G36*
X01645Y02822D02*
X01639D01*
X01633Y0282*
X01629Y02816*
X01627Y0281*
Y02804*
X01629Y02799*
X01633Y02795*
X01639Y02792*
X01645*
X0165Y02795*
X01654Y02799*
X01656Y02803*
X0166Y02802*
X01662Y02798*
X01666Y02794*
X01672Y02792*
X01677*
X01683Y02794*
X01687Y02798*
X01687Y02798*
X01691*
X01691Y02798*
X01693Y02796*
X01696Y02794*
X01693Y02791*
X01691Y02789*
X01689Y02784*
Y02778*
X01691Y02773*
X01696Y02768*
X01701Y02766*
X01707*
X01712Y02768*
X01717Y02773*
X01719Y02778*
Y02784*
X01717Y02789*
X01715Y02791*
X01713Y02794*
X01715Y02796*
X01717Y02798*
X01719Y02803*
Y02809*
X01717Y02815*
X01712Y02819*
X01707Y02821*
X01701*
X01696Y02819*
X01691Y02815*
X01691Y02814*
X01687*
X01687Y02815*
X01683Y02819*
X01677Y02821*
X01672*
X01666Y02819*
X01662Y02815*
X0166Y02811*
X01656Y02811*
X01654Y02816*
X0165Y0282*
X01645Y02822*
G37*
G36*
X01673Y02724D02*
X01667D01*
X01662Y02722*
X01657Y02718*
X01657Y02717*
X01653*
X01653Y02718*
X01649Y02722*
X01643Y02724*
X01638*
X01632Y02722*
X01628Y02718*
X01626Y02712*
Y02707*
X01628Y02701*
X01632Y02697*
X01638Y02695*
X01643*
X01649Y02697*
X01653Y02701*
X01653Y02702*
X01657*
X01657Y02701*
X01662Y02697*
X01667Y02695*
X01673*
X01678Y02697*
X01683Y02701*
X01685Y02707*
Y02712*
X01683Y02718*
X01678Y02722*
X01673Y02724*
G37*
G36*
X01707Y02758D02*
X01701D01*
X01696Y02756*
X01691Y02752*
X01689Y02746*
Y0274*
X01691Y02735*
X01693Y02733*
X01696Y02731*
X01693Y02728*
X01691Y02726*
X01689Y02721*
Y02715*
X01691Y02709*
X01696Y02705*
X01701Y02703*
X01707*
X01712Y02705*
X01717Y02709*
X01719Y02715*
Y02721*
X01717Y02726*
X01715Y02728*
X01713Y02731*
X01715Y02733*
X01717Y02735*
X01719Y0274*
Y02746*
X01717Y02752*
X01712Y02756*
X01707Y02758*
G37*
%LNmdriver2_control-3*%
%LPD*%
G54D16*
X01689Y01654D02*
X01793Y01758D01*
X01818Y02156D02*
X0193Y02268D01*
X01793Y01758D02*
Y02166D01*
X0192Y02293*
X017Y01629D02*
X01818Y01748D01*
Y02156*
X03311Y01949D02*
X03499D01*
X03503Y01945*
X03529*
X02243Y01023D02*
Y01474D01*
X02071Y01463D02*
X02152D01*
X01873Y01266D02*
X02071Y01463D01*
X01873Y00796D02*
Y01266D01*
X03061Y0197D02*
X03066Y01974D01*
Y01977*
X03061Y01922D02*
Y0197D01*
X03124Y0135D02*
X04482D01*
X04492Y01375D02*
X04603Y01264D01*
X02689Y01785D02*
X03124Y0135D01*
X02715Y01795D02*
X03134Y01375D01*
X04482Y0135D02*
X04593Y01239D01*
X03134Y01375D02*
X04492D01*
X03164Y02182D02*
X03368Y01979D01*
X03164Y02182D02*
Y02209D01*
X03368Y01979D02*
X03572D01*
X03163Y0221D02*
X03164Y02209D01*
X03572Y01979D02*
X03751Y018D01*
X0379Y01832D02*
Y01833D01*
X03617Y02005D02*
X0379Y01833D01*
X03385Y02005D02*
X03617D01*
X03187Y02203D02*
X03385Y02005D01*
X05227Y01264D02*
X05418Y01074D01*
X04603Y01264D02*
X05227D01*
X02689Y01827D02*
X02689Y01827D01*
X05418Y01013D02*
X05418Y01014D01*
X04593Y01239D02*
X05217D01*
X02689Y01785D02*
Y01827D01*
X04631Y01015D02*
Y01066D01*
X02715Y01828D02*
X02715Y01828D01*
X05217Y01239D02*
X05393Y01063D01*
X02616Y01761D02*
Y01827D01*
X02715Y01795D02*
Y01828D01*
X05393Y01015D02*
Y01063D01*
X05418Y01014D02*
Y01074D01*
X05392Y01014D02*
X05393Y01015D01*
X02616Y01761D02*
X03074Y01304D01*
X04393*
X04631Y01015D02*
X04631Y01015D01*
X04393Y01304D02*
X04631Y01066D01*
X03092Y02168D02*
Y02202D01*
Y02168D02*
X03311Y01949D01*
X02591Y01751D02*
X03063Y01279D01*
X04382D02*
X04606Y01055D01*
X03063Y01279D02*
X04382D01*
X04606Y01015D02*
X04606Y01015D01*
Y01055*
X03817Y01011D02*
Y0106D01*
X03843Y01011D02*
Y01069D01*
X03751Y01161D02*
X03843Y01069D01*
X03741Y01136D02*
X03817Y0106D01*
X02375Y01692D02*
X03028Y01039D01*
Y01019D02*
Y01039D01*
X03057Y01014D02*
X03057Y01015D01*
Y01045*
X03028Y01019D02*
X0303Y01017D01*
X024Y01702D02*
X03057Y01045D01*
X02375Y01692D02*
Y01894D01*
X00693Y01995D02*
Y02048D01*
X00667Y01995D02*
Y02058D01*
X00693Y02048D02*
X00846Y02201D01*
X00667Y02058D02*
X00836Y02226D01*
X00667Y01039D02*
Y0106D01*
X00669Y01015D02*
X0067Y01013D01*
X00667Y01039D02*
X00669Y01038D01*
X00695Y01014D02*
X00696Y01013D01*
X00695Y01014D02*
Y01052D01*
X00669Y01015D02*
Y01038D01*
X00695Y01052D02*
X0071Y01067D01*
X0148Y01331D02*
X01883Y01735D01*
Y02065D02*
X0199Y02172D01*
X01459Y01023D02*
Y0103D01*
X02004Y02172D02*
X02004Y02172D01*
X01459Y0103D02*
Y0134D01*
X02011Y02172D02*
X02013Y0217D01*
X01863Y01743D02*
Y02074D01*
X02004Y02193D02*
X02011D01*
X0148Y01023D02*
X01482Y01021D01*
X01982Y02193D02*
X02004D01*
X02004Y02193*
X02011D02*
X02013Y02195D01*
X01863Y02074D02*
X01982Y02193D01*
X0148Y0103D02*
X0148Y0103D01*
X01459Y0134D02*
X01863Y01743D01*
X02004Y02172D02*
X02011D01*
X0148Y01023D02*
Y0103D01*
X0199Y02172D02*
X02004D01*
X01883Y01735D02*
Y02065D01*
X01459Y0103D02*
X01459Y0103D01*
X01457Y01021D02*
X01459Y01023D01*
X0148Y0103D02*
Y01331D01*
X02243Y01023D02*
X02244Y01021D01*
X02268Y01023D02*
Y01484D01*
Y01023D02*
X02269Y01021D01*
X02474Y01892D02*
X02474Y01892D01*
X02499Y01758D02*
Y01892D01*
X025Y01893*
X02474Y01748D02*
Y01892D01*
X02175Y0075D02*
X02965D01*
X01919D02*
X02175D01*
Y00855D02*
X02177Y00857D01*
X02175Y0075D02*
Y00855D01*
X02965Y0075D02*
X03752D01*
X02965Y0086D02*
X02967Y00862D01*
X02965Y0075D02*
Y0086D01*
X03752Y0075D02*
X04541D01*
X03752Y00857D02*
X03754Y00859D01*
X03752Y0075D02*
Y00857D01*
X04541Y0075D02*
X05308D01*
X04541D02*
Y00856D01*
X0533Y00772D02*
Y0086D01*
X05308Y0075D02*
X0533Y00772D01*
X01873Y00796D02*
X01919Y0075D01*
X01396Y00751D02*
X01829D01*
X00606D02*
X01396D01*
X01395Y00857D02*
X01396Y00856D01*
Y00751D02*
Y00856D01*
X00512Y00751D02*
X00606D01*
Y00859*
X00603Y01783D02*
X01393D01*
X00489D02*
X00603D01*
Y01825*
X01393Y01783D02*
Y01846D01*
X00414Y01708D02*
X00489Y01783D01*
X00414Y0085D02*
Y01708D01*
Y0085D02*
X00512Y00751D01*
X01829D02*
X01873Y00796D01*
X021Y01652D02*
Y01958D01*
X02075Y01642D02*
Y01968D01*
Y01642D02*
X02243Y01474D01*
X021Y01652D02*
X02268Y01484D01*
X021Y01958D02*
X02122Y0198D01*
X02075Y01968D02*
X02104Y01998D01*
X01852Y0249D02*
X02011D01*
X01765Y02403D02*
X0178Y02417D01*
X01765Y0237D02*
Y02403D01*
X0178Y02417D02*
D01*
X0179Y02392D02*
X01862Y02465D01*
X02011D01*
X01837Y02475D02*
X01852Y0249D01*
X0178Y02417D02*
X01837Y02475D01*
X0179Y02392D02*
D01*
X01862Y02465D02*
D01*
X0179Y02359D02*
Y02392D01*
X01837Y02475D02*
Y02475D01*
X01632Y02201D02*
X0179Y02359D01*
X01621Y02226D02*
X01765Y0237D01*
X024Y01702D02*
Y01894D01*
X02591Y01751D02*
Y01827D01*
X02474Y01748D02*
X03071Y01151D01*
X03096Y01161D02*
X03751D01*
X01525Y02121D02*
X01636D01*
X01456Y01841D02*
Y02052D01*
X01525Y02121*
X01481Y01841D02*
Y02042D01*
X01535Y02096*
X01839Y02392D02*
X02012D01*
X01815Y02368D02*
X01839Y02392D01*
X01849Y02367D02*
X02011D01*
X00836Y02226D02*
X01621D01*
X00667Y0106D02*
X007Y01092D01*
X01958Y02267D02*
X0201D01*
X0192Y02293D02*
X01968D01*
X01968Y02292D02*
X0201D01*
X007Y01092D02*
X01018D01*
X0071Y01067D02*
X01029D01*
X0184Y02358D02*
X01849Y02367D01*
X01815Y023D02*
Y02368D01*
X01957Y02268D02*
X01958Y02267D01*
X0193Y02268D02*
X01957D01*
X01968Y02293D02*
X01968Y02292D01*
X02499Y01758D02*
X03096Y01161D01*
X03086Y01136D02*
X03741D01*
X03096Y01161D02*
D01*
X03071Y01151D02*
X03086Y01136D01*
X03071Y01151D02*
D01*
X01646Y02096D02*
X0184Y0229D01*
X01636Y02121D02*
X01815Y023D01*
X0184Y0229D02*
Y02358D01*
X0133Y01654D02*
X01689D01*
X01135Y0146D02*
X0133Y01654D01*
X0134Y01629D02*
X017D01*
X0116Y01449D02*
X0134Y01629D01*
X0116Y01199D02*
Y01449D01*
X01018Y01092D02*
X01135Y01209D01*
X01029Y01067D02*
X0116Y01199D01*
X01135Y01209D02*
Y0146D01*
X01535Y02096D02*
X01646D01*
X00846Y02201D02*
X01632D01*
G54D18*
X02925Y03973D02*
X03004Y03893D01*
X01842Y03973D02*
X02925D01*
X01898Y04591D02*
X04975D01*
X04991Y04608*
X01924Y04647D02*
X04706D01*
X04987Y05498D02*
X05001Y05484D01*
X01955Y05498D02*
X04987D01*
X01954Y05497D02*
X01955Y05498D01*
X02329Y03093D02*
X02358D01*
X02426Y03015D02*
X02429Y03012D01*
X02426Y03015D02*
Y03024D01*
X02358Y03093D02*
X02426Y03024D01*
X03134Y03036D02*
Y03077D01*
X03133Y03002D02*
Y03035D01*
X03127Y03084D02*
X03134Y03077D01*
X03133Y03035D02*
X03134Y03036D01*
X03092Y0323D02*
X03127Y03194D01*
Y03084D02*
Y03194D01*
X02528Y0212D02*
X02597Y02188D01*
X02528Y01991D02*
Y0212D01*
Y01991D02*
X02554Y01965D01*
X02693Y02199D02*
X02694Y02198D01*
Y02109D02*
Y02198D01*
X02614Y02194D02*
Y02198D01*
X02617Y02201*
X02609Y02189D02*
X02614Y02194D01*
X02609Y01958D02*
Y02189D01*
X02642Y02094D02*
Y02209D01*
Y02094D02*
X02649Y02087D01*
Y01976D02*
Y02087D01*
X02479Y02243D02*
X02536D01*
X02557Y02222*
X02266Y0232D02*
Y02321D01*
X02248Y02364D02*
X0228Y02332D01*
X02247Y02302D02*
X02266Y0232D01*
X0228Y02332D02*
X02359D01*
X0214Y02364D02*
X02248D01*
X03092Y0323D02*
X03092D01*
X02755Y01918D02*
Y01941D01*
X02685Y0201D02*
Y021D01*
Y0201D02*
X02755Y01941D01*
X0248Y02091D02*
X02482Y02094D01*
X0248Y02008D02*
Y02091D01*
X02676Y03077D02*
X02676Y03076D01*
X02676Y03077D02*
Y03266D01*
X02634Y03284D02*
X02665Y03314D01*
X02634Y03076D02*
Y03284D01*
X02616Y03204D02*
X02621Y03209D01*
X02616Y03093D02*
X02616Y03093D01*
X02621Y03209D02*
Y03318D01*
X02616Y03093D02*
Y03204D01*
X02598Y03076D02*
Y03298D01*
X02598Y03076D02*
X02598Y03076D01*
X02582Y03314D02*
X02598Y03298D01*
X02578Y03097D02*
X0258Y03094D01*
X02578Y03097D02*
Y03283D01*
X02554Y01913D02*
X02576Y01891D01*
X02554Y01913D02*
Y01965D01*
X02576Y01891D02*
X02752D01*
X0258Y01929D02*
X02609Y01958D01*
X02629Y01956D02*
X02649Y01976D01*
X02597Y02253D02*
X02597Y02253D01*
X02435Y0248D02*
X02597Y02318D01*
Y02253D02*
Y02318D01*
X02597Y02188D02*
Y02253D01*
X02447Y02212D02*
X02479Y02243D01*
X0211Y0248D02*
X02435D01*
X0248Y02008D02*
X02511Y01976D01*
X02359Y02332D02*
X02362Y02335D01*
X02378*
X0238Y02337*
X02404Y02376D02*
X02405Y02375D01*
Y02212D02*
Y02375D01*
Y02212D02*
X02447D01*
X02386D02*
X02405D01*
X02101Y02403D02*
X0214Y02364D01*
X02224Y02302D02*
X02247D01*
X02206Y02319D02*
X02224Y02302D01*
X02115Y02319D02*
X02206D01*
X02101Y02332D02*
X02115Y02319D01*
X02101Y02332D02*
Y02354D01*
X02242Y02068D02*
X02386Y02212D01*
X02242Y01662D02*
Y02068D01*
Y01662D02*
X02339Y01565D01*
Y01413D02*
Y01565D01*
X02685Y021D02*
X02694Y02109D01*
X02068Y02522D02*
X0211Y0248D01*
X01849Y02522D02*
X02068D01*
X01621Y02294D02*
X01849Y02522D01*
X00734Y02294D02*
X01621D01*
X02752Y01891D02*
X02775Y01868D01*
Y0184D02*
Y01868D01*
X02629Y0191D02*
Y01956D01*
X0332Y02622D02*
Y03126D01*
X0332Y03126D02*
X0332Y03126D01*
X03314Y02616D02*
X0332Y02622D01*
X01974Y05467D02*
X02396D01*
X02399Y0547*
X02936*
X02992Y05414*
X03419*
X03267Y02616D02*
X03314D01*
X02747Y03243D02*
Y03279D01*
X02783Y03314*
X02696Y03094D02*
Y03192D01*
X02747Y03243*
X0281Y03301D02*
X02822Y03313D01*
Y03314*
X0281Y03232D02*
Y03301D01*
X02716Y03077D02*
Y03138D01*
X0281Y03232*
X02728Y03318D02*
X0274D01*
X02676Y03266D02*
X02728Y03318D01*
X02657Y03093D02*
Y03275D01*
X027Y03318*
X02543D02*
X02578Y03283D01*
G54D140*
X03237Y02686D02*
Y03075D01*
X03165Y03147D02*
Y03465D01*
Y03147D02*
X03237Y03075D01*
X03165Y03465D02*
X03166Y03466D01*
X03237Y02686D02*
X0325Y02673D01*
X03274Y03177D02*
X03275Y03177D01*
X03478*
X03552Y03103*
X0184Y02551D02*
X02012D01*
X01714Y02426D02*
X0184Y02551D01*
X00832Y02426D02*
X01714D01*
X00763Y02494D02*
X00832Y02426D01*
X00741Y02494D02*
X00763D01*
G54D148*
X05567Y0257D03*
Y0207D03*
G54D149*
X05627Y03532D03*
Y03036D03*
G54D150*
X01383Y02531D03*
X0422Y0329D03*
X0432D03*
Y0339D03*
X04052Y03276D03*
X04118Y02908D03*
X01283Y02531D03*
X04018Y02908D03*
X04052Y03376D03*
G54D151*
X05543Y01783D03*
Y01153D03*
X05385Y00838D03*
X05543Y00523D03*
X05385Y00208D03*
X05228Y01783D03*
X0507Y01468D03*
X05228Y01153D03*
X0507Y00838D03*
X05228Y00523D03*
X0507Y00208D03*
X04913Y01783D03*
Y01153D03*
Y00523D03*
X04598Y01783D03*
X0444Y01468D03*
X04598Y01153D03*
Y00523D03*
X04283Y01783D03*
X04125Y01468D03*
X04283Y01153D03*
X04125Y00838D03*
X04283Y00523D03*
X04125Y00208D03*
X03968Y01783D03*
X0381Y01468D03*
X03968Y01153D03*
X0381Y00838D03*
X03968Y00523D03*
X0381Y00208D03*
X03653Y03673D03*
Y02413D03*
X03495Y02098D03*
X03653Y01783D03*
X03495Y01468D03*
Y00838D03*
X03653Y00523D03*
X03495Y00208D03*
X0318Y02728D03*
Y01468D03*
Y00838D03*
X03338Y00523D03*
X03023Y03043D03*
Y02413D03*
Y01783D03*
Y01153D03*
Y00523D03*
X02551Y02728D03*
X02708Y02413D03*
Y01153D03*
X02551Y00838D03*
X02708Y00523D03*
X02551Y00208D03*
X02236Y02098D03*
X02393Y01153D03*
X02236Y00838D03*
X02393Y00523D03*
X02236Y00208D03*
X01921Y01468D03*
X02078Y01153D03*
X01921Y00838D03*
X02078Y00523D03*
X01921Y00208D03*
X01606Y03358D03*
X01763Y01783D03*
Y01153D03*
Y00523D03*
X01291Y03358D03*
X01448Y03043D03*
X01291Y02098D03*
X01448Y01783D03*
X01291Y01468D03*
X01448Y00523D03*
X00976Y03358D03*
X01133Y03043D03*
X00976Y02098D03*
Y01468D03*
Y00838D03*
X01133Y00523D03*
X00976Y00208D03*
X00661Y03358D03*
X00818Y03043D03*
X00661Y02098D03*
Y01468D03*
Y00838D03*
X00818Y00523D03*
X00661Y00208D03*
X00503Y03673D03*
X00346Y03358D03*
X00503Y03043D03*
X00346Y02728D03*
Y02098D03*
Y01468D03*
Y00838D03*
X00503Y00523D03*
X00346Y00208D03*
X00188Y03673D03*
X00031Y03358D03*
X00188Y03043D03*
X00031Y02728D03*
X00188Y02413D03*
X00031Y02098D03*
X00188Y01783D03*
X00031Y01468D03*
X00188Y01153D03*
X00031Y00838D03*
X00188Y00523D03*
X00031Y00208D03*
X04055Y01087D03*
X04882Y03284D03*
X04862Y03255D03*
X04901D03*
Y03314D03*
X04862D03*
X04535Y02134D03*
X04075Y01124D03*
X04087Y02409D03*
X04116Y02517D03*
X03673Y02295D03*
X03327Y02203D03*
X0456Y01617D03*
X04499Y01763D03*
X04775Y01488D03*
X04844Y0135D03*
X03214Y01993D03*
X03529Y01945D03*
X02858Y02015D03*
X03166Y03466D03*
X03147Y04737D03*
X0325Y02673D03*
X03267Y02714D03*
X0321Y03907D03*
X03338Y05222D03*
X03274Y03177D03*
X03552Y03103D03*
X04012Y02265D03*
X04049Y0216D03*
X03378Y02652D03*
X03729Y02519D03*
X03654Y02536D03*
X03585Y02562D03*
X03387Y02692D03*
X02154Y01432D03*
X02459Y01513D03*
X02094Y01379D03*
X05386Y01383D03*
X05261Y01474D03*
X05181Y0139D03*
Y01474D03*
X05289Y01494D03*
X04426Y02665D03*
X0314Y01995D03*
X03066Y01977D03*
X03061Y01922D03*
X04293Y0133D03*
X0443D03*
X04155D03*
X03624Y01413D03*
X04047Y01443D03*
X03751Y018D03*
X0379Y01832D03*
X03163Y0221D03*
X03128Y02203D03*
X03187Y02203D03*
X04047Y01251D03*
X05671Y02452D03*
X05602Y02314D03*
X05671Y02177D03*
X05602Y01763D03*
X05464Y03141D03*
Y0259D03*
X05533Y02452D03*
X05464Y02314D03*
X05533Y02177D03*
X05464Y01763D03*
X05395Y02728D03*
X05326Y0259D03*
X05395Y02452D03*
X05326Y02314D03*
X05395Y02177D03*
X05326Y02039D03*
X05395Y01901D03*
X05326Y01763D03*
X05395Y0135D03*
X05257Y02728D03*
X05188Y0259D03*
X05257Y02452D03*
X05188Y02314D03*
X05257Y02177D03*
X05188Y02039D03*
X05257Y01901D03*
X05188Y01763D03*
X05257Y01625D03*
X05188Y01212D03*
X05119Y02728D03*
X05051Y0259D03*
X05119Y02452D03*
X05051Y02314D03*
X05119Y02177D03*
X05051Y02039D03*
X05119Y01901D03*
X05051Y01763D03*
X05119Y01625D03*
X05051Y01212D03*
X04982Y02728D03*
X04913Y0259D03*
X04982Y02452D03*
X04913Y02314D03*
X04982Y02177D03*
X04913Y02039D03*
X04982Y01901D03*
X04913Y01763D03*
X04982Y01625D03*
X04913Y01212D03*
X04844Y02728D03*
Y01901D03*
X04775Y01763D03*
Y01212D03*
X04706Y02728D03*
Y01901D03*
X04637Y01763D03*
X04706Y01625D03*
Y0135D03*
X04637Y01212D03*
X04568Y02728D03*
X04499Y0259D03*
Y02039D03*
X04568Y01901D03*
X04499Y01488D03*
X04568Y0135D03*
X0443Y02728D03*
X04362Y0259D03*
X0443Y02177D03*
X04362Y02039D03*
X0443Y01901D03*
Y01625D03*
X04362Y01212D03*
X04293Y02728D03*
X04224Y0259D03*
X04293Y02177D03*
X04224Y02039D03*
Y01763D03*
X04155Y02728D03*
X04086Y0259D03*
Y02039D03*
X04155Y01901D03*
Y01625D03*
X0321Y01658D03*
X05296Y01602D03*
X03164Y02066D03*
X02152Y01463D03*
X04373Y03435D03*
X04351Y03454D03*
X04248Y03394D03*
X04219D03*
X03094Y04769D03*
X03004Y03893D03*
X02814Y0366D03*
X01874Y0385D03*
X0269Y05405D03*
X0332Y03733D03*
X02704Y03601D03*
Y03705D03*
X02967Y05243D03*
X02432Y05201D03*
X02478Y03689D03*
X02496Y03671D03*
X02456Y05161D03*
X02573Y05101D03*
X0295Y03993D03*
X02988Y03717D03*
X03029Y03308D03*
X02882Y03687D03*
X03004Y03656D03*
X03007Y04512D03*
X02671Y04392D03*
X03205Y05365D03*
X04706Y04135D03*
X04854Y03682D03*
X05006Y0381D03*
X05208Y04115D03*
X05196Y0383D03*
X04706Y04647D03*
X04991Y04608D03*
X05195D03*
X05195Y05411D03*
X05001Y05484D03*
X05198Y05621D03*
X02723Y04133D03*
X03272Y02777D03*
X03269Y0275D03*
X0255Y01338D03*
X05418Y01013D03*
X05392Y01014D03*
X04631Y01015D03*
X04606D03*
X03843Y01011D03*
X03817Y01011D03*
X03057Y01014D03*
X0303Y01017D03*
X00693Y01995D03*
X00667Y01995D03*
X00805Y01846D03*
X00855Y01846D03*
X00755Y01847D03*
X0067Y01013D03*
X00696D03*
X01482Y01021D03*
X01457D03*
X02244Y01021D03*
X02269Y01021D03*
X02131Y0086D03*
X02079Y00861D03*
X03022Y01961D03*
X02474Y01892D03*
X025Y01893D03*
X02715Y01828D03*
X02689Y01827D03*
X02193Y02791D03*
X03537Y02313D03*
X03646Y02293D03*
X03621Y02292D03*
X03528Y02411D03*
X03871Y01908D03*
X02732Y01994D03*
X02758Y03089D03*
X02556Y03082D03*
X0164Y02451D03*
X01669D03*
X01699D03*
X04928Y01348D03*
X0383Y03462D03*
X03808Y03429D03*
X03436Y0234D03*
X03776Y02196D03*
X03816Y02193D03*
X03757Y02176D03*
X03795Y0218D03*
X03719Y02171D03*
X03736Y02193D03*
X02376Y02576D03*
X02378Y03029D03*
X02534Y01622D03*
X03273Y02928D03*
X03271Y02973D03*
X03258Y02951D03*
X03116Y03056D03*
X03145Y03092D03*
X03191Y03041D03*
X03076Y03315D03*
X02992Y0331D03*
X0301Y03286D03*
X03046Y03287D03*
X02605Y03517D03*
X02643Y03515D03*
X02884Y03409D03*
X02887Y03348D03*
X02879Y03275D03*
X02915Y03279D03*
X02873Y03089D03*
X02849Y0309D03*
X02546Y02017D03*
X02693Y02199D03*
X02721Y02201D03*
X02617Y02201D03*
X02642Y02209D03*
X02557Y02222D03*
X02576Y02199D03*
X02537Y02198D03*
X025Y02198D03*
X02521Y02217D03*
X02563Y03512D03*
X02461Y03456D03*
X02375Y02378D03*
X02098Y03476D03*
X02001Y03028D03*
X02266Y02321D03*
X02189Y02461D03*
X02228Y02453D03*
X02192Y02706D03*
X02123Y02665D03*
X01991Y02696D03*
X02003Y02909D03*
X02Y02873D03*
X02001Y03105D03*
X02001Y03066D03*
X02245Y02844D03*
X02Y02947D03*
X02193Y02856D03*
X021Y02856D03*
X01977Y02855D03*
X02001Y02743D03*
X01173Y05287D03*
X02379Y02625D03*
X02376Y02675D03*
X02382Y027D03*
X02193Y0266D03*
X02389Y02648D03*
X02381Y02764D03*
X02378Y02812D03*
X02394Y0279D03*
X02379Y029D03*
X02379Y02852D03*
X02386Y02876D03*
X02398Y02834D03*
X04791Y03265D03*
X02364Y02062D03*
X02193Y02344D03*
X02229Y02321D03*
X02194Y02502D03*
X03092Y0323D03*
X03377Y02872D03*
X02677Y01993D03*
X02482Y02094D03*
X02461Y02063D03*
X02414Y02062D03*
X03926Y02487D03*
X01504Y02736D03*
X01594Y02808D03*
X01704Y02781D03*
X01642Y02807D03*
X01675Y02806D03*
X01541Y02737D03*
X01542Y02773D03*
X01563Y02807D03*
X01704Y02743D03*
X01506Y0277D03*
X01534Y02807D03*
X01878Y02925D03*
X01504Y02807D03*
X0167Y0271D03*
X02676Y03076D03*
X02634Y03076D03*
X02616Y03093D03*
X02598Y03076D03*
X0258Y03094D03*
X02531Y03091D03*
X0251Y02065D03*
X02629Y01995D03*
X02629Y02019D03*
X02511Y01976D03*
X0258Y02011D03*
X0301Y02202D03*
X02982Y02201D03*
X0238Y02337D03*
X02404Y02376D03*
X02101Y02403D03*
Y02354D03*
X02189Y02293D03*
X02192Y02205D03*
X02339Y01413D03*
X02177Y00857D03*
X02967Y00862D03*
X03754Y00859D03*
X04541Y00856D03*
X0533Y0086D03*
X01395Y00857D03*
X00606Y00859D03*
X00603Y01825D03*
X01393Y01846D03*
X02135Y01675D03*
X02201Y01641D03*
X02482Y01395D03*
X02445Y01571D03*
X02044Y01664D03*
X02261Y01703D03*
X00437Y02358D03*
Y02533D03*
X04866Y0149D03*
X04964Y0142D03*
X04965Y01454D03*
X04935Y01435D03*
X04901Y01419D03*
X04902Y01454D03*
X04994Y0152D03*
X04882Y01524D03*
X0482Y01511D03*
X03021Y01988D03*
X03167Y02033D03*
X02755Y01918D03*
X02713Y02011D03*
X02783Y02005D03*
X02775Y02071D03*
X02754Y02008D03*
X03908Y0086D03*
X03958Y00859D03*
X04008Y00858D03*
X04691Y00858D03*
X04741Y00857D03*
X04791Y00856D03*
X0548Y00859D03*
X0553Y00858D03*
X0558Y00857D03*
X02331Y00857D03*
X02381Y00856D03*
X02431Y00855D03*
X03119Y00862D03*
X03169Y00861D03*
X03219Y0086D03*
X01542Y0184D03*
X01592Y01839D03*
X01642Y01839D03*
X01541Y00858D03*
X01591Y00857D03*
X01641Y00856D03*
X00755Y00857D03*
X00805Y00856D03*
X00855Y00855D03*
X00555Y01845D03*
X00506Y01843D03*
X00734Y02294D03*
X021Y02895D03*
X02122Y0198D03*
X02775Y0184D03*
X00741Y02494D03*
X02012Y02551D03*
X02868Y0086D03*
X02918Y00859D03*
X01341Y0086D03*
X01292Y00856D03*
X01293Y01869D03*
X01343D03*
X01456Y01841D03*
X01481D03*
X00555Y00857D03*
X00505Y00856D03*
X0528Y00862D03*
X0523Y00859D03*
X04492Y00857D03*
X04442Y00859D03*
X03705Y00861D03*
X03655Y00862D03*
X02011Y02465D03*
Y0249D03*
X02011Y02367D03*
X02012Y02392D03*
X0201Y02267D03*
Y02292D03*
X02013Y02195D03*
Y0217D03*
X02591Y01827D03*
X02616Y01827D03*
X024Y01894D03*
X02375D03*
X02104Y01998D03*
X03619Y01512D03*
X03464Y01213D03*
X02629Y0191D03*
X01483Y02562D03*
Y02532D03*
X00571Y02394D03*
X00574Y02594D03*
X00358D03*
X00358Y02294D03*
X00358Y02993D03*
X01892Y02851D03*
X01881Y02885D03*
X02198Y02601D03*
X01966Y02743D03*
X01704Y02806D03*
X0065Y03132D03*
Y03232D03*
X00354Y03094D03*
X00357Y03194D03*
X02193Y02772D03*
X01704Y0248D03*
X03092Y02202D03*
X03069D03*
X03011Y02019D03*
X00836Y03499D03*
X0327Y02419D03*
X03266Y02557D03*
X02905Y0257D03*
X02826D03*
X02747D03*
Y02649D03*
X02826D03*
X02905D03*
Y02728D03*
X02826D03*
X02747D03*
X02706Y0253D03*
X02785D03*
X02863D03*
X02942D03*
X02706Y02609D03*
X02785D03*
X02863D03*
X02942D03*
X02706Y02687D03*
X02785D03*
X02863D03*
X02942D03*
Y02766D03*
X02863D03*
X02785D03*
X02706D03*
X02971Y03091D03*
X04521Y0218D03*
X03908Y02533D03*
X04295Y02467D03*
X04119Y02327D03*
X0423Y0239D03*
X05422Y01841D03*
X04859Y0234D03*
X04859Y0238D03*
X04495Y02207D03*
X04497Y02513D03*
X04386Y02355D03*
X04416Y02351D03*
X03933Y02265D03*
X03973D03*
X04012Y02304D03*
X03973D03*
X03933D03*
X04012Y02344D03*
X03973D03*
X03933D03*
X04175Y02178D03*
X04559Y02386D03*
X04556Y02334D03*
X0454Y02578D03*
X04585Y02514D03*
X04526Y02062D03*
X04503Y02352D03*
X05478Y02787D03*
X04159Y0249D03*
X04163Y02404D03*
X04206Y02444D03*
X04064Y02126D03*
X03883Y02397D03*
X03791Y02456D03*
X03858Y02487D03*
X03953Y02507D03*
X03877Y0253D03*
X03524Y0272D03*
X03516Y02788D03*
X03627Y02919D03*
X03391Y03151D03*
X0332Y03126D03*
X02735Y03096D03*
X03171Y03093D03*
X0309Y03073D03*
X03271Y02833D03*
X03391Y02205D03*
X03268Y02262D03*
X03277Y02172D03*
X02853Y02203D03*
X02931Y02202D03*
X01898Y04591D03*
X01842Y03973D03*
X021Y03013D03*
X01924Y04647D03*
X021Y03052D03*
X01954Y05497D03*
X021Y03092D03*
X01974Y05467D03*
X021Y03131D03*
X03419Y05414D03*
X021Y02728D03*
X01781Y04729D03*
X021Y02767D03*
X01806Y04617D03*
X021Y02974D03*
Y02934D03*
X01972Y02893D03*
X04713Y05714D03*
X0471Y04921D03*
X02729D03*
X02723Y05708D03*
X00734Y04133D03*
X0074Y04921D03*
X00729Y05708D03*
X02429Y03012D03*
X02329Y03093D03*
X00877Y0506D03*
X03267Y02616D03*
X03247Y02635D03*
X02584Y03411D03*
X00877Y03614D03*
X01998Y0278D03*
X01999Y02987D03*
Y0315D03*
X02802Y03515D03*
X0276Y03514D03*
X02721D03*
X0268Y03516D03*
X0285Y03486D03*
X02825Y03602D03*
X02661Y03601D03*
X02624D03*
X03071Y04477D03*
X03133Y03002D03*
X03129Y0335D03*
X01243Y04923D03*
X01566D03*
X02137D03*
Y03495D03*
X00877Y03712D03*
X02078Y03495D03*
X02098Y05661D03*
X02076Y05255D03*
X0355Y03349D03*
X04961Y03127D03*
X04214Y03082D03*
X04243Y03112D03*
X04931Y03091D03*
X04184Y03082D03*
X0323Y03269D03*
X03259Y05523D03*
Y0322D03*
X0252Y0327D03*
X01114Y04509D03*
X02895D03*
X00832Y04564D03*
X02915Y04563D03*
X02649Y05582D03*
X02413Y03495D03*
X02432Y03515D03*
X02477Y03486D03*
X02497Y03505D03*
X02914Y03246D03*
X02944Y03279D03*
X02972D03*
X03052Y0445D03*
X03033Y0507D03*
X01537Y04362D03*
Y03564D03*
X00976Y03623D03*
Y03692D03*
X02824Y03409D03*
X02785Y03412D03*
X02741Y03411D03*
X02702D03*
X02663D03*
X02623Y03411D03*
X02545Y03537D03*
Y03411D03*
X01217Y04616D03*
X01217Y03828D03*
X03424Y03238D03*
X03679Y03359D03*
X03881Y0337D03*
X03876Y03193D03*
X03446Y03613D03*
Y03397D03*
X0364Y03427D03*
X03603Y03158D03*
X03452Y02453D03*
X03472Y02431D03*
X03497Y02408D03*
X03589Y02286D03*
X03615Y02728D03*
X03617Y02705D03*
X04278Y03394D03*
X04351Y03508D03*
Y03482D03*
X04278Y03428D03*
X04249D03*
X04219D03*
X0169Y02513D03*
Y02542D03*
X017Y02572D03*
X0167D03*
X01675Y0248D03*
X0164Y02572D03*
X01645Y0248D03*
X01483Y02473D03*
X01513D03*
Y02503D03*
X01483D03*
X01513Y02532D03*
X01542Y02562D03*
X01513D03*
X0164Y0271D03*
X01704Y02718D03*
X03786Y03177D03*
X03693Y03174D03*
X03562Y0324D03*
X03878Y03333D03*
X0258Y01929D03*
X02376Y02419D03*
X02374Y0244D03*
X02383Y0246D03*
X02191Y02388D03*
X02191Y02411D03*
X03128Y03413D03*
X02783Y03314D03*
X02696Y03094D03*
X02716Y03077D03*
X0274Y03318D03*
X027D03*
X02657Y03093D03*
X02665Y03314D03*
X02621Y03318D03*
X02582Y03314D03*
X02543Y03318D03*
X02822Y03314D03*
X02559Y03271D03*
X02937Y02016D03*
X0298Y02019D03*
X03624Y01812D03*
X03619Y01612D03*
X03454Y0223D03*
X03479Y02276D03*
X03311Y02118D03*
X03459Y02567D03*
X03393Y02622D03*
X03457Y0292D03*
X03459Y02959D03*
X03458Y03D03*
X0346Y02729D03*
X03459Y02767D03*
X03459Y02806D03*
X03457Y02845D03*
X03184Y03277D03*
X0314Y03272D03*
X02847Y03272D03*
X02769Y03273D03*
X02728Y03274D03*
X02315Y02063D03*
X02192Y02108D03*
X02191Y02157D03*
X02194Y02256D03*
X02189Y02551D03*
X02216Y0306D03*
X04204Y02963D03*
X04233D03*
X04263D03*
X04302Y02953D03*
Y02983D03*
X04204Y02993D03*
X04233D03*
X04263D03*
X04204Y03022D03*
X04233D03*
X04263D03*
X04243Y03082D03*
X04214Y03112D03*
X04184D03*
X04243Y03141D03*
X04214D03*
X04184D03*
X05002Y03239D03*
X05035Y03377D03*
X04243Y03562D03*
X04271Y03644D03*
X04243D03*
X04271Y03617D03*
X04243D03*
X04271Y03589D03*
X04243D03*
X03958Y03455D03*
X03987D03*
X04017D03*
X04047Y03456D03*
X03958Y03495D03*
X03987D03*
X04017D03*
X04081Y03598D03*
X04041D03*
X04081Y03638D03*
X04041D03*
X04001D03*
Y03598D03*
X05073Y03271D03*
X04831Y02982D03*
X04909Y03159D03*
X04841Y03184D03*
X04764Y03283D03*
X04781Y03117D03*
X04823Y03546D03*
X05279Y01316D03*
X05337Y01325D03*
X04615Y02236D03*
X0429Y0232D03*
X03477Y02311D03*
X0363Y02394D03*
X03413Y01212D03*
X03696Y02274D03*
X03391Y0232D03*
X05266Y03127D03*
X05099Y03377D03*
X04982Y03309D03*
X05107Y03127D03*
X05143Y0333D03*
X05227Y03166D03*
Y03127D03*
Y03087D03*
X05266Y03166D03*
Y03087D03*
X04429Y03547D03*
X04504Y03261D03*
X04458Y03309D03*
X04439Y03071D03*
Y0311D03*
X044D03*
Y03071D03*
X0434Y03557D03*
X04532Y03477D03*
X0494Y03354D03*
X04943Y03219D03*
X05308Y03398D03*
X05386Y03477D03*
X05347D03*
X05229D03*
X05268D03*
X05426D03*
X05308D03*
X05229Y03437D03*
X05268D03*
X05347D03*
X05386D03*
X05426D03*
X05308D03*
X05229Y03398D03*
X05268D03*
X05306Y03166D03*
Y03127D03*
Y03087D03*
X05345Y03127D03*
Y03087D03*
X05385Y03127D03*
Y03087D03*
X05424Y03127D03*
Y03087D03*
X04656Y03505D03*
X04595Y03055D03*
X04784Y02989D03*
G54D152*
X05014Y01104D03*
X03574Y04302D03*
X05582Y05169D03*
X00188D03*
X00149Y02058D03*
Y00208D03*
M02*