%FSTAX23Y23*%
%MOIN*%
%SFA1B1*%

%IPPOS*%
%ADD16C,0.010000*%
%ADD18C,0.006000*%
%ADD140C,0.008000*%
%ADD148C,0.110236*%
%ADD149C,0.074803*%
%ADD150C,0.060000*%
%ADD151C,0.019685*%
%ADD152C,0.157480*%
%LNmdriver2_control-1*%
%LPD*%
G36*
X04421Y02846D02*
X0383D01*
Y02206*
X03826Y02204*
X03825Y02205*
X03819Y02207*
X03813*
X03808Y02205*
X03804Y02201*
X03802Y02196*
X038Y02194*
X03798Y02195*
X03792*
X03791Y02196*
Y02199*
X03788Y02204*
X03784Y02209*
X03779Y02211*
X03773*
X03767Y02209*
X03763Y02204*
X03761Y02199*
Y02194*
X03761Y02193*
X03758Y0219*
X03754*
X03751Y02193*
Y02196*
X03748Y02202*
X03744Y02206*
X03739Y02208*
X03733*
X03727Y02206*
X03723Y02202*
X03721Y02196*
Y0219*
X03721Y0219*
X03719Y02186*
X03716*
X0371Y02183*
X03706Y02179*
X03704Y02174*
Y02168*
X03706Y02162*
X0371Y02158*
X03716Y02156*
X03722*
X03727Y02158*
X03731Y02162*
X03734Y02168*
Y02174*
X03733Y02174*
X03736Y02177*
X03739Y02178*
X03742Y02175*
Y02173*
X03744Y02167*
X03749Y02163*
X03754Y02161*
X0376*
X03765Y02163*
X0377Y02167*
X03772Y02173*
Y02178*
X03772Y02179*
X03775Y02181*
X03779*
X0378Y0218*
Y02177*
X03782Y02172*
X03786Y02168*
X03792Y02165*
X03798*
X03803Y02168*
X03807Y02172*
X03809Y02175*
X03813Y02178*
X03813Y02178*
X03819*
X03825Y0218*
X03826Y02181*
X0383Y0218*
Y0196*
X03075*
X03074Y01964*
X03075Y01964*
X03079Y01968*
X03081Y01974*
Y0198*
X03079Y01985*
X03075Y01989*
X03069Y01992*
X03063*
X03058Y01989*
X03054Y01985*
X03051Y0198*
Y01974*
X03054Y01968*
X03058Y01964*
X03059Y01964*
X03058Y0196*
X03037*
Y01964*
X03034Y0197*
X03032Y01972*
X0303Y01974*
X03032Y01978*
X03034Y01979*
X03036Y01985*
Y01991*
X03034Y01996*
X03029Y02*
X03024Y02003*
X0302*
X03019Y02006*
X03019Y02007*
X03023Y02011*
X03025Y02016*
Y02022*
X03023Y02027*
X03019Y02032*
X03014Y02034*
X03008*
X03002Y02032*
X02998Y02027*
X02997Y02026*
X02993*
X02993Y02027*
X02988Y02032*
X02983Y02034*
X02977*
X02972Y02032*
X02967Y02027*
X02965Y02022*
Y02016*
X02967Y02011*
X02972Y02006*
X02977Y02004*
X02983*
X02988Y02006*
X02993Y02011*
X02993Y02012*
X02997*
X02998Y02011*
X03002Y02006*
X03008Y02004*
X03011*
X03012Y02001*
X03012Y02*
X03008Y01996*
X03006Y01991*
Y01985*
X03008Y01979*
X03011Y01977*
X03012Y01975*
X03011Y01972*
X03009Y0197*
X03007Y01964*
Y0196*
X02521*
X0252Y01963*
X0252Y01964*
X02524Y01968*
X02526Y01973*
Y01979*
X02524Y01985*
X0252Y01989*
X02514Y01991*
X02508*
X02503Y01989*
X02499Y01985*
X02496Y01979*
Y01973*
X02499Y01968*
X02503Y01964*
X02503Y01963*
X02502Y0196*
X02255*
Y02305*
X02259Y02307*
X02263Y02306*
X02269*
X02274Y02308*
X02279Y02312*
X02281Y02318*
Y02324*
X02279Y02329*
X02274Y02333*
X02269Y02336*
X02263*
X02259Y02334*
X02255Y02336*
Y02814*
X02276*
X0228Y02814*
X02283Y02817*
X02289Y02822*
X02362*
X02364Y02818*
X02363Y02815*
Y02809*
X02365Y02804*
X02369Y028*
X02375Y02797*
X02377*
X0238Y02793*
X0238Y02793*
Y02787*
X02382Y02782*
X02386Y02778*
X02391Y02775*
X02397*
X02403Y02778*
X02407Y02782*
X02409Y02787*
Y02793*
X02407Y02799*
X02403Y02803*
X02397Y02805*
X02395*
X02393Y02809*
X02393Y02809*
Y02815*
X02393Y02816*
X02394Y02818*
X02395Y02819*
X02401*
X02406Y02821*
X02411Y02825*
X02413Y02831*
Y02837*
X02411Y02842*
X02406Y02846*
X02401Y02849*
X02397*
X02395Y02849*
X02394Y02852*
Y02855*
X02392Y02859*
X02394Y02864*
X02398Y02868*
X024Y02873*
Y02879*
X02398Y02885*
X02394Y02889*
X02394Y02889*
X02392Y02894*
X02394Y02897*
Y02903*
X02391Y02908*
X02387Y02912*
X02382Y02915*
X02376*
X0237Y02912*
X02366Y02908*
X02364Y02903*
Y02897*
X02366Y02891*
X0237Y02887*
X0237Y02887*
X02372Y02882*
X02371Y02879*
Y02873*
X02372Y0287*
X0237Y02865*
X02366Y02861*
X02364Y02855*
Y02849*
X02365Y02847*
X02363Y02843*
X02285*
X02281Y02842*
X02278Y0284*
X02272Y02834*
X02262*
X02259Y02838*
X0226Y02841*
Y02847*
X02258Y02852*
X02255Y02855*
Y03397*
X0254*
X02542Y03396*
X02548*
X02549Y03397*
X0258*
X02581Y03396*
X02587*
X02588Y03397*
X02619*
X0262Y03396*
X02626*
X02628Y03397*
X02658*
X0266Y03396*
X02666*
X02667Y03397*
X02698*
X02699Y03396*
X02705*
X02706Y03397*
X02737*
X02739Y03396*
X02744*
X02746Y03397*
X02782*
X02782Y03397*
X02788*
X02788Y03397*
X02815*
X02816Y03397*
X02821Y03394*
X02827*
X02833Y03397*
X02833Y03397*
X02875*
X02876Y03397*
X02881Y03394*
X02887*
X02893Y03397*
X02893Y03397*
X02897Y03397*
Y03365*
X02893Y03362*
X0289Y03363*
X02884*
X02879Y03361*
X02875Y03357*
X02872Y03351*
Y03345*
X02875Y0334*
X02879Y03336*
X02884Y03334*
X02888*
X02889Y03333*
Y03291*
X02885Y03289*
X02882Y0329*
X02876*
X0287Y03287*
X02866Y03283*
X02864Y03279*
X02861Y03278*
X0286Y03278*
X02859Y0328*
X02855Y03284*
X0285Y03287*
X02844*
X02838Y03284*
X02834Y0328*
X02832Y03275*
Y03269*
X02834Y03263*
X02838Y03259*
X02844Y03257*
X0285*
X02855Y03259*
X02859Y03263*
X02861Y03268*
X02865Y03268*
X02865Y03268*
X02866Y03267*
X0287Y03262*
X02876Y0326*
X02882*
X02885Y03261*
X02889Y0326*
X0289Y03259*
X02891Y03257*
X02899Y03249*
X02899Y03249*
Y03243*
X02901Y03238*
X02905Y03233*
X02911Y03231*
X02916*
X02922Y03233*
X02926Y03238*
X02928Y03243*
Y03249*
X02926Y03254*
X02922Y03259*
X02918Y0326*
X02918Y03261*
X02918Y03264*
X02923Y03266*
X02927Y0327*
X02927Y03271*
X02931*
X02932Y0327*
X02936Y03266*
X02941Y03264*
X02947*
X02953Y03266*
X02955Y03269*
X02958Y0327*
X02961Y03269*
X02963Y03266*
X02969Y03264*
X02975*
X0298Y03266*
X02984Y0327*
X02987Y03276*
Y03282*
X02984Y03287*
X0298Y03291*
X02975Y03294*
X02969*
X02963Y03291*
X02961Y03289*
X02958Y03288*
X02955Y03289*
X02953Y03291*
X02952Y03292*
Y03397*
X02984*
Y03323*
X02984Y03323*
X0298Y03319*
X02977Y03313*
Y03307*
X0298Y03302*
X02984Y03298*
X02989Y03295*
X02993*
X02996Y03292*
X02996Y03292*
X02995Y03289*
Y03283*
X02997Y03278*
X03002Y03274*
X03007Y03271*
X03013*
X03018Y03274*
X03023Y03278*
X03025Y03283*
Y03289*
X03028Y0329*
X03031Y03287*
Y03284*
X03034Y03278*
X03038Y03274*
X03043Y03272*
X03049*
X03055Y03274*
X03059Y03278*
X03061Y03284*
Y0329*
X03059Y03295*
X03057Y03297*
Y03301*
X03058Y03303*
X0306Y03305*
X03062Y03306*
X03064Y03306*
X03068Y03302*
X03073Y033*
X03079*
X03085Y03302*
X03089Y03307*
X03091Y03312*
Y03318*
X03089Y03323*
X03085Y03328*
X03084Y03328*
Y03334*
X03083Y03337*
X03081Y0334*
X03081Y0334*
Y03397*
X03431*
Y03394*
X03433Y03389*
X03437Y03385*
X03443Y03383*
X03449*
X03454Y03385*
X03458Y03389*
X03461Y03394*
Y03397*
X0402*
X04022Y03394*
X0402Y0339*
X04017Y03381*
Y03372*
X0402Y03363*
X04024Y03355*
X04031Y03348*
X04039Y03344*
X04048Y03341*
X04057*
X04066Y03344*
X04074Y03348*
X04081Y03355*
X04085Y03363*
X04087Y03372*
Y03381*
X04085Y0339*
X04083Y03394*
X04085Y03397*
X04204*
Y03391*
X04206Y03386*
X0421Y03382*
X04216Y0338*
X04222*
X04227Y03382*
X04231Y03386*
X04231Y03386*
X04235*
X04236Y03386*
X0424Y03382*
X04245Y0338*
X04251*
X04257Y03382*
X04261Y03386*
X04261Y03386*
X04265*
X04265Y03386*
X04269Y03382*
X04275Y0338*
X04281*
X04283Y0338*
X04287Y03378*
X04288Y03376*
X04292Y03368*
X04299Y03362*
X04307Y03357*
X04316Y03355*
X04325*
X04334Y03357*
X04342Y03362*
X04348Y03368*
X04353Y03376*
X04355Y03385*
Y03395*
X04357Y03397*
X04421*
Y02846*
G37*
G36*
X057Y01087D02*
X05099D01*
X05097Y0109*
X05098Y01096*
Y01112*
X05094Y01128*
X05088Y01143*
X05079Y01157*
X05067Y01169*
X05054Y01178*
X05038Y01184*
X05022Y01187*
X05006*
X0499Y01184*
X04974Y01178*
X04961Y01169*
X04949Y01157*
X0494Y01143*
X04933Y01128*
X0493Y01112*
Y01096*
X04931Y0109*
X04929Y01087*
X0407*
Y0109*
X04067Y01096*
X04063Y011*
X04058Y01102*
X04052*
X04047Y011*
X04042Y01096*
X0404Y0109*
Y01087*
X04027*
Y02747*
X057*
Y01087*
G37*
%LNmdriver2_control-2*%
%LPC*%
G36*
X03884Y03385D02*
X03878D01*
X03872Y03382*
X03868Y03378*
X03866Y03373*
Y03367*
X03868Y03361*
X03872Y03357*
X03878Y03355*
X03884*
X03889Y03357*
X03893Y03361*
X03895Y03367*
Y03373*
X03893Y03378*
X03889Y03382*
X03884Y03385*
G37*
G36*
X03132Y03364D02*
X03126D01*
X03121Y03362*
X03117Y03358*
X03115Y03353*
Y03347*
X03117Y03341*
X03121Y03337*
X03126Y03335*
X03132*
X03138Y03337*
X03142Y03341*
X03144Y03347*
Y03353*
X03142Y03358*
X03138Y03362*
X03132Y03364*
G37*
G36*
X03553Y03364D02*
X03548D01*
X03542Y03362*
X03538Y03358*
X03536Y03352*
Y03346*
X03538Y03341*
X03542Y03337*
X03548Y03334*
X03553*
X03559Y03337*
X03563Y03341*
X03565Y03346*
Y03352*
X03563Y03358*
X03559Y03362*
X03553Y03364*
G37*
G36*
X03881Y03348D02*
X03875D01*
X0387Y03346*
X03866Y03341*
X03863Y03336*
Y0333*
X03866Y03325*
X0387Y0332*
X03875Y03318*
X03881*
X03887Y0332*
X03891Y03325*
X03893Y0333*
Y03336*
X03891Y03341*
X03887Y03346*
X03881Y03348*
G37*
G36*
X02742Y03333D02*
X02737D01*
X02731Y03331*
X02727Y03327*
X02725Y03321*
Y03315*
X02727Y0331*
X02731Y03306*
X02737Y03303*
X02742*
X02748Y03306*
X02752Y0331*
X02754Y03315*
Y03321*
X02752Y03327*
X02748Y03331*
X02742Y03333*
G37*
G36*
X02703D02*
X02697D01*
X02692Y03331*
X02688Y03327*
X02685Y03321*
Y03315*
X02688Y0331*
X02692Y03306*
X02697Y03303*
X02703*
X02709Y03306*
X02713Y0331*
X02715Y03315*
Y03321*
X02713Y03327*
X02709Y03331*
X02703Y03333*
G37*
G36*
X02624D02*
X02618D01*
X02613Y03331*
X02609Y03327*
X02607Y03321*
Y03315*
X02609Y0331*
X02613Y03306*
X02618Y03303*
X02624*
X0263Y03306*
X02634Y0331*
X02636Y03315*
Y03321*
X02634Y03327*
X0263Y03331*
X02624Y03333*
G37*
G36*
X02546D02*
X0254D01*
X02534Y03331*
X0253Y03327*
X02528Y03321*
Y03315*
X0253Y0331*
X02534Y03306*
X0254Y03303*
X02546*
X02551Y03306*
X02555Y0331*
X02557Y03315*
Y03321*
X02555Y03327*
X02551Y03331*
X02546Y03333*
G37*
G36*
X02825Y03329D02*
X02819D01*
X02814Y03327*
X0281Y03323*
X02807Y03317*
Y03311*
X0281Y03306*
X02814Y03302*
X02819Y03299*
X02825*
X02831Y03302*
X02835Y03306*
X02837Y03311*
Y03317*
X02835Y03323*
X02831Y03327*
X02825Y03329*
G37*
G36*
X02786D02*
X0278D01*
X02774Y03327*
X0277Y03323*
X02768Y03317*
Y03311*
X0277Y03306*
X02774Y03302*
X0278Y03299*
X02786*
X02791Y03302*
X02795Y03306*
X02798Y03311*
Y03317*
X02795Y03323*
X02791Y03327*
X02786Y03329*
G37*
G36*
X02668D02*
X02662D01*
X02656Y03327*
X02652Y03323*
X0265Y03317*
Y03311*
X02652Y03306*
X02656Y03302*
X02662Y03299*
X02668*
X02673Y03302*
X02677Y03306*
X0268Y03311*
Y03317*
X02677Y03323*
X02673Y03327*
X02668Y03329*
G37*
G36*
X02585D02*
X02579D01*
X02574Y03327*
X02569Y03323*
X02567Y03317*
Y03311*
X02569Y03306*
X02574Y03302*
X02579Y03299*
X02585*
X0259Y03302*
X02595Y03306*
X02597Y03311*
Y03317*
X02595Y03323*
X0259Y03327*
X02585Y03329*
G37*
G36*
X03187Y03292D02*
X03181D01*
X03175Y0329*
X03171Y03286*
X03169Y0328*
Y03274*
X03171Y03269*
X03175Y03265*
X03181Y03262*
X03187*
X03192Y03265*
X03196Y03269*
X03199Y03274*
Y0328*
X03196Y03286*
X03192Y0329*
X03187Y03292*
G37*
G36*
X02731Y03289D02*
X02725D01*
X02719Y03286*
X02715Y03282*
X02713Y03277*
Y03271*
X02715Y03265*
X02719Y03261*
X02725Y03259*
X02731*
X02736Y03261*
X0274Y03265*
X02743Y03271*
Y03277*
X0274Y03282*
X02736Y03286*
X02731Y03289*
G37*
G36*
X02772Y03287D02*
X02766D01*
X02761Y03285*
X02757Y03281*
X02754Y03276*
Y0327*
X02757Y03264*
X02761Y0326*
X02766Y03258*
X02772*
X02778Y0326*
X02782Y03264*
X02784Y0327*
Y03276*
X02782Y03281*
X02778Y03285*
X02772Y03287*
G37*
G36*
X03143Y03286D02*
X03137D01*
X03132Y03284*
X03128Y0328*
X03125Y03275*
Y03269*
X03128Y03263*
X03132Y03259*
X03137Y03257*
X03143*
X03149Y03259*
X03153Y03263*
X03155Y03269*
Y03275*
X03153Y0328*
X03149Y03284*
X03143Y03286*
G37*
G36*
X02562Y03286D02*
X02556D01*
X0255Y03283*
X02546Y03279*
X02544Y03274*
Y03268*
X02546Y03262*
X0255Y03258*
X02556Y03256*
X02562*
X02567Y03258*
X02571Y03262*
X02574Y03268*
Y03274*
X02571Y03279*
X02567Y03283*
X02562Y03286*
G37*
G36*
X02523Y03285D02*
X02517D01*
X02511Y03283*
X02507Y03279*
X02505Y03273*
Y03267*
X02507Y03262*
X02511Y03258*
X02517Y03255*
X02523*
X02528Y03258*
X02532Y03262*
X02535Y03267*
Y03273*
X02532Y03279*
X02528Y03283*
X02523Y03285*
G37*
G36*
X04325Y03325D02*
X04316D01*
X04307Y03323*
X04299Y03318*
X04292Y03311*
X04288Y03303*
X04285Y03295*
Y03285*
X04288Y03276*
X04292Y03268*
X04299Y03262*
X04307Y03257*
X04316Y03255*
X04325*
X04334Y03257*
X04342Y03262*
X04348Y03268*
X04353Y03276*
X04355Y03285*
Y03295*
X04353Y03303*
X04348Y03311*
X04342Y03318*
X04334Y03323*
X04325Y03325*
G37*
G36*
X04225D02*
X04216D01*
X04207Y03323*
X04199Y03318*
X04192Y03311*
X04188Y03303*
X04185Y03295*
Y03285*
X04188Y03276*
X04192Y03268*
X04199Y03262*
X04207Y03257*
X04216Y03255*
X04225*
X04234Y03257*
X04242Y03262*
X04248Y03268*
X04253Y03276*
X04255Y03285*
Y03295*
X04253Y03303*
X04248Y03311*
X04242Y03318*
X04234Y03323*
X04225Y03325*
G37*
G36*
X03233Y03284D02*
X03227D01*
X03221Y03282*
X03217Y03277*
X03215Y03272*
Y03266*
X03217Y03261*
X03221Y03256*
X03227Y03254*
X03233*
X03238Y03256*
X03242Y03261*
X03245Y03266*
Y03272*
X03242Y03277*
X03238Y03282*
X03233Y03284*
G37*
G36*
X04057Y03311D02*
X04048D01*
X04039Y03309*
X04031Y03304*
X04024Y03298*
X0402Y0329*
X04017Y03281*
Y03272*
X0402Y03263*
X04024Y03255*
X04031Y03248*
X04039Y03244*
X04048Y03241*
X04057*
X04066Y03244*
X04074Y03248*
X04081Y03255*
X04085Y03263*
X04087Y03272*
Y03281*
X04085Y0329*
X04081Y03298*
X04074Y03304*
X04066Y03309*
X04057Y03311*
G37*
G36*
X03565Y03255D02*
X03559D01*
X03553Y03253*
X03549Y03248*
X03547Y03243*
Y03237*
X03549Y03232*
X03553Y03227*
X03559Y03225*
X03565*
X0357Y03227*
X03574Y03232*
X03577Y03237*
Y03243*
X03574Y03248*
X0357Y03253*
X03565Y03255*
G37*
G36*
X03427Y03253D02*
X03421D01*
X03416Y03251*
X03412Y03247*
X03409Y03241*
Y03235*
X03412Y0323*
X03416Y03226*
X03421Y03223*
X03427*
X03433Y03226*
X03437Y0323*
X03439Y03235*
Y03241*
X03437Y03247*
X03433Y03251*
X03427Y03253*
G37*
G36*
X03095Y03245D02*
X03089D01*
X03083Y03242*
X03079Y03238*
X03077Y03233*
Y03227*
X03079Y03221*
X03083Y03217*
X03089Y03215*
X03095*
X031Y03217*
X03104Y03221*
X03107Y03227*
Y03233*
X03104Y03238*
X031Y03242*
X03095Y03245*
G37*
G36*
X03262Y03235D02*
X03256D01*
X03251Y03232*
X03247Y03228*
X03244Y03223*
Y03217*
X03247Y03211*
X03251Y03207*
X03256Y03205*
X03262*
X03268Y03207*
X03272Y03211*
X03274Y03217*
Y03223*
X03272Y03228*
X03268Y03232*
X03262Y03235*
G37*
G36*
X03879Y03208D02*
X03873D01*
X03868Y03206*
X03864Y03202*
X03861Y03196*
Y0319*
X03864Y03185*
X03868Y03181*
X03873Y03178*
X03879*
X03885Y03181*
X03889Y03185*
X03891Y0319*
Y03196*
X03889Y03202*
X03885Y03206*
X03879Y03208*
G37*
G36*
X03789Y03192D02*
X03783D01*
X03778Y0319*
X03774Y03185*
X03772Y0318*
Y03174*
X03774Y03169*
X03778Y03164*
X03783Y03162*
X03789*
X03795Y03164*
X03799Y03169*
X03801Y03174*
Y0318*
X03799Y03185*
X03795Y0319*
X03789Y03192*
G37*
G36*
X03277Y03191D02*
X03271D01*
X03266Y03189*
X03261Y03185*
X03259Y03179*
Y03174*
X03261Y03168*
X03266Y03164*
X03271Y03162*
X03277*
X03282Y03164*
X03287Y03168*
X03289Y03174*
Y03179*
X03287Y03185*
X03282Y03189*
X03277Y03191*
G37*
G36*
X03696Y03189D02*
X0369D01*
X03685Y03187*
X03681Y03182*
X03678Y03177*
Y03171*
X03681Y03166*
X03685Y03161*
X0369Y03159*
X03696*
X03702Y03161*
X03706Y03166*
X03708Y03171*
Y03177*
X03706Y03182*
X03702Y03187*
X03696Y03189*
G37*
G36*
X03606Y03173D02*
X036D01*
X03595Y03171*
X0359Y03166*
X03588Y03161*
Y03155*
X0359Y0315*
X03595Y03145*
X036Y03143*
X03606*
X03611Y03145*
X03616Y0315*
X03618Y03155*
Y03161*
X03616Y03166*
X03611Y03171*
X03606Y03173*
G37*
G36*
X03394Y03165D02*
X03388D01*
X03382Y03163*
X03378Y03159*
X03376Y03154*
Y03148*
X03378Y03142*
X03382Y03138*
X03388Y03136*
X03394*
X03399Y03138*
X03403Y03142*
X03405Y03148*
Y03154*
X03403Y03159*
X03399Y03163*
X03394Y03165*
G37*
G36*
X03323Y03141D02*
X03317D01*
X03312Y03139*
X03307Y03134*
X03305Y03129*
Y03123*
X03307Y03118*
X03312Y03113*
X03317Y03111*
X03323*
X03328Y03113*
X03333Y03118*
X03335Y03123*
Y03129*
X03333Y03134*
X03328Y03139*
X03323Y03141*
G37*
G36*
X04403Y03125D02*
X04397D01*
X04391Y03123*
X04387Y03119*
X04385Y03113*
Y03107*
X04387Y03102*
X04391Y03098*
X04397Y03095*
X04403*
X04408Y03098*
X04412Y03102*
X04415Y03107*
Y03113*
X04412Y03119*
X04408Y03123*
X04403Y03125*
G37*
G36*
X02738Y03111D02*
X02732D01*
X02726Y03108*
X02722Y03104*
X0272Y03099*
Y03095*
X02719Y03093*
X02716Y03092*
X02713*
X02711Y03093*
Y03097*
X02709Y03102*
X02705Y03106*
X02699Y03108*
X02693*
X02688Y03106*
X02684Y03102*
X02681Y03097*
Y03095*
X02679Y03091*
X02673*
X02671Y03092*
Y03096*
X02669Y03101*
X02665Y03106*
X0266Y03108*
X02654*
X02648Y03106*
X02644Y03101*
X02642Y03096*
Y03093*
X02638Y0309*
X02637Y03091*
X02631*
X02631Y03091*
Y03096*
X02629Y03101*
X02625Y03105*
X02619Y03108*
X02613*
X02608Y03105*
X02604Y03101*
X02601Y03096*
Y03091*
X02601Y03091*
X02596*
X02595Y03091*
Y03097*
X02593Y03103*
X02589Y03107*
X02583Y03109*
X02577*
X02572Y03107*
X02568Y03103*
X02565Y03097*
X02561Y03096*
X02559Y03097*
X02554*
X02548Y03094*
X02544Y0309*
X02542Y03085*
Y03079*
X02544Y03074*
X02548Y03069*
X02554Y03067*
X02559*
X02565Y03069*
X02569Y03074*
X02571Y03079*
X02575Y0308*
X02577Y0308*
X02582*
X02583Y03079*
Y03073*
X02585Y03068*
X02589Y03063*
X02595Y03061*
X02601*
X02606Y03063*
X0261Y03068*
X02612Y03073*
Y03078*
X02613Y03078*
X02619*
X02619Y03078*
Y03073*
X02621Y03067*
X02626Y03063*
X02631Y03061*
X02637*
X02642Y03063*
X02647Y03067*
X02649Y03073*
Y03076*
X02653Y03079*
X02654Y03078*
X0266*
X02662Y03077*
Y03073*
X02664Y03068*
X02668Y03064*
X02673Y03061*
X02679*
X02685Y03064*
X02689Y03068*
X02691Y03073*
Y03075*
X02693Y03079*
X02699*
X02701Y03077*
Y03074*
X02704Y03068*
X02708Y03064*
X02713Y03062*
X02719*
X02725Y03064*
X02729Y03068*
X02731Y03074*
Y03077*
X02732Y0308*
X02735Y03081*
X02738*
X02743Y03083*
X02747Y03087*
X02749Y03093*
Y03099*
X02747Y03104*
X02743Y03108*
X02738Y03111*
G37*
G36*
X03555Y03118D02*
X0355D01*
X03544Y03115*
X0354Y03111*
X03538Y03106*
Y031*
X0354Y03094*
X03544Y0309*
X0355Y03088*
X03555*
X03561Y0309*
X03565Y03094*
X03567Y031*
Y03106*
X03565Y03111*
X03561Y03115*
X03555Y03118*
G37*
G36*
X02332Y03108D02*
X02326D01*
X02321Y03105*
X02316Y03101*
X02314Y03096*
Y0309*
X02316Y03084*
X02321Y0308*
X02326Y03078*
X02332*
X02337Y0308*
X02342Y03084*
X02344Y0309*
Y03096*
X02342Y03101*
X02337Y03105*
X02332Y03108*
G37*
G36*
X03148Y03107D02*
X03142D01*
X03136Y03104*
X03132Y031*
X0313Y03095*
Y03089*
X03132Y03083*
X03136Y03079*
X03142Y03077*
X03148*
X03153Y03079*
X03157Y03083*
X0316Y03089*
Y03095*
X03157Y031*
X03153Y03104*
X03148Y03107*
G37*
G36*
X02974Y03106D02*
X02968D01*
X02962Y03103*
X02958Y03099*
X02956Y03094*
Y03088*
X02958Y03082*
X02962Y03078*
X02968Y03076*
X02974*
X02979Y03078*
X02983Y03082*
X02986Y03088*
Y03094*
X02983Y03099*
X02979Y03103*
X02974Y03106*
G37*
G36*
X02876Y03104D02*
X02871D01*
X02865Y03101*
X02861Y03097*
X02859Y03092*
Y03086*
X02861Y0308*
X02865Y03076*
X02871Y03074*
X02876*
X02882Y03076*
X02886Y0308*
X02888Y03086*
Y03092*
X02886Y03097*
X02882Y03101*
X02876Y03104*
G37*
G36*
X04403Y03086D02*
X04397D01*
X04391Y03084*
X04387Y03079*
X04385Y03074*
Y03068*
X04387Y03063*
X04391Y03058*
X04397Y03056*
X04403*
X04408Y03058*
X04412Y03063*
X04415Y03068*
Y03074*
X04412Y03079*
X04408Y03084*
X04403Y03086*
G37*
G36*
X03093Y03088D02*
X03087D01*
X03082Y03085*
X03077Y03081*
X03075Y03076*
Y0307*
X03077Y03064*
X03082Y0306*
X03087Y03058*
X03093*
X03098Y0306*
X031Y03059*
X031Y03059*
X03102Y03058*
Y03053*
X03104Y03047*
X03108Y03043*
X03113Y03041*
X03119*
X03125Y03043*
X03129Y03047*
X03131Y03053*
Y03059*
X03129Y03064*
X03125Y03068*
X03119Y0307*
X03113*
X03109Y03068*
X03107Y03069*
X03107Y03069*
X03105Y03071*
Y03076*
X03103Y03081*
X03098Y03085*
X03093Y03088*
G37*
G36*
X04266Y03037D02*
X0426D01*
X04254Y03035*
X0425Y03031*
X0425Y0303*
X04246*
X04246Y03031*
X04242Y03035*
X04236Y03037*
X0423*
X04225Y03035*
X04221Y03031*
X04221Y0303*
X04217*
X04216Y03031*
X04212Y03035*
X04207Y03037*
X04201*
X04195Y03035*
X04191Y03031*
X04189Y03025*
Y03019*
X04191Y03014*
X04195Y0301*
X04196Y0301*
Y03006*
X04195Y03005*
X04191Y03001*
X04189Y02996*
Y0299*
X04191Y02984*
X04195Y0298*
X04196Y0298*
Y02976*
X04195Y02976*
X04191Y02972*
X04189Y02966*
Y0296*
X04191Y02955*
X04195Y02951*
X04201Y02948*
X04207*
X04212Y02951*
X04216Y02955*
X04217Y02955*
X04221*
X04221Y02955*
X04225Y02951*
X0423Y02948*
X04236*
X04242Y02951*
X04246Y02955*
X04246Y02955*
X0425*
X0425Y02955*
X04254Y02951*
X0426Y02948*
X04266*
X04271Y02951*
X04275Y02955*
X04278Y0296*
Y02966*
X04275Y02972*
X04271Y02976*
X04271Y02976*
Y0298*
X04271Y0298*
X04275Y02984*
X04278Y0299*
Y02996*
X04275Y03001*
X04271Y03005*
X04271Y03006*
Y0301*
X04271Y0301*
X04275Y03014*
X04278Y03019*
Y03025*
X04275Y03031*
X04271Y03035*
X04266Y03037*
G37*
G36*
X03026Y03057D02*
X0302D01*
X03015Y03055*
X0301Y03051*
X03008Y03046*
Y0304*
X0301Y03034*
X03015Y0303*
X0302Y03028*
X03026*
X03031Y0303*
X03036Y03034*
X03038Y0304*
Y03046*
X03036Y03051*
X03031Y03055*
X03026Y03057*
G37*
G36*
X03194Y03056D02*
X03188D01*
X03182Y03054*
X03178Y03049*
X03176Y03044*
Y03038*
X03178Y03033*
X03182Y03028*
X03188Y03026*
X03194*
X03199Y03028*
X03203Y03033*
X03206Y03038*
Y03044*
X03203Y03049*
X03199Y03054*
X03194Y03056*
G37*
G36*
X02381Y03044D02*
X02375D01*
X0237Y03042*
X02366Y03038*
X02363Y03032*
Y03026*
X02366Y03021*
X0237Y03017*
X02375Y03015*
X02381*
X02387Y03017*
X02391Y03021*
X02393Y03026*
Y03032*
X02391Y03038*
X02387Y03042*
X02381Y03044*
G37*
G36*
X02432Y03027D02*
X02426D01*
X02421Y03025*
X02416Y03021*
X02414Y03015*
Y03009*
X02416Y03004*
X02421Y03*
X02426Y02997*
X02432*
X02437Y03*
X02442Y03004*
X02444Y03009*
Y03015*
X02442Y03021*
X02437Y03025*
X02432Y03027*
G37*
G36*
X03136Y03017D02*
X0313D01*
X03125Y03015*
X03121Y0301*
X03119Y03005*
Y02999*
X03121Y02994*
X03125Y02989*
X0313Y02987*
X03136*
X03142Y02989*
X03146Y02994*
X03148Y02999*
Y03005*
X03146Y0301*
X03142Y03015*
X03136Y03017*
G37*
G36*
X03461Y03015D02*
X03455D01*
X0345Y03013*
X03445Y03008*
X03443Y03003*
Y02997*
X03445Y02992*
X0345Y02987*
X03455Y02985*
X03461*
X03466Y02987*
X03471Y02992*
X03473Y02997*
Y03003*
X03471Y03008*
X03466Y03013*
X03461Y03015*
G37*
G36*
X03274Y02988D02*
X03268D01*
X03262Y02986*
X03258Y02982*
X03256Y02976*
Y0297*
X03258Y02965*
X03262Y02961*
X03268Y02959*
X03274*
X03279Y02961*
X03283Y02965*
X03286Y0297*
Y02976*
X03283Y02982*
X03279Y02986*
X03274Y02988*
G37*
G36*
X03462Y02974D02*
X03456D01*
X03451Y02972*
X03447Y02968*
X03444Y02962*
Y02956*
X03447Y02951*
X03451Y02947*
X03456Y02944*
X03462*
X03468Y02947*
X03472Y02951*
X03474Y02956*
Y02962*
X03472Y02968*
X03468Y02972*
X03462Y02974*
G37*
G36*
X04305Y02998D02*
X04299D01*
X04294Y02996*
X0429Y02991*
X04287Y02986*
Y0298*
X0429Y02975*
X04294Y0297*
X04294Y0297*
Y02966*
X04294Y02966*
X0429Y02962*
X04287Y02956*
Y0295*
X0429Y02945*
X04294Y02941*
X04299Y02939*
X04305*
X04311Y02941*
X04315Y02945*
X04317Y0295*
Y02956*
X04315Y02962*
X04311Y02966*
X0431Y02966*
Y0297*
X04311Y0297*
X04315Y02975*
X04317Y0298*
Y02986*
X04315Y02991*
X04311Y02996*
X04305Y02998*
G37*
G36*
X03276Y02943D02*
X0327D01*
X03265Y0294*
X0326Y02936*
X03258Y02931*
Y02925*
X0326Y02919*
X03265Y02915*
X0327Y02913*
X03276*
X03281Y02915*
X03286Y02919*
X03288Y02925*
Y02931*
X03286Y02936*
X03281Y0294*
X03276Y02943*
G37*
G36*
X0346Y02935D02*
X03454D01*
X03449Y02932*
X03444Y02928*
X03442Y02923*
Y02917*
X03444Y02911*
X03449Y02907*
X03454Y02905*
X0346*
X03465Y02907*
X0347Y02911*
X03472Y02917*
Y02923*
X0347Y02928*
X03465Y02932*
X0346Y02935*
G37*
G36*
X0363Y02934D02*
X03624D01*
X03619Y02931*
X03615Y02927*
X03613Y02922*
Y02916*
X03615Y0291*
X03619Y02906*
X03624Y02904*
X0363*
X03636Y02906*
X0364Y0291*
X03642Y02916*
Y02922*
X0364Y02927*
X03636Y02931*
X0363Y02934*
G37*
G36*
X04123Y02943D02*
X04114D01*
X04105Y0294*
X04097Y02936*
X0409Y02929*
X04086Y02921*
X04083Y02912*
Y02903*
X04086Y02894*
X0409Y02886*
X04097Y0288*
X04105Y02875*
X04114Y02873*
X04123*
X04132Y02875*
X0414Y0288*
X04146Y02886*
X04151Y02894*
X04153Y02903*
Y02912*
X04151Y02921*
X04146Y02929*
X0414Y02936*
X04132Y0294*
X04123Y02943*
G37*
G36*
X0338Y02886D02*
X03374D01*
X03368Y02884*
X03364Y0288*
X03362Y02875*
Y02869*
X03364Y02863*
X03368Y02859*
X03374Y02857*
X0338*
X03385Y02859*
X03389Y02863*
X03392Y02869*
Y02875*
X03389Y0288*
X03385Y02884*
X0338Y02886*
G37*
G36*
X0346Y0286D02*
X03454D01*
X03449Y02858*
X03445Y02854*
X03442Y02848*
Y02842*
X03445Y02837*
X03449Y02833*
X03454Y02831*
X0346*
X03466Y02833*
X0347Y02837*
X03472Y02842*
Y02848*
X0347Y02854*
X03466Y02858*
X0346Y0286*
G37*
G36*
X03274Y02847D02*
X03268D01*
X03263Y02845*
X03259Y02841*
X03256Y02836*
Y0283*
X03259Y02824*
X03263Y0282*
X03268Y02818*
X03274*
X0328Y0282*
X03284Y02824*
X03286Y0283*
Y02836*
X03284Y02841*
X0328Y02845*
X03274Y02847*
G37*
G36*
X03462Y02821D02*
X03456D01*
X03451Y02819*
X03447Y02814*
X03444Y02809*
Y02803*
X03447Y02798*
X03451Y02793*
X03456Y02791*
X03462*
X03467Y02793*
X03472Y02798*
X03474Y02803*
Y02809*
X03472Y02814*
X03467Y02819*
X03462Y02821*
G37*
G36*
X03519Y02803D02*
X03513D01*
X03508Y028*
X03503Y02796*
X03501Y02791*
Y02785*
X03503Y02779*
X03508Y02775*
X03513Y02773*
X03519*
X03524Y02775*
X03529Y02779*
X03531Y02785*
Y02791*
X03529Y02796*
X03524Y028*
X03519Y02803*
G37*
G36*
X03462Y02781D02*
X03456D01*
X03451Y02779*
X03447Y02775*
X03444Y02769*
Y02764*
X03447Y02758*
X03451Y02754*
X03456Y02752*
X03462*
X03468Y02754*
X03472Y02758*
X03474Y02764*
Y02769*
X03472Y02775*
X03468Y02779*
X03462Y02781*
G37*
G36*
X02945Y02781D02*
X02939D01*
X02934Y02779*
X02929Y02774*
X02927Y02769*
Y02763*
X02929Y02758*
X02934Y02753*
X02939Y02751*
X02945*
X0295Y02753*
X02955Y02758*
X02957Y02763*
Y02769*
X02955Y02774*
X0295Y02779*
X02945Y02781*
G37*
G36*
X02866D02*
X0286D01*
X02855Y02779*
X02851Y02774*
X02848Y02769*
Y02763*
X02851Y02758*
X02855Y02753*
X0286Y02751*
X02866*
X02872Y02753*
X02876Y02758*
X02878Y02763*
Y02769*
X02876Y02774*
X02872Y02779*
X02866Y02781*
G37*
G36*
X02788D02*
X02782D01*
X02776Y02779*
X02772Y02774*
X0277Y02769*
Y02763*
X02772Y02758*
X02776Y02753*
X02782Y02751*
X02788*
X02793Y02753*
X02797Y02758*
X02799Y02763*
Y02769*
X02797Y02774*
X02793Y02779*
X02788Y02781*
G37*
G36*
X02709D02*
X02703D01*
X02697Y02779*
X02693Y02774*
X02691Y02769*
Y02763*
X02693Y02758*
X02697Y02753*
X02703Y02751*
X02709*
X02714Y02753*
X02718Y02758*
X02721Y02763*
Y02769*
X02718Y02774*
X02714Y02779*
X02709Y02781*
G37*
G36*
X03271Y02765D02*
X03266D01*
X0326Y02763*
X03256Y02759*
X03254Y02753*
Y02747*
X03256Y02742*
X0326Y02738*
X03266Y02736*
X03271*
X03277Y02738*
X03281Y02742*
X03283Y02747*
Y02753*
X03281Y02759*
X03277Y02763*
X03271Y02765*
G37*
G36*
X03463Y02744D02*
X03457D01*
X03451Y02742*
X03447Y02737*
X03445Y02732*
Y02726*
X03447Y02721*
X03451Y02716*
X03457Y02714*
X03463*
X03468Y02716*
X03472Y02721*
X03474Y02726*
Y02732*
X03472Y02737*
X03468Y02742*
X03463Y02744*
G37*
G36*
X02908Y02743D02*
X02902D01*
X02896Y0274*
X02892Y02736*
X0289Y02731*
Y02725*
X02892Y02719*
X02896Y02715*
X02902Y02713*
X02908*
X02913Y02715*
X02917Y02719*
X0292Y02725*
Y02731*
X02917Y02736*
X02913Y0274*
X02908Y02743*
G37*
G36*
X02829D02*
X02823D01*
X02818Y0274*
X02814Y02736*
X02811Y02731*
Y02725*
X02814Y02719*
X02818Y02715*
X02823Y02713*
X02829*
X02835Y02715*
X02839Y02719*
X02841Y02725*
Y02731*
X02839Y02736*
X02835Y0274*
X02829Y02743*
G37*
G36*
X0275D02*
X02744D01*
X02739Y0274*
X02735Y02736*
X02733Y02731*
Y02725*
X02735Y02719*
X02739Y02715*
X02744Y02713*
X0275*
X02756Y02715*
X0276Y02719*
X02762Y02725*
Y02731*
X0276Y02736*
X02756Y0274*
X0275Y02743*
G37*
G36*
X03183D02*
X03177D01*
X03172Y0274*
X03168Y02736*
X03166Y02731*
Y02725*
X03168Y02719*
X03172Y02715*
X03177Y02713*
X03183*
X03189Y02715*
X03193Y02719*
X03195Y02725*
Y02731*
X03193Y02736*
X03189Y0274*
X03183Y02743*
G37*
G36*
X02553D02*
X02548D01*
X02542Y0274*
X02538Y02736*
X02536Y02731*
Y02725*
X02538Y02719*
X02542Y02715*
X02548Y02713*
X02553*
X02559Y02715*
X02563Y02719*
X02565Y02725*
Y02731*
X02563Y02736*
X02559Y0274*
X02553Y02743*
G37*
G36*
X03527Y02735D02*
X03521D01*
X03515Y02732*
X03511Y02728*
X03509Y02723*
Y02717*
X03511Y02711*
X03515Y02707*
X03521Y02705*
X03527*
X03532Y02707*
X03536Y02711*
X03538Y02717*
Y02723*
X03536Y02728*
X03532Y02732*
X03527Y02735*
G37*
G36*
X0327Y02729D02*
X03264D01*
X03258Y02727*
X03254Y02723*
X03252Y02717*
Y02711*
X03254Y02706*
X03258Y02702*
X03264Y02699*
X0327*
X03275Y02702*
X03279Y02706*
X03282Y02711*
Y02717*
X03279Y02723*
X03275Y02727*
X0327Y02729*
G37*
G36*
X03618Y02743D02*
X03612D01*
X03607Y0274*
X03603Y02736*
X036Y02731*
Y02725*
X03603Y02719*
X03605Y02718*
X03605Y02713*
X03605Y02712*
X03603Y02707*
Y02702*
X03605Y02696*
X03609Y02692*
X03614Y0269*
X0362*
X03626Y02692*
X0363Y02696*
X03632Y02702*
Y02707*
X0363Y02713*
X03628Y02715*
X03628Y02719*
X03628Y0272*
X0363Y02725*
Y02731*
X03628Y02736*
X03624Y0274*
X03618Y02743*
G37*
G36*
X02385Y02715D02*
X02379D01*
X02374Y02713*
X0237Y02709*
X02367Y02703*
Y02697*
X0237Y02692*
X02374Y02688*
X02379Y02686*
X02385*
X02391Y02688*
X02395Y02692*
X02397Y02697*
Y02703*
X02395Y02709*
X02391Y02713*
X02385Y02715*
G37*
G36*
X0339Y02707D02*
X03384D01*
X03379Y02705*
X03375Y02701*
X03372Y02695*
Y02689*
X03375Y02684*
X03379Y0268*
X03384Y02677*
X0339*
X03396Y0268*
X034Y02684*
X03402Y02689*
Y02695*
X034Y02701*
X03396Y02705*
X0339Y02707*
G37*
G36*
X02945Y02702D02*
X02939D01*
X02934Y027*
X02929Y02696*
X02927Y0269*
Y02684*
X02929Y02679*
X02934Y02675*
X02939Y02672*
X02945*
X0295Y02675*
X02955Y02679*
X02957Y02684*
Y0269*
X02955Y02696*
X0295Y027*
X02945Y02702*
G37*
G36*
X02866D02*
X0286D01*
X02855Y027*
X02851Y02696*
X02848Y0269*
Y02684*
X02851Y02679*
X02855Y02675*
X0286Y02672*
X02866*
X02872Y02675*
X02876Y02679*
X02878Y02684*
Y0269*
X02876Y02696*
X02872Y027*
X02866Y02702*
G37*
G36*
X02788D02*
X02782D01*
X02776Y027*
X02772Y02696*
X0277Y0269*
Y02684*
X02772Y02679*
X02776Y02675*
X02782Y02672*
X02788*
X02793Y02675*
X02797Y02679*
X02799Y02684*
Y0269*
X02797Y02696*
X02793Y027*
X02788Y02702*
G37*
G36*
X02709D02*
X02703D01*
X02697Y027*
X02693Y02696*
X02691Y0269*
Y02684*
X02693Y02679*
X02697Y02675*
X02703Y02672*
X02709*
X02714Y02675*
X02718Y02679*
X02721Y02684*
Y0269*
X02718Y02696*
X02714Y027*
X02709Y02702*
G37*
G36*
X03253Y02687D02*
X03247D01*
X03242Y02685*
X03238Y02681*
X03235Y02676*
Y0267*
X03238Y02664*
X03242Y0266*
X03247Y02658*
X03253*
X03259Y0266*
X03263Y02664*
X03265Y0267*
Y02676*
X03263Y02681*
X03259Y02685*
X03253Y02687*
G37*
G36*
X02908Y02664D02*
X02902D01*
X02896Y02662*
X02892Y02657*
X0289Y02652*
Y02646*
X02892Y02641*
X02896Y02636*
X02902Y02634*
X02908*
X02913Y02636*
X02917Y02641*
X0292Y02646*
Y02652*
X02917Y02657*
X02913Y02662*
X02908Y02664*
G37*
G36*
X02829D02*
X02823D01*
X02818Y02662*
X02814Y02657*
X02811Y02652*
Y02646*
X02814Y02641*
X02818Y02636*
X02823Y02634*
X02829*
X02835Y02636*
X02839Y02641*
X02841Y02646*
Y02652*
X02839Y02657*
X02835Y02662*
X02829Y02664*
G37*
G36*
X0275D02*
X02744D01*
X02739Y02662*
X02735Y02657*
X02733Y02652*
Y02646*
X02735Y02641*
X02739Y02636*
X02744Y02634*
X0275*
X02756Y02636*
X0276Y02641*
X02762Y02646*
Y02652*
X0276Y02657*
X02756Y02662*
X0275Y02664*
G37*
G36*
X02392Y02663D02*
X02386D01*
X02381Y02661*
X02376Y02656*
X02374Y02651*
Y02645*
X02375Y02643*
X02376Y02639*
X0237Y02637*
X02366Y02633*
X02364Y02628*
Y02622*
X02366Y02616*
X0237Y02612*
X02376Y0261*
X02382*
X02387Y02612*
X02391Y02616*
X02394Y02622*
Y02628*
X02393Y0263*
X02392Y02633*
X02397Y02635*
X02402Y0264*
X02404Y02645*
Y02651*
X02402Y02656*
X02397Y02661*
X02392Y02663*
G37*
G36*
X03381Y02667D02*
X03375D01*
X0337Y02664*
X03365Y0266*
X03363Y02655*
Y02649*
X03365Y02643*
X0337Y02639*
X03375Y02637*
X03381*
X03381Y02637*
X03383Y02634*
X0338Y0263*
X03378Y02625*
Y02619*
X0338Y02613*
X03384Y02609*
X0339Y02607*
X03395*
X03401Y02609*
X03405Y02613*
X03407Y02619*
Y02625*
X03405Y0263*
X03401Y02634*
X03395Y02637*
X0339*
X03389Y02637*
X03387Y0264*
X03391Y02643*
X03393Y02649*
Y02655*
X03391Y0266*
X03386Y02664*
X03381Y02667*
G37*
G36*
X0325Y0265D02*
X03244D01*
X03239Y02647*
X03234Y02643*
X03232Y02638*
Y02632*
X03234Y02626*
X03239Y02622*
X03244Y0262*
X03249*
X0325Y02619*
X03253Y02617*
Y02613*
X03255Y02607*
X03259Y02603*
X03265Y02601*
X0327*
X03276Y02603*
X0328Y02607*
X03282Y02613*
Y02619*
X0328Y02624*
X03276Y02628*
X0327Y02631*
X03266*
X03264Y02631*
X03262Y02634*
Y02638*
X0326Y02643*
X03255Y02647*
X0325Y0265*
G37*
G36*
X02945Y02623D02*
X02939D01*
X02934Y02621*
X02929Y02617*
X02927Y02611*
Y02606*
X02929Y026*
X02934Y02596*
X02939Y02594*
X02945*
X0295Y02596*
X02955Y026*
X02957Y02606*
Y02611*
X02955Y02617*
X0295Y02621*
X02945Y02623*
G37*
G36*
X02866D02*
X0286D01*
X02855Y02621*
X02851Y02617*
X02848Y02611*
Y02606*
X02851Y026*
X02855Y02596*
X0286Y02594*
X02866*
X02872Y02596*
X02876Y026*
X02878Y02606*
Y02611*
X02876Y02617*
X02872Y02621*
X02866Y02623*
G37*
G36*
X02788D02*
X02782D01*
X02776Y02621*
X02772Y02617*
X0277Y02611*
Y02606*
X02772Y026*
X02776Y02596*
X02782Y02594*
X02788*
X02793Y02596*
X02797Y026*
X02799Y02606*
Y02611*
X02797Y02617*
X02793Y02621*
X02788Y02623*
G37*
G36*
X02709D02*
X02703D01*
X02697Y02621*
X02693Y02617*
X02691Y02611*
Y02606*
X02693Y026*
X02697Y02596*
X02703Y02594*
X02709*
X02714Y02596*
X02718Y026*
X02721Y02606*
Y02611*
X02718Y02617*
X02714Y02621*
X02709Y02623*
G37*
G36*
X02379Y02591D02*
X02373D01*
X02367Y02589*
X02363Y02584*
X02361Y02579*
Y02573*
X02363Y02568*
X02367Y02563*
X02373Y02561*
X02379*
X02384Y02563*
X02388Y02568*
X02391Y02573*
Y02579*
X02388Y02584*
X02384Y02589*
X02379Y02591*
G37*
G36*
X02908Y02585D02*
X02902D01*
X02896Y02583*
X02892Y02579*
X0289Y02573*
Y02567*
X02892Y02562*
X02896Y02558*
X02902Y02555*
X02908*
X02913Y02558*
X02917Y02562*
X0292Y02567*
Y02573*
X02917Y02579*
X02913Y02583*
X02908Y02585*
G37*
G36*
X02829D02*
X02823D01*
X02818Y02583*
X02814Y02579*
X02811Y02573*
Y02567*
X02814Y02562*
X02818Y02558*
X02823Y02555*
X02829*
X02835Y02558*
X02839Y02562*
X02841Y02567*
Y02573*
X02839Y02579*
X02835Y02583*
X02829Y02585*
G37*
G36*
X0275D02*
X02744D01*
X02739Y02583*
X02735Y02579*
X02733Y02573*
Y02567*
X02735Y02562*
X02739Y02558*
X02744Y02555*
X0275*
X02756Y02558*
X0276Y02562*
X02762Y02567*
Y02573*
X0276Y02579*
X02756Y02583*
X0275Y02585*
G37*
G36*
X03462Y02581D02*
X03456D01*
X03451Y02579*
X03447Y02575*
X03444Y0257*
Y02564*
X03447Y02558*
X03451Y02554*
X03456Y02552*
X03462*
X03468Y02554*
X03472Y02558*
X03474Y02564*
Y0257*
X03472Y02575*
X03468Y02579*
X03462Y02581*
G37*
G36*
X03588Y02577D02*
X03582D01*
X03577Y02575*
X03573Y02571*
X0357Y02565*
Y02559*
X03573Y02554*
X03577Y0255*
X03582Y02547*
X03588*
X03594Y0255*
X03598Y02554*
X036Y02559*
Y02565*
X03598Y02571*
X03594Y02575*
X03588Y02577*
G37*
G36*
X03269Y02572D02*
X03264D01*
X03258Y0257*
X03254Y02565*
X03252Y0256*
Y02554*
X03254Y02549*
X03258Y02544*
X03264Y02542*
X03269*
X03275Y02544*
X03279Y02549*
X03281Y02554*
Y0256*
X03279Y02565*
X03275Y0257*
X03269Y02572*
G37*
G36*
X03657Y02551D02*
X03651D01*
X03645Y02549*
X03641Y02545*
X03639Y02539*
Y02534*
X03641Y02528*
X03645Y02524*
X03651Y02522*
X03657*
X03662Y02524*
X03666Y02528*
X03669Y02534*
Y02539*
X03666Y02545*
X03662Y02549*
X03657Y02551*
G37*
G36*
X02945Y02545D02*
X02939D01*
X02934Y02542*
X02929Y02538*
X02927Y02533*
Y02527*
X02929Y02521*
X02934Y02517*
X02939Y02515*
X02945*
X0295Y02517*
X02955Y02521*
X02957Y02527*
Y02533*
X02955Y02538*
X0295Y02542*
X02945Y02545*
G37*
G36*
X02866D02*
X0286D01*
X02855Y02542*
X02851Y02538*
X02848Y02533*
Y02527*
X02851Y02521*
X02855Y02517*
X0286Y02515*
X02866*
X02872Y02517*
X02876Y02521*
X02878Y02527*
Y02533*
X02876Y02538*
X02872Y02542*
X02866Y02545*
G37*
G36*
X02788D02*
X02782D01*
X02776Y02542*
X02772Y02538*
X0277Y02533*
Y02527*
X02772Y02521*
X02776Y02517*
X02782Y02515*
X02788*
X02793Y02517*
X02797Y02521*
X02799Y02527*
Y02533*
X02797Y02538*
X02793Y02542*
X02788Y02545*
G37*
G36*
X02709D02*
X02703D01*
X02697Y02542*
X02693Y02538*
X02691Y02533*
Y02527*
X02693Y02521*
X02697Y02517*
X02703Y02515*
X02709*
X02714Y02517*
X02718Y02521*
X02721Y02527*
Y02533*
X02718Y02538*
X02714Y02542*
X02709Y02545*
G37*
G36*
X03731Y02534D02*
X03726D01*
X0372Y02532*
X03716Y02527*
X03714Y02522*
Y02516*
X03716Y02511*
X0372Y02506*
X03726Y02504*
X03731*
X03737Y02506*
X03741Y02511*
X03743Y02516*
Y02522*
X03741Y02527*
X03737Y02532*
X03731Y02534*
G37*
G36*
X03794Y02471D02*
X03788D01*
X03783Y02469*
X03778Y02465*
X03776Y02459*
Y02453*
X03778Y02448*
X03783Y02444*
X03788Y02441*
X03794*
X03799Y02444*
X03804Y02448*
X03806Y02453*
Y02459*
X03804Y02465*
X03799Y02469*
X03794Y02471*
G37*
G36*
X03455Y02468D02*
X03449D01*
X03444Y02465*
X0344Y02461*
X03437Y02456*
Y0245*
X0344Y02444*
X03444Y0244*
X03449Y02438*
X03455*
X03456Y02436*
X03457Y02435*
X03457Y02434*
Y02428*
X0346Y02423*
X03464Y02419*
X03469Y02416*
X03475*
X0348Y02419*
X03485Y02423*
X03487Y02428*
Y02434*
X03485Y0244*
X0348Y02444*
X03475Y02446*
X0347*
X03468Y02448*
X03467Y02449*
X03467Y0245*
Y02456*
X03465Y02461*
X03461Y02465*
X03455Y02468*
G37*
G36*
X03531Y02426D02*
X03525D01*
X0352Y02424*
X03516Y0242*
X03514Y02416*
X0351Y02416*
X03506Y0242*
X035Y02422*
X03494*
X03489Y0242*
X03485Y02416*
X03483Y02411*
Y02405*
X03485Y02399*
X03489Y02395*
X03494Y02393*
X035*
X03506Y02395*
X0351Y02399*
X03511Y02403*
X03516Y02403*
X0352Y02399*
X03525Y02397*
X03531*
X03537Y02399*
X03541Y02403*
X03543Y02408*
Y02414*
X03541Y0242*
X03537Y02424*
X03531Y02426*
G37*
G36*
X03656Y02428D02*
X0365D01*
X03644Y02425*
X0364Y02421*
X03638Y02416*
Y02411*
X03636Y02409*
X03634Y02408*
X03633Y02409*
X03627*
X03622Y02406*
X03618Y02402*
X03615Y02397*
Y02391*
X03618Y02385*
X03622Y02381*
X03627Y02379*
X03633*
X03639Y02381*
X03643Y02385*
X03645Y02391*
Y02396*
X03648Y02398*
X03649Y02398*
X0365Y02398*
X03656*
X03661Y024*
X03665Y02404*
X03668Y0241*
Y02416*
X03665Y02421*
X03661Y02425*
X03656Y02428*
G37*
G36*
X02386Y02475D02*
X02381D01*
X02375Y02473*
X02371Y02468*
X02369Y02463*
Y02457*
X0237Y02454*
X02366Y02452*
X02362Y02448*
X0236Y02443*
Y02437*
X02362Y02431*
X02364Y02429*
X02364Y02428*
X02362Y02422*
Y02417*
X02364Y02411*
X02368Y02407*
X02373Y02405*
X02379*
X02385Y02407*
X02389Y02411*
X02391Y02417*
Y02422*
X02389Y02428*
X02386Y02431*
X02387Y02431*
X02389Y02437*
Y02443*
X02388Y02446*
X02392Y02447*
X02396Y02452*
X02398Y02457*
Y02463*
X02396Y02468*
X02392Y02473*
X02386Y02475*
G37*
G36*
X03273Y02434D02*
X03267D01*
X03262Y02432*
X03257Y02428*
X03255Y02422*
Y02416*
X03257Y02411*
X03262Y02407*
X03267Y02404*
X03273*
X03278Y02407*
X03283Y02411*
X03285Y02416*
Y02422*
X03283Y02428*
X03278Y02432*
X03273Y02434*
G37*
G36*
X03026Y02428D02*
X0302D01*
X03015Y02425*
X0301Y02421*
X03008Y02416*
Y0241*
X0301Y02404*
X03015Y024*
X0302Y02398*
X03026*
X03031Y024*
X03036Y02404*
X03038Y0241*
Y02416*
X03036Y02421*
X03031Y02425*
X03026Y02428*
G37*
G36*
X02711D02*
X02705D01*
X027Y02425*
X02695Y02421*
X02693Y02416*
Y0241*
X02695Y02404*
X027Y024*
X02705Y02398*
X02711*
X02716Y024*
X02721Y02404*
X02723Y0241*
Y02416*
X02721Y02421*
X02716Y02425*
X02711Y02428*
G37*
G36*
X02378Y02393D02*
X02372D01*
X02367Y02391*
X02363Y02387*
X0236Y02381*
Y02375*
X02363Y0237*
X02367Y02366*
X02372Y02364*
X02378*
X02384Y02366*
X02387Y02369*
X02391Y02369*
X02391Y02368*
X02396Y02364*
X02401Y02362*
X02407*
X02412Y02364*
X02417Y02368*
X02419Y02373*
Y02379*
X02417Y02385*
X02412Y02389*
X02407Y02391*
X02401*
X02396Y02389*
X02392Y02386*
X02388Y02386*
X02388Y02387*
X02384Y02391*
X02378Y02393*
G37*
G36*
X03439Y02355D02*
X03433D01*
X03427Y02352*
X03423Y02348*
X03421Y02343*
Y02337*
X03423Y02331*
X03427Y02327*
X03433Y02325*
X03439*
X03444Y02327*
X03448Y02331*
X0345Y02337*
Y02343*
X03448Y02348*
X03444Y02352*
X03439Y02355*
G37*
G36*
X02383Y02352D02*
X02377D01*
X02372Y0235*
X02368Y02346*
X02365Y0234*
Y02334*
X02368Y02329*
X02372Y02325*
X02377Y02322*
X02383*
X02389Y02325*
X02393Y02329*
X02395Y02334*
Y0234*
X02393Y02346*
X02389Y0235*
X02383Y02352*
G37*
G36*
X03394Y02335D02*
X03388D01*
X03383Y02333*
X03378Y02328*
X03376Y02323*
Y02317*
X03378Y02312*
X03383Y02307*
X03388Y02305*
X03394*
X03399Y02307*
X03404Y02312*
X03406Y02317*
Y02323*
X03404Y02328*
X03399Y02333*
X03394Y02335*
G37*
G36*
X03676Y02309D02*
X0367D01*
X03665Y02307*
X03661Y02304*
X0366Y02303*
X03656Y02303*
X03654Y02306*
X03649Y02308*
X03643*
X03637Y02306*
X03633Y02301*
X03633Y02301*
X03629Y02305*
X03624Y02307*
X03618*
X03612Y02305*
X03608Y02301*
X03606Y02295*
Y02294*
X03602Y02293*
X03602Y02294*
X03597Y02298*
X03592Y02301*
X03586*
X03581Y02298*
X03576Y02294*
X03574Y02289*
Y02283*
X03576Y02277*
X03581Y02273*
X03586Y02271*
X03592*
X03597Y02273*
X03602Y02277*
X03604Y02283*
Y02284*
X03608Y02285*
X03608Y02284*
X03612Y0228*
X03618Y02277*
X03624*
X03629Y0228*
X03633Y02284*
X03634Y02284*
X03637Y0228*
X03643Y02278*
X03649*
X03654Y0228*
X03658Y02284*
X03659Y02285*
X03663Y02284*
X03665Y02282*
X0367Y0228*
X03676*
X03679Y02281*
X03682Y02278*
X03681Y02277*
Y02271*
X03684Y02266*
X03688Y02261*
X03693Y02259*
X03699*
X03705Y02261*
X03709Y02266*
X03711Y02271*
Y02277*
X03709Y02282*
X03705Y02287*
X03699Y02289*
X03693*
X03691Y02288*
X03688Y02291*
X03688Y02292*
Y02297*
X03686Y02303*
X03682Y02307*
X03676Y02309*
G37*
G36*
X0354Y02327D02*
X03534D01*
X03528Y02325*
X03524Y02321*
X03522Y02316*
Y0231*
X03524Y02304*
X03528Y023*
X03534Y02298*
X0354*
X03545Y023*
X03549Y02304*
X03552Y0231*
Y02316*
X03549Y02321*
X03545Y02325*
X0354Y02327*
G37*
G36*
X0348Y02326D02*
X03474D01*
X03469Y02323*
X03464Y02319*
X03462Y02314*
Y02308*
X03464Y02302*
X03469Y02298*
X03474Y02296*
X0348*
X03485Y02298*
X0349Y02302*
X03492Y02308*
Y02314*
X0349Y02319*
X03485Y02323*
X0348Y02326*
G37*
G36*
X03482Y0229D02*
X03476D01*
X03471Y02288*
X03467Y02284*
X03464Y02279*
Y02273*
X03467Y02267*
X03471Y02263*
X03476Y02261*
X03482*
X03488Y02263*
X03492Y02267*
X03494Y02273*
Y02279*
X03492Y02284*
X03488Y02288*
X03482Y0229*
G37*
G36*
X03271Y02277D02*
X03265D01*
X03259Y02274*
X03255Y0227*
X03253Y02265*
Y02259*
X03255Y02253*
X03259Y02249*
X03265Y02247*
X03271*
X03276Y02249*
X0328Y02253*
X03283Y02259*
Y02265*
X0328Y0227*
X03276Y02274*
X03271Y02277*
G37*
G36*
X03457Y02245D02*
X03451D01*
X03445Y02243*
X03441Y02239*
X03439Y02233*
Y02228*
X03441Y02222*
X03445Y02218*
X03451Y02216*
X03457*
X03462Y02218*
X03466Y02222*
X03469Y02228*
Y02233*
X03466Y02239*
X03462Y02243*
X03457Y02245*
G37*
G36*
X02645Y02224D02*
X02639D01*
X02634Y02222*
X02629Y02218*
X02629Y02216*
X02625Y02214*
X0262Y02216*
X02614*
X02608Y02214*
X02604Y02209*
X02602Y02204*
Y02198*
X02604Y02193*
X02608Y02188*
X02614Y02186*
X0262*
X02625Y02188*
X02629Y02193*
X0263Y02195*
X02634Y02197*
X02639Y02195*
X02645*
X0265Y02197*
X02655Y02201*
X02657Y02206*
Y02212*
X02655Y02218*
X0265Y02222*
X02645Y02224*
G37*
G36*
X0256Y02237D02*
X02554D01*
X02549Y02235*
X02544Y02231*
X02542Y02225*
Y02219*
X02544Y02216*
X02541Y02212*
X0254Y02213*
X02536*
X02536Y02214*
Y02219*
X02533Y02225*
X02529Y02229*
X02524Y02231*
X02518*
X02512Y02229*
X02508Y02225*
X02506Y02219*
Y02216*
X02503Y02213*
X02502Y02213*
X02497*
X02491Y02211*
X02487Y02207*
X02485Y02201*
Y02195*
X02487Y0219*
X02491Y02186*
X02497Y02183*
X02503*
X02508Y02186*
X02512Y0219*
X02514Y02195*
Y02199*
X02518Y02202*
X02522Y02201*
X02522Y02201*
Y02195*
X02524Y0219*
X02528Y02185*
X02534Y02183*
X0254*
X02545Y02185*
X02549Y0219*
X02552Y02195*
Y02201*
X0255Y02205*
X02553Y02208*
X02554Y02207*
X02559*
X02561Y02206*
X02562Y02204*
X02562Y02202*
Y02196*
X02564Y02191*
X02568Y02187*
X02574Y02184*
X02579*
X02585Y02187*
X02589Y02191*
X02591Y02196*
Y02202*
X02589Y02208*
X02585Y02212*
X02579Y02214*
X02574*
X02572Y02216*
X02571Y02217*
X02572Y02219*
Y02225*
X0257Y02231*
X02565Y02235*
X0256Y02237*
G37*
G36*
X03095Y02217D02*
X03089D01*
X03083Y02215*
X0308Y02212*
X03078Y02215*
X03072Y02217*
X03066*
X03061Y02215*
X03057Y0221*
X03054Y02205*
Y02199*
X03057Y02194*
X03061Y02189*
X03066Y02187*
X03072*
X03078Y02189*
X0308Y02192*
X03083Y02189*
X03089Y02187*
X03095*
X031Y02189*
X03104Y02194*
X03107Y02199*
Y02205*
X03104Y0221*
X031Y02215*
X03095Y02217*
G37*
G36*
X03394Y0222D02*
X03389D01*
X03383Y02217*
X03379Y02213*
X03377Y02208*
Y02202*
X03379Y02196*
X03383Y02192*
X03389Y0219*
X03394*
X034Y02192*
X03404Y02196*
X03406Y02202*
Y02208*
X03404Y02213*
X034Y02217*
X03394Y0222*
G37*
G36*
X03131Y02218D02*
X03125D01*
X0312Y02216*
X03116Y02212*
X03113Y02206*
Y022*
X03116Y02195*
X0312Y02191*
X03125Y02189*
X03131*
X03137Y02191*
X03141Y02195*
X03143Y022*
Y02206*
X03141Y02212*
X03137Y02216*
X03131Y02218*
G37*
G36*
X0333Y02218D02*
X03324D01*
X03319Y02216*
X03315Y02211*
X03312Y02206*
Y022*
X03315Y02195*
X03319Y02191*
X03324Y02188*
X0333*
X03336Y02191*
X0334Y02195*
X03342Y022*
Y02206*
X0334Y02211*
X03336Y02216*
X0333Y02218*
G37*
G36*
X03166Y02225D02*
X0316D01*
X03154Y02223*
X0315Y02218*
X03148Y02213*
Y02207*
X0315Y02202*
X03154Y02197*
X0316Y02195*
X03166*
X03171Y02197*
X03174Y02197*
X03175Y02195*
X03179Y02191*
X03184Y02188*
X0319*
X03196Y02191*
X032Y02195*
X03202Y022*
Y02206*
X032Y02211*
X03196Y02216*
X0319Y02218*
X03184*
X03179Y02216*
X03176Y02216*
X03175Y02218*
X03171Y02223*
X03166Y02225*
G37*
G36*
X02856Y02218D02*
X0285D01*
X02844Y02216*
X0284Y02211*
X02838Y02206*
Y022*
X0284Y02195*
X02844Y02191*
X0285Y02188*
X02856*
X02861Y02191*
X02865Y02195*
X02868Y022*
Y02206*
X02865Y02211*
X02861Y02216*
X02856Y02218*
G37*
G36*
X02934Y02217D02*
X02928D01*
X02923Y02215*
X02919Y02211*
X02917Y02205*
Y02199*
X02919Y02194*
X02923Y0219*
X02928Y02187*
X02934*
X0294Y0219*
X02944Y02194*
X02946Y02199*
Y02205*
X02944Y02211*
X0294Y02215*
X02934Y02217*
G37*
G36*
X02985Y02216D02*
X02979D01*
X02974Y02214*
X02969Y0221*
X02967Y02204*
Y02199*
X02969Y02193*
X02974Y02189*
X02979Y02187*
X02985*
X0299Y02189*
X02995Y02193*
X02997Y02199*
Y02204*
X02995Y0221*
X0299Y02214*
X02985Y02216*
G37*
G36*
X02696Y02214D02*
X0269D01*
X02684Y02212*
X0268Y02208*
X02678Y02202*
Y02196*
X0268Y02191*
X02684Y02187*
X0269Y02184*
X02696*
X02701Y02187*
X02705Y02191*
X02708Y02196*
Y02202*
X02705Y02208*
X02701Y02212*
X02696Y02214*
G37*
G36*
X0328Y02187D02*
X03274D01*
X03269Y02185*
X03265Y02181*
X03262Y02175*
Y02169*
X03265Y02164*
X03269Y0216*
X03274Y02157*
X0328*
X03286Y0216*
X0329Y02164*
X03292Y02169*
Y02175*
X0329Y02181*
X03286Y02185*
X0328Y02187*
G37*
G36*
X03314Y02133D02*
X03308D01*
X03302Y02131*
X03298Y02127*
X03296Y02121*
Y02115*
X03298Y0211*
X03302Y02106*
X03308Y02104*
X03314*
X03319Y02106*
X03323Y0211*
X03326Y02115*
Y02121*
X03323Y02127*
X03319Y02131*
X03314Y02133*
G37*
G36*
X03498Y02113D02*
X03492D01*
X03487Y0211*
X03483Y02106*
X03481Y02101*
Y02095*
X03483Y02089*
X03487Y02085*
X03492Y02083*
X03498*
X03504Y02085*
X03508Y02089*
X0351Y02095*
Y02101*
X03508Y02106*
X03504Y0211*
X03498Y02113*
G37*
G36*
X02485Y02109D02*
X02479D01*
X02474Y02106*
X02469Y02102*
X02467Y02097*
Y02091*
X02469Y02085*
X02474Y02081*
X02479Y02079*
X02485*
X0249Y02081*
X02495Y02085*
X02497Y02091*
Y02097*
X02495Y02102*
X0249Y02106*
X02485Y02109*
G37*
G36*
X02778Y02085D02*
X02772D01*
X02766Y02083*
X02762Y02079*
X0276Y02074*
Y02068*
X02762Y02062*
X02766Y02058*
X02772Y02056*
X02778*
X02783Y02058*
X02787Y02062*
X0279Y02068*
Y02074*
X02787Y02079*
X02783Y02083*
X02778Y02085*
G37*
G36*
X03166Y02081D02*
X03161D01*
X03155Y02079*
X03151Y02075*
X03149Y02069*
Y02063*
X03151Y02058*
X03155Y02054*
X03161Y02052*
X03166*
X03172Y02054*
X03176Y02058*
X03178Y02063*
Y02069*
X03176Y02075*
X03172Y02079*
X03166Y02081*
G37*
G36*
X02513Y0208D02*
X02507D01*
X02501Y02078*
X02497Y02073*
X02495Y02068*
Y02062*
X02497Y02057*
X02501Y02052*
X02507Y0205*
X02513*
X02518Y02052*
X02522Y02057*
X02525Y02062*
Y02068*
X02522Y02073*
X02518Y02078*
X02513Y0208*
G37*
G36*
X02318Y02078D02*
X02312D01*
X02306Y02076*
X02302Y02072*
X023Y02066*
Y0206*
X02302Y02055*
X02306Y02051*
X02312Y02049*
X02318*
X02323Y02051*
X02327Y02055*
X02329Y0206*
Y02066*
X02327Y02072*
X02323Y02076*
X02318Y02078*
G37*
G36*
X02464Y02078D02*
X02458D01*
X02453Y02075*
X02449Y02071*
X02447Y02066*
Y0206*
X02449Y02054*
X02453Y0205*
X02458Y02048*
X02464*
X0247Y0205*
X02474Y02054*
X02476Y0206*
Y02066*
X02474Y02071*
X0247Y02075*
X02464Y02078*
G37*
G36*
X02417Y02077D02*
X02411D01*
X02405Y02074*
X02401Y0207*
X02399Y02065*
Y02059*
X02401Y02053*
X02405Y02049*
X02411Y02047*
X02417*
X02422Y02049*
X02426Y02053*
X02429Y02059*
Y02065*
X02426Y0207*
X02422Y02074*
X02417Y02077*
G37*
G36*
X02366Y02077D02*
X02361D01*
X02355Y02074*
X02351Y0207*
X02349Y02065*
Y02059*
X02351Y02053*
X02355Y02049*
X02361Y02047*
X02366*
X02372Y02049*
X02376Y02053*
X02378Y02059*
Y02065*
X02376Y0207*
X02372Y02074*
X02366Y02077*
G37*
G36*
X0317Y02047D02*
X03164D01*
X03159Y02045*
X03154Y02041*
X03152Y02036*
Y0203*
X03154Y02024*
X03159Y0202*
X03164Y02018*
X0317*
X03175Y0202*
X0318Y02024*
X03182Y0203*
Y02036*
X0318Y02041*
X03175Y02045*
X0317Y02047*
G37*
G36*
X02549Y02032D02*
X02543D01*
X02538Y0203*
X02534Y02025*
X02531Y0202*
Y02014*
X02534Y02009*
X02538Y02004*
X02543Y02002*
X02549*
X02555Y02004*
X02559Y02009*
X02561Y02014*
Y0202*
X02559Y02025*
X02555Y0203*
X02549Y02032*
G37*
G36*
X0294Y02031D02*
X02934D01*
X02928Y02028*
X02924Y02024*
X02922Y02019*
Y02013*
X02924Y02007*
X02928Y02003*
X02934Y02001*
X0294*
X02945Y02003*
X02949Y02007*
X02952Y02013*
Y02019*
X02949Y02024*
X02945Y02028*
X0294Y02031*
G37*
G36*
X02861Y0203D02*
X02855D01*
X02849Y02028*
X02845Y02024*
X02843Y02018*
Y02012*
X02845Y02007*
X02849Y02003*
X02855Y02*
X02861*
X02866Y02003*
X0287Y02007*
X02872Y02012*
Y02018*
X0287Y02024*
X02866Y02028*
X02861Y0203*
G37*
G36*
X02583Y02026D02*
X02577D01*
X02572Y02024*
X02567Y0202*
X02565Y02014*
Y02008*
X02567Y02003*
X02572Y01999*
X02577Y01996*
X02583*
X02588Y01999*
X02593Y02003*
X02595Y02008*
Y02014*
X02593Y0202*
X02588Y02024*
X02583Y02026*
G37*
G36*
X02716Y02026D02*
X0271D01*
X02704Y02024*
X027Y02019*
X02698Y02014*
Y02008*
X027Y02003*
X02704Y01998*
X0271Y01996*
X02716*
X02717Y01995*
Y01991*
X02719Y01986*
X02724Y01981*
X02729Y01979*
X02735*
X0274Y01981*
X02745Y01986*
X02747Y01991*
Y01991*
X0275Y01994*
X02751Y01993*
X02757*
X02762Y01996*
X02765Y01998*
X02769Y01998*
X0277Y01998*
X0277Y01996*
X02774Y01992*
X0278Y0199*
X02786*
X02791Y01992*
X02795Y01996*
X02798Y02002*
Y02008*
X02795Y02013*
X02791Y02017*
X02786Y0202*
X0278*
X02774Y02017*
X02771Y02014*
X02767Y02015*
X02767Y02015*
X02766Y02017*
X02762Y02021*
X02757Y02023*
X02751*
X02745Y02021*
X02741Y02017*
X02739Y02011*
Y02011*
X02736Y02009*
X02735Y02009*
X02729*
X02728Y0201*
Y02014*
X02725Y02019*
X02721Y02024*
X02716Y02026*
G37*
G36*
X02632Y02034D02*
X02626D01*
X02621Y02032*
X02617Y02028*
X02615Y02022*
Y02016*
X02617Y02011*
X0262Y02008*
X02616Y02004*
X02614Y01998*
Y01993*
X02616Y01987*
X0262Y01983*
X02626Y01981*
X02632*
X02637Y01983*
X02641Y01987*
X02644Y01993*
Y01998*
X02641Y02004*
X02638Y02007*
X02642Y02011*
X02644Y02016*
Y02022*
X02642Y02028*
X02638Y02032*
X02632Y02034*
G37*
G36*
X03143Y0201D02*
X03137D01*
X03132Y02007*
X03127Y02003*
X03125Y01998*
Y01992*
X03127Y01986*
X03132Y01982*
X03137Y0198*
X03143*
X03148Y01982*
X03152Y01986*
X03155Y01992*
Y01998*
X03152Y02003*
X03148Y02007*
X03143Y0201*
G37*
G36*
X0268Y02008D02*
X02674D01*
X02668Y02006*
X02664Y02002*
X02662Y01996*
Y0199*
X02664Y01985*
X02668Y01981*
X02674Y01978*
X0268*
X02685Y01981*
X02689Y01985*
X02692Y0199*
Y01996*
X02689Y02002*
X02685Y02006*
X0268Y02008*
G37*
G36*
X03217Y02008D02*
X03211D01*
X03205Y02006*
X03201Y02001*
X03199Y01996*
Y0199*
X03201Y01985*
X03205Y0198*
X03211Y01978*
X03217*
X03222Y0198*
X03226Y01985*
X03229Y0199*
Y01996*
X03226Y02001*
X03222Y02006*
X03217Y02008*
G37*
G36*
X04428Y0268D02*
X04423D01*
X04417Y02678*
X04413Y02674*
X04411Y02668*
Y02663*
X04413Y02657*
X04417Y02653*
X04423Y02651*
X04428*
X04434Y02653*
X04438Y02657*
X0444Y02663*
Y02668*
X04438Y02674*
X04434Y02678*
X04428Y0268*
G37*
G36*
X04543Y02593D02*
X04537D01*
X04532Y02591*
X04528Y02586*
X04525Y02581*
Y02575*
X04528Y0257*
X04532Y02566*
X04537Y02563*
X04543*
X04549Y02566*
X04553Y0257*
X04555Y02575*
Y02581*
X04553Y02586*
X04549Y02591*
X04543Y02593*
G37*
G36*
X05573Y0263D02*
X05561D01*
X05549Y02628*
X05538Y02623*
X05529Y02617*
X0552Y02608*
X05514Y02599*
X05509Y02588*
X05507Y02576*
Y02564*
X05509Y02553*
X05514Y02542*
X0552Y02532*
X05529Y02523*
X05538Y02517*
X05549Y02512*
X05561Y0251*
X05573*
X05584Y02512*
X05595Y02517*
X05605Y02523*
X05614Y02532*
X0562Y02542*
X05625Y02553*
X05627Y02564*
Y02576*
X05625Y02588*
X0562Y02599*
X05614Y02608*
X05605Y02617*
X05595Y02623*
X05584Y02628*
X05573Y0263*
G37*
G36*
X045Y02527D02*
X04494D01*
X04489Y02525*
X04485Y02521*
X04483Y02516*
Y0251*
X04485Y02504*
X04489Y025*
X04494Y02498*
X045*
X04506Y025*
X0451Y02504*
X04512Y0251*
Y02516*
X0451Y02521*
X04506Y02525*
X045Y02527*
G37*
G36*
X04233Y02404D02*
X04227D01*
X04222Y02402*
X04217Y02398*
X04215Y02393*
Y02387*
X04217Y02381*
X04222Y02377*
X04227Y02375*
X04233*
X04238Y02377*
X04243Y02381*
X04245Y02387*
Y02393*
X04243Y02398*
X04238Y02402*
X04233Y02404*
G37*
G36*
X04862Y02395D02*
X04856D01*
X04851Y02393*
X04847Y02389*
X04844Y02383*
Y02377*
X04847Y02372*
X04851Y02368*
X04856Y02365*
X04862*
X04868Y02368*
X04872Y02372*
X04874Y02377*
Y02383*
X04872Y02389*
X04868Y02393*
X04862Y02395*
G37*
G36*
X04389Y0237D02*
X04384D01*
X04378Y02368*
X04374Y02364*
X04372Y02358*
Y02353*
X04374Y02347*
X04378Y02343*
X04384Y02341*
X04389*
X04395Y02343*
X04397Y02345*
X04402Y02345*
X04403Y02342*
X04407Y02338*
X04413Y02336*
X04419*
X04424Y02338*
X04428Y02342*
X04431Y02348*
Y02354*
X04428Y02359*
X04424Y02363*
X04419Y02366*
X04413*
X04407Y02363*
X04405Y02361*
X044Y02361*
X04399Y02364*
X04395Y02368*
X04389Y0237*
G37*
G36*
X04862Y02355D02*
X04856D01*
X04851Y02353*
X04846Y02349*
X04844Y02343*
Y02337*
X04846Y02332*
X04851Y02328*
X04856Y02325*
X04862*
X04867Y02328*
X04872Y02332*
X04874Y02337*
Y02343*
X04872Y02349*
X04867Y02353*
X04862Y02355*
G37*
G36*
X04122Y02342D02*
X04116D01*
X0411Y02339*
X04106Y02335*
X04104Y0233*
Y02324*
X04106Y02318*
X0411Y02314*
X04116Y02312*
X04122*
X04127Y02314*
X04131Y02318*
X04133Y02324*
Y0233*
X04131Y02335*
X04127Y02339*
X04122Y02342*
G37*
G36*
X04498Y02222D02*
X04492D01*
X04487Y0222*
X04483Y02215*
X04481Y0221*
Y02204*
X04483Y02199*
X04487Y02194*
X04492Y02192*
X04498*
X04504Y02194*
X04508Y02199*
X0451Y02204*
Y0221*
X04508Y02215*
X04504Y0222*
X04498Y02222*
G37*
G36*
X04178Y02193D02*
X04172D01*
X04167Y02191*
X04162Y02187*
X0416Y02181*
Y02176*
X04162Y0217*
X04167Y02166*
X04172Y02164*
X04178*
X04183Y02166*
X04188Y0217*
X0419Y02176*
Y02181*
X04188Y02187*
X04183Y02191*
X04178Y02193*
G37*
G36*
X04052Y02175D02*
X04046D01*
X0404Y02172*
X04036Y02168*
X04034Y02163*
Y02157*
X04036Y02151*
X0404Y02147*
X04046Y02145*
X04052*
X04057Y02147*
X04061Y02151*
X04063Y02157*
Y02163*
X04061Y02168*
X04057Y02172*
X04052Y02175*
G37*
G36*
X04538Y02149D02*
X04532D01*
X04527Y02147*
X04523Y02142*
X0452Y02137*
Y02131*
X04523Y02126*
X04527Y02121*
X04532Y02119*
X04538*
X04544Y02121*
X04548Y02126*
X0455Y02131*
Y02137*
X04548Y02142*
X04544Y02147*
X04538Y02149*
G37*
G36*
X04067Y02141D02*
X04061D01*
X04056Y02139*
X04052Y02135*
X04049Y02129*
Y02123*
X04052Y02118*
X04056Y02114*
X04061Y02111*
X04067*
X04073Y02114*
X04077Y02118*
X04079Y02123*
Y02129*
X04077Y02135*
X04073Y02139*
X04067Y02141*
G37*
G36*
X04529Y02077D02*
X04523D01*
X04518Y02075*
X04514Y02071*
X04512Y02065*
Y02059*
X04514Y02054*
X04518Y0205*
X04523Y02047*
X04529*
X04535Y0205*
X04539Y02054*
X04541Y02059*
Y02065*
X04539Y02071*
X04535Y02075*
X04529Y02077*
G37*
G36*
X05573Y0213D02*
X05561D01*
X05549Y02128*
X05538Y02123*
X05529Y02117*
X0552Y02108*
X05514Y02099*
X05509Y02088*
X05507Y02076*
Y02064*
X05509Y02053*
X05514Y02042*
X0552Y02032*
X05529Y02023*
X05538Y02017*
X05549Y02012*
X05561Y0201*
X05573*
X05584Y02012*
X05595Y02017*
X05605Y02023*
X05614Y02032*
X0562Y02042*
X05625Y02053*
X05627Y02064*
Y02076*
X05625Y02088*
X0562Y02099*
X05614Y02108*
X05605Y02117*
X05595Y02123*
X05584Y02128*
X05573Y0213*
G37*
G36*
X05299Y01617D02*
X05293D01*
X05288Y01614*
X05283Y0161*
X05281Y01605*
Y01599*
X05283Y01593*
X05288Y01589*
X05293Y01587*
X05299*
X05304Y01589*
X05309Y01593*
X05311Y01599*
Y01605*
X05309Y0161*
X05304Y01614*
X05299Y01617*
G37*
G36*
X04885Y01538D02*
X04879D01*
X04874Y01536*
X0487Y01532*
X04867Y01527*
Y01521*
X0487Y01515*
X04874Y01511*
X04879Y01509*
X04885*
X04891Y01511*
X04895Y01515*
X04897Y01521*
Y01527*
X04895Y01532*
X04891Y01536*
X04885Y01538*
G37*
G36*
X04997Y01535D02*
X04991D01*
X04986Y01533*
X04981Y01529*
X04979Y01523*
Y01518*
X04981Y01512*
X04986Y01508*
X04991Y01506*
X04997*
X05002Y01508*
X05007Y01512*
X05009Y01518*
Y01523*
X05007Y01529*
X05002Y01533*
X04997Y01535*
G37*
G36*
X04823Y01526D02*
X04817D01*
X04812Y01524*
X04808Y0152*
X04805Y01514*
Y01508*
X04808Y01503*
X04812Y01499*
X04817Y01496*
X04823*
X04829Y01499*
X04833Y01503*
X04835Y01508*
Y01514*
X04833Y0152*
X04829Y01524*
X04823Y01526*
G37*
G36*
X04869Y01505D02*
X04863D01*
X04858Y01503*
X04854Y01499*
X04851Y01493*
Y01487*
X04854Y01482*
X04858Y01478*
X04863Y01475*
X04869*
X04875Y01478*
X04879Y01482*
X04881Y01487*
Y01493*
X04879Y01499*
X04875Y01503*
X04869Y01505*
G37*
G36*
X05264Y01489D02*
X05258D01*
X05252Y01487*
X05248Y01482*
X05246Y01477*
Y01471*
X05248Y01466*
X05252Y01461*
X05258Y01459*
X05264*
X05269Y01461*
X05273Y01466*
X05276Y01471*
Y01477*
X05273Y01482*
X05269Y01487*
X05264Y01489*
G37*
G36*
X05184Y01489D02*
X05178D01*
X05173Y01486*
X05169Y01482*
X05167Y01477*
Y01471*
X05169Y01465*
X05173Y01461*
X05178Y01459*
X05184*
X0519Y01461*
X05194Y01465*
X05196Y01471*
Y01477*
X05194Y01482*
X0519Y01486*
X05184Y01489*
G37*
G36*
Y01405D02*
X05178D01*
X05173Y01403*
X05169Y01399*
X05167Y01393*
Y01387*
X05169Y01382*
X05173Y01378*
X05178Y01375*
X05184*
X0519Y01378*
X05194Y01382*
X05196Y01387*
Y01393*
X05194Y01399*
X0519Y01403*
X05184Y01405*
G37*
G36*
X05389Y01398D02*
X05383D01*
X05378Y01396*
X05374Y01392*
X05371Y01386*
Y0138*
X05374Y01375*
X05378Y01371*
X05383Y01368*
X05389*
X05395Y01371*
X05399Y01375*
X05401Y0138*
Y01386*
X05399Y01392*
X05395Y01396*
X05389Y01398*
G37*
G36*
X04931Y01362D02*
X04925D01*
X04919Y0136*
X04915Y01356*
X04913Y01351*
Y01345*
X04915Y01339*
X04919Y01335*
X04925Y01333*
X04931*
X04936Y01335*
X0494Y01339*
X04943Y01345*
Y01351*
X0494Y01356*
X04936Y0136*
X04931Y01362*
G37*
G36*
X0405Y01265D02*
X04044D01*
X04038Y01263*
X04034Y01259*
X04032Y01253*
Y01248*
X04034Y01242*
X04038Y01238*
X04044Y01236*
X0405*
X04055Y01238*
X04059Y01242*
X04061Y01248*
Y01253*
X04059Y01259*
X04055Y01263*
X0405Y01265*
G37*
G36*
X04078Y01139D02*
X04072D01*
X04067Y01137*
X04063Y01133*
X04061Y01127*
Y01121*
X04063Y01116*
X04067Y01112*
X04072Y01109*
X04078*
X04084Y01112*
X04088Y01116*
X0409Y01121*
Y01127*
X04088Y01133*
X04084Y01137*
X04078Y01139*
G37*
%LNmdriver2_control-3*%
%LPD*%
G54D16*
X02276Y02824D02*
X02285Y02833D01*
X01919Y02824D02*
X02276D01*
X02285Y02833D02*
X02397D01*
X02398Y02834*
X01892Y02851D02*
X01919Y02824D01*
X0488Y01522D02*
X04882Y01524D01*
X02917Y00858D02*
X02918Y00859D01*
X02867Y00859D02*
X02868Y0086D01*
X05229Y00858D02*
X0523Y00859D01*
X04492Y00857D02*
X04493Y00857D01*
X04442Y00859D02*
X04443Y00858D01*
X03703Y00859D02*
X03705Y00861D01*
X03653Y0086D02*
X03655Y00862D01*
X02732Y03093D02*
X02735Y03096D01*
G54D18*
X02784Y03629D02*
X02814Y0366D01*
X02784Y03413D02*
Y03629D01*
X02917Y03323D02*
Y03939D01*
X02905Y03341D02*
Y03912D01*
X01868Y03422D02*
X01874Y03428D01*
Y0385*
X01868Y03004D02*
Y03422D01*
X02635Y0535D02*
X0269Y05405D01*
X02635Y0367D02*
Y0535D01*
Y0367D02*
X02663Y03642D01*
X02698*
X0274Y036*
X02702Y03412D02*
Y03599D01*
X02702D02*
X02704Y03601D01*
X02477Y03486D02*
X02477Y03486D01*
X02457Y03464D02*
X02461Y0346D01*
X02452Y03486D02*
Y0432D01*
X02461Y03456D02*
Y0346D01*
X02457Y03464D02*
Y03482D01*
X02452Y03486D02*
X02457Y03482D01*
X02477Y03486D02*
Y03689D01*
X02452Y0432D02*
X02456Y04324D01*
X02496Y03671D02*
X02497Y03671D01*
X02477Y03689D02*
X02478Y03689D01*
X02497Y03505D02*
Y03671D01*
X02432Y05201D02*
Y03515D01*
X02497Y03505D02*
X02497Y03505D01*
X02456Y04324D02*
Y05161D01*
X02573Y04446D02*
Y05101D01*
X02568Y04441D02*
X02573Y04446D01*
X02568Y0379D02*
Y04441D01*
X02646Y05585D02*
X02649Y05582D01*
X02639Y05585D02*
X02639Y05585D01*
X02646*
X02465Y05585D02*
X02639D01*
X02413Y05533D02*
X02465Y05585D01*
X02944Y03279D02*
Y03984D01*
X0295Y0399*
Y03993*
X02985Y03519D02*
Y03714D01*
X02988Y03717*
X03028Y03309D02*
X03029Y03308D01*
X03004Y03653D02*
Y03656D01*
X03028Y03309D02*
Y0375D01*
X03011Y03288D02*
Y03646D01*
X0301Y03286D02*
X03011Y03288D01*
X03004Y03653D02*
X03011Y03646D01*
X02897Y03263D02*
Y03333D01*
X02895Y03922D02*
X02905Y03912D01*
X02895Y03922D02*
Y04509D01*
X02674Y03687D02*
X02882D01*
X02671Y03691D02*
X02674Y03687D01*
X02897Y03333D02*
X02905Y03341D01*
X02897Y03263D02*
X02914Y03246D01*
X02985Y03519D02*
X02992Y03513D01*
Y0331D02*
Y03513D01*
X02671Y03691D02*
Y04392D01*
X02671Y04392*
X02915Y04563D02*
X02915Y04563D01*
X02915Y03941D02*
Y04563D01*
Y03322D02*
X02917Y03323D01*
X02915Y03941D02*
X02917Y03939D01*
X02734Y05243D02*
X02967D01*
X02704Y05213D02*
X02734Y05243D01*
X02704Y03705D02*
Y05213D01*
X02568Y0379D02*
X02584Y03774D01*
X03075Y03316D02*
Y03334D01*
Y03316D02*
X03076Y03315D01*
X03072Y03337D02*
X03075Y03334D01*
X03033Y03755D02*
Y0507D01*
X03028Y0375D02*
X03033Y03755D01*
X03046Y03287D02*
X03049Y03289D01*
Y03305*
X03052Y03308*
Y0445*
X03072Y03337D02*
Y04475D01*
X02915Y03279D02*
Y03322D01*
X02545Y03411D02*
Y03537D01*
X02098Y03476D02*
Y05661D01*
X01897Y03031D02*
X01918Y0301D01*
X02044D02*
X02047Y03013D01*
X01918Y0301D02*
X02044D01*
X02042Y02891D02*
X02046Y02895D01*
X01973Y02891D02*
X02042D01*
X01972Y02893D02*
X01973Y02891D01*
X021Y02855D02*
X021Y02856D01*
X01977Y02855D02*
X021D01*
X01977Y02855D02*
X01977Y02855D01*
X01923Y03065D02*
X0194Y03048D01*
X02043D02*
X02047Y03052D01*
X0194Y03048D02*
X02043D01*
X01899Y02929D02*
X02091D01*
X02097Y02934D02*
X021D01*
X01842Y02986D02*
X01899Y02929D01*
X02091D02*
X02097Y02934D01*
X01796Y02723D02*
X02096D01*
X021Y02728*
X01781Y02739D02*
X01796Y02723D01*
X01842Y02986D02*
Y03973D01*
X02046Y02895D02*
X021D01*
X00834Y03501D02*
X00836Y03499D01*
X00834Y03501D02*
Y04199D01*
X00877Y04242*
X01897Y0459D02*
X01898Y04591D01*
X01897Y03031D02*
Y0459D01*
X01974Y03131D02*
Y05467D01*
X01923Y04646D02*
X01924Y04647D01*
X01923Y03065D02*
Y04646D01*
X01953Y0309D02*
Y05496D01*
X01868Y03004D02*
X01903Y02968D01*
X02047Y03013D02*
X021D01*
X02047Y03052D02*
X021D01*
X01953Y05496D02*
X01954Y05497D01*
X01953Y0309D02*
X01957Y03087D01*
X02023*
X02028Y03092D02*
X021D01*
X02023Y03087D02*
X02028Y03092D01*
X01974Y03131D02*
X021D01*
X01781Y02739D02*
Y04729D01*
X02097Y02974D02*
X021D01*
X02091Y02968D02*
X02097Y02974D01*
X01903Y02968D02*
X02091D01*
X02095Y02762D02*
X021Y02767D01*
X01806Y02766D02*
X0181Y02762D01*
X01806Y02766D02*
Y04617D01*
X0181Y02762D02*
X02095D01*
X00877Y04242D02*
Y0506D01*
X02584Y03411D02*
Y03774D01*
X00877Y03614D02*
Y03712D01*
X02624Y036D02*
X02624Y03601D01*
X02624Y03411D02*
Y036D01*
X02662Y03412D02*
Y036D01*
Y03412D02*
X02663Y03411D01*
X02661Y03601D02*
X02662Y036D01*
X02623Y03411D02*
X02624Y03411D01*
X02784Y03413D02*
X02785Y03412D01*
X02824Y03409D02*
X02825Y0341D01*
Y03601D02*
X02825Y03602D01*
X02825Y0341D02*
Y03601D01*
X0274Y03412D02*
Y036D01*
Y03412D02*
X02741Y03411D01*
X02702Y03412D02*
X02702Y03411D01*
X03071Y04477D02*
X03072Y04475D01*
X01243Y04923D02*
X01566D01*
X02137Y03495D02*
Y04923D01*
X02077Y03497D02*
Y05254D01*
Y03497D02*
X02078Y03495D01*
X02076Y05255D02*
X02077Y05254D01*
X02413Y03495D02*
Y05533D01*
X01537Y03564D02*
Y04362D01*
X00976Y03623D02*
Y03692D01*
G54D140*
X03166Y0505D02*
X03338Y05222D01*
X03166Y03466D02*
Y0505D01*
G54D148*
X05567Y0257D03*
Y0207D03*
G54D149*
X05627Y03532D03*
Y03036D03*
G54D150*
X01383Y02531D03*
X0422Y0329D03*
X0432D03*
Y0339D03*
X04052Y03276D03*
X04118Y02908D03*
X01283Y02531D03*
X04018Y02908D03*
X04052Y03376D03*
G54D151*
X05543Y01783D03*
Y01153D03*
X05385Y00838D03*
X05543Y00523D03*
X05385Y00208D03*
X05228Y01783D03*
X0507Y01468D03*
X05228Y01153D03*
X0507Y00838D03*
X05228Y00523D03*
X0507Y00208D03*
X04913Y01783D03*
Y01153D03*
Y00523D03*
X04598Y01783D03*
X0444Y01468D03*
X04598Y01153D03*
Y00523D03*
X04283Y01783D03*
X04125Y01468D03*
X04283Y01153D03*
X04125Y00838D03*
X04283Y00523D03*
X04125Y00208D03*
X03968Y01783D03*
X0381Y01468D03*
X03968Y01153D03*
X0381Y00838D03*
X03968Y00523D03*
X0381Y00208D03*
X03653Y03673D03*
Y02413D03*
X03495Y02098D03*
X03653Y01783D03*
X03495Y01468D03*
Y00838D03*
X03653Y00523D03*
X03495Y00208D03*
X0318Y02728D03*
Y01468D03*
Y00838D03*
X03338Y00523D03*
X03023Y03043D03*
Y02413D03*
Y01783D03*
Y01153D03*
Y00523D03*
X02551Y02728D03*
X02708Y02413D03*
Y01153D03*
X02551Y00838D03*
X02708Y00523D03*
X02551Y00208D03*
X02236Y02098D03*
X02393Y01153D03*
X02236Y00838D03*
X02393Y00523D03*
X02236Y00208D03*
X01921Y01468D03*
X02078Y01153D03*
X01921Y00838D03*
X02078Y00523D03*
X01921Y00208D03*
X01606Y03358D03*
X01763Y01783D03*
Y01153D03*
Y00523D03*
X01291Y03358D03*
X01448Y03043D03*
X01291Y02098D03*
X01448Y01783D03*
X01291Y01468D03*
X01448Y00523D03*
X00976Y03358D03*
X01133Y03043D03*
X00976Y02098D03*
Y01468D03*
Y00838D03*
X01133Y00523D03*
X00976Y00208D03*
X00661Y03358D03*
X00818Y03043D03*
X00661Y02098D03*
Y01468D03*
Y00838D03*
X00818Y00523D03*
X00661Y00208D03*
X00503Y03673D03*
X00346Y03358D03*
X00503Y03043D03*
X00346Y02728D03*
Y02098D03*
Y01468D03*
Y00838D03*
X00503Y00523D03*
X00346Y00208D03*
X00188Y03673D03*
X00031Y03358D03*
X00188Y03043D03*
X00031Y02728D03*
X00188Y02413D03*
X00031Y02098D03*
X00188Y01783D03*
X00031Y01468D03*
X00188Y01153D03*
X00031Y00838D03*
X00188Y00523D03*
X00031Y00208D03*
X04055Y01087D03*
X04882Y03284D03*
X04862Y03255D03*
X04901D03*
Y03314D03*
X04862D03*
X04535Y02134D03*
X04075Y01124D03*
X04087Y02409D03*
X04116Y02517D03*
X03673Y02295D03*
X03327Y02203D03*
X0456Y01617D03*
X04499Y01763D03*
X04775Y01488D03*
X04844Y0135D03*
X03214Y01993D03*
X03529Y01945D03*
X02858Y02015D03*
X03166Y03466D03*
X03147Y04737D03*
X0325Y02673D03*
X03267Y02714D03*
X0321Y03907D03*
X03338Y05222D03*
X03274Y03177D03*
X03552Y03103D03*
X04012Y02265D03*
X04049Y0216D03*
X03378Y02652D03*
X03729Y02519D03*
X03654Y02536D03*
X03585Y02562D03*
X03387Y02692D03*
X02154Y01432D03*
X02459Y01513D03*
X02094Y01379D03*
X05386Y01383D03*
X05261Y01474D03*
X05181Y0139D03*
Y01474D03*
X05289Y01494D03*
X04426Y02665D03*
X0314Y01995D03*
X03066Y01977D03*
X03061Y01922D03*
X04293Y0133D03*
X0443D03*
X04155D03*
X03624Y01413D03*
X04047Y01443D03*
X03751Y018D03*
X0379Y01832D03*
X03163Y0221D03*
X03128Y02203D03*
X03187Y02203D03*
X04047Y01251D03*
X05671Y02452D03*
X05602Y02314D03*
X05671Y02177D03*
X05602Y01763D03*
X05464Y03141D03*
Y0259D03*
X05533Y02452D03*
X05464Y02314D03*
X05533Y02177D03*
X05464Y01763D03*
X05395Y02728D03*
X05326Y0259D03*
X05395Y02452D03*
X05326Y02314D03*
X05395Y02177D03*
X05326Y02039D03*
X05395Y01901D03*
X05326Y01763D03*
X05395Y0135D03*
X05257Y02728D03*
X05188Y0259D03*
X05257Y02452D03*
X05188Y02314D03*
X05257Y02177D03*
X05188Y02039D03*
X05257Y01901D03*
X05188Y01763D03*
X05257Y01625D03*
X05188Y01212D03*
X05119Y02728D03*
X05051Y0259D03*
X05119Y02452D03*
X05051Y02314D03*
X05119Y02177D03*
X05051Y02039D03*
X05119Y01901D03*
X05051Y01763D03*
X05119Y01625D03*
X05051Y01212D03*
X04982Y02728D03*
X04913Y0259D03*
X04982Y02452D03*
X04913Y02314D03*
X04982Y02177D03*
X04913Y02039D03*
X04982Y01901D03*
X04913Y01763D03*
X04982Y01625D03*
X04913Y01212D03*
X04844Y02728D03*
Y01901D03*
X04775Y01763D03*
Y01212D03*
X04706Y02728D03*
Y01901D03*
X04637Y01763D03*
X04706Y01625D03*
Y0135D03*
X04637Y01212D03*
X04568Y02728D03*
X04499Y0259D03*
Y02039D03*
X04568Y01901D03*
X04499Y01488D03*
X04568Y0135D03*
X0443Y02728D03*
X04362Y0259D03*
X0443Y02177D03*
X04362Y02039D03*
X0443Y01901D03*
Y01625D03*
X04362Y01212D03*
X04293Y02728D03*
X04224Y0259D03*
X04293Y02177D03*
X04224Y02039D03*
Y01763D03*
X04155Y02728D03*
X04086Y0259D03*
Y02039D03*
X04155Y01901D03*
Y01625D03*
X0321Y01658D03*
X05296Y01602D03*
X03164Y02066D03*
X02152Y01463D03*
X04373Y03435D03*
X04351Y03454D03*
X04248Y03394D03*
X04219D03*
X03094Y04769D03*
X03004Y03893D03*
X02814Y0366D03*
X01874Y0385D03*
X0269Y05405D03*
X0332Y03733D03*
X02704Y03601D03*
Y03705D03*
X02967Y05243D03*
X02432Y05201D03*
X02478Y03689D03*
X02496Y03671D03*
X02456Y05161D03*
X02573Y05101D03*
X0295Y03993D03*
X02988Y03717D03*
X03029Y03308D03*
X02882Y03687D03*
X03004Y03656D03*
X03007Y04512D03*
X02671Y04392D03*
X03205Y05365D03*
X04706Y04135D03*
X04854Y03682D03*
X05006Y0381D03*
X05208Y04115D03*
X05196Y0383D03*
X04706Y04647D03*
X04991Y04608D03*
X05195D03*
X05195Y05411D03*
X05001Y05484D03*
X05198Y05621D03*
X02723Y04133D03*
X03272Y02777D03*
X03269Y0275D03*
X0255Y01338D03*
X05418Y01013D03*
X05392Y01014D03*
X04631Y01015D03*
X04606D03*
X03843Y01011D03*
X03817Y01011D03*
X03057Y01014D03*
X0303Y01017D03*
X00693Y01995D03*
X00667Y01995D03*
X00805Y01846D03*
X00855Y01846D03*
X00755Y01847D03*
X0067Y01013D03*
X00696D03*
X01482Y01021D03*
X01457D03*
X02244Y01021D03*
X02269Y01021D03*
X02131Y0086D03*
X02079Y00861D03*
X03022Y01961D03*
X02474Y01892D03*
X025Y01893D03*
X02715Y01828D03*
X02689Y01827D03*
X02193Y02791D03*
X03537Y02313D03*
X03646Y02293D03*
X03621Y02292D03*
X03528Y02411D03*
X03871Y01908D03*
X02732Y01994D03*
X02758Y03089D03*
X02556Y03082D03*
X0164Y02451D03*
X01669D03*
X01699D03*
X04928Y01348D03*
X0383Y03462D03*
X03808Y03429D03*
X03436Y0234D03*
X03776Y02196D03*
X03816Y02193D03*
X03757Y02176D03*
X03795Y0218D03*
X03719Y02171D03*
X03736Y02193D03*
X02376Y02576D03*
X02378Y03029D03*
X02534Y01622D03*
X03273Y02928D03*
X03271Y02973D03*
X03258Y02951D03*
X03116Y03056D03*
X03145Y03092D03*
X03191Y03041D03*
X03076Y03315D03*
X02992Y0331D03*
X0301Y03286D03*
X03046Y03287D03*
X02605Y03517D03*
X02643Y03515D03*
X02884Y03409D03*
X02887Y03348D03*
X02879Y03275D03*
X02915Y03279D03*
X02873Y03089D03*
X02849Y0309D03*
X02546Y02017D03*
X02693Y02199D03*
X02721Y02201D03*
X02617Y02201D03*
X02642Y02209D03*
X02557Y02222D03*
X02576Y02199D03*
X02537Y02198D03*
X025Y02198D03*
X02521Y02217D03*
X02563Y03512D03*
X02461Y03456D03*
X02375Y02378D03*
X02098Y03476D03*
X02001Y03028D03*
X02266Y02321D03*
X02189Y02461D03*
X02228Y02453D03*
X02192Y02706D03*
X02123Y02665D03*
X01991Y02696D03*
X02003Y02909D03*
X02Y02873D03*
X02001Y03105D03*
X02001Y03066D03*
X02245Y02844D03*
X02Y02947D03*
X02193Y02856D03*
X021Y02856D03*
X01977Y02855D03*
X02001Y02743D03*
X01173Y05287D03*
X02379Y02625D03*
X02376Y02675D03*
X02382Y027D03*
X02193Y0266D03*
X02389Y02648D03*
X02381Y02764D03*
X02378Y02812D03*
X02394Y0279D03*
X02379Y029D03*
X02379Y02852D03*
X02386Y02876D03*
X02398Y02834D03*
X04791Y03265D03*
X02364Y02062D03*
X02193Y02344D03*
X02229Y02321D03*
X02194Y02502D03*
X03092Y0323D03*
X03377Y02872D03*
X02677Y01993D03*
X02482Y02094D03*
X02461Y02063D03*
X02414Y02062D03*
X03926Y02487D03*
X01504Y02736D03*
X01594Y02808D03*
X01704Y02781D03*
X01642Y02807D03*
X01675Y02806D03*
X01541Y02737D03*
X01542Y02773D03*
X01563Y02807D03*
X01704Y02743D03*
X01506Y0277D03*
X01534Y02807D03*
X01878Y02925D03*
X01504Y02807D03*
X0167Y0271D03*
X02676Y03076D03*
X02634Y03076D03*
X02616Y03093D03*
X02598Y03076D03*
X0258Y03094D03*
X02531Y03091D03*
X0251Y02065D03*
X02629Y01995D03*
X02629Y02019D03*
X02511Y01976D03*
X0258Y02011D03*
X0301Y02202D03*
X02982Y02201D03*
X0238Y02337D03*
X02404Y02376D03*
X02101Y02403D03*
Y02354D03*
X02189Y02293D03*
X02192Y02205D03*
X02339Y01413D03*
X02177Y00857D03*
X02967Y00862D03*
X03754Y00859D03*
X04541Y00856D03*
X0533Y0086D03*
X01395Y00857D03*
X00606Y00859D03*
X00603Y01825D03*
X01393Y01846D03*
X02135Y01675D03*
X02201Y01641D03*
X02482Y01395D03*
X02445Y01571D03*
X02044Y01664D03*
X02261Y01703D03*
X00437Y02358D03*
Y02533D03*
X04866Y0149D03*
X04964Y0142D03*
X04965Y01454D03*
X04935Y01435D03*
X04901Y01419D03*
X04902Y01454D03*
X04994Y0152D03*
X04882Y01524D03*
X0482Y01511D03*
X03021Y01988D03*
X03167Y02033D03*
X02755Y01918D03*
X02713Y02011D03*
X02783Y02005D03*
X02775Y02071D03*
X02754Y02008D03*
X03908Y0086D03*
X03958Y00859D03*
X04008Y00858D03*
X04691Y00858D03*
X04741Y00857D03*
X04791Y00856D03*
X0548Y00859D03*
X0553Y00858D03*
X0558Y00857D03*
X02331Y00857D03*
X02381Y00856D03*
X02431Y00855D03*
X03119Y00862D03*
X03169Y00861D03*
X03219Y0086D03*
X01542Y0184D03*
X01592Y01839D03*
X01642Y01839D03*
X01541Y00858D03*
X01591Y00857D03*
X01641Y00856D03*
X00755Y00857D03*
X00805Y00856D03*
X00855Y00855D03*
X00555Y01845D03*
X00506Y01843D03*
X00734Y02294D03*
X021Y02895D03*
X02122Y0198D03*
X02775Y0184D03*
X00741Y02494D03*
X02012Y02551D03*
X02868Y0086D03*
X02918Y00859D03*
X01341Y0086D03*
X01292Y00856D03*
X01293Y01869D03*
X01343D03*
X01456Y01841D03*
X01481D03*
X00555Y00857D03*
X00505Y00856D03*
X0528Y00862D03*
X0523Y00859D03*
X04492Y00857D03*
X04442Y00859D03*
X03705Y00861D03*
X03655Y00862D03*
X02011Y02465D03*
Y0249D03*
X02011Y02367D03*
X02012Y02392D03*
X0201Y02267D03*
Y02292D03*
X02013Y02195D03*
Y0217D03*
X02591Y01827D03*
X02616Y01827D03*
X024Y01894D03*
X02375D03*
X02104Y01998D03*
X03619Y01512D03*
X03464Y01213D03*
X02629Y0191D03*
X01483Y02562D03*
Y02532D03*
X00571Y02394D03*
X00574Y02594D03*
X00358D03*
X00358Y02294D03*
X00358Y02993D03*
X01892Y02851D03*
X01881Y02885D03*
X02198Y02601D03*
X01966Y02743D03*
X01704Y02806D03*
X0065Y03132D03*
Y03232D03*
X00354Y03094D03*
X00357Y03194D03*
X02193Y02772D03*
X01704Y0248D03*
X03092Y02202D03*
X03069D03*
X03011Y02019D03*
X00836Y03499D03*
X0327Y02419D03*
X03266Y02557D03*
X02905Y0257D03*
X02826D03*
X02747D03*
Y02649D03*
X02826D03*
X02905D03*
Y02728D03*
X02826D03*
X02747D03*
X02706Y0253D03*
X02785D03*
X02863D03*
X02942D03*
X02706Y02609D03*
X02785D03*
X02863D03*
X02942D03*
X02706Y02687D03*
X02785D03*
X02863D03*
X02942D03*
Y02766D03*
X02863D03*
X02785D03*
X02706D03*
X02971Y03091D03*
X04521Y0218D03*
X03908Y02533D03*
X04295Y02467D03*
X04119Y02327D03*
X0423Y0239D03*
X05422Y01841D03*
X04859Y0234D03*
X04859Y0238D03*
X04495Y02207D03*
X04497Y02513D03*
X04386Y02355D03*
X04416Y02351D03*
X03933Y02265D03*
X03973D03*
X04012Y02304D03*
X03973D03*
X03933D03*
X04012Y02344D03*
X03973D03*
X03933D03*
X04175Y02178D03*
X04559Y02386D03*
X04556Y02334D03*
X0454Y02578D03*
X04585Y02514D03*
X04526Y02062D03*
X04503Y02352D03*
X05478Y02787D03*
X04159Y0249D03*
X04163Y02404D03*
X04206Y02444D03*
X04064Y02126D03*
X03883Y02397D03*
X03791Y02456D03*
X03858Y02487D03*
X03953Y02507D03*
X03877Y0253D03*
X03524Y0272D03*
X03516Y02788D03*
X03627Y02919D03*
X03391Y03151D03*
X0332Y03126D03*
X02735Y03096D03*
X03171Y03093D03*
X0309Y03073D03*
X03271Y02833D03*
X03391Y02205D03*
X03268Y02262D03*
X03277Y02172D03*
X02853Y02203D03*
X02931Y02202D03*
X01898Y04591D03*
X01842Y03973D03*
X021Y03013D03*
X01924Y04647D03*
X021Y03052D03*
X01954Y05497D03*
X021Y03092D03*
X01974Y05467D03*
X021Y03131D03*
X03419Y05414D03*
X021Y02728D03*
X01781Y04729D03*
X021Y02767D03*
X01806Y04617D03*
X021Y02974D03*
Y02934D03*
X01972Y02893D03*
X04713Y05714D03*
X0471Y04921D03*
X02729D03*
X02723Y05708D03*
X00734Y04133D03*
X0074Y04921D03*
X00729Y05708D03*
X02429Y03012D03*
X02329Y03093D03*
X00877Y0506D03*
X03267Y02616D03*
X03247Y02635D03*
X02584Y03411D03*
X00877Y03614D03*
X01998Y0278D03*
X01999Y02987D03*
Y0315D03*
X02802Y03515D03*
X0276Y03514D03*
X02721D03*
X0268Y03516D03*
X0285Y03486D03*
X02825Y03602D03*
X02661Y03601D03*
X02624D03*
X03071Y04477D03*
X03133Y03002D03*
X03129Y0335D03*
X01243Y04923D03*
X01566D03*
X02137D03*
Y03495D03*
X00877Y03712D03*
X02078Y03495D03*
X02098Y05661D03*
X02076Y05255D03*
X0355Y03349D03*
X04961Y03127D03*
X04214Y03082D03*
X04243Y03112D03*
X04931Y03091D03*
X04184Y03082D03*
X0323Y03269D03*
X03259Y05523D03*
Y0322D03*
X0252Y0327D03*
X01114Y04509D03*
X02895D03*
X00832Y04564D03*
X02915Y04563D03*
X02649Y05582D03*
X02413Y03495D03*
X02432Y03515D03*
X02477Y03486D03*
X02497Y03505D03*
X02914Y03246D03*
X02944Y03279D03*
X02972D03*
X03052Y0445D03*
X03033Y0507D03*
X01537Y04362D03*
Y03564D03*
X00976Y03623D03*
Y03692D03*
X02824Y03409D03*
X02785Y03412D03*
X02741Y03411D03*
X02702D03*
X02663D03*
X02623Y03411D03*
X02545Y03537D03*
Y03411D03*
X01217Y04616D03*
X01217Y03828D03*
X03424Y03238D03*
X03679Y03359D03*
X03881Y0337D03*
X03876Y03193D03*
X03446Y03613D03*
Y03397D03*
X0364Y03427D03*
X03603Y03158D03*
X03452Y02453D03*
X03472Y02431D03*
X03497Y02408D03*
X03589Y02286D03*
X03615Y02728D03*
X03617Y02705D03*
X04278Y03394D03*
X04351Y03508D03*
Y03482D03*
X04278Y03428D03*
X04249D03*
X04219D03*
X0169Y02513D03*
Y02542D03*
X017Y02572D03*
X0167D03*
X01675Y0248D03*
X0164Y02572D03*
X01645Y0248D03*
X01483Y02473D03*
X01513D03*
Y02503D03*
X01483D03*
X01513Y02532D03*
X01542Y02562D03*
X01513D03*
X0164Y0271D03*
X01704Y02718D03*
X03786Y03177D03*
X03693Y03174D03*
X03562Y0324D03*
X03878Y03333D03*
X0258Y01929D03*
X02376Y02419D03*
X02374Y0244D03*
X02383Y0246D03*
X02191Y02388D03*
X02191Y02411D03*
X03128Y03413D03*
X02783Y03314D03*
X02696Y03094D03*
X02716Y03077D03*
X0274Y03318D03*
X027D03*
X02657Y03093D03*
X02665Y03314D03*
X02621Y03318D03*
X02582Y03314D03*
X02543Y03318D03*
X02822Y03314D03*
X02559Y03271D03*
X02937Y02016D03*
X0298Y02019D03*
X03624Y01812D03*
X03619Y01612D03*
X03454Y0223D03*
X03479Y02276D03*
X03311Y02118D03*
X03459Y02567D03*
X03393Y02622D03*
X03457Y0292D03*
X03459Y02959D03*
X03458Y03D03*
X0346Y02729D03*
X03459Y02767D03*
X03459Y02806D03*
X03457Y02845D03*
X03184Y03277D03*
X0314Y03272D03*
X02847Y03272D03*
X02769Y03273D03*
X02728Y03274D03*
X02315Y02063D03*
X02192Y02108D03*
X02191Y02157D03*
X02194Y02256D03*
X02189Y02551D03*
X02216Y0306D03*
X04204Y02963D03*
X04233D03*
X04263D03*
X04302Y02953D03*
Y02983D03*
X04204Y02993D03*
X04233D03*
X04263D03*
X04204Y03022D03*
X04233D03*
X04263D03*
X04243Y03082D03*
X04214Y03112D03*
X04184D03*
X04243Y03141D03*
X04214D03*
X04184D03*
X05002Y03239D03*
X05035Y03377D03*
X04243Y03562D03*
X04271Y03644D03*
X04243D03*
X04271Y03617D03*
X04243D03*
X04271Y03589D03*
X04243D03*
X03958Y03455D03*
X03987D03*
X04017D03*
X04047Y03456D03*
X03958Y03495D03*
X03987D03*
X04017D03*
X04081Y03598D03*
X04041D03*
X04081Y03638D03*
X04041D03*
X04001D03*
Y03598D03*
X05073Y03271D03*
X04831Y02982D03*
X04909Y03159D03*
X04841Y03184D03*
X04764Y03283D03*
X04781Y03117D03*
X04823Y03546D03*
X05279Y01316D03*
X05337Y01325D03*
X04615Y02236D03*
X0429Y0232D03*
X03477Y02311D03*
X0363Y02394D03*
X03413Y01212D03*
X03696Y02274D03*
X03391Y0232D03*
X05266Y03127D03*
X05099Y03377D03*
X04982Y03309D03*
X05107Y03127D03*
X05143Y0333D03*
X05227Y03166D03*
Y03127D03*
Y03087D03*
X05266Y03166D03*
Y03087D03*
X04429Y03547D03*
X04504Y03261D03*
X04458Y03309D03*
X04439Y03071D03*
Y0311D03*
X044D03*
Y03071D03*
X0434Y03557D03*
X04532Y03477D03*
X0494Y03354D03*
X04943Y03219D03*
X05308Y03398D03*
X05386Y03477D03*
X05347D03*
X05229D03*
X05268D03*
X05426D03*
X05308D03*
X05229Y03437D03*
X05268D03*
X05347D03*
X05386D03*
X05426D03*
X05308D03*
X05229Y03398D03*
X05268D03*
X05306Y03166D03*
Y03127D03*
Y03087D03*
X05345Y03127D03*
Y03087D03*
X05385Y03127D03*
Y03087D03*
X05424Y03127D03*
Y03087D03*
X04656Y03505D03*
X04595Y03055D03*
X04784Y02989D03*
G54D152*
X05014Y01104D03*
X03574Y04302D03*
X05582Y05169D03*
X00188D03*
X00149Y02058D03*
Y00208D03*
M02*