%FSTAX23Y23*%
%MOIN*%
%SFA1B1*%

%IPPOS*%
%ADD148C,0.110236*%
%ADD149C,0.074803*%
%ADD150C,0.060000*%
%ADD151C,0.019685*%
%ADD152C,0.157480*%
%LNmdriver2_control-1*%
%LPD*%
G36*
X05779Y0D02*
X0D01*
Y05859*
X05779*
Y0*
G37*
%LNmdriver2_control-2*%
%LPC*%
G36*
X02101Y05676D02*
X02095D01*
X02089Y05673*
X02085Y05669*
X02083Y05664*
Y05658*
X02085Y05652*
X02089Y05648*
X02095Y05646*
X02101*
X02106Y05648*
X0211Y05652*
X02113Y05658*
Y05664*
X0211Y05669*
X02106Y05673*
X02101Y05676*
G37*
G36*
X05201Y05636D02*
X05195D01*
X0519Y05634*
X05186Y0563*
X05183Y05624*
Y05618*
X05186Y05613*
X0519Y05609*
X05195Y05607*
X05201*
X05207Y05609*
X05211Y05613*
X05213Y05618*
Y05624*
X05211Y0563*
X05207Y05634*
X05201Y05636*
G37*
G36*
X02652Y05597D02*
X02646D01*
X02641Y05595*
X02636Y0559*
X02634Y05585*
Y05579*
X02636Y05574*
X02641Y05569*
X02646Y05567*
X02652*
X02657Y05569*
X02662Y05574*
X02664Y05579*
Y05585*
X02662Y0559*
X02657Y05595*
X02652Y05597*
G37*
G36*
X03262Y05538D02*
X03256D01*
X03251Y05536*
X03247Y05531*
X03244Y05526*
Y0552*
X03247Y05515*
X03251Y0551*
X03256Y05508*
X03262*
X03268Y0551*
X03272Y05515*
X03274Y0552*
Y05526*
X03272Y05531*
X03268Y05536*
X03262Y05538*
G37*
G36*
X01957Y05512D02*
X01951D01*
X01946Y0551*
X01941Y05506*
X01939Y055*
Y05494*
X01941Y05489*
X01946Y05485*
X01951Y05483*
X01957*
X01962Y05485*
X01967Y05489*
X01969Y05494*
Y055*
X01967Y05506*
X01962Y0551*
X01957Y05512*
G37*
G36*
X05004Y05498D02*
X04998D01*
X04993Y05496*
X04989Y05492*
X04986Y05487*
Y05481*
X04989Y05475*
X04993Y05471*
X04998Y05469*
X05004*
X0501Y05471*
X05014Y05475*
X05016Y05481*
Y05487*
X05014Y05492*
X0501Y05496*
X05004Y05498*
G37*
G36*
X01977Y05482D02*
X01971D01*
X01965Y05479*
X01961Y05475*
X01959Y0547*
Y05464*
X01961Y05458*
X01965Y05454*
X01971Y05452*
X01977*
X01982Y05454*
X01986Y05458*
X01989Y05464*
Y0547*
X01986Y05475*
X01982Y05479*
X01977Y05482*
G37*
G36*
X03422Y05429D02*
X03416D01*
X0341Y05426*
X03406Y05422*
X03404Y05417*
Y05411*
X03406Y05405*
X0341Y05401*
X03416Y05399*
X03422*
X03427Y05401*
X03431Y05405*
X03433Y05411*
Y05417*
X03431Y05422*
X03427Y05426*
X03422Y05429*
G37*
G36*
X05198Y05426D02*
X05192D01*
X05186Y05424*
X05182Y05419*
X0518Y05414*
Y05408*
X05182Y05403*
X05186Y05398*
X05192Y05396*
X05198*
X05203Y05398*
X05207Y05403*
X0521Y05408*
Y05414*
X05207Y05419*
X05203Y05424*
X05198Y05426*
G37*
G36*
X02693Y0542D02*
X02687D01*
X02682Y05417*
X02678Y05413*
X02675Y05408*
Y05402*
X02678Y05396*
X02682Y05392*
X02687Y0539*
X02693*
X02699Y05392*
X02703Y05396*
X02705Y05402*
Y05408*
X02703Y05413*
X02699Y05417*
X02693Y0542*
G37*
G36*
X03208Y0538D02*
X03202D01*
X03197Y05378*
X03192Y05373*
X0319Y05368*
Y05362*
X03192Y05357*
X03197Y05352*
X03202Y0535*
X03208*
X03213Y05352*
X03218Y05357*
X0322Y05362*
Y05368*
X03218Y05373*
X03213Y05378*
X03208Y0538*
G37*
G36*
X01176Y05302D02*
X0117D01*
X01165Y053*
X01161Y05296*
X01158Y0529*
Y05284*
X01161Y05279*
X01165Y05275*
X0117Y05272*
X01176*
X01182Y05275*
X01186Y05279*
X01188Y05284*
Y0529*
X01186Y05296*
X01182Y053*
X01176Y05302*
G37*
G36*
X02079Y0527D02*
X02073D01*
X02067Y05268*
X02063Y05264*
X02061Y05258*
Y05252*
X02063Y05247*
X02067Y05243*
X02073Y0524*
X02079*
X02084Y05243*
X02088Y05247*
X02091Y05252*
Y05258*
X02088Y05264*
X02084Y05268*
X02079Y0527*
G37*
G36*
X0297Y05258D02*
X02964D01*
X02958Y05256*
X02954Y05252*
X02952Y05246*
Y0524*
X02954Y05235*
X02958Y05231*
X02964Y05229*
X0297*
X02975Y05231*
X02979Y05235*
X02982Y0524*
Y05246*
X02979Y05252*
X02975Y05256*
X0297Y05258*
G37*
G36*
X03341Y05237D02*
X03335D01*
X0333Y05234*
X03325Y0523*
X03323Y05225*
Y05219*
X03325Y05213*
X0333Y05209*
X03335Y05207*
X03341*
X03346Y05209*
X03351Y05213*
X03353Y05219*
Y05225*
X03351Y0523*
X03346Y05234*
X03341Y05237*
G37*
G36*
X02435Y05216D02*
X02429D01*
X02424Y05214*
X0242Y0521*
X02418Y05204*
Y05198*
X0242Y05193*
X02424Y05189*
X02429Y05186*
X02435*
X02441Y05189*
X02445Y05193*
X02447Y05198*
Y05204*
X02445Y0521*
X02441Y05214*
X02435Y05216*
G37*
G36*
X02459Y05175D02*
X02453D01*
X02448Y05173*
X02443Y05169*
X02441Y05164*
Y05158*
X02443Y05152*
X02448Y05148*
X02453Y05146*
X02459*
X02464Y05148*
X02469Y05152*
X02471Y05158*
Y05164*
X02469Y05169*
X02464Y05173*
X02459Y05175*
G37*
G36*
X02576Y05116D02*
X0257D01*
X02565Y05114*
X02561Y0511*
X02558Y05104*
Y05098*
X02561Y05093*
X02565Y05089*
X0257Y05086*
X02576*
X02582Y05089*
X02586Y05093*
X02588Y05098*
Y05104*
X02586Y0511*
X02582Y05114*
X02576Y05116*
G37*
G36*
X0559Y05252D02*
X05574D01*
X05558Y05249*
X05542Y05243*
X05529Y05234*
X05517Y05222*
X05508Y05208*
X05502Y05193*
X05498Y05177*
Y0516*
X05502Y05144*
X05508Y05129*
X05517Y05115*
X05529Y05104*
X05542Y05094*
X05558Y05088*
X05574Y05085*
X0559*
X05606Y05088*
X05622Y05094*
X05635Y05104*
X05647Y05115*
X05656Y05129*
X05663Y05144*
X05666Y0516*
Y05177*
X05663Y05193*
X05656Y05208*
X05647Y05222*
X05635Y05234*
X05622Y05243*
X05606Y05249*
X0559Y05252*
G37*
G36*
X00197D02*
X0018D01*
X00164Y05249*
X00149Y05243*
X00135Y05234*
X00123Y05222*
X00114Y05208*
X00108Y05193*
X00105Y05177*
Y0516*
X00108Y05144*
X00114Y05129*
X00123Y05115*
X00135Y05104*
X00149Y05094*
X00164Y05088*
X0018Y05085*
X00197*
X00213Y05088*
X00228Y05094*
X00242Y05104*
X00253Y05115*
X00263Y05129*
X00269Y05144*
X00272Y0516*
Y05177*
X00269Y05193*
X00263Y05208*
X00253Y05222*
X00242Y05234*
X00228Y05243*
X00213Y05249*
X00197Y05252*
G37*
G36*
X03036Y05085D02*
X0303D01*
X03024Y05083*
X0302Y05079*
X03018Y05073*
Y05067*
X0302Y05062*
X03024Y05058*
X0303Y05055*
X03036*
X03041Y05058*
X03045Y05062*
X03048Y05067*
Y05073*
X03045Y05079*
X03041Y05083*
X03036Y05085*
G37*
G36*
X0088Y05075D02*
X00874D01*
X00869Y05073*
X00865Y05069*
X00862Y05063*
Y05057*
X00865Y05052*
X00869Y05048*
X00874Y05046*
X0088*
X00886Y05048*
X0089Y05052*
X00892Y05057*
Y05063*
X0089Y05069*
X00886Y05073*
X0088Y05075*
G37*
G36*
X0214Y04937D02*
X02134D01*
X02129Y04935*
X02125Y04931*
X02122Y04926*
Y0492*
X02125Y04914*
X02129Y0491*
X02134Y04908*
X0214*
X02146Y0491*
X0215Y04914*
X02152Y0492*
Y04926*
X0215Y04931*
X02146Y04935*
X0214Y04937*
G37*
G36*
X01569D02*
X01563D01*
X01558Y04935*
X01554Y04931*
X01551Y04926*
Y0492*
X01554Y04914*
X01558Y0491*
X01563Y04908*
X01569*
X01575Y0491*
X01579Y04914*
X01581Y0492*
Y04926*
X01579Y04931*
X01575Y04935*
X01569Y04937*
G37*
G36*
X01246D02*
X0124D01*
X01235Y04935*
X01231Y04931*
X01229Y04926*
Y0492*
X01231Y04914*
X01235Y0491*
X0124Y04908*
X01246*
X01252Y0491*
X01256Y04914*
X01258Y0492*
Y04926*
X01256Y04931*
X01252Y04935*
X01246Y04937*
G37*
G36*
X03097Y04784D02*
X03091D01*
X03086Y04782*
X03082Y04777*
X03079Y04772*
Y04766*
X03082Y04761*
X03086Y04756*
X03091Y04754*
X03097*
X03103Y04756*
X03107Y04761*
X03109Y04766*
Y04772*
X03107Y04777*
X03103Y04782*
X03097Y04784*
G37*
G36*
X0315Y04752D02*
X03144D01*
X03138Y0475*
X03134Y04746*
X03132Y0474*
Y04735*
X03134Y04729*
X03138Y04725*
X03144Y04723*
X0315*
X03155Y04725*
X03159Y04729*
X03162Y04735*
Y0474*
X03159Y04746*
X03155Y0475*
X0315Y04752*
G37*
G36*
X01784Y04744D02*
X01778D01*
X01772Y04741*
X01768Y04737*
X01766Y04732*
Y04726*
X01768Y0472*
X01772Y04716*
X01778Y04714*
X01784*
X01789Y04716*
X01793Y0472*
X01796Y04726*
Y04732*
X01793Y04737*
X01789Y04741*
X01784Y04744*
G37*
G36*
X04709Y04662D02*
X04703D01*
X04698Y0466*
X04693Y04655*
X04691Y0465*
Y04644*
X04693Y04639*
X04698Y04634*
X04703Y04632*
X04709*
X04714Y04634*
X04719Y04639*
X04721Y04644*
Y0465*
X04719Y04655*
X04714Y0466*
X04709Y04662*
G37*
G36*
X01927D02*
X01921D01*
X01915Y0466*
X01911Y04655*
X01909Y0465*
Y04644*
X01911Y04639*
X01915Y04634*
X01921Y04632*
X01927*
X01932Y04634*
X01936Y04639*
X01938Y04644*
Y0465*
X01936Y04655*
X01932Y0466*
X01927Y04662*
G37*
G36*
X01809Y04632D02*
X01803D01*
X01798Y0463*
X01794Y04626*
X01792Y0462*
Y04615*
X01794Y04609*
X01798Y04605*
X01803Y04603*
X01809*
X01815Y04605*
X01819Y04609*
X01821Y04615*
Y0462*
X01819Y04626*
X01815Y0463*
X01809Y04632*
G37*
G36*
X0122Y04631D02*
X01214D01*
X01209Y04629*
X01204Y04624*
X01202Y04619*
Y04613*
X01204Y04608*
X01209Y04603*
X01214Y04601*
X0122*
X01225Y04603*
X0123Y04608*
X01232Y04613*
Y04619*
X0123Y04624*
X01225Y04629*
X0122Y04631*
G37*
G36*
X05198Y04622D02*
X05193D01*
X05187Y0462*
X05183Y04616*
X05181Y04611*
Y04605*
X05183Y04599*
X05187Y04595*
X05193Y04593*
X05198*
X05204Y04595*
X05208Y04599*
X0521Y04605*
Y04611*
X05208Y04616*
X05204Y0462*
X05198Y04622*
G37*
G36*
X04994D02*
X04989D01*
X04983Y0462*
X04979Y04616*
X04977Y04611*
Y04605*
X04979Y04599*
X04983Y04595*
X04989Y04593*
X04994*
X05Y04595*
X05004Y04599*
X05006Y04605*
Y04611*
X05004Y04616*
X05Y0462*
X04994Y04622*
G37*
G36*
X01901Y04606D02*
X01895D01*
X0189Y04603*
X01885Y04599*
X01883Y04594*
Y04588*
X01885Y04582*
X0189Y04578*
X01895Y04576*
X01901*
X01906Y04578*
X01911Y04582*
X01913Y04588*
Y04594*
X01911Y04599*
X01906Y04603*
X01901Y04606*
G37*
G36*
X00835Y04579D02*
X00829D01*
X00824Y04577*
X0082Y04573*
X00817Y04567*
Y04561*
X0082Y04556*
X00824Y04552*
X00829Y04549*
X00835*
X00841Y04552*
X00845Y04556*
X00847Y04561*
Y04567*
X00845Y04573*
X00841Y04577*
X00835Y04579*
G37*
G36*
X02918Y04578D02*
X02912D01*
X02906Y04576*
X02902Y04571*
X029Y04566*
Y0456*
X02902Y04555*
X02906Y0455*
X02912Y04548*
X02918*
X02923Y0455*
X02927Y04555*
X0293Y0456*
Y04566*
X02927Y04571*
X02923Y04576*
X02918Y04578*
G37*
G36*
X0301Y04527D02*
X03004D01*
X02999Y04525*
X02995Y04521*
X02992Y04515*
Y04509*
X02995Y04504*
X02999Y045*
X03004Y04497*
X0301*
X03016Y045*
X0302Y04504*
X03022Y04509*
Y04515*
X0302Y04521*
X03016Y04525*
X0301Y04527*
G37*
G36*
X02898Y04524D02*
X02892D01*
X02887Y04522*
X02882Y04518*
X0288Y04512*
Y04506*
X02882Y04501*
X02887Y04497*
X02892Y04494*
X02898*
X02903Y04497*
X02908Y04501*
X0291Y04506*
Y04512*
X02908Y04518*
X02903Y04522*
X02898Y04524*
G37*
G36*
X01116D02*
X01111D01*
X01105Y04522*
X01101Y04518*
X01099Y04512*
Y04506*
X01101Y04501*
X01105Y04497*
X01111Y04494*
X01116*
X01122Y04497*
X01126Y04501*
X01128Y04506*
Y04512*
X01126Y04518*
X01122Y04522*
X01116Y04524*
G37*
G36*
X03074Y04492D02*
X03068D01*
X03063Y04489*
X03058Y04485*
X03056Y0448*
Y04474*
X03058Y04468*
X03059Y04468*
X03057Y04464*
X03055Y04465*
X0305*
X03044Y04463*
X0304Y04459*
X03038Y04453*
Y04447*
X0304Y04442*
X03044Y04438*
X0305Y04435*
X03055*
X03061Y04438*
X03065Y04442*
X03067Y04447*
Y04453*
X03065Y04459*
X03064Y04459*
X03067Y04463*
X03068Y04462*
X03074*
X03079Y04464*
X03084Y04468*
X03086Y04474*
Y0448*
X03084Y04485*
X03079Y04489*
X03074Y04492*
G37*
G36*
X02674Y04407D02*
X02668D01*
X02663Y04405*
X02659Y04401*
X02656Y04395*
Y04389*
X02659Y04384*
X02663Y0438*
X02668Y04377*
X02674*
X0268Y0438*
X02684Y04384*
X02686Y04389*
Y04395*
X02684Y04401*
X0268Y04405*
X02674Y04407*
G37*
G36*
X0154Y04376D02*
X01534D01*
X01528Y04374*
X01524Y0437*
X01522Y04365*
Y04359*
X01524Y04353*
X01528Y04349*
X01534Y04347*
X0154*
X01545Y04349*
X01549Y04353*
X01552Y04359*
Y04365*
X01549Y0437*
X01545Y04374*
X0154Y04376*
G37*
G36*
X03582Y04386D02*
X03566D01*
X0355Y04383*
X03534Y04377*
X03521Y04368*
X03509Y04356*
X035Y04342*
X03494Y04327*
X0349Y04311*
Y04294*
X03494Y04278*
X035Y04263*
X03509Y04249*
X03521Y04237*
X03534Y04228*
X0355Y04222*
X03566Y04219*
X03582*
X03599Y04222*
X03614Y04228*
X03628Y04237*
X03639Y04249*
X03648Y04263*
X03655Y04278*
X03658Y04294*
Y04311*
X03655Y04327*
X03648Y04342*
X03639Y04356*
X03628Y04368*
X03614Y04377*
X03599Y04383*
X03582Y04386*
G37*
G36*
X05211Y0413D02*
X05205D01*
X052Y04128*
X05195Y04124*
X05193Y04118*
Y04113*
X05195Y04107*
X052Y04103*
X05205Y04101*
X05211*
X05216Y04103*
X05221Y04107*
X05223Y04113*
Y04118*
X05221Y04124*
X05216Y04128*
X05211Y0413*
G37*
G36*
X02953Y04008D02*
X02947D01*
X02941Y04006*
X02937Y04002*
X02935Y03996*
Y0399*
X02937Y03985*
X02941Y03981*
X02947Y03979*
X02953*
X02958Y03981*
X02962Y03985*
X02965Y0399*
Y03996*
X02962Y04002*
X02958Y04006*
X02953Y04008*
G37*
G36*
X01845Y03987D02*
X01839D01*
X01834Y03985*
X0183Y03981*
X01828Y03976*
Y0397*
X0183Y03964*
X01834Y0396*
X01839Y03958*
X01845*
X01851Y0396*
X01855Y03964*
X01857Y0397*
Y03976*
X01855Y03981*
X01851Y03985*
X01845Y03987*
G37*
G36*
X03213Y03922D02*
X03207D01*
X03202Y03919*
X03198Y03915*
X03195Y0391*
Y03904*
X03198Y03898*
X03202Y03894*
X03207Y03892*
X03213*
X03219Y03894*
X03223Y03898*
X03225Y03904*
Y0391*
X03223Y03915*
X03219Y03919*
X03213Y03922*
G37*
G36*
X03007Y03908D02*
X03001D01*
X02996Y03906*
X02992Y03901*
X02989Y03896*
Y0389*
X02992Y03885*
X02996Y0388*
X03001Y03878*
X03007*
X03013Y0388*
X03017Y03885*
X03019Y0389*
Y03896*
X03017Y03901*
X03013Y03906*
X03007Y03908*
G37*
G36*
X01877Y03865D02*
X01871D01*
X01866Y03863*
X01862Y03858*
X01859Y03853*
Y03847*
X01862Y03842*
X01866Y03837*
X01871Y03835*
X01877*
X01882Y03837*
X01887Y03842*
X01889Y03847*
Y03853*
X01887Y03858*
X01882Y03863*
X01877Y03865*
G37*
G36*
X05199Y03845D02*
X05193D01*
X05187Y03843*
X05183Y03838*
X05181Y03833*
Y03827*
X05183Y03822*
X05187Y03817*
X05193Y03815*
X05199*
X05204Y03817*
X05208Y03822*
X05211Y03827*
Y03833*
X05208Y03838*
X05204Y03843*
X05199Y03845*
G37*
G36*
X0122Y03843D02*
X01214D01*
X01208Y0384*
X01204Y03836*
X01202Y03831*
Y03825*
X01204Y03819*
X01208Y03815*
X01214Y03813*
X0122*
X01225Y03815*
X01229Y03819*
X01231Y03825*
Y03831*
X01229Y03836*
X01225Y0384*
X0122Y03843*
G37*
G36*
X05009Y03825D02*
X05003D01*
X04998Y03823*
X04993Y03819*
X04991Y03813*
Y03807*
X04993Y03802*
X04998Y03798*
X05003Y03795*
X05009*
X05014Y03798*
X05019Y03802*
X05021Y03807*
Y03813*
X05019Y03819*
X05014Y03823*
X05009Y03825*
G37*
G36*
X03323Y03748D02*
X03317D01*
X03312Y03745*
X03308Y03741*
X03305Y03736*
Y0373*
X03308Y03724*
X03312Y0372*
X03317Y03718*
X03323*
X03329Y0372*
X03333Y03724*
X03335Y0373*
Y03736*
X03333Y03741*
X03329Y03745*
X03323Y03748*
G37*
G36*
X02991Y03732D02*
X02985D01*
X02979Y0373*
X02975Y03725*
X02973Y0372*
Y03714*
X02975Y03709*
X02979Y03704*
X02985Y03702*
X02991*
X02996Y03704*
X03Y03709*
X03003Y03714*
Y0372*
X03Y03725*
X02996Y0373*
X02991Y03732*
G37*
G36*
X0088Y03727D02*
X00874D01*
X00869Y03725*
X00865Y0372*
X00862Y03715*
Y03709*
X00865Y03704*
X00869Y03699*
X00874Y03697*
X0088*
X00886Y03699*
X0089Y03704*
X00892Y03709*
Y03715*
X0089Y0372*
X00886Y03725*
X0088Y03727*
G37*
G36*
X02707Y0372D02*
X02701D01*
X02695Y03718*
X02691Y03714*
X02689Y03708*
Y03703*
X02691Y03697*
X02695Y03693*
X02701Y03691*
X02707*
X02712Y03693*
X02716Y03697*
X02718Y03703*
Y03708*
X02716Y03714*
X02712Y03718*
X02707Y0372*
G37*
G36*
X00979Y03707D02*
X00973D01*
X00967Y03705*
X00963Y03701*
X00961Y03695*
Y03689*
X00963Y03684*
X00967Y0368*
X00973Y03677*
X00979*
X00984Y0368*
X00988Y03684*
X00991Y03689*
Y03695*
X00988Y03701*
X00984Y03705*
X00979Y03707*
G37*
G36*
X02885Y03702D02*
X0288D01*
X02874Y037*
X0287Y03695*
X02868Y0369*
Y03684*
X0287Y03679*
X02874Y03674*
X0288Y03672*
X02885*
X02891Y03674*
X02895Y03679*
X02897Y03684*
Y0369*
X02895Y03695*
X02891Y037*
X02885Y03702*
G37*
G36*
X04857Y03697D02*
X04851D01*
X04845Y03695*
X04841Y03691*
X04839Y03685*
Y03679*
X04841Y03674*
X04845Y0367*
X04851Y03668*
X04857*
X04862Y0367*
X04866Y03674*
X04869Y03679*
Y03685*
X04866Y03691*
X04862Y03695*
X04857Y03697*
G37*
G36*
X02481Y03704D02*
X02475D01*
X02469Y03702*
X02465Y03698*
X02463Y03692*
Y03686*
X02465Y03681*
X02469Y03677*
X02475Y03674*
X02481*
X02481Y03671*
Y03668*
X02484Y03663*
X02488Y03659*
X02493Y03657*
X02499*
X02504Y03659*
X02509Y03663*
X02511Y03668*
Y03674*
X02509Y0368*
X02504Y03684*
X02499Y03686*
X02493*
X02493Y0369*
Y03692*
X0249Y03698*
X02486Y03702*
X02481Y03704*
G37*
G36*
X02817Y03675D02*
X02811D01*
X02806Y03672*
X02802Y03668*
X02799Y03663*
Y03657*
X02802Y03651*
X02806Y03647*
X02811Y03645*
X02817*
X02823Y03647*
X02827Y03651*
X02829Y03657*
Y03663*
X02827Y03668*
X02823Y03672*
X02817Y03675*
G37*
G36*
X03007Y03671D02*
X03001D01*
X02995Y03669*
X02991Y03665*
X02989Y03659*
Y03653*
X02991Y03648*
X02995Y03644*
X03001Y03641*
X03007*
X03012Y03644*
X03016Y03648*
X03019Y03653*
Y03659*
X03016Y03665*
X03012Y03669*
X03007Y03671*
G37*
G36*
X00979Y03638D02*
X00973D01*
X00967Y03636*
X00963Y03632*
X00961Y03626*
Y0362*
X00963Y03615*
X00967Y03611*
X00973Y03609*
X00979*
X00984Y03611*
X00988Y03615*
X00991Y0362*
Y03626*
X00988Y03632*
X00984Y03636*
X00979Y03638*
G37*
G36*
X0088Y03628D02*
X00874D01*
X00869Y03626*
X00865Y03622*
X00862Y03616*
Y03611*
X00865Y03605*
X00869Y03601*
X00874Y03599*
X0088*
X00886Y03601*
X0089Y03605*
X00892Y03611*
Y03616*
X0089Y03622*
X00886Y03626*
X0088Y03628*
G37*
G36*
X02828Y03617D02*
X02822D01*
X02817Y03614*
X02813Y0361*
X0281Y03605*
Y03599*
X02813Y03593*
X02817Y03589*
X02822Y03587*
X02828*
X02834Y03589*
X02838Y03593*
X0284Y03599*
Y03605*
X02838Y0361*
X02834Y03614*
X02828Y03617*
G37*
G36*
X02707Y03616D02*
X02701D01*
X02695Y03614*
X02691Y03609*
X02689Y03604*
Y03598*
X02691Y03593*
X02695Y03588*
X02701Y03586*
X02707*
X02712Y03588*
X02716Y03593*
X02718Y03598*
Y03604*
X02716Y03609*
X02712Y03614*
X02707Y03616*
G37*
G36*
X02664Y03616D02*
X02658D01*
X02652Y03613*
X02648Y03609*
X02646Y03604*
Y03598*
X02648Y03592*
X02652Y03588*
X02658Y03586*
X02664*
X02669Y03588*
X02673Y03592*
X02676Y03598*
Y03604*
X02673Y03609*
X02669Y03613*
X02664Y03616*
G37*
G36*
X02627D02*
X02621D01*
X02616Y03613*
X02612Y03609*
X0261Y03604*
Y03598*
X02612Y03592*
X02616Y03588*
X02621Y03586*
X02627*
X02633Y03588*
X02637Y03592*
X02639Y03598*
Y03604*
X02637Y03609*
X02633Y03613*
X02627Y03616*
G37*
G36*
X0154Y03579D02*
X01534D01*
X01528Y03577*
X01524Y03573*
X01522Y03567*
Y03561*
X01524Y03556*
X01528Y03552*
X01534Y03549*
X0154*
X01545Y03552*
X01549Y03556*
X01552Y03561*
Y03567*
X01549Y03573*
X01545Y03577*
X0154Y03579*
G37*
G36*
X02548Y03552D02*
X02542D01*
X02536Y03549*
X02532Y03545*
X0253Y0354*
Y03534*
X02532Y03528*
X02536Y03524*
X02542Y03522*
X02548*
X02553Y03524*
X02557Y03528*
X02559Y03534*
Y0354*
X02557Y03545*
X02553Y03549*
X02548Y03552*
G37*
G36*
X0402Y0351D02*
X04014D01*
X04008Y03507*
X04004Y03503*
X04004Y03503*
X04*
X04Y03503*
X03996Y03507*
X0399Y0351*
X03984*
X03979Y03507*
X03975Y03503*
X03974Y03503*
X0397*
X0397Y03503*
X03966Y03507*
X03961Y0351*
X03955*
X03949Y03507*
X03945Y03503*
X03943Y03498*
Y03492*
X03945Y03486*
X03949Y03482*
X03955Y0348*
X03961*
X03966Y03482*
X0397Y03486*
X0397Y03487*
X03974*
X03975Y03486*
X03979Y03482*
X03984Y0348*
X0399*
X03996Y03482*
X04Y03486*
X04Y03487*
X04004*
X04004Y03486*
X04008Y03482*
X04014Y0348*
X0402*
X04025Y03482*
X04029Y03486*
X04032Y03492*
Y03498*
X04029Y03503*
X04025Y03507*
X0402Y0351*
G37*
G36*
X04659Y0352D02*
X04653D01*
X04648Y03518*
X04643Y03514*
X04641Y03508*
Y03502*
X04643Y03497*
X04648Y03493*
X04653Y03491*
X04659*
X04664Y03493*
X04669Y03497*
X04671Y03502*
Y03508*
X04669Y03514*
X04664Y03518*
X04659Y0352*
G37*
G36*
X05632Y03575D02*
X05621D01*
X0561Y03572*
X05601Y03566*
X05593Y03558*
X05587Y03549*
X05584Y03538*
Y03527*
X05587Y03516*
X05593Y03506*
X05601Y03498*
X0561Y03493*
X05621Y0349*
X05632*
X05643Y03493*
X05653Y03498*
X05661Y03506*
X05666Y03516*
X05669Y03527*
Y03538*
X05666Y03549*
X05661Y03558*
X05653Y03566*
X05643Y03572*
X05632Y03575*
G37*
G36*
X00839Y03514D02*
X00833D01*
X00827Y03511*
X00823Y03507*
X00821Y03502*
Y03496*
X00823Y0349*
X00827Y03486*
X00833Y03484*
X00839*
X00844Y03486*
X00848Y0349*
X00851Y03496*
Y03502*
X00848Y03507*
X00844Y03511*
X00839Y03514*
G37*
G36*
X02435Y0353D02*
X02429D01*
X02424Y03528*
X0242Y03524*
X02418Y03518*
Y03514*
X02416Y03511*
X02414Y0351*
X0241*
X02404Y03508*
X024Y03504*
X02398Y03498*
Y03492*
X024Y03487*
X02404Y03483*
X0241Y03481*
X02416*
X02421Y03483*
X02425Y03487*
X02428Y03492*
Y03497*
X02429Y03499*
X02431Y035*
X02435*
X02441Y03503*
X02445Y03507*
X02447Y03512*
Y03518*
X02445Y03524*
X02441Y03528*
X02435Y0353*
G37*
G36*
X0214Y0351D02*
X02134D01*
X02129Y03508*
X02125Y03504*
X02122Y03498*
Y03492*
X02125Y03487*
X02129Y03483*
X02134Y03481*
X0214*
X02146Y03483*
X0215Y03487*
X02152Y03492*
Y03498*
X0215Y03504*
X02146Y03508*
X0214Y0351*
G37*
G36*
X025Y0352D02*
X02494D01*
X02489Y03517*
X02484Y03513*
X02482Y03508*
Y03504*
X0248Y03501*
X02478Y03501*
X02474*
X02468Y03498*
X02464Y03494*
X02462Y03489*
Y03483*
X02464Y03477*
X02468Y03474*
X02468Y03473*
X02466Y0347*
X02466Y0347*
X02464Y03471*
X02458*
X02453Y03469*
X02448Y03464*
X02446Y03459*
Y03453*
X02448Y03448*
X02453Y03443*
X02458Y03441*
X02464*
X02469Y03443*
X02473Y03448*
X02476Y03453*
Y03459*
X02473Y03464*
X0247Y03468*
X02469Y03469*
X02471Y03472*
X02472Y03472*
X02474Y03471*
X0248*
X02485Y03473*
X02489Y03477*
X02491Y03483*
Y03487*
X02494Y03489*
X02495Y0349*
X025*
X02505Y03492*
X0251Y03496*
X02512Y03502*
Y03508*
X0251Y03513*
X02505Y03517*
X025Y0352*
G37*
G36*
X0405Y03471D02*
X04044D01*
X04038Y03469*
X04034Y03464*
X04034Y03464*
X04029*
X04029Y03464*
X04025Y03468*
X0402Y0347*
X04014*
X04008Y03468*
X04004Y03464*
X04004Y03463*
X04*
X04Y03464*
X03996Y03468*
X0399Y0347*
X03984*
X03979Y03468*
X03975Y03464*
X03974Y03463*
X0397*
X0397Y03464*
X03966Y03468*
X03961Y0347*
X03955*
X03949Y03468*
X03945Y03464*
X03943Y03458*
Y03452*
X03945Y03447*
X03949Y03443*
X03955Y03441*
X03961*
X03966Y03443*
X0397Y03447*
X0397Y03447*
X03974*
X03975Y03447*
X03979Y03443*
X03984Y03441*
X0399*
X03996Y03443*
X04Y03447*
X04Y03447*
X04004*
X04004Y03447*
X04008Y03443*
X04014Y03441*
X0402*
X04025Y03443*
X04029Y03447*
X0403Y03448*
X04034*
X04034Y03448*
X04038Y03443*
X04044Y03441*
X0405*
X04055Y03443*
X04059Y03448*
X04061Y03453*
Y03459*
X04059Y03464*
X04055Y03469*
X0405Y03471*
G37*
G36*
X04535Y03492D02*
X04529D01*
X04524Y0349*
X04519Y03486*
X04517Y0348*
Y03474*
X04519Y03469*
X04524Y03465*
X04529Y03463*
X04535*
X0454Y03465*
X04545Y03469*
X04547Y03474*
Y0348*
X04545Y03486*
X0454Y0349*
X04535Y03492*
G37*
G36*
X05389Y03491D02*
X05384D01*
X05378Y03489*
X05374Y03485*
X05372Y0348*
Y03474*
X05374Y03468*
X05378Y03464*
X05384Y03462*
X05389*
X05395Y03464*
X05399Y03468*
X05401Y03474*
Y0348*
X05399Y03485*
X05395Y03489*
X05389Y03491*
G37*
G36*
X05429D02*
X05423D01*
X05417Y03489*
X05413Y03485*
X05411Y0348*
Y03474*
X05413Y03468*
X05417Y03464*
X05423Y03462*
X05429*
X05434Y03464*
X05438Y03468*
X05441Y03474*
Y0348*
X05438Y03485*
X05434Y03489*
X05429Y03491*
G37*
G36*
X0535D02*
X05344D01*
X05339Y03489*
X05335Y03485*
X05332Y0348*
Y03474*
X05335Y03468*
X05339Y03464*
X05344Y03462*
X0535*
X05356Y03464*
X0536Y03468*
X05362Y03474*
Y0348*
X0536Y03485*
X05356Y03489*
X0535Y03491*
G37*
G36*
X05311D02*
X05305D01*
X05299Y03489*
X05295Y03485*
X05293Y0348*
Y03474*
X05295Y03468*
X05299Y03464*
X05305Y03462*
X05311*
X05316Y03464*
X0532Y03468*
X05323Y03474*
Y0348*
X0532Y03485*
X05316Y03489*
X05311Y03491*
G37*
G36*
X05271D02*
X05265D01*
X0526Y03489*
X05256Y03485*
X05254Y0348*
Y03474*
X05256Y03468*
X0526Y03464*
X05265Y03462*
X05271*
X05277Y03464*
X05281Y03468*
X05283Y03474*
Y0348*
X05281Y03485*
X05277Y03489*
X05271Y03491*
G37*
G36*
X05232D02*
X05226D01*
X05221Y03489*
X05216Y03485*
X05214Y0348*
Y03474*
X05216Y03468*
X05221Y03464*
X05226Y03462*
X05232*
X05237Y03464*
X05242Y03468*
X05244Y03474*
Y0348*
X05242Y03485*
X05237Y03489*
X05232Y03491*
G37*
G36*
X02081Y0351D02*
X02075D01*
X0207Y03508*
X02066Y03504*
X02063Y03498*
Y03492*
X02066Y03487*
X0207Y03483*
X02075Y03481*
X02079*
X02082Y03479*
X02083Y03477*
Y03473*
X02085Y03467*
X02089Y03463*
X02095Y03461*
X02101*
X02106Y03463*
X0211Y03467*
X02113Y03473*
Y03479*
X0211Y03484*
X02106Y03488*
X02101Y03491*
X02096*
X02094Y03492*
X02093Y03494*
Y03498*
X02091Y03504*
X02086Y03508*
X02081Y0351*
G37*
G36*
X03169Y03481D02*
X03163D01*
X03157Y03478*
X03153Y03474*
X03151Y03469*
Y03463*
X03153Y03458*
X03157Y03453*
X03163Y03451*
X03169*
X03174Y03453*
X03178Y03458*
X03181Y03463*
Y03469*
X03178Y03474*
X03174Y03478*
X03169Y03481*
G37*
G36*
X03832Y03476D02*
X03827D01*
X03821Y03474*
X03817Y0347*
X03815Y03465*
Y03459*
X03817Y03453*
X03821Y03449*
X03827Y03447*
X03832*
X03838Y03449*
X03842Y03453*
X03844Y03459*
Y03465*
X03842Y0347*
X03838Y03474*
X03832Y03476*
G37*
G36*
X04281Y03443D02*
X04275D01*
X0427Y03441*
X04266Y03436*
X04266Y03436*
X04262*
X04261Y03436*
X04257Y03441*
X04252Y03443*
X04246*
X0424Y03441*
X04236Y03436*
X04236Y03436*
X04232*
X04232Y03436*
X04228Y03441*
X04222Y03443*
X04216*
X04211Y03441*
X04207Y03436*
X04204Y03431*
Y03425*
X04207Y0342*
X04211Y03415*
X04216Y03413*
X04216Y03409*
X04216*
X0421Y03407*
X04206Y03403*
X04204Y03397*
Y03391*
X04206Y03386*
X0421Y03382*
X04216Y0338*
X04222*
X04227Y03382*
X04231Y03386*
X04231Y03386*
X04235*
X04236Y03386*
X0424Y03382*
X04245Y0338*
X04251*
X04257Y03382*
X04261Y03386*
X04261Y03386*
X04265*
X04265Y03386*
X04269Y03382*
X04275Y0338*
X04281*
X04283Y0338*
X04287Y03378*
X04288Y03376*
X04292Y03368*
X04299Y03362*
X04307Y03357*
X04316Y03355*
X04325*
X04334Y03357*
X04342Y03362*
X04348Y03368*
X04353Y03376*
X04355Y03385*
Y03395*
X04353Y03403*
X04348Y03411*
X04342Y03418*
X04334Y03423*
X04325Y03425*
X04316*
X04307Y03423*
X04299Y03418*
X04292Y03411*
X0429Y03407*
X04286Y03407*
X04286Y03407*
X04281Y03409*
X04281Y03413*
X04281*
X04287Y03415*
X04291Y0342*
X04293Y03425*
Y03431*
X04291Y03436*
X04287Y03441*
X04281Y03443*
G37*
G36*
X05429Y03452D02*
X05423D01*
X05417Y0345*
X05413Y03446*
X05411Y0344*
Y03434*
X05413Y03429*
X05417Y03425*
X05423Y03422*
X05429*
X05434Y03425*
X05438Y03429*
X05441Y03434*
Y0344*
X05438Y03446*
X05434Y0345*
X05429Y03452*
G37*
G36*
X05389D02*
X05384D01*
X05378Y0345*
X05374Y03446*
X05372Y0344*
Y03434*
X05374Y03429*
X05378Y03425*
X05384Y03422*
X05389*
X05395Y03425*
X05399Y03429*
X05401Y03434*
Y0344*
X05399Y03446*
X05395Y0345*
X05389Y03452*
G37*
G36*
X0535D02*
X05344D01*
X05339Y0345*
X05335Y03446*
X05332Y0344*
Y03434*
X05335Y03429*
X05339Y03425*
X05344Y03422*
X0535*
X05356Y03425*
X0536Y03429*
X05362Y03434*
Y0344*
X0536Y03446*
X05356Y0345*
X0535Y03452*
G37*
G36*
X05271D02*
X05265D01*
X0526Y0345*
X05256Y03446*
X05254Y0344*
Y03434*
X05256Y03429*
X0526Y03425*
X05265Y03422*
X05271*
X05277Y03425*
X05281Y03429*
X05283Y03434*
Y0344*
X05281Y03446*
X05277Y0345*
X05271Y03452*
G37*
G36*
X05232D02*
X05226D01*
X05221Y0345*
X05216Y03446*
X05214Y0344*
Y03434*
X05216Y03429*
X05221Y03425*
X05226Y03422*
X05232*
X05237Y03425*
X05242Y03429*
X05244Y03434*
Y0344*
X05242Y03446*
X05237Y0345*
X05232Y03452*
G37*
G36*
X05311D02*
X05305D01*
X05299Y0345*
X05295Y03446*
X05293Y0344*
Y03434*
X05295Y03429*
X05299Y03425*
X05305Y03422*
X05311*
X05316Y03425*
X0532Y03429*
X05323Y03434*
Y0344*
X0532Y03446*
X05316Y0345*
X05311Y03452*
G37*
G36*
X04354Y03523D02*
X04348D01*
X04342Y03521*
X04338Y03517*
X04336Y03511*
Y03505*
X04338Y035*
X0434Y03498*
X04342Y03495*
X0434Y03492*
X04338Y0349*
X04336Y03485*
Y03479*
X04338Y03473*
X04341Y0347*
X04342Y03468*
X04341Y03465*
X04338Y03462*
X04336Y03457*
Y03451*
X04338Y03446*
X04342Y03441*
X04348Y03439*
X04354*
X04355Y0344*
X04356Y03439*
X04359Y03437*
Y03432*
X04361Y03427*
X04365Y03423*
X0437Y03421*
X04376*
X04382Y03423*
X04386Y03427*
X04388Y03432*
Y03438*
X04386Y03444*
X04382Y03448*
X04376Y0345*
X0437*
X04369Y0345*
X04368Y0345*
X04366Y03453*
Y03457*
X04363Y03462*
X04361Y03465*
X0436Y03468*
X04361Y0347*
X04363Y03473*
X04366Y03479*
Y03485*
X04363Y0349*
X04361Y03492*
X0436Y03495*
X04361Y03498*
X04363Y035*
X04366Y03505*
Y03511*
X04363Y03517*
X04359Y03521*
X04354Y03523*
G37*
G36*
X03811Y03444D02*
X03805D01*
X03799Y03442*
X03795Y03437*
X03793Y03432*
Y03426*
X03795Y03421*
X03799Y03416*
X03805Y03414*
X03811*
X03816Y03416*
X0382Y03421*
X03823Y03426*
Y03432*
X0382Y03437*
X03816Y03442*
X03811Y03444*
G37*
G36*
X02788Y03427D02*
X02782D01*
X02776Y03424*
X02772Y0342*
X0277Y03415*
Y03409*
X02772Y03403*
X02776Y03399*
X02782Y03397*
X02788*
X02793Y03399*
X02797Y03403*
X028Y03409*
Y03415*
X02797Y0342*
X02793Y03424*
X02788Y03427*
G37*
G36*
X02744Y03426D02*
X02739D01*
X02733Y03424*
X02729Y0342*
X02727Y03414*
Y03408*
X02729Y03403*
X02733Y03399*
X02739Y03396*
X02744*
X0275Y03399*
X02754Y03403*
X02756Y03408*
Y03414*
X02754Y0342*
X0275Y03424*
X02744Y03426*
G37*
G36*
X02705D02*
X02699D01*
X02694Y03424*
X0269Y0342*
X02687Y03414*
Y03408*
X0269Y03403*
X02694Y03399*
X02699Y03396*
X02705*
X02711Y03399*
X02715Y03403*
X02717Y03408*
Y03414*
X02715Y0342*
X02711Y03424*
X02705Y03426*
G37*
G36*
X02666D02*
X0266D01*
X02654Y03424*
X0265Y0342*
X02648Y03414*
Y03408*
X0265Y03403*
X02654Y03399*
X0266Y03396*
X02666*
X02671Y03399*
X02675Y03403*
X02678Y03408*
Y03414*
X02675Y0342*
X02671Y03424*
X02666Y03426*
G37*
G36*
X02587D02*
X02581D01*
X02576Y03424*
X02571Y0342*
X02569Y03414*
Y03408*
X02571Y03403*
X02576Y03399*
X02581Y03396*
X02587*
X02592Y03399*
X02597Y03403*
X02599Y03408*
Y03414*
X02597Y0342*
X02592Y03424*
X02587Y03426*
G37*
G36*
X02548D02*
X02542D01*
X02536Y03424*
X02532Y0342*
X0253Y03414*
Y03408*
X02532Y03403*
X02536Y03399*
X02542Y03396*
X02548*
X02553Y03399*
X02557Y03403*
X02559Y03408*
Y03414*
X02557Y0342*
X02553Y03424*
X02548Y03426*
G37*
G36*
X02626Y03426D02*
X0262D01*
X02615Y03424*
X02611Y0342*
X02609Y03414*
Y03408*
X02611Y03403*
X02615Y03399*
X0262Y03396*
X02626*
X02632Y03399*
X02636Y03403*
X02638Y03408*
Y03414*
X02636Y0342*
X02632Y03424*
X02626Y03426*
G37*
G36*
X02827Y03424D02*
X02821D01*
X02816Y03422*
X02812Y03418*
X02809Y03412*
Y03406*
X02812Y03401*
X02816Y03397*
X02821Y03394*
X02827*
X02833Y03397*
X02837Y03401*
X02839Y03406*
Y03412*
X02837Y03418*
X02833Y03422*
X02827Y03424*
G37*
G36*
X02887Y03424D02*
X02881D01*
X02876Y03422*
X02872Y03418*
X02869Y03412*
Y03406*
X02872Y03401*
X02876Y03397*
X02881Y03394*
X02887*
X02893Y03397*
X02897Y03401*
X02899Y03406*
Y03412*
X02897Y03418*
X02893Y03422*
X02887Y03424*
G37*
G36*
X05311Y03413D02*
X05305D01*
X05299Y0341*
X05295Y03406*
X05293Y03401*
Y03395*
X05295Y03389*
X05299Y03385*
X05305Y03383*
X05311*
X05316Y03385*
X0532Y03389*
X05323Y03395*
Y03401*
X0532Y03406*
X05316Y0341*
X05311Y03413*
G37*
G36*
X05271D02*
X05265D01*
X0526Y0341*
X05256Y03406*
X05254Y03401*
Y03395*
X05256Y03389*
X0526Y03385*
X05265Y03383*
X05271*
X05277Y03385*
X05281Y03389*
X05283Y03395*
Y03401*
X05281Y03406*
X05277Y0341*
X05271Y03413*
G37*
G36*
X05232D02*
X05226D01*
X05221Y0341*
X05216Y03406*
X05214Y03401*
Y03395*
X05216Y03389*
X05221Y03385*
X05226Y03383*
X05232*
X05237Y03385*
X05242Y03389*
X05244Y03395*
Y03401*
X05242Y03406*
X05237Y0341*
X05232Y03413*
G37*
G36*
X05038Y03392D02*
X05032D01*
X05026Y0339*
X05022Y03386*
X0502Y0338*
Y03374*
X05022Y03369*
X05026Y03365*
X05032Y03362*
X05038*
X05043Y03365*
X05047Y03369*
X0505Y03374*
Y0338*
X05047Y03386*
X05043Y0339*
X05038Y03392*
G37*
G36*
X03884Y03385D02*
X03878D01*
X03872Y03382*
X03868Y03378*
X03866Y03373*
Y03367*
X03868Y03361*
X03872Y03357*
X03878Y03355*
X03884*
X03889Y03357*
X03893Y03361*
X03895Y03367*
Y03373*
X03893Y03378*
X03889Y03382*
X03884Y03385*
G37*
G36*
X03682Y03374D02*
X03676D01*
X03671Y03372*
X03667Y03367*
X03664Y03362*
Y03356*
X03667Y03351*
X03671Y03346*
X03676Y03344*
X03682*
X03688Y03346*
X03692Y03351*
X03694Y03356*
Y03362*
X03692Y03367*
X03688Y03372*
X03682Y03374*
G37*
G36*
X04057Y03411D02*
X04048D01*
X04039Y03409*
X04031Y03404*
X04024Y03398*
X0402Y0339*
X04017Y03381*
Y03372*
X0402Y03363*
X04024Y03355*
X04031Y03348*
X04039Y03344*
X04048Y03341*
X04057*
X04066Y03344*
X04074Y03348*
X04081Y03355*
X04085Y03363*
X04087Y03372*
Y03381*
X04085Y0339*
X04081Y03398*
X04074Y03404*
X04066Y03409*
X04057Y03411*
G37*
G36*
X04943Y03369D02*
X04937D01*
X04932Y03367*
X04927Y03363*
X04925Y03357*
Y03351*
X04927Y03346*
X04932Y03342*
X04937Y0334*
X04943*
X04948Y03342*
X04953Y03346*
X04955Y03351*
Y03357*
X04953Y03363*
X04948Y03367*
X04943Y03369*
G37*
G36*
X0289Y03363D02*
X02884D01*
X02879Y03361*
X02875Y03357*
X02872Y03351*
Y03345*
X02875Y0334*
X02879Y03336*
X02884Y03334*
X0289*
X02896Y03336*
X029Y0334*
X02902Y03345*
Y03351*
X029Y03357*
X02896Y03361*
X0289Y03363*
G37*
G36*
X03881Y03348D02*
X03875D01*
X0387Y03346*
X03866Y03341*
X03863Y03336*
Y0333*
X03866Y03325*
X0387Y0332*
X03875Y03318*
X03881*
X03887Y0332*
X03891Y03325*
X03893Y0333*
Y03336*
X03891Y03341*
X03887Y03346*
X03881Y03348*
G37*
G36*
X02742Y03333D02*
X02737D01*
X02731Y03331*
X02727Y03327*
X02725Y03321*
Y03315*
X02727Y0331*
X02731Y03306*
X02737Y03303*
X02742*
X02748Y03306*
X02752Y0331*
X02754Y03315*
Y03321*
X02752Y03327*
X02748Y03331*
X02742Y03333*
G37*
G36*
X02703D02*
X02697D01*
X02692Y03331*
X02688Y03327*
X02685Y03321*
Y03315*
X02688Y0331*
X02692Y03306*
X02697Y03303*
X02703*
X02709Y03306*
X02713Y0331*
X02715Y03315*
Y03321*
X02713Y03327*
X02709Y03331*
X02703Y03333*
G37*
G36*
X02624D02*
X02618D01*
X02613Y03331*
X02609Y03327*
X02607Y03321*
Y03315*
X02609Y0331*
X02613Y03306*
X02618Y03303*
X02624*
X0263Y03306*
X02634Y0331*
X02636Y03315*
Y03321*
X02634Y03327*
X0263Y03331*
X02624Y03333*
G37*
G36*
X02546D02*
X0254D01*
X02534Y03331*
X0253Y03327*
X02528Y03321*
Y03315*
X0253Y0331*
X02534Y03306*
X0254Y03303*
X02546*
X02551Y03306*
X02555Y0331*
X02557Y03315*
Y03321*
X02555Y03327*
X02551Y03331*
X02546Y03333*
G37*
G36*
X03079Y0333D02*
X03073D01*
X03068Y03328*
X03064Y03323*
X03062Y03318*
Y03312*
X03064Y03307*
X03068Y03302*
X03073Y033*
X03079*
X03085Y03302*
X03089Y03307*
X03091Y03312*
Y03318*
X03089Y03323*
X03085Y03328*
X03079Y0333*
G37*
G36*
X02825Y03329D02*
X02819D01*
X02814Y03327*
X0281Y03323*
X02807Y03317*
Y03311*
X0281Y03306*
X02814Y03302*
X02819Y03299*
X02825*
X02831Y03302*
X02835Y03306*
X02837Y03311*
Y03317*
X02835Y03323*
X02831Y03327*
X02825Y03329*
G37*
G36*
X02786D02*
X0278D01*
X02774Y03327*
X0277Y03323*
X02768Y03317*
Y03311*
X0277Y03306*
X02774Y03302*
X0278Y03299*
X02786*
X02791Y03302*
X02795Y03306*
X02798Y03311*
Y03317*
X02795Y03323*
X02791Y03327*
X02786Y03329*
G37*
G36*
X02668D02*
X02662D01*
X02656Y03327*
X02652Y03323*
X0265Y03317*
Y03311*
X02652Y03306*
X02656Y03302*
X02662Y03299*
X02668*
X02673Y03302*
X02677Y03306*
X0268Y03311*
Y03317*
X02677Y03323*
X02673Y03327*
X02668Y03329*
G37*
G36*
X02585D02*
X02579D01*
X02574Y03327*
X02569Y03323*
X02567Y03317*
Y03311*
X02569Y03306*
X02574Y03302*
X02579Y03299*
X02585*
X0259Y03302*
X02595Y03306*
X02597Y03311*
Y03317*
X02595Y03323*
X0259Y03327*
X02585Y03329*
G37*
G36*
X04985Y03323D02*
X04979D01*
X04973Y03321*
X04969Y03317*
X04967Y03311*
Y03306*
X04969Y033*
X04973Y03296*
X04979Y03294*
X04985*
X0499Y03296*
X04994Y033*
X04996Y03306*
Y03311*
X04994Y03317*
X0499Y03321*
X04985Y03323*
G37*
G36*
X02947Y03294D02*
X02941D01*
X02936Y03291*
X02932Y03287*
X02931Y03287*
X02927*
X02927Y03287*
X02923Y03291*
X02918Y03294*
X02912*
X02906Y03291*
X02902Y03287*
X029Y03282*
Y03276*
X02902Y0327*
X02906Y03266*
X0291Y03265*
X0291Y03263*
X0291Y03261*
X02905Y03259*
X02901Y03254*
X02899Y03249*
Y03243*
X02901Y03238*
X02905Y03233*
X02911Y03231*
X02916*
X02922Y03233*
X02926Y03238*
X02928Y03243*
Y03249*
X02926Y03254*
X02922Y03259*
X02918Y0326*
X02918Y03261*
X02918Y03264*
X02923Y03266*
X02927Y0327*
X02927Y03271*
X02931*
X02932Y0327*
X02936Y03266*
X02941Y03264*
X02947*
X02953Y03266*
X02957Y0327*
X02959Y03276*
Y03282*
X02957Y03287*
X02953Y03291*
X02947Y03294*
G37*
G36*
X02995Y03325D02*
X02989D01*
X02984Y03323*
X0298Y03319*
X02977Y03313*
Y03307*
X0298Y03302*
X02984Y03298*
X02989Y03295*
X02993*
X02996Y03292*
X02996Y03292*
X02995Y03289*
Y03283*
X02997Y03278*
X03002Y03274*
X03007Y03271*
X03013*
X03018Y03274*
X03023Y03278*
X03025Y03283*
Y03289*
X03028Y0329*
X03031Y03287*
Y03284*
X03034Y03278*
X03038Y03274*
X03043Y03272*
X03049*
X03055Y03274*
X03059Y03278*
X03061Y03284*
Y0329*
X03059Y03295*
X03055Y03299*
X03049Y03301*
X03047*
X03044Y03305*
Y03311*
X03042Y03316*
X03038Y0332*
X03032Y03322*
X03026*
X03021Y0332*
X03017Y03316*
X03014Y03311*
Y03305*
X03012Y03302*
X03008Y03302*
X03006Y03305*
X03007Y03307*
Y03313*
X03005Y03319*
X03001Y03323*
X02995Y03325*
G37*
G36*
X04325Y03325D02*
X04316D01*
X04307Y03323*
X04299Y03318*
X04292Y03311*
X04288Y03303*
X04285Y03295*
Y03285*
X04288Y03276*
X04292Y03268*
X04299Y03262*
X04307Y03257*
X04316Y03255*
X04325*
X04334Y03257*
X04342Y03262*
X04348Y03268*
X04353Y03276*
X04355Y03285*
Y03295*
X04353Y03303*
X04348Y03311*
X04342Y03318*
X04334Y03323*
X04325Y03325*
G37*
G36*
X03233Y03284D02*
X03227D01*
X03221Y03282*
X03217Y03277*
X03215Y03272*
Y03266*
X03217Y03261*
X03221Y03256*
X03227Y03254*
X03233*
X03238Y03256*
X03242Y03261*
X03245Y03266*
Y03272*
X03242Y03277*
X03238Y03282*
X03233Y03284*
G37*
G36*
X04767Y03298D02*
X04761D01*
X04756Y03296*
X04751Y03291*
X04749Y03286*
Y0328*
X04751Y03275*
X04756Y0327*
X04761Y03268*
X04767*
X04772Y0327*
X04774Y03272*
X04777Y0327*
X04777Y03268*
Y03262*
X04779Y03257*
X04783Y03253*
X04789Y0325*
X04794*
X048Y03253*
X04804Y03257*
X04806Y03262*
Y03268*
X04804Y03274*
X048Y03278*
X04794Y0328*
X04789*
X04783Y03278*
X04782Y03276*
X04778Y03279*
X04779Y0328*
Y03286*
X04777Y03291*
X04772Y03296*
X04767Y03298*
G37*
G36*
X05005Y03254D02*
X04999D01*
X04994Y03251*
X0499Y03247*
X04988Y03242*
Y03236*
X0499Y0323*
X04994Y03226*
X04999Y03224*
X05005*
X05011Y03226*
X05015Y0323*
X05017Y03236*
Y03242*
X05015Y03247*
X05011Y03251*
X05005Y03254*
G37*
G36*
X03095Y03245D02*
X03089D01*
X03083Y03242*
X03079Y03238*
X03077Y03233*
Y03227*
X03079Y03221*
X03083Y03217*
X03089Y03215*
X03095*
X031Y03217*
X03104Y03221*
X03107Y03227*
Y03233*
X03104Y03238*
X031Y03242*
X03095Y03245*
G37*
G36*
X03262Y03235D02*
X03256D01*
X03251Y03232*
X03247Y03228*
X03244Y03223*
Y03217*
X03247Y03211*
X03251Y03207*
X03256Y03205*
X03262*
X03268Y03207*
X03272Y03211*
X03274Y03217*
Y03223*
X03272Y03228*
X03268Y03232*
X03262Y03235*
G37*
G36*
X04946Y03234D02*
X0494D01*
X04934Y03231*
X0493Y03227*
X04928Y03222*
Y03216*
X0493Y0321*
X04934Y03206*
X0494Y03204*
X04946*
X04951Y03206*
X04955Y0321*
X04958Y03216*
Y03222*
X04955Y03227*
X04951Y03231*
X04946Y03234*
G37*
G36*
X0036Y03209D02*
X00354D01*
X00348Y03207*
X00344Y03203*
X00342Y03197*
Y03191*
X00344Y03186*
X00348Y03182*
X00354Y0318*
X0036*
X00365Y03182*
X00369Y03186*
X00372Y03191*
Y03197*
X00369Y03203*
X00365Y03207*
X0036Y03209*
G37*
G36*
X03879Y03208D02*
X03873D01*
X03868Y03206*
X03864Y03202*
X03861Y03196*
Y0319*
X03864Y03185*
X03868Y03181*
X03873Y03178*
X03879*
X03885Y03181*
X03889Y03185*
X03891Y0319*
Y03196*
X03889Y03202*
X03885Y03206*
X03879Y03208*
G37*
G36*
X04844Y03199D02*
X04838D01*
X04832Y03197*
X04828Y03193*
X04826Y03187*
Y03181*
X04828Y03176*
X04832Y03172*
X04838Y0317*
X04844*
X04849Y03172*
X04853Y03176*
X04856Y03181*
Y03187*
X04853Y03193*
X04849Y03197*
X04844Y03199*
G37*
G36*
X03789Y03192D02*
X03783D01*
X03778Y0319*
X03774Y03185*
X03772Y0318*
Y03174*
X03774Y03169*
X03778Y03164*
X03783Y03162*
X03789*
X03795Y03164*
X03799Y03169*
X03801Y03174*
Y0318*
X03799Y03185*
X03795Y0319*
X03789Y03192*
G37*
G36*
X03277Y03191D02*
X03271D01*
X03266Y03189*
X03261Y03185*
X03259Y03179*
Y03174*
X03261Y03168*
X03266Y03164*
X03271Y03162*
X03277*
X03282Y03164*
X03287Y03168*
X03289Y03174*
Y03179*
X03287Y03185*
X03282Y03189*
X03277Y03191*
G37*
G36*
X03696Y03189D02*
X0369D01*
X03685Y03187*
X03681Y03182*
X03678Y03177*
Y03171*
X03681Y03166*
X03685Y03161*
X0369Y03159*
X03696*
X03702Y03161*
X03706Y03166*
X03708Y03171*
Y03177*
X03706Y03182*
X03702Y03187*
X03696Y03189*
G37*
G36*
X04246Y03156D02*
X0424D01*
X04235Y03154*
X04231Y03149*
X04231Y03149*
X04227*
X04226Y03149*
X04222Y03154*
X04217Y03156*
X04211*
X04206Y03154*
X04201Y03149*
X04201Y03149*
X04197*
X04197Y03149*
X04193Y03154*
X04187Y03156*
X04181*
X04176Y03154*
X04172Y03149*
X0417Y03144*
Y03138*
X04172Y03133*
X04176Y03128*
X04176Y03128*
Y03124*
X04176Y03124*
X04172Y0312*
X0417Y03115*
Y03109*
X04172Y03103*
X04176Y03099*
X04176Y03099*
Y03095*
X04176Y03095*
X04172Y0309*
X0417Y03085*
Y03079*
X04172Y03074*
X04176Y03069*
X04181Y03067*
X04187*
X04193Y03069*
X04197Y03074*
X04197Y03074*
X04201*
X04201Y03074*
X04206Y03069*
X04211Y03067*
X04217*
X04222Y03069*
X04226Y03074*
X04227Y03074*
X04231*
X04231Y03074*
X04235Y03069*
X0424Y03067*
X04246*
X04252Y03069*
X04256Y03074*
X04258Y03079*
Y03085*
X04256Y0309*
X04252Y03095*
X04251Y03095*
Y03099*
X04252Y03099*
X04256Y03103*
X04258Y03109*
Y03115*
X04256Y0312*
X04252Y03124*
X04251Y03124*
Y03128*
X04252Y03128*
X04256Y03133*
X04258Y03138*
Y03144*
X04256Y03149*
X04252Y03154*
X04246Y03156*
G37*
G36*
X03606Y03173D02*
X036D01*
X03595Y03171*
X0359Y03166*
X03588Y03161*
Y03155*
X0359Y0315*
X03595Y03145*
X036Y03143*
X03606*
X03611Y03145*
X03616Y0315*
X03618Y03155*
Y03161*
X03616Y03166*
X03611Y03171*
X03606Y03173*
G37*
G36*
X03394Y03165D02*
X03388D01*
X03382Y03163*
X03378Y03159*
X03376Y03154*
Y03148*
X03378Y03142*
X03382Y03138*
X03388Y03136*
X03394*
X03399Y03138*
X03403Y03142*
X03405Y03148*
Y03154*
X03403Y03159*
X03399Y03163*
X03394Y03165*
G37*
G36*
X02103Y03146D02*
X02097D01*
X02092Y03144*
X02088Y0314*
X02085Y03134*
Y03128*
X02088Y03123*
X02092Y03119*
X02097Y03116*
X02103*
X02109Y03119*
X02113Y03123*
X02115Y03128*
Y03134*
X02113Y0314*
X02109Y03144*
X02103Y03146*
G37*
G36*
X04964Y03142D02*
X04958D01*
X04953Y03139*
X04949Y03135*
X04946Y0313*
Y03124*
X04949Y03118*
X04953Y03114*
X04958Y03112*
X04964*
X0497Y03114*
X04974Y03118*
X04976Y03124*
Y0313*
X04974Y03135*
X0497Y03139*
X04964Y03142*
G37*
G36*
X03323Y03141D02*
X03317D01*
X03312Y03139*
X03307Y03134*
X03305Y03129*
Y03123*
X03307Y03118*
X03312Y03113*
X03317Y03111*
X03323*
X03328Y03113*
X03333Y03118*
X03335Y03123*
Y03129*
X03333Y03134*
X03328Y03139*
X03323Y03141*
G37*
G36*
X04784Y03131D02*
X04778D01*
X04773Y03129*
X04769Y03125*
X04766Y0312*
Y03114*
X04769Y03108*
X04773Y03104*
X04778Y03102*
X04784*
X0479Y03104*
X04794Y03108*
X04796Y03114*
Y0312*
X04794Y03125*
X0479Y03129*
X04784Y03131*
G37*
G36*
X03174Y03108D02*
X03168D01*
X03162Y03105*
X0316Y03103*
X03158Y03101*
X03155Y03103*
X03153Y03104*
X03148Y03107*
X03142*
X03136Y03104*
X03132Y031*
X0313Y03095*
Y03089*
X03132Y03083*
X03136Y03079*
X03142Y03077*
X03148*
X03153Y03079*
X03156Y03082*
X03157Y03083*
X03161Y03082*
X03162Y0308*
X03168Y03078*
X03174*
X03179Y0308*
X03183Y03084*
X03186Y0309*
Y03096*
X03183Y03101*
X03179Y03105*
X03174Y03108*
G37*
G36*
X02738Y03111D02*
X02732D01*
X02726Y03108*
X02722Y03104*
X0272Y03099*
Y03095*
X02719Y03093*
X02716Y03092*
X02713*
X02711Y03093*
Y03097*
X02709Y03102*
X02705Y03106*
X02699Y03108*
X02693*
X02688Y03106*
X02684Y03102*
X02681Y03097*
Y03095*
X02679Y03091*
X02673*
X02671Y03092*
Y03096*
X02669Y03101*
X02665Y03106*
X0266Y03108*
X02654*
X02648Y03106*
X02644Y03101*
X02642Y03096*
Y03093*
X02638Y0309*
X02637Y03091*
X02631*
X02631Y03091*
Y03096*
X02629Y03101*
X02625Y03105*
X02619Y03108*
X02613*
X02608Y03105*
X02604Y03101*
X02601Y03096*
Y03091*
X02601Y03091*
X02596*
X02595Y03091*
Y03097*
X02593Y03103*
X02589Y03107*
X02583Y03109*
X02577*
X02572Y03107*
X02568Y03103*
X02565Y03097*
X02561Y03096*
X02559Y03097*
X02554*
X02549Y03095*
X02548Y03095*
X02545Y03097*
X02543Y031*
X02539Y03104*
X02534Y03106*
X02528*
X02522Y03104*
X02518Y031*
X02516Y03094*
Y03088*
X02518Y03083*
X02522Y03079*
X02528Y03076*
X02534*
X02538Y03078*
X0254Y03078*
X02543Y03076*
X02544Y03074*
X02548Y03069*
X02554Y03067*
X02559*
X02565Y03069*
X02569Y03074*
X02571Y03079*
X02575Y0308*
X02577Y0308*
X02582*
X02583Y03079*
Y03073*
X02585Y03068*
X02589Y03063*
X02595Y03061*
X02601*
X02606Y03063*
X0261Y03068*
X02612Y03073*
Y03078*
X02613Y03078*
X02619*
X02619Y03078*
Y03073*
X02621Y03067*
X02626Y03063*
X02631Y03061*
X02637*
X02642Y03063*
X02647Y03067*
X02649Y03073*
Y03076*
X02653Y03079*
X02654Y03078*
X0266*
X02662Y03077*
Y03073*
X02664Y03068*
X02668Y03064*
X02673Y03061*
X02679*
X02685Y03064*
X02689Y03068*
X02691Y03073*
Y03075*
X02693Y03079*
X02699*
X02701Y03077*
Y03074*
X02704Y03068*
X02708Y03064*
X02713Y03062*
X02719*
X02725Y03064*
X02729Y03068*
X02731Y03074*
Y03077*
X02732Y0308*
X02735Y03081*
X02738*
X02741Y03082*
X02746Y03081*
X02746Y0308*
X0275Y03076*
X02755Y03074*
X02761*
X02767Y03076*
X02771Y0308*
X02773Y03086*
Y03092*
X02771Y03097*
X02767Y03101*
X02761Y03104*
X02755*
X0275Y03101*
X02748Y03102*
X02747Y03104*
X02743Y03108*
X02738Y03111*
G37*
G36*
X03555Y03118D02*
X0355D01*
X03544Y03115*
X0354Y03111*
X03538Y03106*
Y031*
X0354Y03094*
X03544Y0309*
X0355Y03088*
X03555*
X03561Y0309*
X03565Y03094*
X03567Y031*
Y03106*
X03565Y03111*
X03561Y03115*
X03555Y03118*
G37*
G36*
X00357Y03109D02*
X00351D01*
X00346Y03107*
X00341Y03103*
X00339Y03097*
Y03091*
X00341Y03086*
X00346Y03082*
X00351Y0308*
X00357*
X00362Y03082*
X00367Y03086*
X00369Y03091*
Y03097*
X00367Y03103*
X00362Y03107*
X00357Y03109*
G37*
G36*
X02332Y03108D02*
X02326D01*
X02321Y03105*
X02316Y03101*
X02314Y03096*
Y0309*
X02316Y03084*
X02321Y0308*
X02326Y03078*
X02332*
X02337Y0308*
X02342Y03084*
X02344Y0309*
Y03096*
X02342Y03101*
X02337Y03105*
X02332Y03108*
G37*
G36*
X02103Y03107D02*
X02097D01*
X02092Y03104*
X02088Y031*
X02085Y03095*
Y03089*
X02088Y03083*
X02092Y03079*
X02097Y03077*
X02103*
X02109Y03079*
X02113Y03083*
X02115Y03089*
Y03095*
X02113Y031*
X02109Y03104*
X02103Y03107*
G37*
G36*
X04934Y03106D02*
X04928D01*
X04923Y03104*
X04919Y031*
X04916Y03094*
Y03088*
X04919Y03083*
X04923Y03079*
X04928Y03076*
X04934*
X0494Y03079*
X04944Y03083*
X04946Y03088*
Y03094*
X04944Y031*
X0494Y03104*
X04934Y03106*
G37*
G36*
X02974Y03106D02*
X02968D01*
X02962Y03103*
X02958Y03099*
X02956Y03094*
Y03088*
X02958Y03082*
X02962Y03078*
X02968Y03076*
X02974*
X02979Y03078*
X02983Y03082*
X02986Y03088*
Y03094*
X02983Y03099*
X02979Y03103*
X02974Y03106*
G37*
G36*
X02852Y03105D02*
X02846D01*
X0284Y03103*
X02836Y03099*
X02834Y03093*
Y03087*
X02836Y03082*
X0284Y03078*
X02846Y03075*
X02852*
X02857Y03078*
X0286Y0308*
X02861Y0308*
X02865Y03076*
X02871Y03074*
X02876*
X02882Y03076*
X02886Y0308*
X02888Y03086*
Y03092*
X02886Y03097*
X02882Y03101*
X02876Y03104*
X02871*
X02865Y03101*
X02862Y03098*
X02861Y03099*
X02857Y03103*
X02852Y03105*
G37*
G36*
X03093Y03088D02*
X03087D01*
X03082Y03085*
X03077Y03081*
X03075Y03076*
Y0307*
X03077Y03064*
X03082Y0306*
X03087Y03058*
X03093*
X03098Y0306*
X031Y03059*
X031Y03059*
X03102Y03058*
Y03053*
X03104Y03047*
X03108Y03043*
X03113Y03041*
X03119*
X03125Y03043*
X03129Y03047*
X03131Y03053*
Y03059*
X03129Y03064*
X03125Y03068*
X03119Y0307*
X03113*
X03109Y03068*
X03107Y03069*
X03107Y03069*
X03105Y03071*
Y03076*
X03103Y03081*
X03098Y03085*
X03093Y03088*
G37*
G36*
X04598Y03069D02*
X04592D01*
X04586Y03067*
X04582Y03063*
X0458Y03058*
Y03052*
X04582Y03046*
X04586Y03042*
X04592Y0304*
X04598*
X04603Y03042*
X04607Y03046*
X0461Y03052*
Y03058*
X04607Y03063*
X04603Y03067*
X04598Y03069*
G37*
G36*
X02103Y03067D02*
X02097D01*
X02092Y03065*
X02088Y03061*
X02085Y03055*
Y0305*
X02088Y03044*
X02092Y0304*
X02097Y03038*
X02103*
X02109Y0304*
X02113Y03044*
X02115Y0305*
Y03055*
X02113Y03061*
X02109Y03065*
X02103Y03067*
G37*
G36*
X03194Y03056D02*
X03188D01*
X03182Y03054*
X03178Y03049*
X03176Y03044*
Y03038*
X03178Y03033*
X03182Y03028*
X03188Y03026*
X03194*
X03199Y03028*
X03203Y03033*
X03206Y03038*
Y03044*
X03203Y03049*
X03199Y03054*
X03194Y03056*
G37*
G36*
X02381Y03044D02*
X02375D01*
X0237Y03042*
X02366Y03038*
X02363Y03032*
Y03026*
X02366Y03021*
X0237Y03017*
X02375Y03015*
X02381*
X02387Y03017*
X02391Y03021*
X02393Y03026*
Y03032*
X02391Y03038*
X02387Y03042*
X02381Y03044*
G37*
G36*
X02103Y03028D02*
X02097D01*
X02092Y03026*
X02088Y03022*
X02085Y03016*
Y0301*
X02088Y03005*
X02092Y03001*
X02097Y02998*
X02103*
X02109Y03001*
X02113Y03005*
X02115Y0301*
Y03016*
X02113Y03022*
X02109Y03026*
X02103Y03028*
G37*
G36*
X02432Y03027D02*
X02426D01*
X02421Y03025*
X02416Y03021*
X02414Y03015*
Y03009*
X02416Y03004*
X02421Y03*
X02426Y02997*
X02432*
X02437Y03*
X02442Y03004*
X02444Y03009*
Y03015*
X02442Y03021*
X02437Y03025*
X02432Y03027*
G37*
G36*
X05632Y03079D02*
X05621D01*
X0561Y03076*
X05601Y0307*
X05593Y03062*
X05587Y03053*
X05584Y03042*
Y03031*
X05587Y0302*
X05593Y0301*
X05601Y03002*
X0561Y02997*
X05621Y02994*
X05632*
X05643Y02997*
X05653Y03002*
X05661Y0301*
X05666Y0302*
X05669Y03031*
Y03042*
X05666Y03053*
X05661Y03062*
X05653Y0307*
X05643Y03076*
X05632Y03079*
G37*
G36*
X03136Y03017D02*
X0313D01*
X03125Y03015*
X03121Y0301*
X03119Y03005*
Y02999*
X03121Y02994*
X03125Y02989*
X0313Y02987*
X03136*
X03142Y02989*
X03146Y02994*
X03148Y02999*
Y03005*
X03146Y0301*
X03142Y03015*
X03136Y03017*
G37*
G36*
X04786Y03004D02*
X04781D01*
X04775Y03002*
X04771Y02998*
X04769Y02992*
Y02986*
X04771Y02981*
X04775Y02977*
X04781Y02975*
X04786*
X04792Y02977*
X04796Y02981*
X04798Y02986*
Y02992*
X04796Y02998*
X04792Y03002*
X04786Y03004*
G37*
G36*
X02103Y02989D02*
X02097D01*
X02092Y02986*
X02088Y02982*
X02085Y02977*
Y02971*
X02088Y02965*
X02092Y02961*
X02097Y02959*
X02103*
X02109Y02961*
X02113Y02965*
X02115Y02971*
Y02977*
X02113Y02982*
X02109Y02986*
X02103Y02989*
G37*
G36*
Y02949D02*
X02097D01*
X02092Y02947*
X02088Y02943*
X02085Y02937*
Y02931*
X02088Y02926*
X02092Y02922*
X02097Y0292*
X02103*
X02109Y02922*
X02113Y02926*
X02115Y02931*
Y02937*
X02113Y02943*
X02109Y02947*
X02103Y02949*
G37*
G36*
X03274Y02988D02*
X03268D01*
X03262Y02986*
X03258Y02982*
X03256Y02976*
Y0297*
X03256Y0297*
X03254Y02966*
X0325Y02964*
X03246Y0296*
X03243Y02954*
Y02948*
X03246Y02943*
X0325Y02939*
X03255Y02937*
X03256*
X03259Y02933*
X03258Y02931*
Y02925*
X0326Y02919*
X03265Y02915*
X0327Y02913*
X03276*
X03281Y02915*
X03286Y02919*
X03288Y02925*
Y02931*
X03286Y02936*
X03281Y0294*
X03276Y02943*
X03275*
X03272Y02947*
X03273Y02948*
Y02954*
X03273Y02955*
X03275Y02959*
X03279Y02961*
X03283Y02965*
X03286Y0297*
Y02976*
X03283Y02982*
X03279Y02986*
X03274Y02988*
G37*
G36*
X01881Y0294D02*
X01875D01*
X0187Y02937*
X01866Y02933*
X01863Y02928*
Y02922*
X01866Y02916*
X0187Y02912*
X01875Y0291*
X01881*
X01887Y02912*
X01891Y02916*
X01893Y02922*
Y02928*
X01891Y02933*
X01887Y02937*
X01881Y0294*
G37*
G36*
X02103Y0291D02*
X02097D01*
X02092Y02908*
X02088Y02903*
X02085Y02898*
Y02892*
X02088Y02887*
X02092Y02882*
X02097Y0288*
X02103*
X02109Y02882*
X02113Y02887*
X02115Y02892*
Y02898*
X02113Y02903*
X02109Y02908*
X02103Y0291*
G37*
G36*
X01975Y02908D02*
X01969D01*
X01963Y02906*
X01959Y02901*
X01957Y02896*
Y0289*
X01959Y02885*
X01963Y0288*
X01969Y02878*
X01975*
X0198Y0288*
X01984Y02885*
X01987Y0289*
Y02896*
X01984Y02901*
X0198Y02906*
X01975Y02908*
G37*
G36*
X04023Y02943D02*
X04014D01*
X04005Y0294*
X03997Y02936*
X0399Y02929*
X03986Y02921*
X03983Y02912*
Y02903*
X03986Y02894*
X0399Y02886*
X03997Y0288*
X04005Y02875*
X04014Y02873*
X04023*
X04032Y02875*
X0404Y0288*
X04046Y02886*
X04051Y02894*
X04053Y02903*
Y02912*
X04051Y02921*
X04046Y02929*
X0404Y02936*
X04032Y0294*
X04023Y02943*
G37*
G36*
X01884Y029D02*
X01878D01*
X01872Y02898*
X01868Y02894*
X01866Y02888*
Y02882*
X01868Y02877*
X01872Y02873*
X01878Y02871*
X01884*
X01889Y02873*
X01893Y02877*
X01895Y02882*
Y02888*
X01893Y02894*
X01889Y02898*
X01884Y029*
G37*
G36*
X02103Y0287D02*
X02097D01*
X02092Y02868*
X02088Y02864*
X02085Y02859*
Y02853*
X02088Y02847*
X02092Y02843*
X02097Y02841*
X02103*
X02109Y02843*
X02113Y02847*
X02115Y02853*
Y02859*
X02113Y02864*
X02109Y02868*
X02103Y0287*
G37*
G36*
X0198Y0287D02*
X01974D01*
X01968Y02868*
X01964Y02864*
X01962Y02858*
Y02852*
X01964Y02847*
X01968Y02843*
X01974Y0284*
X0198*
X01985Y02843*
X01989Y02847*
X01991Y02852*
Y02858*
X01989Y02864*
X01985Y02868*
X0198Y0287*
G37*
G36*
X01895Y02866D02*
X01889D01*
X01883Y02864*
X01879Y0286*
X01877Y02854*
Y02848*
X01879Y02843*
X01883Y02839*
X01889Y02836*
X01895*
X019Y02839*
X01904Y02843*
X01906Y02848*
Y02854*
X01904Y0286*
X019Y02864*
X01895Y02866*
G37*
G36*
X02248Y02858D02*
X02242D01*
X02237Y02856*
X02233Y02852*
X02231Y02847*
Y02841*
X02233Y02835*
X02237Y02831*
X02242Y02829*
X02248*
X02254Y02831*
X02258Y02835*
X0226Y02841*
Y02847*
X02258Y02852*
X02254Y02856*
X02248Y02858*
G37*
G36*
X03274Y02847D02*
X03268D01*
X03263Y02845*
X03259Y02841*
X03256Y02836*
Y0283*
X03259Y02824*
X03263Y0282*
X03268Y02818*
X03274*
X0328Y0282*
X03284Y02824*
X03286Y0283*
Y02836*
X03284Y02841*
X0328Y02845*
X03274Y02847*
G37*
G36*
X01597Y02823D02*
X01591D01*
X01585Y02821*
X01581Y02816*
X0158Y02815*
X01576*
X01576Y02816*
X01571Y0282*
X01566Y02822*
X0156*
X01555Y0282*
X0155Y02816*
X0155Y02815*
X01546*
X01546Y02816*
X01542Y0282*
X01536Y02822*
X01531*
X01525Y0282*
X01521Y02816*
X01521Y02815*
X01517*
X01517Y02816*
X01512Y0282*
X01507Y02822*
X01501*
X01496Y0282*
X01491Y02816*
X01489Y0281*
Y02804*
X01491Y02799*
X01496Y02795*
X01501Y02792*
X01507*
X01512Y02795*
X01517Y02799*
X01517Y02799*
X01521*
X01521Y02799*
X01525Y02795*
X01531Y02792*
X01536*
X01542Y02795*
X01546Y02799*
X01546Y02799*
X0155*
X0155Y02799*
X01555Y02795*
X0156Y02792*
X01566*
X01571Y02795*
X01576Y02799*
X01576Y028*
X01581*
X01581Y028*
X01585Y02795*
X01591Y02793*
X01597*
X01602Y02795*
X01606Y028*
X01608Y02805*
Y02811*
X01606Y02816*
X01602Y02821*
X01597Y02823*
G37*
G36*
X03519Y02803D02*
X03513D01*
X03508Y028*
X03503Y02796*
X03501Y02791*
Y02785*
X03503Y02779*
X03508Y02775*
X03513Y02773*
X03519*
X03524Y02775*
X03529Y02779*
X03531Y02785*
Y02791*
X03529Y02796*
X03524Y028*
X03519Y02803*
G37*
G36*
X01545Y02787D02*
X01539D01*
X01533Y02785*
X01529Y02781*
X01527Y02775*
Y0277*
X01529Y02764*
X01533Y0276*
X01539Y02758*
X01545*
X0155Y0276*
X01554Y02764*
X01557Y0277*
Y02775*
X01554Y02781*
X0155Y02785*
X01545Y02787*
G37*
G36*
X02103Y02782D02*
X02097D01*
X02092Y0278*
X02088Y02775*
X02085Y0277*
Y02764*
X02088Y02759*
X02092Y02754*
X02097Y02752*
X02103*
X02109Y02754*
X02113Y02759*
X02115Y02764*
Y0277*
X02113Y02775*
X02109Y0278*
X02103Y02782*
G37*
G36*
X02382Y02915D02*
X02376D01*
X0237Y02912*
X02366Y02908*
X02364Y02903*
Y02897*
X02366Y02891*
X0237Y02887*
X0237Y02887*
X02372Y02882*
X02371Y02879*
Y02873*
X02372Y0287*
X0237Y02865*
X02366Y02861*
X02364Y02855*
Y02849*
X02366Y02844*
X0237Y0284*
X02376Y02838*
X02379*
X02382Y02837*
X02383Y02834*
Y02831*
X02383Y0283*
X02382Y02829*
X0238Y02827*
X02375*
X02369Y02825*
X02365Y02821*
X02363Y02815*
Y02809*
X02365Y02804*
X02369Y028*
X02375Y02797*
X02377*
X0238Y02793*
X0238Y02793*
Y02787*
X02381Y02783*
X0238Y0278*
X02379Y02779*
X02378*
X02373Y02777*
X02369Y02772*
X02366Y02767*
Y02761*
X02369Y02756*
X02373Y02751*
X02378Y02749*
X02384*
X0239Y02751*
X02394Y02756*
X02396Y02761*
Y02767*
X02394Y02771*
X02396Y02774*
X02396Y02775*
X02397*
X02403Y02778*
X02407Y02782*
X02409Y02787*
Y02793*
X02407Y02799*
X02403Y02803*
X02397Y02805*
X02395*
X02393Y02809*
X02393Y02809*
Y02815*
X02393Y02816*
X02394Y02818*
X02395Y02819*
X02401*
X02406Y02821*
X02411Y02825*
X02413Y02831*
Y02837*
X02411Y02842*
X02406Y02846*
X02401Y02849*
X02397*
X02395Y02849*
X02394Y02852*
Y02855*
X02392Y02859*
X02394Y02864*
X02398Y02868*
X024Y02873*
Y02879*
X02398Y02885*
X02394Y02889*
X02394Y02889*
X02392Y02894*
X02394Y02897*
Y02903*
X02391Y02908*
X02387Y02912*
X02382Y02915*
G37*
G36*
X03275Y02791D02*
X03269D01*
X03264Y02789*
X0326Y02785*
X03257Y0278*
Y02774*
X0326Y02768*
X03261Y02767*
X0326Y02763*
X0326Y02763*
X03256Y02759*
X03254Y02753*
Y02747*
X03256Y02742*
X0326Y02738*
X03266Y02736*
X03271*
X03277Y02738*
X03281Y02742*
X03283Y02747*
Y02753*
X03281Y02759*
X0328Y0276*
X03281Y02764*
X03281Y02764*
X03285Y02768*
X03287Y02774*
Y0278*
X03285Y02785*
X03281Y02789*
X03275Y02791*
G37*
G36*
X01969Y02758D02*
X01963D01*
X01957Y02756*
X01953Y02752*
X01951Y02746*
Y0274*
X01953Y02735*
X01957Y02731*
X01963Y02729*
X01969*
X01974Y02731*
X01978Y02735*
X01981Y0274*
Y02746*
X01978Y02752*
X01974Y02756*
X01969Y02758*
G37*
G36*
X01544Y02752D02*
X01538D01*
X01533Y0275*
X01529Y02746*
X01527Y0274*
Y02734*
X01529Y02729*
X01533Y02725*
X01538Y02723*
X01544*
X0155Y02725*
X01554Y02729*
X01556Y02734*
Y0274*
X01554Y02746*
X0155Y0275*
X01544Y02752*
G37*
G36*
X01508Y02785D02*
X01503D01*
X01497Y02782*
X01493Y02778*
X01491Y02773*
Y02767*
X01493Y02761*
X01497Y02757*
X01503Y02755*
X01502Y02751*
X01501*
X01496Y02749*
X01492Y02745*
X01489Y02739*
Y02733*
X01492Y02728*
X01496Y02724*
X01501Y02721*
X01507*
X01513Y02724*
X01517Y02728*
X01519Y02733*
Y02739*
X01517Y02745*
X01513Y02749*
X01507Y02751*
X01507Y02755*
X01508*
X01514Y02757*
X01518Y02761*
X0152Y02767*
Y02773*
X01518Y02778*
X01514Y02782*
X01508Y02785*
G37*
G36*
X02103Y02743D02*
X02097D01*
X02092Y0274*
X02088Y02736*
X02085Y02731*
Y02725*
X02088Y02719*
X02092Y02715*
X02097Y02713*
X02103*
X02109Y02715*
X02113Y02719*
X02115Y02725*
Y02731*
X02113Y02736*
X02109Y0274*
X02103Y02743*
G37*
G36*
X03527Y02735D02*
X03521D01*
X03515Y02732*
X03511Y02728*
X03509Y02723*
Y02717*
X03511Y02711*
X03515Y02707*
X03521Y02705*
X03527*
X03532Y02707*
X03536Y02711*
X03538Y02717*
Y02723*
X03536Y02728*
X03532Y02732*
X03527Y02735*
G37*
G36*
X0327Y02729D02*
X03264D01*
X03258Y02727*
X03254Y02723*
X03252Y02717*
Y02711*
X03254Y02706*
X03258Y02702*
X03264Y02699*
X0327*
X03275Y02702*
X03279Y02706*
X03282Y02711*
Y02717*
X03279Y02723*
X03275Y02727*
X0327Y02729*
G37*
G36*
X01994Y02711D02*
X01988D01*
X01982Y02709*
X01978Y02705*
X01976Y02699*
Y02693*
X01978Y02688*
X01982Y02684*
X01988Y02682*
X01994*
X01999Y02684*
X02003Y02688*
X02006Y02693*
Y02699*
X02003Y02705*
X01999Y02709*
X01994Y02711*
G37*
G36*
X0339Y02707D02*
X03384D01*
X03379Y02705*
X03375Y02701*
X03372Y02695*
Y02689*
X03375Y02684*
X03379Y0268*
X03384Y02677*
X0339*
X03396Y0268*
X034Y02684*
X03402Y02689*
Y02695*
X034Y02701*
X03396Y02705*
X0339Y02707*
G37*
G36*
X03253Y02687D02*
X03247D01*
X03242Y02685*
X03238Y02681*
X03235Y02676*
Y0267*
X03238Y02664*
X03242Y0266*
X03247Y02658*
X03253*
X03259Y0266*
X03263Y02664*
X03265Y0267*
Y02676*
X03263Y02681*
X03259Y02685*
X03253Y02687*
G37*
G36*
X04428Y0268D02*
X04423D01*
X04417Y02678*
X04413Y02674*
X04411Y02668*
Y02663*
X04413Y02657*
X04417Y02653*
X04423Y02651*
X04428*
X04434Y02653*
X04438Y02657*
X0444Y02663*
Y02668*
X04438Y02674*
X04434Y02678*
X04428Y0268*
G37*
G36*
X02126Y0268D02*
X0212D01*
X02115Y02678*
X02111Y02674*
X02108Y02668*
Y02662*
X02111Y02657*
X02115Y02653*
X0212Y02651*
X02126*
X02132Y02653*
X02136Y02657*
X02138Y02662*
Y02668*
X02136Y02674*
X02132Y02678*
X02126Y0268*
G37*
G36*
X02385Y02715D02*
X02379D01*
X02374Y02713*
X0237Y02709*
X02367Y02703*
Y02697*
X0237Y02692*
X02368Y02688*
X02368Y02688*
X02363Y02684*
X02361Y02678*
Y02672*
X02363Y02667*
X02368Y02663*
X02373Y0266*
X02375*
X02376Y02656*
X02376Y02656*
X02374Y02651*
Y02645*
X02375Y02643*
X02376Y02639*
X0237Y02637*
X02366Y02633*
X02364Y02628*
Y02622*
X02366Y02616*
X0237Y02612*
X02376Y0261*
X02382*
X02387Y02612*
X02391Y02616*
X02394Y02622*
Y02628*
X02393Y0263*
X02392Y02633*
X02397Y02635*
X02402Y0264*
X02404Y02645*
Y02651*
X02402Y02656*
X02397Y02661*
X02392Y02663*
X0239*
X02388Y02667*
X02388Y02667*
X02391Y02672*
Y02678*
X02389Y02684*
X0239Y02687*
X02391Y02688*
X02395Y02692*
X02397Y02697*
Y02703*
X02395Y02709*
X02391Y02713*
X02385Y02715*
G37*
G36*
X03381Y02667D02*
X03375D01*
X0337Y02664*
X03365Y0266*
X03363Y02655*
Y02649*
X03365Y02643*
X0337Y02639*
X03375Y02637*
X03381*
X03381Y02637*
X03383Y02634*
X0338Y0263*
X03378Y02625*
Y02619*
X0338Y02613*
X03384Y02609*
X0339Y02607*
X03395*
X03401Y02609*
X03405Y02613*
X03407Y02619*
Y02625*
X03405Y0263*
X03401Y02634*
X03395Y02637*
X0339*
X03389Y02637*
X03387Y0264*
X03391Y02643*
X03393Y02649*
Y02655*
X03391Y0266*
X03386Y02664*
X03381Y02667*
G37*
G36*
X0325Y0265D02*
X03244D01*
X03239Y02647*
X03234Y02643*
X03232Y02638*
Y02632*
X03234Y02626*
X03239Y02622*
X03244Y0262*
X03249*
X0325Y02619*
X03253Y02617*
Y02613*
X03255Y02607*
X03259Y02603*
X03265Y02601*
X0327*
X03276Y02603*
X0328Y02607*
X03282Y02613*
Y02619*
X0328Y02624*
X03276Y02628*
X0327Y02631*
X03266*
X03264Y02631*
X03262Y02634*
Y02638*
X0326Y02643*
X03255Y02647*
X0325Y0265*
G37*
G36*
X00577Y02609D02*
X00571D01*
X00566Y02607*
X00562Y02603*
X00559Y02597*
Y02591*
X00562Y02586*
X00566Y02582*
X00571Y0258*
X00577*
X00583Y02582*
X00587Y02586*
X00589Y02591*
Y02597*
X00587Y02603*
X00583Y02607*
X00577Y02609*
G37*
G36*
X00361D02*
X00355D01*
X00349Y02607*
X00345Y02603*
X00343Y02597*
Y02591*
X00345Y02586*
X00349Y02582*
X00355Y0258*
X00361*
X00366Y02582*
X0037Y02586*
X00373Y02591*
Y02597*
X0037Y02603*
X00366Y02607*
X00361Y02609*
G37*
G36*
X01545Y02577D02*
X01539D01*
X01534Y02574*
X01529Y0257*
X01529Y0257*
X01525*
X01525Y0257*
X01521Y02574*
X01515Y02577*
X0151*
X01504Y02574*
X015Y0257*
X015Y0257*
X01496*
X01496Y0257*
X01491Y02574*
X01486Y02577*
X0148*
X01475Y02574*
X0147Y0257*
X01468Y02565*
Y02559*
X0147Y02553*
X01475Y02549*
X01475Y02549*
Y02545*
X01475Y02545*
X0147Y02541*
X01468Y02535*
Y02529*
X0147Y02524*
X01475Y0252*
X01475Y0252*
Y02516*
X01475Y02515*
X0147Y02511*
X01468Y02506*
Y025*
X0147Y02494*
X01475Y0249*
X01475Y0249*
Y02486*
X01475Y02486*
X0147Y02482*
X01468Y02476*
Y0247*
X0147Y02465*
X01475Y02461*
X0148Y02458*
X01486*
X01491Y02461*
X01496Y02465*
X01496Y02465*
X015*
X015Y02465*
X01504Y02461*
X0151Y02458*
X01515*
X01521Y02461*
X01525Y02465*
X01527Y0247*
Y02476*
X01525Y02482*
X01521Y02486*
X01521Y02486*
Y0249*
X01521Y0249*
X01525Y02494*
X01527Y025*
Y02506*
X01525Y02511*
X01521Y02515*
X01521Y02516*
Y0252*
X01521Y0252*
X01525Y02524*
X01527Y02529*
Y02535*
X01525Y02541*
X01521Y02545*
X01521Y02545*
Y02549*
X01521Y02549*
X01525Y02553*
X01525Y02554*
X01529*
X01529Y02553*
X01534Y02549*
X01539Y02547*
X01545*
X0155Y02549*
X01555Y02553*
X01557Y02559*
Y02565*
X01555Y0257*
X0155Y02574*
X01545Y02577*
G37*
G36*
X04543Y02593D02*
X04537D01*
X04532Y02591*
X04528Y02586*
X04525Y02581*
Y02575*
X04528Y0257*
X04532Y02566*
X04537Y02563*
X04543*
X04549Y02566*
X04553Y0257*
X04555Y02575*
Y02581*
X04553Y02586*
X04549Y02591*
X04543Y02593*
G37*
G36*
X02379Y02591D02*
X02373D01*
X02367Y02589*
X02363Y02584*
X02361Y02579*
Y02573*
X02363Y02568*
X02367Y02563*
X02373Y02561*
X02379*
X02384Y02563*
X02388Y02568*
X02391Y02573*
Y02579*
X02388Y02584*
X02384Y02589*
X02379Y02591*
G37*
G36*
X03588Y02577D02*
X03582D01*
X03577Y02575*
X03573Y02571*
X0357Y02565*
Y02559*
X03573Y02554*
X03577Y0255*
X03582Y02547*
X03588*
X03594Y0255*
X03598Y02554*
X036Y02559*
Y02565*
X03598Y02571*
X03594Y02575*
X03588Y02577*
G37*
G36*
X03269Y02572D02*
X03264D01*
X03258Y0257*
X03254Y02565*
X03252Y0256*
Y02554*
X03254Y02549*
X03258Y02544*
X03264Y02542*
X03269*
X03275Y02544*
X03279Y02549*
X03281Y02554*
Y0256*
X03279Y02565*
X03275Y0257*
X03269Y02572*
G37*
G36*
X02015Y02566D02*
X02009D01*
X02004Y02564*
X02Y02559*
X01998Y02554*
Y02548*
X02Y02543*
X02004Y02538*
X02009Y02536*
X02015*
X02021Y02538*
X02025Y02543*
X02027Y02548*
Y02554*
X02025Y02559*
X02021Y02564*
X02015Y02566*
G37*
G36*
X03657Y02551D02*
X03651D01*
X03645Y02549*
X03641Y02545*
X03639Y02539*
Y02534*
X03641Y02528*
X03645Y02524*
X03651Y02522*
X03657*
X03662Y02524*
X03666Y02528*
X03669Y02534*
Y02539*
X03666Y02545*
X03662Y02549*
X03657Y02551*
G37*
G36*
X0044Y02548D02*
X00434D01*
X00429Y02546*
X00425Y02542*
X00422Y02536*
Y0253*
X00425Y02525*
X00429Y02521*
X00434Y02519*
X0044*
X00446Y02521*
X0045Y02525*
X00452Y0253*
Y02536*
X0045Y02542*
X00446Y02546*
X0044Y02548*
G37*
G36*
X03911Y02548D02*
X03905D01*
X039Y02545*
X03896Y02541*
X03893Y02536*
Y0253*
X03896Y02524*
X039Y0252*
X03905Y02518*
X03911*
X03917Y0252*
X03921Y02524*
X03923Y0253*
Y02536*
X03921Y02541*
X03917Y02545*
X03911Y02548*
G37*
G36*
X05573Y0263D02*
X05561D01*
X05549Y02628*
X05538Y02623*
X05529Y02617*
X0552Y02608*
X05514Y02599*
X05509Y02588*
X05507Y02576*
Y02564*
X05509Y02553*
X05514Y02542*
X0552Y02532*
X05529Y02523*
X05538Y02517*
X05549Y02512*
X05561Y0251*
X05573*
X05584Y02512*
X05595Y02517*
X05605Y02523*
X05614Y02532*
X0562Y02542*
X05625Y02553*
X05627Y02564*
Y02576*
X05625Y02588*
X0562Y02599*
X05614Y02608*
X05605Y02617*
X05595Y02623*
X05584Y02628*
X05573Y0263*
G37*
G36*
X03731Y02534D02*
X03726D01*
X0372Y02532*
X03716Y02527*
X03714Y02522*
Y02516*
X03716Y02511*
X0372Y02506*
X03726Y02504*
X03731*
X03737Y02506*
X03741Y02511*
X03743Y02516*
Y02522*
X03741Y02527*
X03737Y02532*
X03731Y02534*
G37*
G36*
X045Y02527D02*
X04494D01*
X04489Y02525*
X04485Y02521*
X04483Y02516*
Y0251*
X04485Y02504*
X04489Y025*
X04494Y02498*
X045*
X04506Y025*
X0451Y02504*
X04512Y0251*
Y02516*
X0451Y02521*
X04506Y02525*
X045Y02527*
G37*
G36*
X01288Y02566D02*
X01279D01*
X0127Y02563*
X01262Y02559*
X01255Y02552*
X01251Y02544*
X01248Y02535*
Y02526*
X01251Y02517*
X01255Y02509*
X01262Y02503*
X0127Y02498*
X01279Y02496*
X01288*
X01297Y02498*
X01305Y02503*
X01311Y02509*
X01316Y02517*
X01318Y02526*
Y02535*
X01316Y02544*
X01311Y02552*
X01305Y02559*
X01297Y02563*
X01288Y02566*
G37*
G36*
X00744Y02509D02*
X00739D01*
X00733Y02507*
X00729Y02503*
X00727Y02497*
Y02491*
X00729Y02486*
X00733Y02482*
X00739Y0248*
X00744*
X0075Y02482*
X00754Y02486*
X00756Y02491*
Y02497*
X00754Y02503*
X0075Y02507*
X00744Y02509*
G37*
G36*
X03929Y02502D02*
X03923D01*
X03917Y02499*
X03913Y02495*
X03911Y0249*
Y02484*
X03913Y02478*
X03917Y02474*
X03923Y02472*
X03929*
X03934Y02474*
X03938Y02478*
X0394Y02484*
Y0249*
X03938Y02495*
X03934Y02499*
X03929Y02502*
G37*
G36*
X02014Y02505D02*
X02008D01*
X02002Y02502*
X01998Y02498*
X01996Y02493*
Y02487*
X01998Y02481*
X02002Y02477*
X01998Y02473*
X01996Y02468*
Y02462*
X01998Y02456*
X02002Y02452*
X02008Y0245*
X02014*
X02019Y02452*
X02023Y02456*
X02026Y02462*
Y02468*
X02023Y02473*
X02019Y02477*
X02023Y02481*
X02026Y02487*
Y02493*
X02023Y02498*
X02019Y02502*
X02014Y02505*
G37*
G36*
X03794Y02471D02*
X03788D01*
X03783Y02469*
X03778Y02465*
X03776Y02459*
Y02453*
X03778Y02448*
X03783Y02444*
X03788Y02441*
X03794*
X03799Y02444*
X03804Y02448*
X03806Y02453*
Y02459*
X03804Y02465*
X03799Y02469*
X03794Y02471*
G37*
G36*
X03455Y02468D02*
X03449D01*
X03444Y02465*
X0344Y02461*
X03437Y02456*
Y0245*
X0344Y02444*
X03444Y0244*
X03449Y02438*
X03455*
X03461Y0244*
X03465Y02444*
X03467Y0245*
Y02456*
X03465Y02461*
X03461Y02465*
X03455Y02468*
G37*
G36*
X03531Y02426D02*
X03525D01*
X0352Y02424*
X03516Y0242*
X03514Y02416*
X0351Y02416*
X03506Y0242*
X035Y02422*
X03494*
X03489Y0242*
X03485Y02416*
X03483Y02411*
Y02405*
X03485Y02399*
X03489Y02395*
X03494Y02393*
X035*
X03506Y02395*
X0351Y02399*
X03511Y02403*
X03516Y02403*
X0352Y02399*
X03525Y02397*
X03531*
X03537Y02399*
X03541Y02403*
X03543Y02408*
Y02414*
X03541Y0242*
X03537Y02424*
X03531Y02426*
G37*
G36*
X03273Y02434D02*
X03267D01*
X03262Y02432*
X03257Y02428*
X03255Y02422*
Y02416*
X03257Y02411*
X03262Y02407*
X03267Y02404*
X03273*
X03278Y02407*
X03283Y02411*
X03285Y02416*
Y02422*
X03283Y02428*
X03278Y02432*
X03273Y02434*
G37*
G36*
X02104Y02418D02*
X02098D01*
X02093Y02415*
X02089Y02411*
X02087Y02406*
Y024*
X02089Y02394*
X02093Y0239*
X02098Y02388*
X02104*
X0211Y0239*
X02114Y02394*
X02116Y024*
Y02406*
X02114Y02411*
X0211Y02415*
X02104Y02418*
G37*
G36*
X03886Y02412D02*
X0388D01*
X03875Y0241*
X03871Y02405*
X03868Y024*
Y02394*
X03871Y02389*
X03875Y02384*
X0388Y02382*
X03886*
X03892Y02384*
X03896Y02389*
X03898Y02394*
Y024*
X03896Y02405*
X03892Y0241*
X03886Y02412*
G37*
G36*
X03633Y02409D02*
X03627D01*
X03622Y02406*
X03618Y02402*
X03615Y02397*
Y02391*
X03618Y02385*
X03622Y02381*
X03627Y02379*
X03633*
X03639Y02381*
X03643Y02385*
X03645Y02391*
Y02397*
X03643Y02402*
X03639Y02406*
X03633Y02409*
G37*
G36*
X04233Y02404D02*
X04227D01*
X04222Y02402*
X04217Y02398*
X04215Y02393*
Y02387*
X04217Y02381*
X04222Y02377*
X04227Y02375*
X04233*
X04238Y02377*
X04243Y02381*
X04245Y02387*
Y02393*
X04243Y02398*
X04238Y02402*
X04233Y02404*
G37*
G36*
X04862Y02395D02*
X04856D01*
X04851Y02393*
X04847Y02389*
X04844Y02383*
Y02377*
X04847Y02372*
X04851Y02368*
X04856Y02365*
X04862*
X04868Y02368*
X04872Y02372*
X04874Y02377*
Y02383*
X04872Y02389*
X04868Y02393*
X04862Y02395*
G37*
G36*
X02378Y02393D02*
X02372D01*
X02367Y02391*
X02363Y02387*
X0236Y02381*
Y02375*
X02363Y0237*
X02367Y02366*
X02372Y02364*
X02378*
X02384Y02366*
X02387Y02369*
X02391Y02369*
X02391Y02368*
X02396Y02364*
X02401Y02362*
X02407*
X02412Y02364*
X02417Y02368*
X02419Y02373*
Y02379*
X02417Y02385*
X02412Y02389*
X02407Y02391*
X02401*
X02396Y02389*
X02392Y02386*
X02388Y02386*
X02388Y02387*
X02384Y02391*
X02378Y02393*
G37*
G36*
X02015Y02407D02*
X02009D01*
X02004Y02404*
X02Y024*
X01998Y02395*
Y02389*
X02Y02383*
X02001Y02382*
X02001Y02377*
X01999Y02375*
X01997Y0237*
Y02364*
X01999Y02358*
X02003Y02354*
X02008Y02352*
X02014*
X0202Y02354*
X02024Y02358*
X02026Y02364*
Y0237*
X02024Y02375*
X02023Y02376*
X02023Y02382*
X02025Y02383*
X02027Y02389*
Y02395*
X02025Y024*
X02021Y02404*
X02015Y02407*
G37*
G36*
X02104Y02369D02*
X02098D01*
X02093Y02366*
X02089Y02362*
X02087Y02357*
Y02351*
X02089Y02345*
X02093Y02341*
X02098Y02339*
X02104*
X0211Y02341*
X02114Y02345*
X02116Y02351*
Y02357*
X02114Y02362*
X0211Y02366*
X02104Y02369*
G37*
G36*
X04389Y0237D02*
X04384D01*
X04378Y02368*
X04374Y02364*
X04372Y02358*
Y02353*
X04374Y02347*
X04378Y02343*
X04384Y02341*
X04389*
X04395Y02343*
X04397Y02345*
X04402Y02345*
X04403Y02342*
X04407Y02338*
X04413Y02336*
X04419*
X04424Y02338*
X04428Y02342*
X04431Y02348*
Y02354*
X04428Y02359*
X04424Y02363*
X04419Y02366*
X04413*
X04407Y02363*
X04405Y02361*
X044Y02361*
X04399Y02364*
X04395Y02368*
X04389Y0237*
G37*
G36*
X04862Y02355D02*
X04856D01*
X04851Y02353*
X04846Y02349*
X04844Y02343*
Y02337*
X04846Y02332*
X04851Y02328*
X04856Y02325*
X04862*
X04867Y02328*
X04872Y02332*
X04874Y02337*
Y02343*
X04872Y02349*
X04867Y02353*
X04862Y02355*
G37*
G36*
X03439Y02355D02*
X03433D01*
X03427Y02352*
X03423Y02348*
X03421Y02343*
Y02337*
X03423Y02331*
X03427Y02327*
X03433Y02325*
X03439*
X03444Y02327*
X03448Y02331*
X0345Y02337*
Y02343*
X03448Y02348*
X03444Y02352*
X03439Y02355*
G37*
G36*
X02383Y02352D02*
X02377D01*
X02372Y0235*
X02368Y02346*
X02365Y0234*
Y02334*
X02368Y02329*
X02372Y02325*
X02377Y02322*
X02383*
X02389Y02325*
X02393Y02329*
X02395Y02334*
Y0234*
X02393Y02346*
X02389Y0235*
X02383Y02352*
G37*
G36*
X04122Y02342D02*
X04116D01*
X0411Y02339*
X04106Y02335*
X04104Y0233*
Y02324*
X04106Y02318*
X0411Y02314*
X04116Y02312*
X04122*
X04127Y02314*
X04131Y02318*
X04133Y02324*
Y0233*
X04131Y02335*
X04127Y02339*
X04122Y02342*
G37*
G36*
X02269Y02336D02*
X02263D01*
X02258Y02333*
X02253Y02329*
X02251Y02324*
Y02318*
X02253Y02312*
X02258Y02308*
X02263Y02306*
X02269*
X02274Y02308*
X02279Y02312*
X02281Y02318*
Y02324*
X02279Y02329*
X02274Y02333*
X02269Y02336*
G37*
G36*
X03394Y02335D02*
X03388D01*
X03383Y02333*
X03378Y02328*
X03376Y02323*
Y02317*
X03378Y02312*
X03383Y02307*
X03388Y02305*
X03394*
X03399Y02307*
X03404Y02312*
X03406Y02317*
Y02323*
X03404Y02328*
X03399Y02333*
X03394Y02335*
G37*
G36*
X03676Y02309D02*
X0367D01*
X03665Y02307*
X03661Y02304*
X0366Y02303*
X03656Y02303*
X03654Y02306*
X03649Y02308*
X03643*
X03637Y02306*
X03633Y02301*
X03633Y02301*
X03629Y02305*
X03624Y02307*
X03618*
X03612Y02305*
X03608Y02301*
X03606Y02295*
Y02294*
X03602Y02293*
X03602Y02294*
X03597Y02298*
X03592Y02301*
X03586*
X03581Y02298*
X03576Y02294*
X03574Y02289*
Y02283*
X03576Y02277*
X03581Y02273*
X03586Y02271*
X03592*
X03597Y02273*
X03602Y02277*
X03604Y02283*
Y02284*
X03608Y02285*
X03608Y02284*
X03612Y0228*
X03618Y02277*
X03624*
X03629Y0228*
X03633Y02284*
X03634Y02284*
X03637Y0228*
X03643Y02278*
X03649*
X03654Y0228*
X03658Y02284*
X03659Y02285*
X03663Y02284*
X03665Y02282*
X0367Y0228*
X03676*
X03679Y02281*
X03682Y02278*
X03681Y02277*
Y02271*
X03684Y02266*
X03688Y02261*
X03693Y02259*
X03699*
X03705Y02261*
X03709Y02266*
X03711Y02271*
Y02277*
X03709Y02282*
X03705Y02287*
X03699Y02289*
X03693*
X03691Y02288*
X03688Y02291*
X03688Y02292*
Y02297*
X03686Y02303*
X03682Y02307*
X03676Y02309*
G37*
G36*
X0354Y02327D02*
X03534D01*
X03528Y02325*
X03524Y02321*
X03522Y02316*
Y0231*
X03524Y02304*
X03528Y023*
X03534Y02298*
X0354*
X03545Y023*
X03549Y02304*
X03552Y0231*
Y02316*
X03549Y02321*
X03545Y02325*
X0354Y02327*
G37*
G36*
X0348Y02326D02*
X03474D01*
X03469Y02323*
X03464Y02319*
X03462Y02314*
Y02308*
X03464Y02302*
X03469Y02298*
X03474Y02296*
X0348*
X03485Y02298*
X0349Y02302*
X03492Y02308*
Y02314*
X0349Y02319*
X03485Y02323*
X0348Y02326*
G37*
G36*
X00737Y02308D02*
X00731D01*
X00725Y02306*
X00721Y02302*
X00719Y02297*
Y02291*
X00721Y02285*
X00725Y02281*
X00731Y02279*
X00737*
X00742Y02281*
X00746Y02285*
X00748Y02291*
Y02297*
X00746Y02302*
X00742Y02306*
X00737Y02308*
G37*
G36*
X02013Y02307D02*
X02007D01*
X02001Y02305*
X01997Y02301*
X01995Y02295*
Y02289*
X01997Y02284*
X02001Y0228*
X01997Y02276*
X01995Y0227*
Y02264*
X01997Y02259*
X02001Y02255*
X02007Y02253*
X02013*
X02018Y02255*
X02022Y02259*
X02024Y02264*
Y0227*
X02022Y02276*
X02018Y0228*
X02022Y02284*
X02024Y02289*
Y02295*
X02022Y02301*
X02018Y02305*
X02013Y02307*
G37*
G36*
X03271Y02277D02*
X03265D01*
X03259Y02274*
X03255Y0227*
X03253Y02265*
Y02259*
X03255Y02253*
X03259Y02249*
X03265Y02247*
X03271*
X03276Y02249*
X0328Y02253*
X03283Y02259*
Y02265*
X0328Y0227*
X03276Y02274*
X03271Y02277*
G37*
G36*
X02645Y02224D02*
X02639D01*
X02634Y02222*
X02629Y02218*
X02629Y02216*
X02625Y02214*
X0262Y02216*
X02614*
X02608Y02214*
X02604Y02209*
X02602Y02204*
Y02198*
X02604Y02193*
X02608Y02188*
X02614Y02186*
X0262*
X02625Y02188*
X02629Y02193*
X0263Y02195*
X02634Y02197*
X02639Y02195*
X02645*
X0265Y02197*
X02655Y02201*
X02657Y02206*
Y02212*
X02655Y02218*
X0265Y02222*
X02645Y02224*
G37*
G36*
X03095Y02217D02*
X03089D01*
X03083Y02215*
X0308Y02212*
X03078Y02215*
X03072Y02217*
X03066*
X03061Y02215*
X03057Y0221*
X03054Y02205*
Y02199*
X03057Y02194*
X03061Y02189*
X03066Y02187*
X03072*
X03078Y02189*
X0308Y02192*
X03083Y02189*
X03089Y02187*
X03095*
X031Y02189*
X03104Y02194*
X03107Y02199*
Y02205*
X03104Y0221*
X031Y02215*
X03095Y02217*
G37*
G36*
X03013Y02217D02*
X03007D01*
X03002Y02215*
X02998Y02211*
X02997Y02211*
X02993Y02211*
X0299Y02214*
X02985Y02216*
X02979*
X02974Y02214*
X02969Y0221*
X02967Y02204*
Y02199*
X02969Y02193*
X02974Y02189*
X02979Y02187*
X02985*
X0299Y02189*
X02994Y02192*
X02995Y02193*
X02999Y02193*
X03002Y0219*
X03007Y02188*
X03013*
X03019Y0219*
X03023Y02194*
X03025Y02199*
Y02205*
X03023Y02211*
X03019Y02215*
X03013Y02217*
G37*
G36*
X02724Y02216D02*
X02718D01*
X02713Y02214*
X02708Y0221*
X02708Y0221*
X02704Y02209*
X02701Y02212*
X02696Y02214*
X0269*
X02684Y02212*
X0268Y02208*
X02678Y02202*
Y02196*
X0268Y02191*
X02684Y02187*
X0269Y02184*
X02696*
X02701Y02187*
X02705Y02191*
X02705Y02191*
X0271Y02191*
X02713Y02189*
X02718Y02187*
X02724*
X02729Y02189*
X02734Y02193*
X02736Y02199*
Y02204*
X02734Y0221*
X02729Y02214*
X02724Y02216*
G37*
G36*
X04498Y02222D02*
X04492D01*
X04487Y0222*
X04483Y02215*
X04481Y0221*
Y02204*
X04483Y02199*
X04487Y02194*
X04492Y02192*
X04498*
X04504Y02194*
X04508Y02199*
X0451Y02204*
Y0221*
X04508Y02215*
X04504Y0222*
X04498Y02222*
G37*
G36*
X03779Y02211D02*
X03773D01*
X03767Y02209*
X03763Y02204*
X03761Y02199*
Y02194*
X03761Y02193*
X03758Y0219*
X03754*
X03751Y02193*
Y02196*
X03748Y02202*
X03744Y02206*
X03739Y02208*
X03733*
X03727Y02206*
X03723Y02202*
X03721Y02196*
Y0219*
X03721Y0219*
X03719Y02186*
X03716*
X0371Y02183*
X03706Y02179*
X03704Y02174*
Y02168*
X03706Y02162*
X0371Y02158*
X03716Y02156*
X03722*
X03727Y02158*
X03731Y02162*
X03734Y02168*
Y02174*
X03733Y02174*
X03736Y02177*
X03739Y02178*
X03742Y02175*
Y02173*
X03744Y02167*
X03749Y02163*
X03754Y02161*
X0376*
X03765Y02163*
X0377Y02167*
X03772Y02173*
Y02178*
X03772Y02179*
X03775Y02181*
X03779*
X0378Y0218*
Y02177*
X03782Y02172*
X03786Y02168*
X03792Y02165*
X03798*
X03803Y02168*
X03807Y02172*
X03809Y02175*
X03813Y02178*
X03813Y02178*
X03819*
X03825Y0218*
X03829Y02184*
X03831Y0219*
Y02196*
X03829Y02201*
X03825Y02205*
X03819Y02207*
X03813*
X03808Y02205*
X03804Y02201*
X03802Y02196*
X038Y02194*
X03798Y02195*
X03792*
X03791Y02196*
Y02199*
X03788Y02204*
X03784Y02209*
X03779Y02211*
G37*
G36*
X03394Y0222D02*
X03389D01*
X03383Y02217*
X03379Y02213*
X03377Y02208*
Y02202*
X03379Y02196*
X03383Y02192*
X03389Y0219*
X03394*
X034Y02192*
X03404Y02196*
X03406Y02202*
Y02208*
X03404Y02213*
X034Y02217*
X03394Y0222*
G37*
G36*
X03131Y02218D02*
X03125D01*
X0312Y02216*
X03116Y02212*
X03113Y02206*
Y022*
X03116Y02195*
X0312Y02191*
X03125Y02189*
X03131*
X03137Y02191*
X03141Y02195*
X03143Y022*
Y02206*
X03141Y02212*
X03137Y02216*
X03131Y02218*
G37*
G36*
X0333Y02218D02*
X03324D01*
X03319Y02216*
X03315Y02211*
X03312Y02206*
Y022*
X03315Y02195*
X03319Y02191*
X03324Y02188*
X0333*
X03336Y02191*
X0334Y02195*
X03342Y022*
Y02206*
X0334Y02211*
X03336Y02216*
X0333Y02218*
G37*
G36*
X03166Y02225D02*
X0316D01*
X03154Y02223*
X0315Y02218*
X03148Y02213*
Y02207*
X0315Y02202*
X03154Y02197*
X0316Y02195*
X03166*
X03171Y02197*
X03174Y02197*
X03175Y02195*
X03179Y02191*
X03184Y02188*
X0319*
X03196Y02191*
X032Y02195*
X03202Y022*
Y02206*
X032Y02211*
X03196Y02216*
X0319Y02218*
X03184*
X03179Y02216*
X03176Y02216*
X03175Y02218*
X03171Y02223*
X03166Y02225*
G37*
G36*
X02856Y02218D02*
X0285D01*
X02844Y02216*
X0284Y02211*
X02838Y02206*
Y022*
X0284Y02195*
X02844Y02191*
X0285Y02188*
X02856*
X02861Y02191*
X02865Y02195*
X02868Y022*
Y02206*
X02865Y02211*
X02861Y02216*
X02856Y02218*
G37*
G36*
X02934Y02217D02*
X02928D01*
X02923Y02215*
X02919Y02211*
X02917Y02205*
Y02199*
X02919Y02194*
X02923Y0219*
X02928Y02187*
X02934*
X0294Y0219*
X02944Y02194*
X02946Y02199*
Y02205*
X02944Y02211*
X0294Y02215*
X02934Y02217*
G37*
G36*
X0256Y02237D02*
X02554D01*
X02549Y02235*
X02544Y02231*
X02542Y02225*
Y02219*
X02544Y02214*
X02549Y0221*
X02554Y02207*
X02559*
X02561Y02206*
X02562Y02204*
X02562Y02202*
Y02196*
X02564Y02191*
X02568Y02187*
X02574Y02184*
X02579*
X02585Y02187*
X02589Y02191*
X02591Y02196*
Y02202*
X02589Y02208*
X02585Y02212*
X02579Y02214*
X02574*
X02572Y02216*
X02571Y02217*
X02572Y02219*
Y02225*
X0257Y02231*
X02565Y02235*
X0256Y02237*
G37*
G36*
X04178Y02193D02*
X04172D01*
X04167Y02191*
X04162Y02187*
X0416Y02181*
Y02176*
X04162Y0217*
X04167Y02166*
X04172Y02164*
X04178*
X04183Y02166*
X04188Y0217*
X0419Y02176*
Y02181*
X04188Y02187*
X04183Y02191*
X04178Y02193*
G37*
G36*
X0328Y02187D02*
X03274D01*
X03269Y02185*
X03265Y02181*
X03262Y02175*
Y02169*
X03265Y02164*
X03269Y0216*
X03274Y02157*
X0328*
X03286Y0216*
X0329Y02164*
X03292Y02169*
Y02175*
X0329Y02181*
X03286Y02185*
X0328Y02187*
G37*
G36*
X02016Y0221D02*
X0201D01*
X02004Y02207*
X02Y02203*
X01998Y02198*
Y02192*
X02Y02186*
X02004Y02182*
X02Y02178*
X01998Y02173*
Y02167*
X02Y02161*
X02004Y02157*
X0201Y02155*
X02016*
X02021Y02157*
X02025Y02161*
X02028Y02167*
Y02173*
X02025Y02178*
X02021Y02182*
X02025Y02186*
X02028Y02192*
Y02198*
X02025Y02203*
X02021Y02207*
X02016Y0221*
G37*
G36*
X04052Y02175D02*
X04046D01*
X0404Y02172*
X04036Y02168*
X04034Y02163*
Y02157*
X04036Y02151*
X0404Y02147*
X04046Y02145*
X04052*
X04057Y02147*
X04061Y02151*
X04063Y02157*
Y02163*
X04061Y02168*
X04057Y02172*
X04052Y02175*
G37*
G36*
X04538Y02149D02*
X04532D01*
X04527Y02147*
X04523Y02142*
X0452Y02137*
Y02131*
X04523Y02126*
X04527Y02121*
X04532Y02119*
X04538*
X04544Y02121*
X04548Y02126*
X0455Y02131*
Y02137*
X04548Y02142*
X04544Y02147*
X04538Y02149*
G37*
G36*
X04067Y02141D02*
X04061D01*
X04056Y02139*
X04052Y02135*
X04049Y02129*
Y02123*
X04052Y02118*
X04056Y02114*
X04061Y02111*
X04067*
X04073Y02114*
X04077Y02118*
X04079Y02123*
Y02129*
X04077Y02135*
X04073Y02139*
X04067Y02141*
G37*
G36*
X02485Y02109D02*
X02479D01*
X02474Y02106*
X02469Y02102*
X02467Y02097*
Y02091*
X02469Y02085*
X02474Y02081*
X02479Y02079*
X02485*
X0249Y02081*
X02495Y02085*
X02497Y02091*
Y02097*
X02495Y02102*
X0249Y02106*
X02485Y02109*
G37*
G36*
X02778Y02085D02*
X02772D01*
X02766Y02083*
X02762Y02079*
X0276Y02074*
Y02068*
X02762Y02062*
X02766Y02058*
X02772Y02056*
X02778*
X02783Y02058*
X02787Y02062*
X0279Y02068*
Y02074*
X02787Y02079*
X02783Y02083*
X02778Y02085*
G37*
G36*
X03166Y02081D02*
X03161D01*
X03155Y02079*
X03151Y02075*
X03149Y02069*
Y02063*
X03151Y02058*
X03155Y02054*
X03161Y02052*
X03166*
X03172Y02054*
X03176Y02058*
X03178Y02063*
Y02069*
X03176Y02075*
X03172Y02079*
X03166Y02081*
G37*
G36*
X04529Y02077D02*
X04523D01*
X04518Y02075*
X04514Y02071*
X04512Y02065*
Y02059*
X04514Y02054*
X04518Y0205*
X04523Y02047*
X04529*
X04535Y0205*
X04539Y02054*
X04541Y02059*
Y02065*
X04539Y02071*
X04535Y02075*
X04529Y02077*
G37*
G36*
X05573Y0213D02*
X05561D01*
X05549Y02128*
X05538Y02123*
X05529Y02117*
X0552Y02108*
X05514Y02099*
X05509Y02088*
X05507Y02076*
Y02064*
X05509Y02053*
X05514Y02042*
X0552Y02032*
X05529Y02023*
X05538Y02017*
X05549Y02012*
X05561Y0201*
X05573*
X05584Y02012*
X05595Y02017*
X05605Y02023*
X05614Y02032*
X0562Y02042*
X05625Y02053*
X05627Y02064*
Y02076*
X05625Y02088*
X0562Y02099*
X05614Y02108*
X05605Y02117*
X05595Y02123*
X05584Y02128*
X05573Y0213*
G37*
G36*
X00696Y0201D02*
X0069D01*
X00685Y02008*
X00683Y02006*
X0068Y02004*
X00677Y02006*
X00675Y02008*
X0067Y0201*
X00664*
X00659Y02008*
X00654Y02003*
X00652Y01998*
Y01992*
X00654Y01987*
X00659Y01982*
X00664Y0198*
X0067*
X00675Y01982*
X00677Y01984*
X0068Y01986*
X00683Y01984*
X00685Y01982*
X0069Y0198*
X00696*
X00701Y01982*
X00706Y01987*
X00708Y01992*
Y01998*
X00706Y02003*
X00701Y02008*
X00696Y0201*
G37*
G36*
X03143Y0201D02*
X03137D01*
X03132Y02007*
X03127Y02003*
X03125Y01998*
Y01992*
X03127Y01986*
X03132Y01982*
X03137Y0198*
X03143*
X03148Y01982*
X03152Y01986*
X03155Y01992*
Y01998*
X03152Y02003*
X03148Y02007*
X03143Y0201*
G37*
G36*
X03217Y02008D02*
X03211D01*
X03205Y02006*
X03201Y02001*
X03199Y01996*
Y0199*
X03201Y01985*
X03205Y0198*
X03211Y01978*
X03217*
X03222Y0198*
X03226Y01985*
X03229Y0199*
Y01996*
X03226Y02001*
X03222Y02006*
X03217Y02008*
G37*
G36*
X00157Y02142D02*
X00141D01*
X00125Y02139*
X00109Y02133*
X00096Y02123*
X00084Y02112*
X00075Y02098*
X00068Y02083*
X00065Y02067*
Y0205*
X00068Y02034*
X00075Y02019*
X00084Y02005*
X00096Y01993*
X00109Y01984*
X00125Y01978*
X00141Y01975*
X00157*
X00173Y01978*
X00189Y01984*
X00202Y01993*
X00214Y02005*
X00223Y02019*
X00229Y02034*
X00233Y0205*
Y02067*
X00229Y02083*
X00223Y02098*
X00214Y02112*
X00202Y02123*
X00189Y02133*
X00173Y02139*
X00157Y02142*
G37*
G36*
X02107Y02012D02*
X02101D01*
X02096Y0201*
X02091Y02006*
X02089Y02001*
Y01995*
X02091Y01989*
X02096Y01985*
X02101Y01983*
X02107*
Y01977*
X02109Y01971*
X02113Y01967*
X02119Y01965*
X02125*
X0213Y01967*
X02134Y01971*
X02137Y01977*
Y01983*
X02134Y01988*
X0213Y01992*
X02125Y01995*
X02119*
Y02001*
X02117Y02006*
X02112Y0201*
X02107Y02012*
G37*
G36*
X03069Y01992D02*
X03063D01*
X03058Y01989*
X03054Y01985*
X03051Y0198*
Y01974*
X03054Y01968*
X03058Y01964*
X03063Y01962*
X03069*
X03075Y01964*
X03079Y01968*
X03081Y01974*
Y0198*
X03079Y01985*
X03075Y01989*
X03069Y01992*
G37*
G36*
X02514Y01991D02*
X02508D01*
X02503Y01989*
X02499Y01985*
X02496Y01979*
Y01973*
X02499Y01968*
X02503Y01964*
X02508Y01962*
X02514*
X0252Y01964*
X02524Y01968*
X02526Y01973*
Y01979*
X02524Y01985*
X0252Y01989*
X02514Y01991*
G37*
G36*
X03024Y02003D02*
X03018D01*
X03013Y02*
X03008Y01996*
X03006Y01991*
Y01985*
X03008Y01979*
X03011Y01977*
X03012Y01975*
X03011Y01972*
X03009Y0197*
X03007Y01964*
Y01958*
X03009Y01953*
X03013Y01949*
X03019Y01947*
X03025*
X0303Y01949*
X03034Y01953*
X03037Y01958*
Y01964*
X03034Y0197*
X03032Y01972*
X0303Y01974*
X03032Y01978*
X03034Y01979*
X03036Y01985*
Y01991*
X03034Y01996*
X03029Y02*
X03024Y02003*
G37*
G36*
X03532Y01959D02*
X03526D01*
X0352Y01957*
X03516Y01953*
X03514Y01948*
Y01942*
X03516Y01936*
X0352Y01932*
X03526Y0193*
X03532*
X03537Y01932*
X03541Y01936*
X03544Y01942*
Y01948*
X03541Y01953*
X03537Y01957*
X03532Y01959*
G37*
G36*
X02583Y01944D02*
X02577D01*
X02572Y01942*
X02567Y01938*
X02565Y01932*
Y01926*
X02567Y01921*
X02572Y01917*
X02577Y01914*
X02583*
X02588Y01917*
X02593Y01921*
X02595Y01926*
Y01932*
X02593Y01938*
X02588Y01942*
X02583Y01944*
G37*
G36*
X03064Y01936D02*
X03059D01*
X03053Y01934*
X03049Y0193*
X03047Y01925*
Y01919*
X03049Y01913*
X03053Y01909*
X03059Y01907*
X03064*
X0307Y01909*
X03074Y01913*
X03076Y01919*
Y01925*
X03074Y0193*
X0307Y01934*
X03064Y01936*
G37*
G36*
X02758Y01933D02*
X02752D01*
X02746Y01931*
X02742Y01927*
X0274Y01921*
Y01915*
X02742Y0191*
X02746Y01906*
X02752Y01903*
X02758*
X02763Y01906*
X02767Y0191*
X02769Y01915*
Y01921*
X02767Y01927*
X02763Y01931*
X02758Y01933*
G37*
G36*
X02402Y01909D02*
X02397D01*
X02391Y01907*
X02387Y01902*
X02383Y01907*
X02377Y01909*
X02372*
X02366Y01907*
X02362Y01902*
X0236Y01897*
Y01891*
X02362Y01886*
X02366Y01881*
X02372Y01879*
X02377*
X02383Y01881*
X02387Y01885*
X02391Y01881*
X02397Y01879*
X02402*
X02408Y01881*
X02412Y01886*
X02414Y01891*
Y01897*
X02412Y01902*
X02408Y01907*
X02402Y01909*
G37*
G36*
X02503Y01908D02*
X02497D01*
X02491Y01905*
X02489Y01903*
X02487Y01901*
X02483Y01903*
X02482Y01904*
X02477Y01906*
X02471*
X02465Y01904*
X02461Y019*
X02459Y01895*
Y01889*
X02461Y01883*
X02465Y01879*
X02471Y01877*
X02477*
X02482Y01879*
X02485Y01881*
X02486Y01883*
X0249Y01881*
X02491Y0188*
X02497Y01878*
X02503*
X02508Y0188*
X02512Y01884*
X02514Y0189*
Y01896*
X02512Y01901*
X02508Y01905*
X02503Y01908*
G37*
G36*
X02632Y01925D02*
X02626D01*
X02621Y01922*
X02617Y01918*
X02614Y01913*
Y01907*
X02617Y01901*
X02621Y01897*
X02626Y01895*
X02632*
X02638Y01897*
X02642Y01901*
X02644Y01907*
Y01913*
X02642Y01918*
X02638Y01922*
X02632Y01925*
G37*
G36*
X01346Y01883D02*
X0134D01*
X01334Y01881*
X0133Y01877*
X01328Y01872*
Y01866*
X0133Y0186*
X01334Y01856*
X0134Y01854*
X01346*
X01351Y01856*
X01355Y0186*
X01358Y01866*
Y01872*
X01355Y01877*
X01351Y01881*
X01346Y01883*
G37*
G36*
X01296D02*
X0129D01*
X01284Y01881*
X0128Y01877*
X01278Y01872*
Y01866*
X0128Y0186*
X01284Y01856*
X0129Y01854*
X01296*
X01301Y01856*
X01305Y0186*
X01308Y01866*
Y01872*
X01305Y01877*
X01301Y01881*
X01296Y01883*
G37*
G36*
X01484Y01856D02*
X01478D01*
X01472Y01854*
X01468Y01849*
X01464Y01854*
X01459Y01856*
X01453*
X01447Y01854*
X01443Y01849*
X01441Y01844*
Y01838*
X01443Y01833*
X01447Y01828*
X01453Y01826*
X01459*
X01464Y01828*
X01468Y01833*
X01472Y01828*
X01478Y01826*
X01484*
X01489Y01828*
X01493Y01833*
X01496Y01838*
Y01844*
X01493Y01849*
X01489Y01854*
X01484Y01856*
G37*
G36*
X02718Y01843D02*
X02712D01*
X02706Y0184*
X02702Y01836*
X02699Y01838*
X02698Y0184*
X02692Y01842*
X02686*
X02681Y0184*
X02677Y01835*
X02674Y0183*
Y01824*
X02677Y01819*
X02681Y01814*
X02686Y01812*
X02692*
X02698Y01814*
X02702Y01819*
X02705Y01817*
X02706Y01815*
X02712Y01813*
X02718*
X02723Y01815*
X02727Y0182*
X0273Y01825*
Y01831*
X02727Y01836*
X02723Y0184*
X02718Y01843*
G37*
G36*
X02619Y01842D02*
X02613D01*
X02608Y0184*
X02604Y01836*
X02604Y01836*
X026Y0184*
X02594Y01842*
X02588*
X02583Y0184*
X02579Y01836*
X02577Y0183*
Y01824*
X02579Y01819*
X02583Y01815*
X02588Y01812*
X02594*
X026Y01815*
X02604Y01819*
X02604Y01819*
X02608Y01815*
X02613Y01812*
X02619*
X02625Y01815*
X02629Y01819*
X02631Y01824*
Y0183*
X02629Y01836*
X02625Y0184*
X02619Y01842*
G37*
G36*
X01396Y01861D02*
X0139D01*
X01385Y01858*
X0138Y01854*
X01378Y01849*
Y01843*
X0138Y01837*
X01385Y01833*
X0139Y01831*
X01396*
X01401Y01833*
X01406Y01837*
X01408Y01843*
Y01849*
X01406Y01854*
X01401Y01858*
X01396Y01861*
G37*
G36*
X00558Y0186D02*
X00552D01*
X00547Y01858*
X00543Y01853*
X0054Y01848*
Y01842*
X00543Y01837*
X00547Y01832*
X00552Y0183*
X00558*
X00563Y01832*
X00568Y01837*
X0057Y01842*
Y01848*
X00568Y01853*
X00563Y01858*
X00558Y0186*
G37*
G36*
X00509Y01857D02*
X00503D01*
X00497Y01855*
X00493Y01851*
X00491Y01845*
Y0184*
X00493Y01834*
X00497Y0183*
X00503Y01828*
X00509*
X00514Y0183*
X00518Y01834*
X00521Y0184*
Y01845*
X00518Y01851*
X00514Y01855*
X00509Y01857*
G37*
G36*
X02778Y01855D02*
X02772D01*
X02767Y01853*
X02762Y01849*
X0276Y01843*
Y01837*
X02762Y01832*
X02767Y01828*
X02772Y01826*
X02778*
X02783Y01828*
X02788Y01832*
X0279Y01837*
Y01843*
X02788Y01849*
X02783Y01853*
X02778Y01855*
G37*
G36*
X03793Y01847D02*
X03787D01*
X03781Y01845*
X03777Y0184*
X03775Y01835*
Y01829*
X03777Y01824*
X03781Y01819*
X03787Y01817*
X03793*
X03798Y01819*
X03802Y01824*
X03805Y01829*
Y01835*
X03802Y0184*
X03798Y01845*
X03793Y01847*
G37*
G36*
X00606Y0184D02*
X006D01*
X00594Y01838*
X0059Y01834*
X00588Y01828*
Y01822*
X0059Y01817*
X00594Y01813*
X006Y0181*
X00606*
X00611Y01813*
X00615Y01817*
X00618Y01822*
Y01828*
X00615Y01834*
X00611Y01838*
X00606Y0184*
G37*
G36*
X03754Y01814D02*
X03748D01*
X03743Y01812*
X03739Y01808*
X03736Y01802*
Y01797*
X03739Y01791*
X03743Y01787*
X03748Y01785*
X03754*
X0376Y01787*
X03764Y01791*
X03766Y01797*
Y01802*
X03764Y01808*
X0376Y01812*
X03754Y01814*
G37*
G36*
X03213Y01673D02*
X03207D01*
X03202Y01671*
X03197Y01666*
X03195Y01661*
Y01655*
X03197Y0165*
X03202Y01645*
X03207Y01643*
X03213*
X03218Y01645*
X03223Y0165*
X03225Y01655*
Y01661*
X03223Y01666*
X03218Y01671*
X03213Y01673*
G37*
G36*
X02204Y01656D02*
X02198D01*
X02193Y01654*
X02189Y0165*
X02187Y01644*
Y01638*
X02189Y01633*
X02193Y01629*
X02198Y01627*
X02204*
X0221Y01629*
X02214Y01633*
X02216Y01638*
Y01644*
X02214Y0165*
X0221Y01654*
X02204Y01656*
G37*
G36*
X05299Y01617D02*
X05293D01*
X05288Y01614*
X05283Y0161*
X05281Y01605*
Y01599*
X05283Y01593*
X05288Y01589*
X05293Y01587*
X05299*
X05304Y01589*
X05309Y01593*
X05311Y01599*
Y01605*
X05309Y0161*
X05304Y01614*
X05299Y01617*
G37*
G36*
X04885Y01538D02*
X04879D01*
X04874Y01536*
X0487Y01532*
X04867Y01527*
Y01521*
X0487Y01515*
X04874Y01511*
X04879Y01509*
X04885*
X04891Y01511*
X04895Y01515*
X04897Y01521*
Y01527*
X04895Y01532*
X04891Y01536*
X04885Y01538*
G37*
G36*
X04997Y01535D02*
X04991D01*
X04986Y01533*
X04981Y01529*
X04979Y01523*
Y01518*
X04981Y01512*
X04986Y01508*
X04991Y01506*
X04997*
X05002Y01508*
X05007Y01512*
X05009Y01518*
Y01523*
X05007Y01529*
X05002Y01533*
X04997Y01535*
G37*
G36*
X04823Y01526D02*
X04817D01*
X04812Y01524*
X04808Y0152*
X04805Y01514*
Y01508*
X04808Y01503*
X04812Y01499*
X04817Y01496*
X04823*
X04829Y01499*
X04833Y01503*
X04835Y01508*
Y01514*
X04833Y0152*
X04829Y01524*
X04823Y01526*
G37*
G36*
X04869Y01505D02*
X04863D01*
X04858Y01503*
X04854Y01499*
X04851Y01493*
Y01487*
X04854Y01482*
X04858Y01478*
X04863Y01475*
X04869*
X04875Y01478*
X04879Y01482*
X04881Y01487*
Y01493*
X04879Y01499*
X04875Y01503*
X04869Y01505*
G37*
G36*
X05264Y01489D02*
X05258D01*
X05252Y01487*
X05248Y01482*
X05246Y01477*
Y01471*
X05248Y01466*
X05252Y01461*
X05258Y01459*
X05264*
X05269Y01461*
X05273Y01466*
X05276Y01471*
Y01477*
X05273Y01482*
X05269Y01487*
X05264Y01489*
G37*
G36*
X05184Y01489D02*
X05178D01*
X05173Y01486*
X05169Y01482*
X05167Y01477*
Y01471*
X05169Y01465*
X05173Y01461*
X05178Y01459*
X05184*
X0519Y01461*
X05194Y01465*
X05196Y01471*
Y01477*
X05194Y01482*
X0519Y01486*
X05184Y01489*
G37*
G36*
X02155Y01478D02*
X02149D01*
X02143Y01476*
X02139Y01472*
X02137Y01466*
Y0146*
X02139Y01455*
X02143Y01451*
X02146Y01449*
Y01445*
X02145Y01445*
X02141Y01441*
X02139Y01435*
Y01429*
X02141Y01424*
X02145Y0142*
X02151Y01417*
X02157*
X02162Y0142*
X02166Y01424*
X02169Y01429*
Y01435*
X02166Y01441*
X02162Y01445*
X02159Y01446*
Y0145*
X0216Y01451*
X02164Y01455*
X02167Y0146*
Y01466*
X02164Y01472*
X0216Y01476*
X02155Y01478*
G37*
G36*
X02342Y01428D02*
X02336D01*
X02331Y01426*
X02327Y01422*
X02324Y01416*
Y0141*
X02327Y01405*
X02331Y01401*
X02336Y01398*
X02342*
X02348Y01401*
X02352Y01405*
X02354Y0141*
Y01416*
X02352Y01422*
X02348Y01426*
X02342Y01428*
G37*
G36*
X05184Y01405D02*
X05178D01*
X05173Y01403*
X05169Y01399*
X05167Y01393*
Y01387*
X05169Y01382*
X05173Y01378*
X05178Y01375*
X05184*
X0519Y01378*
X05194Y01382*
X05196Y01387*
Y01393*
X05194Y01399*
X0519Y01403*
X05184Y01405*
G37*
G36*
X05389Y01398D02*
X05383D01*
X05378Y01396*
X05374Y01392*
X05371Y01386*
Y0138*
X05374Y01375*
X05378Y01371*
X05383Y01368*
X05389*
X05395Y01371*
X05399Y01375*
X05401Y0138*
Y01386*
X05399Y01392*
X05395Y01396*
X05389Y01398*
G37*
G36*
X04931Y01362D02*
X04925D01*
X04919Y0136*
X04915Y01356*
X04913Y01351*
Y01345*
X04915Y01339*
X04919Y01335*
X04925Y01333*
X04931*
X04936Y01335*
X0494Y01339*
X04943Y01345*
Y01351*
X0494Y01356*
X04936Y0136*
X04931Y01362*
G37*
G36*
X0405Y01265D02*
X04044D01*
X04038Y01263*
X04034Y01259*
X04032Y01253*
Y01248*
X04034Y01242*
X04038Y01238*
X04044Y01236*
X0405*
X04055Y01238*
X04059Y01242*
X04061Y01248*
Y01253*
X04059Y01259*
X04055Y01263*
X0405Y01265*
G37*
G36*
X03467Y01228D02*
X03461D01*
X03456Y01226*
X03451Y01222*
X03449Y01216*
Y0121*
X03451Y01205*
X03456Y01201*
X03461Y01198*
X03467*
X03472Y01201*
X03477Y01205*
X03479Y0121*
Y01216*
X03477Y01222*
X03472Y01226*
X03467Y01228*
G37*
G36*
X03416Y01226D02*
X0341D01*
X03405Y01224*
X034Y0122*
X03398Y01215*
Y01209*
X034Y01203*
X03405Y01199*
X0341Y01197*
X03416*
X03421Y01199*
X03426Y01203*
X03428Y01209*
Y01215*
X03426Y0122*
X03421Y01224*
X03416Y01226*
G37*
G36*
X04078Y01139D02*
X04072D01*
X04067Y01137*
X04063Y01133*
X04061Y01127*
Y01121*
X04063Y01116*
X04067Y01112*
X04072Y01109*
X04078*
X04084Y01112*
X04088Y01116*
X0409Y01121*
Y01127*
X04088Y01133*
X04084Y01137*
X04078Y01139*
G37*
G36*
X04058Y01102D02*
X04052D01*
X04047Y011*
X04042Y01096*
X0404Y0109*
Y01084*
X04042Y01079*
X04047Y01075*
X04052Y01073*
X04058*
X04063Y01075*
X04067Y01079*
X0407Y01084*
Y0109*
X04067Y01096*
X04063Y011*
X04058Y01102*
G37*
G36*
X02272Y01036D02*
X02267D01*
X02261Y01034*
X02259Y01032*
X02257Y0103*
X02254Y01032*
X02253Y01034*
X02247Y01036*
X02241*
X02236Y01034*
X02232Y0103*
X02229Y01024*
Y01018*
X02232Y01013*
X02236Y01009*
X02241Y01007*
X02247*
X02253Y01009*
X02254Y0101*
X02257Y01013*
X02259Y0101*
X02261Y01009*
X02267Y01007*
X02272*
X02278Y01009*
X02282Y01013*
X02284Y01018*
Y01024*
X02282Y0103*
X02278Y01034*
X02272Y01036*
G37*
G36*
X01485Y01036D02*
X01479D01*
X01474Y01034*
X0147Y0103*
X01465Y01034*
X0146Y01036*
X01454*
X01449Y01034*
X01444Y0103*
X01442Y01024*
Y01018*
X01444Y01013*
X01449Y01009*
X01454Y01006*
X0146*
X01465Y01009*
X0147Y01013*
X01474Y01009*
X01479Y01006*
X01485*
X0149Y01009*
X01495Y01013*
X01497Y01018*
Y01024*
X01495Y0103*
X0149Y01034*
X01485Y01036*
G37*
G36*
X04634Y0103D02*
X04628D01*
X04622Y01028*
X04618Y01024*
X04614Y01028*
X04609Y0103*
X04603*
X04597Y01028*
X04593Y01024*
X04591Y01018*
Y01012*
X04593Y01007*
X04597Y01003*
X04603Y01*
X04609*
X04614Y01003*
X04618Y01007*
X04622Y01003*
X04628Y01*
X04634*
X04639Y01003*
X04643Y01007*
X04646Y01012*
Y01018*
X04643Y01024*
X04639Y01028*
X04634Y0103*
G37*
G36*
X00698Y01028D02*
X00693D01*
X00687Y01026*
X00685Y01024*
X00683Y01021*
X0068Y01024*
X00679Y01026*
X00673Y01028*
X00667*
X00662Y01026*
X00658Y01021*
X00655Y01016*
Y0101*
X00658Y01005*
X00662Y01*
X00667Y00998*
X00673*
X00679Y01*
X0068Y01002*
X00683Y01005*
X00685Y01002*
X00687Y01*
X00693Y00998*
X00698*
X00704Y01*
X00708Y01005*
X0071Y0101*
Y01016*
X00708Y01021*
X00704Y01026*
X00698Y01028*
G37*
G36*
X03846Y01026D02*
X0384D01*
X03835Y01024*
X03833Y01022*
X0383Y0102*
X03828Y01022*
X03826Y01024*
X0382Y01026*
X03814*
X03809Y01024*
X03805Y0102*
X03803Y01014*
Y01008*
X03805Y01003*
X03809Y00999*
X03814Y00997*
X0382*
X03826Y00999*
X03828Y01001*
X0383Y01003*
X03833Y01001*
X03835Y00999*
X0384Y00997*
X03846*
X03852Y00999*
X03856Y01003*
X03858Y01009*
Y01014*
X03856Y0102*
X03852Y01024*
X03846Y01026*
G37*
G36*
X05022Y01187D02*
X05006D01*
X0499Y01184*
X04974Y01178*
X04961Y01169*
X04949Y01157*
X0494Y01143*
X04933Y01128*
X0493Y01112*
Y01096*
X04933Y01079*
X0494Y01064*
X04949Y0105*
X04961Y01039*
X04974Y0103*
X0499Y01023*
X05006Y0102*
X05022*
X05038Y01023*
X05054Y0103*
X05067Y01039*
X05079Y0105*
X05088Y01064*
X05094Y01079*
X05098Y01096*
Y01112*
X05094Y01128*
X05088Y01143*
X05079Y01157*
X05067Y01169*
X05054Y01178*
X05038Y01184*
X05022Y01187*
G37*
G36*
X03033Y01032D02*
X03027D01*
X03021Y0103*
X03017Y01026*
X03015Y0102*
Y01014*
X03017Y01009*
X03021Y01005*
X03027Y01003*
X03033*
X03038Y01005*
X0304Y01007*
X03044Y01006*
X03049Y01002*
X03054Y00999*
X0306*
X03065Y01002*
X0307Y01006*
X03072Y01011*
Y01017*
X0307Y01023*
X03065Y01027*
X0306Y01029*
X03054*
X03049Y01027*
X03047Y01025*
X03042Y01026*
X03038Y0103*
X03033Y01032*
G37*
G36*
X05395Y01028D02*
X05389D01*
X05383Y01026*
X05379Y01022*
X05377Y01016*
Y01011*
X05379Y01005*
X05383Y01001*
X05389Y00999*
X05395*
X054Y01001*
X05402Y01003*
X05405Y01005*
X05407Y01003*
X05409Y01001*
X05415Y00999*
X05421*
X05426Y01001*
X0543Y01005*
X05433Y0101*
Y01016*
X0543Y01022*
X05426Y01026*
X05421Y01028*
X05415*
X05409Y01026*
X05407Y01024*
X05405Y01022*
X05402Y01024*
X054Y01026*
X05395Y01028*
G37*
G36*
X03658Y00877D02*
X03652D01*
X03647Y00874*
X03642Y0087*
X0364Y00865*
Y00859*
X03642Y00853*
X03647Y00849*
X03652Y00847*
X03658*
X03663Y00849*
X03668Y00853*
X0367Y00859*
Y00865*
X03668Y0087*
X03663Y00874*
X03658Y00877*
G37*
G36*
X05283Y00876D02*
X05277D01*
X05271Y00874*
X05267Y0087*
X05265Y00865*
Y00859*
X05267Y00853*
X05271Y00849*
X05277Y00847*
X05283*
X05288Y00849*
X05292Y00853*
X05295Y00859*
Y00865*
X05292Y0087*
X05288Y00874*
X05283Y00876*
G37*
G36*
X0297Y00876D02*
X02964D01*
X02958Y00874*
X02954Y0087*
X02952Y00865*
Y00859*
X02954Y00853*
X02958Y00849*
X02964Y00847*
X0297*
X02975Y00849*
X02979Y00853*
X02982Y00859*
Y00865*
X02979Y0087*
X02975Y00874*
X0297Y00876*
G37*
G36*
X02082Y00876D02*
X02076D01*
X02071Y00874*
X02066Y0087*
X02064Y00864*
Y00858*
X02066Y00853*
X02071Y00849*
X02076Y00846*
X02082*
X02087Y00849*
X02092Y00853*
X02094Y00858*
Y00864*
X02092Y0087*
X02087Y00874*
X02082Y00876*
G37*
G36*
X03708Y00876D02*
X03702D01*
X03697Y00874*
X03692Y00869*
X0369Y00864*
Y00858*
X03692Y00853*
X03697Y00848*
X03702Y00846*
X03708*
X03713Y00848*
X03718Y00853*
X0372Y00858*
Y00864*
X03718Y00869*
X03713Y00874*
X03708Y00876*
G37*
G36*
X02134Y00875D02*
X02128D01*
X02122Y00873*
X02118Y00869*
X02116Y00863*
Y00857*
X02118Y00852*
X02122Y00848*
X02128Y00845*
X02134*
X02139Y00848*
X02143Y00852*
X02146Y00857*
Y00863*
X02143Y00869*
X02139Y00873*
X02134Y00875*
G37*
G36*
X02871Y00875D02*
X02865D01*
X02859Y00872*
X02855Y00868*
X02853Y00863*
Y00857*
X02855Y00851*
X02859Y00847*
X02865Y00845*
X02871*
X02876Y00847*
X0288Y00851*
X02882Y00857*
Y00863*
X0288Y00868*
X02876Y00872*
X02871Y00875*
G37*
G36*
X01344Y00875D02*
X01338D01*
X01333Y00872*
X01328Y00868*
X01326Y00863*
Y00857*
X01328Y00851*
X01333Y00847*
X01338Y00845*
X01344*
X01349Y00847*
X01354Y00851*
X01356Y00857*
Y00863*
X01354Y00868*
X01349Y00872*
X01344Y00875*
G37*
G36*
X05333Y00874D02*
X05327D01*
X05322Y00872*
X05317Y00868*
X05315Y00863*
Y00857*
X05317Y00851*
X05322Y00847*
X05327Y00845*
X05333*
X05338Y00847*
X05343Y00851*
X05345Y00857*
Y00863*
X05343Y00868*
X05338Y00872*
X05333Y00874*
G37*
G36*
X04445Y00874D02*
X0444D01*
X04434Y00871*
X0443Y00867*
X04428Y00862*
Y00856*
X0443Y0085*
X04434Y00846*
X0444Y00844*
X04445*
X04451Y00846*
X04455Y0085*
X04457Y00856*
Y00862*
X04455Y00867*
X04451Y00871*
X04445Y00874*
G37*
G36*
X02921Y00874D02*
X02915D01*
X02909Y00871*
X02905Y00867*
X02903Y00862*
Y00856*
X02905Y0085*
X02909Y00846*
X02915Y00844*
X02921*
X02926Y00846*
X0293Y0085*
X02932Y00856*
Y00862*
X0293Y00867*
X02926Y00871*
X02921Y00874*
G37*
G36*
X03757Y00873D02*
X03751D01*
X03746Y00871*
X03742Y00867*
X03739Y00862*
Y00856*
X03742Y0085*
X03746Y00846*
X03751Y00844*
X03757*
X03763Y00846*
X03767Y0085*
X03769Y00856*
Y00862*
X03767Y00867*
X03763Y00871*
X03757Y00873*
G37*
G36*
X00609D02*
X00603D01*
X00597Y00871*
X00593Y00867*
X00591Y00862*
Y00856*
X00593Y0085*
X00597Y00846*
X00603Y00844*
X00609*
X00614Y00846*
X00618Y0085*
X0062Y00856*
Y00862*
X00618Y00867*
X00614Y00871*
X00609Y00873*
G37*
G36*
X05233Y00873D02*
X05227D01*
X05221Y00871*
X05217Y00867*
X05215Y00861*
Y00856*
X05217Y0085*
X05221Y00846*
X05227Y00844*
X05233*
X05238Y00846*
X05242Y0085*
X05245Y00856*
Y00861*
X05242Y00867*
X05238Y00871*
X05233Y00873*
G37*
G36*
X04495Y00872D02*
X0449D01*
X04484Y0087*
X0448Y00866*
X04478Y0086*
Y00854*
X0448Y00849*
X04484Y00845*
X0449Y00842*
X04495*
X04501Y00845*
X04505Y00849*
X04507Y00854*
Y0086*
X04505Y00866*
X04501Y0087*
X04495Y00872*
G37*
G36*
X00558Y00872D02*
X00552D01*
X00547Y00869*
X00543Y00865*
X00541Y0086*
Y00854*
X00543Y00848*
X00547Y00844*
X00552Y00842*
X00558*
X00564Y00844*
X00568Y00848*
X0057Y00854*
Y0086*
X00568Y00865*
X00564Y00869*
X00558Y00872*
G37*
G36*
X02179Y00871D02*
X02174D01*
X02168Y00869*
X02164Y00865*
X02162Y0086*
Y00854*
X02164Y00848*
X02168Y00844*
X02174Y00842*
X02179*
X02185Y00844*
X02189Y00848*
X02191Y00854*
Y0086*
X02189Y00865*
X02185Y00869*
X02179Y00871*
G37*
G36*
X01398D02*
X01392D01*
X01387Y00869*
X01382Y00865*
X0138Y0086*
Y00854*
X01382Y00848*
X01387Y00844*
X01392Y00842*
X01398*
X01403Y00844*
X01408Y00848*
X0141Y00854*
Y0086*
X01408Y00865*
X01403Y00869*
X01398Y00871*
G37*
G36*
X00508Y00871D02*
X00502D01*
X00497Y00869*
X00493Y00865*
X00491Y00859*
Y00854*
X00493Y00848*
X00497Y00844*
X00502Y00842*
X00508*
X00514Y00844*
X00518Y00848*
X0052Y00854*
Y00859*
X00518Y00865*
X00514Y00869*
X00508Y00871*
G37*
G36*
X01295Y00871D02*
X01289D01*
X01284Y00868*
X0128Y00864*
X01277Y00859*
Y00853*
X0128Y00847*
X01284Y00843*
X01289Y00841*
X01295*
X01301Y00843*
X01305Y00847*
X01307Y00853*
Y00859*
X01305Y00864*
X01301Y00868*
X01295Y00871*
G37*
G36*
X04544Y0087D02*
X04538D01*
X04532Y00868*
X04528Y00864*
X04526Y00859*
Y00853*
X04528Y00847*
X04532Y00843*
X04538Y00841*
X04544*
X04549Y00843*
X04553Y00847*
X04556Y00853*
Y00859*
X04553Y00864*
X04549Y00868*
X04544Y0087*
G37*
G36*
X00157Y00292D02*
X00141D01*
X00125Y00289*
X00109Y00282*
X00096Y00273*
X00084Y00261*
X00075Y00248*
X00068Y00232*
X00065Y00216*
Y002*
X00068Y00184*
X00075Y00168*
X00084Y00155*
X00096Y00143*
X00109Y00134*
X00125Y00127*
X00141Y00124*
X00157*
X00173Y00127*
X00189Y00134*
X00202Y00143*
X00214Y00155*
X00223Y00168*
X00229Y00184*
X00233Y002*
Y00216*
X00229Y00232*
X00223Y00248*
X00214Y00261*
X00202Y00273*
X00189Y00282*
X00173Y00289*
X00157Y00292*
G37*
%LNmdriver2_control-3*%
%LPD*%
G54D148*
X05567Y0257D03*
Y0207D03*
G54D149*
X05627Y03532D03*
Y03036D03*
G54D150*
X01383Y02531D03*
X0422Y0329D03*
X0432D03*
Y0339D03*
X04052Y03276D03*
X04118Y02908D03*
X01283Y02531D03*
X04018Y02908D03*
X04052Y03376D03*
G54D151*
X05543Y01783D03*
Y01153D03*
X05385Y00838D03*
X05543Y00523D03*
X05385Y00208D03*
X05228Y01783D03*
X0507Y01468D03*
X05228Y01153D03*
X0507Y00838D03*
X05228Y00523D03*
X0507Y00208D03*
X04913Y01783D03*
Y01153D03*
Y00523D03*
X04598Y01783D03*
X0444Y01468D03*
X04598Y01153D03*
Y00523D03*
X04283Y01783D03*
X04125Y01468D03*
X04283Y01153D03*
X04125Y00838D03*
X04283Y00523D03*
X04125Y00208D03*
X03968Y01783D03*
X0381Y01468D03*
X03968Y01153D03*
X0381Y00838D03*
X03968Y00523D03*
X0381Y00208D03*
X03653Y03673D03*
Y02413D03*
X03495Y02098D03*
X03653Y01783D03*
X03495Y01468D03*
Y00838D03*
X03653Y00523D03*
X03495Y00208D03*
X0318Y02728D03*
Y01468D03*
Y00838D03*
X03338Y00523D03*
X03023Y03043D03*
Y02413D03*
Y01783D03*
Y01153D03*
Y00523D03*
X02551Y02728D03*
X02708Y02413D03*
Y01153D03*
X02551Y00838D03*
X02708Y00523D03*
X02551Y00208D03*
X02236Y02098D03*
X02393Y01153D03*
X02236Y00838D03*
X02393Y00523D03*
X02236Y00208D03*
X01921Y01468D03*
X02078Y01153D03*
X01921Y00838D03*
X02078Y00523D03*
X01921Y00208D03*
X01606Y03358D03*
X01763Y01783D03*
Y01153D03*
Y00523D03*
X01291Y03358D03*
X01448Y03043D03*
X01291Y02098D03*
X01448Y01783D03*
X01291Y01468D03*
X01448Y00523D03*
X00976Y03358D03*
X01133Y03043D03*
X00976Y02098D03*
Y01468D03*
Y00838D03*
X01133Y00523D03*
X00976Y00208D03*
X00661Y03358D03*
X00818Y03043D03*
X00661Y02098D03*
Y01468D03*
Y00838D03*
X00818Y00523D03*
X00661Y00208D03*
X00503Y03673D03*
X00346Y03358D03*
X00503Y03043D03*
X00346Y02728D03*
Y02098D03*
Y01468D03*
Y00838D03*
X00503Y00523D03*
X00346Y00208D03*
X00188Y03673D03*
X00031Y03358D03*
X00188Y03043D03*
X00031Y02728D03*
X00188Y02413D03*
X00031Y02098D03*
X00188Y01783D03*
X00031Y01468D03*
X00188Y01153D03*
X00031Y00838D03*
X00188Y00523D03*
X00031Y00208D03*
X04055Y01087D03*
X04882Y03284D03*
X04862Y03255D03*
X04901D03*
Y03314D03*
X04862D03*
X04535Y02134D03*
X04075Y01124D03*
X04087Y02409D03*
X04116Y02517D03*
X03673Y02295D03*
X03327Y02203D03*
X0456Y01617D03*
X04499Y01763D03*
X04775Y01488D03*
X04844Y0135D03*
X03214Y01993D03*
X03529Y01945D03*
X02858Y02015D03*
X03166Y03466D03*
X03147Y04737D03*
X0325Y02673D03*
X03267Y02714D03*
X0321Y03907D03*
X03338Y05222D03*
X03274Y03177D03*
X03552Y03103D03*
X04012Y02265D03*
X04049Y0216D03*
X03378Y02652D03*
X03729Y02519D03*
X03654Y02536D03*
X03585Y02562D03*
X03387Y02692D03*
X02154Y01432D03*
X02459Y01513D03*
X02094Y01379D03*
X05386Y01383D03*
X05261Y01474D03*
X05181Y0139D03*
Y01474D03*
X05289Y01494D03*
X04426Y02665D03*
X0314Y01995D03*
X03066Y01977D03*
X03061Y01922D03*
X04293Y0133D03*
X0443D03*
X04155D03*
X03624Y01413D03*
X04047Y01443D03*
X03751Y018D03*
X0379Y01832D03*
X03163Y0221D03*
X03128Y02203D03*
X03187Y02203D03*
X04047Y01251D03*
X05671Y02452D03*
X05602Y02314D03*
X05671Y02177D03*
X05602Y01763D03*
X05464Y03141D03*
Y0259D03*
X05533Y02452D03*
X05464Y02314D03*
X05533Y02177D03*
X05464Y01763D03*
X05395Y02728D03*
X05326Y0259D03*
X05395Y02452D03*
X05326Y02314D03*
X05395Y02177D03*
X05326Y02039D03*
X05395Y01901D03*
X05326Y01763D03*
X05395Y0135D03*
X05257Y02728D03*
X05188Y0259D03*
X05257Y02452D03*
X05188Y02314D03*
X05257Y02177D03*
X05188Y02039D03*
X05257Y01901D03*
X05188Y01763D03*
X05257Y01625D03*
X05188Y01212D03*
X05119Y02728D03*
X05051Y0259D03*
X05119Y02452D03*
X05051Y02314D03*
X05119Y02177D03*
X05051Y02039D03*
X05119Y01901D03*
X05051Y01763D03*
X05119Y01625D03*
X05051Y01212D03*
X04982Y02728D03*
X04913Y0259D03*
X04982Y02452D03*
X04913Y02314D03*
X04982Y02177D03*
X04913Y02039D03*
X04982Y01901D03*
X04913Y01763D03*
X04982Y01625D03*
X04913Y01212D03*
X04844Y02728D03*
Y01901D03*
X04775Y01763D03*
Y01212D03*
X04706Y02728D03*
Y01901D03*
X04637Y01763D03*
X04706Y01625D03*
Y0135D03*
X04637Y01212D03*
X04568Y02728D03*
X04499Y0259D03*
Y02039D03*
X04568Y01901D03*
X04499Y01488D03*
X04568Y0135D03*
X0443Y02728D03*
X04362Y0259D03*
X0443Y02177D03*
X04362Y02039D03*
X0443Y01901D03*
Y01625D03*
X04362Y01212D03*
X04293Y02728D03*
X04224Y0259D03*
X04293Y02177D03*
X04224Y02039D03*
Y01763D03*
X04155Y02728D03*
X04086Y0259D03*
Y02039D03*
X04155Y01901D03*
Y01625D03*
X0321Y01658D03*
X05296Y01602D03*
X03164Y02066D03*
X02152Y01463D03*
X04373Y03435D03*
X04351Y03454D03*
X04248Y03394D03*
X04219D03*
X03094Y04769D03*
X03004Y03893D03*
X02814Y0366D03*
X01874Y0385D03*
X0269Y05405D03*
X0332Y03733D03*
X02704Y03601D03*
Y03705D03*
X02967Y05243D03*
X02432Y05201D03*
X02478Y03689D03*
X02496Y03671D03*
X02456Y05161D03*
X02573Y05101D03*
X0295Y03993D03*
X02988Y03717D03*
X03029Y03308D03*
X02882Y03687D03*
X03004Y03656D03*
X03007Y04512D03*
X02671Y04392D03*
X03205Y05365D03*
X04706Y04135D03*
X04854Y03682D03*
X05006Y0381D03*
X05208Y04115D03*
X05196Y0383D03*
X04706Y04647D03*
X04991Y04608D03*
X05195D03*
X05195Y05411D03*
X05001Y05484D03*
X05198Y05621D03*
X02723Y04133D03*
X03272Y02777D03*
X03269Y0275D03*
X0255Y01338D03*
X05418Y01013D03*
X05392Y01014D03*
X04631Y01015D03*
X04606D03*
X03843Y01011D03*
X03817Y01011D03*
X03057Y01014D03*
X0303Y01017D03*
X00693Y01995D03*
X00667Y01995D03*
X00805Y01846D03*
X00855Y01846D03*
X00755Y01847D03*
X0067Y01013D03*
X00696D03*
X01482Y01021D03*
X01457D03*
X02244Y01021D03*
X02269Y01021D03*
X02131Y0086D03*
X02079Y00861D03*
X03022Y01961D03*
X02474Y01892D03*
X025Y01893D03*
X02715Y01828D03*
X02689Y01827D03*
X02193Y02791D03*
X03537Y02313D03*
X03646Y02293D03*
X03621Y02292D03*
X03528Y02411D03*
X03871Y01908D03*
X02732Y01994D03*
X02758Y03089D03*
X02556Y03082D03*
X0164Y02451D03*
X01669D03*
X01699D03*
X04928Y01348D03*
X0383Y03462D03*
X03808Y03429D03*
X03436Y0234D03*
X03776Y02196D03*
X03816Y02193D03*
X03757Y02176D03*
X03795Y0218D03*
X03719Y02171D03*
X03736Y02193D03*
X02376Y02576D03*
X02378Y03029D03*
X02534Y01622D03*
X03273Y02928D03*
X03271Y02973D03*
X03258Y02951D03*
X03116Y03056D03*
X03145Y03092D03*
X03191Y03041D03*
X03076Y03315D03*
X02992Y0331D03*
X0301Y03286D03*
X03046Y03287D03*
X02605Y03517D03*
X02643Y03515D03*
X02884Y03409D03*
X02887Y03348D03*
X02879Y03275D03*
X02915Y03279D03*
X02873Y03089D03*
X02849Y0309D03*
X02546Y02017D03*
X02693Y02199D03*
X02721Y02201D03*
X02617Y02201D03*
X02642Y02209D03*
X02557Y02222D03*
X02576Y02199D03*
X02537Y02198D03*
X025Y02198D03*
X02521Y02217D03*
X02563Y03512D03*
X02461Y03456D03*
X02375Y02378D03*
X02098Y03476D03*
X02001Y03028D03*
X02266Y02321D03*
X02189Y02461D03*
X02228Y02453D03*
X02192Y02706D03*
X02123Y02665D03*
X01991Y02696D03*
X02003Y02909D03*
X02Y02873D03*
X02001Y03105D03*
X02001Y03066D03*
X02245Y02844D03*
X02Y02947D03*
X02193Y02856D03*
X021Y02856D03*
X01977Y02855D03*
X02001Y02743D03*
X01173Y05287D03*
X02379Y02625D03*
X02376Y02675D03*
X02382Y027D03*
X02193Y0266D03*
X02389Y02648D03*
X02381Y02764D03*
X02378Y02812D03*
X02394Y0279D03*
X02379Y029D03*
X02379Y02852D03*
X02386Y02876D03*
X02398Y02834D03*
X04791Y03265D03*
X02364Y02062D03*
X02193Y02344D03*
X02229Y02321D03*
X02194Y02502D03*
X03092Y0323D03*
X03377Y02872D03*
X02677Y01993D03*
X02482Y02094D03*
X02461Y02063D03*
X02414Y02062D03*
X03926Y02487D03*
X01504Y02736D03*
X01594Y02808D03*
X01704Y02781D03*
X01642Y02807D03*
X01675Y02806D03*
X01541Y02737D03*
X01542Y02773D03*
X01563Y02807D03*
X01704Y02743D03*
X01506Y0277D03*
X01534Y02807D03*
X01878Y02925D03*
X01504Y02807D03*
X0167Y0271D03*
X02676Y03076D03*
X02634Y03076D03*
X02616Y03093D03*
X02598Y03076D03*
X0258Y03094D03*
X02531Y03091D03*
X0251Y02065D03*
X02629Y01995D03*
X02629Y02019D03*
X02511Y01976D03*
X0258Y02011D03*
X0301Y02202D03*
X02982Y02201D03*
X0238Y02337D03*
X02404Y02376D03*
X02101Y02403D03*
Y02354D03*
X02189Y02293D03*
X02192Y02205D03*
X02339Y01413D03*
X02177Y00857D03*
X02967Y00862D03*
X03754Y00859D03*
X04541Y00856D03*
X0533Y0086D03*
X01395Y00857D03*
X00606Y00859D03*
X00603Y01825D03*
X01393Y01846D03*
X02135Y01675D03*
X02201Y01641D03*
X02482Y01395D03*
X02445Y01571D03*
X02044Y01664D03*
X02261Y01703D03*
X00437Y02358D03*
Y02533D03*
X04866Y0149D03*
X04964Y0142D03*
X04965Y01454D03*
X04935Y01435D03*
X04901Y01419D03*
X04902Y01454D03*
X04994Y0152D03*
X04882Y01524D03*
X0482Y01511D03*
X03021Y01988D03*
X03167Y02033D03*
X02755Y01918D03*
X02713Y02011D03*
X02783Y02005D03*
X02775Y02071D03*
X02754Y02008D03*
X03908Y0086D03*
X03958Y00859D03*
X04008Y00858D03*
X04691Y00858D03*
X04741Y00857D03*
X04791Y00856D03*
X0548Y00859D03*
X0553Y00858D03*
X0558Y00857D03*
X02331Y00857D03*
X02381Y00856D03*
X02431Y00855D03*
X03119Y00862D03*
X03169Y00861D03*
X03219Y0086D03*
X01542Y0184D03*
X01592Y01839D03*
X01642Y01839D03*
X01541Y00858D03*
X01591Y00857D03*
X01641Y00856D03*
X00755Y00857D03*
X00805Y00856D03*
X00855Y00855D03*
X00555Y01845D03*
X00506Y01843D03*
X00734Y02294D03*
X021Y02895D03*
X02122Y0198D03*
X02775Y0184D03*
X00741Y02494D03*
X02012Y02551D03*
X02868Y0086D03*
X02918Y00859D03*
X01341Y0086D03*
X01292Y00856D03*
X01293Y01869D03*
X01343D03*
X01456Y01841D03*
X01481D03*
X00555Y00857D03*
X00505Y00856D03*
X0528Y00862D03*
X0523Y00859D03*
X04492Y00857D03*
X04442Y00859D03*
X03705Y00861D03*
X03655Y00862D03*
X02011Y02465D03*
Y0249D03*
X02011Y02367D03*
X02012Y02392D03*
X0201Y02267D03*
Y02292D03*
X02013Y02195D03*
Y0217D03*
X02591Y01827D03*
X02616Y01827D03*
X024Y01894D03*
X02375D03*
X02104Y01998D03*
X03619Y01512D03*
X03464Y01213D03*
X02629Y0191D03*
X01483Y02562D03*
Y02532D03*
X00571Y02394D03*
X00574Y02594D03*
X00358D03*
X00358Y02294D03*
X00358Y02993D03*
X01892Y02851D03*
X01881Y02885D03*
X02198Y02601D03*
X01966Y02743D03*
X01704Y02806D03*
X0065Y03132D03*
Y03232D03*
X00354Y03094D03*
X00357Y03194D03*
X02193Y02772D03*
X01704Y0248D03*
X03092Y02202D03*
X03069D03*
X03011Y02019D03*
X00836Y03499D03*
X0327Y02419D03*
X03266Y02557D03*
X02905Y0257D03*
X02826D03*
X02747D03*
Y02649D03*
X02826D03*
X02905D03*
Y02728D03*
X02826D03*
X02747D03*
X02706Y0253D03*
X02785D03*
X02863D03*
X02942D03*
X02706Y02609D03*
X02785D03*
X02863D03*
X02942D03*
X02706Y02687D03*
X02785D03*
X02863D03*
X02942D03*
Y02766D03*
X02863D03*
X02785D03*
X02706D03*
X02971Y03091D03*
X04521Y0218D03*
X03908Y02533D03*
X04295Y02467D03*
X04119Y02327D03*
X0423Y0239D03*
X05422Y01841D03*
X04859Y0234D03*
X04859Y0238D03*
X04495Y02207D03*
X04497Y02513D03*
X04386Y02355D03*
X04416Y02351D03*
X03933Y02265D03*
X03973D03*
X04012Y02304D03*
X03973D03*
X03933D03*
X04012Y02344D03*
X03973D03*
X03933D03*
X04175Y02178D03*
X04559Y02386D03*
X04556Y02334D03*
X0454Y02578D03*
X04585Y02514D03*
X04526Y02062D03*
X04503Y02352D03*
X05478Y02787D03*
X04159Y0249D03*
X04163Y02404D03*
X04206Y02444D03*
X04064Y02126D03*
X03883Y02397D03*
X03791Y02456D03*
X03858Y02487D03*
X03953Y02507D03*
X03877Y0253D03*
X03524Y0272D03*
X03516Y02788D03*
X03627Y02919D03*
X03391Y03151D03*
X0332Y03126D03*
X02735Y03096D03*
X03171Y03093D03*
X0309Y03073D03*
X03271Y02833D03*
X03391Y02205D03*
X03268Y02262D03*
X03277Y02172D03*
X02853Y02203D03*
X02931Y02202D03*
X01898Y04591D03*
X01842Y03973D03*
X021Y03013D03*
X01924Y04647D03*
X021Y03052D03*
X01954Y05497D03*
X021Y03092D03*
X01974Y05467D03*
X021Y03131D03*
X03419Y05414D03*
X021Y02728D03*
X01781Y04729D03*
X021Y02767D03*
X01806Y04617D03*
X021Y02974D03*
Y02934D03*
X01972Y02893D03*
X04713Y05714D03*
X0471Y04921D03*
X02729D03*
X02723Y05708D03*
X00734Y04133D03*
X0074Y04921D03*
X00729Y05708D03*
X02429Y03012D03*
X02329Y03093D03*
X00877Y0506D03*
X03267Y02616D03*
X03247Y02635D03*
X02584Y03411D03*
X00877Y03614D03*
X01998Y0278D03*
X01999Y02987D03*
Y0315D03*
X02802Y03515D03*
X0276Y03514D03*
X02721D03*
X0268Y03516D03*
X0285Y03486D03*
X02825Y03602D03*
X02661Y03601D03*
X02624D03*
X03071Y04477D03*
X03133Y03002D03*
X03129Y0335D03*
X01243Y04923D03*
X01566D03*
X02137D03*
Y03495D03*
X00877Y03712D03*
X02078Y03495D03*
X02098Y05661D03*
X02076Y05255D03*
X0355Y03349D03*
X04961Y03127D03*
X04214Y03082D03*
X04243Y03112D03*
X04931Y03091D03*
X04184Y03082D03*
X0323Y03269D03*
X03259Y05523D03*
Y0322D03*
X0252Y0327D03*
X01114Y04509D03*
X02895D03*
X00832Y04564D03*
X02915Y04563D03*
X02649Y05582D03*
X02413Y03495D03*
X02432Y03515D03*
X02477Y03486D03*
X02497Y03505D03*
X02914Y03246D03*
X02944Y03279D03*
X02972D03*
X03052Y0445D03*
X03033Y0507D03*
X01537Y04362D03*
Y03564D03*
X00976Y03623D03*
Y03692D03*
X02824Y03409D03*
X02785Y03412D03*
X02741Y03411D03*
X02702D03*
X02663D03*
X02623Y03411D03*
X02545Y03537D03*
Y03411D03*
X01217Y04616D03*
X01217Y03828D03*
X03424Y03238D03*
X03679Y03359D03*
X03881Y0337D03*
X03876Y03193D03*
X03446Y03613D03*
Y03397D03*
X0364Y03427D03*
X03603Y03158D03*
X03452Y02453D03*
X03472Y02431D03*
X03497Y02408D03*
X03589Y02286D03*
X03615Y02728D03*
X03617Y02705D03*
X04278Y03394D03*
X04351Y03508D03*
Y03482D03*
X04278Y03428D03*
X04249D03*
X04219D03*
X0169Y02513D03*
Y02542D03*
X017Y02572D03*
X0167D03*
X01675Y0248D03*
X0164Y02572D03*
X01645Y0248D03*
X01483Y02473D03*
X01513D03*
Y02503D03*
X01483D03*
X01513Y02532D03*
X01542Y02562D03*
X01513D03*
X0164Y0271D03*
X01704Y02718D03*
X03786Y03177D03*
X03693Y03174D03*
X03562Y0324D03*
X03878Y03333D03*
X0258Y01929D03*
X02376Y02419D03*
X02374Y0244D03*
X02383Y0246D03*
X02191Y02388D03*
X02191Y02411D03*
X03128Y03413D03*
X02783Y03314D03*
X02696Y03094D03*
X02716Y03077D03*
X0274Y03318D03*
X027D03*
X02657Y03093D03*
X02665Y03314D03*
X02621Y03318D03*
X02582Y03314D03*
X02543Y03318D03*
X02822Y03314D03*
X02559Y03271D03*
X02937Y02016D03*
X0298Y02019D03*
X03624Y01812D03*
X03619Y01612D03*
X03454Y0223D03*
X03479Y02276D03*
X03311Y02118D03*
X03459Y02567D03*
X03393Y02622D03*
X03457Y0292D03*
X03459Y02959D03*
X03458Y03D03*
X0346Y02729D03*
X03459Y02767D03*
X03459Y02806D03*
X03457Y02845D03*
X03184Y03277D03*
X0314Y03272D03*
X02847Y03272D03*
X02769Y03273D03*
X02728Y03274D03*
X02315Y02063D03*
X02192Y02108D03*
X02191Y02157D03*
X02194Y02256D03*
X02189Y02551D03*
X02216Y0306D03*
X04204Y02963D03*
X04233D03*
X04263D03*
X04302Y02953D03*
Y02983D03*
X04204Y02993D03*
X04233D03*
X04263D03*
X04204Y03022D03*
X04233D03*
X04263D03*
X04243Y03082D03*
X04214Y03112D03*
X04184D03*
X04243Y03141D03*
X04214D03*
X04184D03*
X05002Y03239D03*
X05035Y03377D03*
X04243Y03562D03*
X04271Y03644D03*
X04243D03*
X04271Y03617D03*
X04243D03*
X04271Y03589D03*
X04243D03*
X03958Y03455D03*
X03987D03*
X04017D03*
X04047Y03456D03*
X03958Y03495D03*
X03987D03*
X04017D03*
X04081Y03598D03*
X04041D03*
X04081Y03638D03*
X04041D03*
X04001D03*
Y03598D03*
X05073Y03271D03*
X04831Y02982D03*
X04909Y03159D03*
X04841Y03184D03*
X04764Y03283D03*
X04781Y03117D03*
X04823Y03546D03*
X05279Y01316D03*
X05337Y01325D03*
X04615Y02236D03*
X0429Y0232D03*
X03477Y02311D03*
X0363Y02394D03*
X03413Y01212D03*
X03696Y02274D03*
X03391Y0232D03*
X05266Y03127D03*
X05099Y03377D03*
X04982Y03309D03*
X05107Y03127D03*
X05143Y0333D03*
X05227Y03166D03*
Y03127D03*
Y03087D03*
X05266Y03166D03*
Y03087D03*
X04429Y03547D03*
X04504Y03261D03*
X04458Y03309D03*
X04439Y03071D03*
Y0311D03*
X044D03*
Y03071D03*
X0434Y03557D03*
X04532Y03477D03*
X0494Y03354D03*
X04943Y03219D03*
X05308Y03398D03*
X05386Y03477D03*
X05347D03*
X05229D03*
X05268D03*
X05426D03*
X05308D03*
X05229Y03437D03*
X05268D03*
X05347D03*
X05386D03*
X05426D03*
X05308D03*
X05229Y03398D03*
X05268D03*
X05306Y03166D03*
Y03127D03*
Y03087D03*
X05345Y03127D03*
Y03087D03*
X05385Y03127D03*
Y03087D03*
X05424Y03127D03*
Y03087D03*
X04656Y03505D03*
X04595Y03055D03*
X04784Y02989D03*
G54D152*
X05014Y01104D03*
X03574Y04302D03*
X05582Y05169D03*
X00188D03*
X00149Y02058D03*
Y00208D03*
M02*