%FSTAX23Y23*%
%MOIN*%
%SFA1B1*%

%IPPOS*%
%ADD16C,0.010000*%
%ADD148C,0.110236*%
%ADD149C,0.074803*%
%ADD150C,0.060000*%
%ADD151C,0.019685*%
%ADD152C,0.157480*%
%LNmdriver2_control-1*%
%LPD*%
G36*
X05543Y03318D02*
X05188D01*
Y02964*
X04837*
X04836Y02968*
X0484Y02969*
X04844Y02974*
X04846Y02979*
Y02985*
X04844Y0299*
X0484Y02995*
X04834Y02997*
X04828*
X04823Y02995*
X04819Y0299*
X04816Y02985*
Y02979*
X04819Y02974*
X04823Y02969*
X04827Y02968*
X04826Y02964*
X04755*
Y03121*
X04765*
X04766Y0312*
Y03114*
X04769Y03108*
X04773Y03104*
X04778Y03102*
X04784*
X0479Y03104*
X04794Y03108*
X04796Y03114*
Y0312*
X04795Y03122*
X04834Y03161*
Y03168*
X04837Y0317*
X04838Y0317*
X04844*
X04849Y03172*
X04853Y03176*
X04856Y03181*
Y03187*
X04853Y03193*
X04849Y03197*
X04844Y03199*
X04838*
X04837Y03199*
X04834Y03201*
Y03397*
X0511*
Y03554*
X05543*
Y03318*
G37*
G36*
X02197Y02645D02*
X02197Y02643D01*
X02198Y02641*
X02199Y0264*
X02199Y0264*
X02199Y02639*
X02201Y02639*
X02202Y02638*
X0223Y02638*
Y02531*
X02232Y02527*
X02236Y02525*
X02447*
Y02255*
X02448Y02251*
X02452Y0225*
X02673*
Y02212*
X02673Y02211*
Y02209*
X02674Y02209*
X02675Y02208*
X02676Y02207*
X02676Y02207*
X02678Y02206*
Y02193*
X02676Y02192*
X02676Y02191*
X02675Y02191*
X02674Y0219*
X02673Y02189*
Y02188*
X02673Y02187*
Y02029*
X02674Y02027*
X02675Y02025*
X02675Y02025*
X02675Y02025*
X02677Y02024*
X02678Y02023*
X02699Y02023*
X027Y0202*
X027Y02019*
X02698Y02014*
Y02008*
X027Y02003*
X02704Y01998*
X0271Y01996*
X02716*
X02717Y01995*
Y01991*
X02719Y01986*
X02724Y01981*
X02729Y01979*
X02735*
X0274Y01981*
X02745Y01986*
X02747Y01991*
Y01991*
X0275Y01994*
X02751Y01993*
X02757*
X02762Y01996*
X02765Y01998*
X02769Y01998*
X0277Y01998*
X0277Y01996*
X02774Y01992*
X0278Y0199*
X02786*
X02791Y01992*
X02795Y01996*
X02798Y02002*
Y02008*
X02795Y02013*
X02791Y02017*
X02787Y02019*
X02788Y02023*
X02834Y02023*
Y01082*
X0284*
X0284Y01074*
X02841Y01072*
X02842Y0107*
X02842Y0107*
X02842Y0107*
X02844Y0107*
X02846Y01069*
X04932*
X04932Y01069*
X04933Y01069*
X04933Y01069*
X04937Y01069*
X04938Y01068*
X04938Y01068*
X0494Y01064*
X04949Y0105*
X04961Y01039*
X04974Y0103*
X0499Y01023*
X05006Y0102*
X05022*
X05038Y01023*
X05054Y0103*
X05067Y01039*
X05079Y0105*
X05088Y01064*
X0509Y01068*
X0509Y01068*
X0509Y01069*
X05095Y01069*
X05095Y01069*
X05095Y01069*
X05096Y01069*
X05779*
Y0*
X0*
Y02641*
X00002Y02644*
X02184Y02638*
X02186Y02639*
X02187Y02639*
X02188Y0264*
X02188Y0264*
X02189Y02641*
X0219Y02643*
X0219Y02645*
X02191Y02645*
X02196*
X02197Y02645*
G37*
G36*
X05385Y03712D02*
X04686D01*
Y02747*
X05779*
Y01074*
X05096*
X05094Y01077*
X05094Y01079*
X05098Y01096*
Y01112*
X05094Y01128*
X05088Y01143*
X05079Y01157*
X05067Y01169*
X05054Y01178*
X05038Y01184*
X05022Y01187*
X05006*
X0499Y01184*
X04974Y01178*
X04961Y01169*
X04949Y01157*
X0494Y01143*
X04933Y01128*
X0493Y01112*
Y01096*
X04933Y01079*
X04934Y01077*
X04932Y01074*
X02846*
X02842Y02005*
X02843Y02006*
X02846Y02006*
X02849Y02003*
X02855Y02*
X02861*
X02866Y02003*
X0287Y02007*
X02872Y02012*
Y02018*
X0287Y02024*
X02866Y02028*
X02861Y0203*
X02855*
X02849Y02028*
X02845Y02024*
X02843Y02024*
X02841Y02025*
X02841Y02028*
X02678Y02029*
Y02187*
X02682Y02189*
X02684Y02187*
X0269Y02184*
X02696*
X02701Y02187*
X02705Y02191*
X02705Y02191*
X0271Y02191*
X02713Y02189*
X02718Y02187*
X02724*
X02729Y02189*
X02734Y02193*
X02736Y02199*
Y02204*
X02734Y0221*
X02729Y02214*
X02724Y02216*
X02718*
X02713Y02214*
X02708Y0221*
X02708Y0221*
X02704Y02209*
X02701Y02212*
X02696Y02214*
X0269*
X02684Y02212*
X02682Y0221*
X02678Y02212*
Y02255*
X02452*
Y02531*
X02236*
Y02644*
X02202Y02644*
X02202Y02648*
X02202Y02648*
X02206Y02652*
X02208Y02657*
Y02663*
X02206Y02669*
X02202Y02673*
X02196Y02675*
X02191*
X02185Y02673*
X02181Y02669*
X02179Y02663*
Y02657*
X02181Y02652*
X02185Y02648*
X02185Y02648*
X02184Y02644*
X0Y02649*
Y05859*
X05385*
Y03712*
G37*
%LNmdriver2_control-2*%
%LPC*%
G36*
X05102Y03392D02*
X05096D01*
X05091Y0339*
X05086Y03386*
X05084Y0338*
Y03374*
X05086Y03369*
X05091Y03365*
X05096Y03362*
X05102*
X05107Y03365*
X05112Y03369*
X05114Y03374*
Y0338*
X05112Y03386*
X05107Y0339*
X05102Y03392*
G37*
G36*
X04943Y03369D02*
X04937D01*
X04932Y03367*
X04927Y03363*
X04925Y03357*
Y03351*
X04927Y03346*
X04932Y03342*
X04937Y0334*
X04943*
X04948Y03342*
X04953Y03346*
X04955Y03351*
Y03357*
X04953Y03363*
X04948Y03367*
X04943Y03369*
G37*
G36*
X05146Y03345D02*
X0514D01*
X05134Y03343*
X0513Y03339*
X05128Y03333*
Y03327*
X0513Y03322*
X05134Y03318*
X0514Y03315*
X05146*
X05151Y03318*
X05155Y03322*
X05158Y03327*
Y03333*
X05155Y03339*
X05151Y03343*
X05146Y03345*
G37*
G36*
X04904Y03329D02*
X04898D01*
X04893Y03326*
X04889Y03322*
X04886Y03317*
Y03311*
X04889Y03305*
X04893Y03301*
X04898Y03299*
X04904*
X0491Y03301*
X04914Y03305*
X04916Y03311*
Y03317*
X04914Y03322*
X0491Y03326*
X04904Y03329*
G37*
G36*
X04865D02*
X04859D01*
X04853Y03326*
X04849Y03322*
X04847Y03317*
Y03311*
X04849Y03305*
X04853Y03301*
X04859Y03299*
X04865*
X0487Y03301*
X04874Y03305*
X04877Y03311*
Y03317*
X04874Y03322*
X0487Y03326*
X04865Y03329*
G37*
G36*
X04985Y03323D02*
X04979D01*
X04973Y03321*
X04969Y03317*
X04967Y03311*
Y03306*
X04969Y033*
X04973Y03296*
X04979Y03294*
X04985*
X0499Y03296*
X04994Y033*
X04996Y03306*
Y03311*
X04994Y03317*
X0499Y03321*
X04985Y03323*
G37*
G36*
X04885Y03299D02*
X04879D01*
X04873Y03297*
X04869Y03293*
X04867Y03287*
Y03281*
X04869Y03276*
X04873Y03272*
X04879Y03269*
X04885*
X0489Y03272*
X04894Y03276*
X04896Y03281*
Y03287*
X04894Y03293*
X0489Y03297*
X04885Y03299*
G37*
G36*
X05076Y03286D02*
X0507D01*
X05064Y03284*
X0506Y03279*
X05058Y03274*
Y03268*
X0506Y03263*
X05064Y03258*
X0507Y03256*
X05076*
X05081Y03258*
X05085Y03263*
X05088Y03268*
Y03274*
X05085Y03279*
X05081Y03284*
X05076Y03286*
G37*
G36*
X04904Y0327D02*
X04898D01*
X04893Y03267*
X04889Y03263*
X04886Y03258*
Y03252*
X04889Y03246*
X04893Y03242*
X04898Y0324*
X04904*
X0491Y03242*
X04914Y03246*
X04916Y03252*
Y03258*
X04914Y03263*
X0491Y03267*
X04904Y0327*
G37*
G36*
X04865D02*
X04859D01*
X04853Y03267*
X04849Y03263*
X04847Y03258*
Y03252*
X04849Y03246*
X04853Y03242*
X04859Y0324*
X04865*
X0487Y03242*
X04874Y03246*
X04877Y03252*
Y03258*
X04874Y03263*
X0487Y03267*
X04865Y0327*
G37*
G36*
X04946Y03234D02*
X0494D01*
X04934Y03231*
X0493Y03227*
X04928Y03222*
Y03216*
X0493Y0321*
X04934Y03206*
X0494Y03204*
X04946*
X04951Y03206*
X04955Y0321*
X04958Y03216*
Y03222*
X04955Y03227*
X04951Y03231*
X04946Y03234*
G37*
G36*
X04912Y03174D02*
X04906D01*
X049Y03171*
X04896Y03167*
X04894Y03162*
Y03156*
X04896Y0315*
X049Y03146*
X04906Y03144*
X04912*
X04917Y03146*
X04921Y0315*
X04924Y03156*
Y03162*
X04921Y03167*
X04917Y03171*
X04912Y03174*
G37*
G36*
X05109Y03142D02*
X05104D01*
X05098Y0314*
X05094Y03136*
X05092Y0313*
Y03124*
X05094Y03119*
X05098Y03115*
X05104Y03112*
X05109*
X05115Y03115*
X05119Y03119*
X05121Y03124*
Y0313*
X05119Y03136*
X05115Y0314*
X05109Y03142*
G37*
G36*
X02201Y02616D02*
X02195D01*
X0219Y02614*
X02185Y0261*
X02183Y02604*
Y02598*
X02185Y02593*
X0219Y02589*
X02195Y02586*
X02201*
X02206Y02589*
X02211Y02593*
X02213Y02598*
Y02604*
X02211Y0261*
X02206Y02614*
X02201Y02616*
G37*
G36*
X01702Y02587D02*
X01697D01*
X01691Y02584*
X01687Y0258*
X01687Y0258*
X01683*
X01683Y0258*
X01678Y02584*
X01673Y02587*
X01667*
X01662Y02584*
X01657Y0258*
X01657Y0258*
X01653*
X01653Y0258*
X01649Y02584*
X01643Y02587*
X01638*
X01632Y02584*
X01628Y0258*
X01626Y02575*
Y02569*
X01628Y02563*
X01632Y02559*
X01638Y02557*
X01643*
X01649Y02559*
X01653Y02563*
X01653Y02564*
X01657*
X01657Y02563*
X01662Y02559*
X01667Y02557*
X01673*
X01678Y02559*
X01683Y02563*
X01683Y02564*
X01687*
X01687Y02564*
X01687Y02563*
X01687Y02563*
X01689Y02561*
X01688Y02557*
X01687*
X01681Y02555*
X01677Y02551*
X01675Y02545*
Y02539*
X01677Y02534*
X01681Y0253*
X01682Y02529*
Y02525*
X01681Y02525*
X01677Y02521*
X01675Y02516*
Y0251*
X01677Y02504*
X01681Y025*
X01687Y02498*
X01693*
X01698Y025*
X01702Y02504*
X01705Y0251*
Y02516*
X01702Y02521*
X01698Y02525*
X01698Y02525*
Y02529*
X01698Y0253*
X01702Y02534*
X01705Y02539*
Y02545*
X01702Y02551*
X017Y02553*
X01702Y02557*
X01702*
X01708Y02559*
X01712Y02563*
X01714Y02569*
Y02575*
X01712Y0258*
X01708Y02584*
X01702Y02587*
G37*
G36*
X02015Y02566D02*
X02009D01*
X02004Y02564*
X02Y02559*
X01998Y02554*
Y02548*
X02Y02543*
X02004Y02538*
X02009Y02536*
X02015*
X02021Y02538*
X02025Y02543*
X02027Y02548*
Y02554*
X02025Y02559*
X02021Y02564*
X02015Y02566*
G37*
G36*
X02192Y02566D02*
X02186D01*
X02181Y02563*
X02177Y02559*
X02175Y02554*
Y02548*
X02177Y02543*
X02181Y02538*
X02186Y02536*
X02192*
X02198Y02538*
X02202Y02543*
X02204Y02548*
Y02554*
X02202Y02559*
X02198Y02563*
X02192Y02566*
G37*
G36*
X01388Y02566D02*
X01379D01*
X0137Y02563*
X01362Y02559*
X01355Y02552*
X01351Y02544*
X01348Y02535*
Y02526*
X01351Y02517*
X01355Y02509*
X01362Y02503*
X0137Y02498*
X01379Y02496*
X01388*
X01397Y02498*
X01405Y02503*
X01411Y02509*
X01416Y02517*
X01418Y02526*
Y02535*
X01416Y02544*
X01411Y02552*
X01405Y02559*
X01397Y02563*
X01388Y02566*
G37*
G36*
X01707Y02495D02*
X01701D01*
X01696Y02493*
X01692Y02489*
X01692Y02488*
X01688*
X01687Y02489*
X01683Y02493*
X01678Y02495*
X01672*
X01666Y02493*
X01662Y02489*
X01662Y02488*
X01658*
X01658Y02489*
X01654Y02493*
X01648Y02495*
X01642*
X01637Y02493*
X01633Y02489*
X0163Y02483*
Y02477*
X01633Y02472*
X01635Y0247*
X01634Y02465*
X01632Y02464*
X01627Y0246*
X01625Y02454*
Y02448*
X01627Y02443*
X01632Y02439*
X01637Y02436*
X01643*
X01648Y02439*
X01652Y02443*
X01653Y02443*
X01657*
X01657Y02443*
X01661Y02439*
X01666Y02436*
X01672*
X01678Y02439*
X01682Y02443*
X01682Y02443*
X01686*
X01686Y02443*
X01691Y02439*
X01696Y02436*
X01702*
X01707Y02439*
X01712Y02443*
X01714Y02448*
Y02454*
X01712Y0246*
X01709Y02462*
X0171Y02467*
X01713Y02468*
X01717Y02472*
X01719Y02477*
Y02483*
X01717Y02489*
X01713Y02493*
X01707Y02495*
G37*
G36*
X02197Y02517D02*
X02191D01*
X02186Y02515*
X02181Y02511*
X02179Y02505*
Y02499*
X02181Y02494*
X02186Y0249*
X02191Y02487*
X02197*
X02202Y0249*
X02207Y02494*
X02209Y02499*
Y02505*
X02207Y02511*
X02202Y02515*
X02197Y02517*
G37*
G36*
X00744Y02509D02*
X00739D01*
X00733Y02507*
X00729Y02503*
X00727Y02497*
Y02491*
X00729Y02486*
X00733Y02482*
X00739Y0248*
X00744*
X0075Y02482*
X00754Y02486*
X00756Y02491*
Y02497*
X00754Y02503*
X0075Y02507*
X00744Y02509*
G37*
G36*
X02014Y02505D02*
X02008D01*
X02002Y02502*
X01998Y02498*
X01996Y02493*
Y02487*
X01998Y02481*
X02002Y02477*
X01998Y02473*
X01996Y02468*
Y02462*
X01998Y02456*
X02002Y02452*
X02008Y0245*
X02014*
X02019Y02452*
X02023Y02456*
X02026Y02462*
Y02468*
X02023Y02473*
X02019Y02477*
X02023Y02481*
X02026Y02487*
Y02493*
X02023Y02498*
X02019Y02502*
X02014Y02505*
G37*
G36*
X02192Y02476D02*
X02186D01*
X02181Y02473*
X02177Y02469*
X02174Y02464*
Y02458*
X02177Y02452*
X02181Y02448*
X02186Y02446*
X02192*
X02198Y02448*
X02202Y02452*
X02204Y02458*
Y02464*
X02202Y02469*
X02198Y02473*
X02192Y02476*
G37*
G36*
X02231Y02468D02*
X02225D01*
X02219Y02466*
X02215Y02461*
X02213Y02456*
Y0245*
X02215Y02445*
X02219Y0244*
X02225Y02438*
X02231*
X02236Y0244*
X0224Y02445*
X02242Y0245*
Y02456*
X0224Y02461*
X02236Y02466*
X02231Y02468*
G37*
G36*
X02386Y02475D02*
X02381D01*
X02375Y02473*
X02371Y02468*
X02369Y02463*
Y02457*
X0237Y02454*
X02366Y02452*
X02362Y02448*
X0236Y02443*
Y02437*
X02362Y02431*
X02364Y02429*
X02364Y02428*
X02362Y02422*
Y02417*
X02364Y02411*
X02368Y02407*
X02373Y02405*
X02379*
X02385Y02407*
X02389Y02411*
X02391Y02417*
Y02422*
X02389Y02428*
X02386Y02431*
X02387Y02431*
X02389Y02437*
Y02443*
X02388Y02446*
X02392Y02447*
X02396Y02452*
X02398Y02457*
Y02463*
X02396Y02468*
X02392Y02473*
X02386Y02475*
G37*
G36*
X00191Y02428D02*
X00185D01*
X0018Y02425*
X00176Y02421*
X00173Y02416*
Y0241*
X00176Y02404*
X0018Y024*
X00185Y02398*
X00191*
X00197Y024*
X00201Y02404*
X00203Y0241*
Y02416*
X00201Y02421*
X00197Y02425*
X00191Y02428*
G37*
G36*
X02104Y02418D02*
X02098D01*
X02093Y02415*
X02089Y02411*
X02087Y02406*
Y024*
X02089Y02394*
X02093Y0239*
X02098Y02388*
X02104*
X0211Y0239*
X02114Y02394*
X02116Y024*
Y02406*
X02114Y02411*
X0211Y02415*
X02104Y02418*
G37*
G36*
X00573Y02409D02*
X00568D01*
X00562Y02407*
X00558Y02403*
X00556Y02397*
Y02391*
X00558Y02386*
X00562Y02382*
X00568Y0238*
X00573*
X00579Y02382*
X00583Y02386*
X00585Y02391*
Y02397*
X00583Y02403*
X00579Y02407*
X00573Y02409*
G37*
G36*
X02194Y02426D02*
X02188D01*
X02182Y02424*
X02178Y0242*
X02176Y02414*
Y02409*
X02178Y02403*
X02182Y02399*
X02179Y02396*
X02177Y02391*
Y02385*
X02179Y0238*
X02183Y02375*
X02189Y02373*
X02194*
X022Y02375*
X02204Y0238*
X02206Y02385*
Y02391*
X02204Y02396*
X022Y024*
X02203Y02403*
X02205Y02409*
Y02414*
X02203Y0242*
X02199Y02424*
X02194Y02426*
G37*
G36*
X02407Y02391D02*
X02401D01*
X02396Y02389*
X02391Y02385*
X02389Y02379*
Y02373*
X02391Y02368*
X02396Y02364*
X02401Y02362*
X02407*
X02412Y02364*
X02417Y02368*
X02419Y02373*
Y02379*
X02417Y02385*
X02412Y02389*
X02407Y02391*
G37*
G36*
X02015Y02407D02*
X02009D01*
X02004Y02404*
X02Y024*
X01998Y02395*
Y02389*
X02Y02383*
X02001Y02382*
X02001Y02377*
X01999Y02375*
X01997Y0237*
Y02364*
X01999Y02358*
X02003Y02354*
X02008Y02352*
X02014*
X0202Y02354*
X02024Y02358*
X02026Y02364*
Y0237*
X02024Y02375*
X02023Y02376*
X02023Y02382*
X02025Y02383*
X02027Y02389*
Y02395*
X02025Y024*
X02021Y02404*
X02015Y02407*
G37*
G36*
X0044Y02372D02*
X00434D01*
X00429Y0237*
X00425Y02366*
X00422Y02361*
Y02355*
X00425Y02349*
X00429Y02345*
X00434Y02343*
X0044*
X00446Y02345*
X0045Y02349*
X00452Y02355*
Y02361*
X0045Y02366*
X00446Y0237*
X0044Y02372*
G37*
G36*
X02104Y02369D02*
X02098D01*
X02093Y02366*
X02089Y02362*
X02087Y02357*
Y02351*
X02089Y02345*
X02093Y02341*
X02098Y02339*
X02104*
X0211Y02341*
X02114Y02345*
X02116Y02351*
Y02357*
X02114Y02362*
X0211Y02366*
X02104Y02369*
G37*
G36*
X02196Y02358D02*
X0219D01*
X02185Y02356*
X02181Y02352*
X02178Y02347*
Y02341*
X02181Y02335*
X02185Y02331*
X0219Y02329*
X02196*
X02202Y02331*
X02206Y02335*
X02208Y02341*
Y02347*
X02206Y02352*
X02202Y02356*
X02196Y02358*
G37*
G36*
X02383Y02352D02*
X02377D01*
X02372Y0235*
X02368Y02346*
X02365Y0234*
Y02334*
X02368Y02329*
X02372Y02325*
X02377Y02322*
X02383*
X02389Y02325*
X02393Y02329*
X02395Y02334*
Y0234*
X02393Y02346*
X02389Y0235*
X02383Y02352*
G37*
G36*
X02232Y02336D02*
X02226D01*
X02221Y02334*
X02217Y0233*
X02214Y02324*
Y02318*
X02217Y02313*
X02221Y02309*
X02226Y02306*
X02232*
X02238Y02309*
X02242Y02313*
X02244Y02318*
Y02324*
X02242Y0233*
X02238Y02334*
X02232Y02336*
G37*
G36*
X02269Y02336D02*
X02263D01*
X02258Y02333*
X02253Y02329*
X02251Y02324*
Y02318*
X02253Y02312*
X02258Y02308*
X02263Y02306*
X02269*
X02274Y02308*
X02279Y02312*
X02281Y02318*
Y02324*
X02279Y02329*
X02274Y02333*
X02269Y02336*
G37*
G36*
X00361Y02309D02*
X00356D01*
X0035Y02307*
X00346Y02303*
X00344Y02297*
Y02291*
X00346Y02286*
X0035Y02282*
X00356Y0228*
X00361*
X00367Y02282*
X00371Y02286*
X00373Y02291*
Y02297*
X00371Y02303*
X00367Y02307*
X00361Y02309*
G37*
G36*
X00737Y02308D02*
X00731D01*
X00725Y02306*
X00721Y02302*
X00719Y02297*
Y02291*
X00721Y02285*
X00725Y02281*
X00731Y02279*
X00737*
X00742Y02281*
X00746Y02285*
X00748Y02291*
Y02297*
X00746Y02302*
X00742Y02306*
X00737Y02308*
G37*
G36*
X02192Y02308D02*
X02186D01*
X0218Y02306*
X02176Y02302*
X02174Y02296*
Y0229*
X02176Y02285*
X0218Y02281*
X02186Y02278*
X02192*
X02197Y02281*
X02201Y02285*
X02204Y0229*
Y02296*
X02201Y02302*
X02197Y02306*
X02192Y02308*
G37*
G36*
X02013Y02307D02*
X02007D01*
X02001Y02305*
X01997Y02301*
X01995Y02295*
Y02289*
X01997Y02284*
X02001Y0228*
X01997Y02276*
X01995Y0227*
Y02264*
X01997Y02259*
X02001Y02255*
X02007Y02253*
X02013*
X02018Y02255*
X02022Y02259*
X02024Y02264*
Y0227*
X02022Y02276*
X02018Y0228*
X02022Y02284*
X02024Y02289*
Y02295*
X02022Y02301*
X02018Y02305*
X02013Y02307*
G37*
G36*
X02197Y02271D02*
X02191D01*
X02186Y02269*
X02181Y02265*
X02179Y02259*
Y02253*
X02181Y02248*
X02186Y02244*
X02191Y02241*
X02197*
X02202Y02244*
X02207Y02248*
X02209Y02253*
Y02259*
X02207Y02265*
X02202Y02269*
X02197Y02271*
G37*
G36*
X02645Y02224D02*
X02639D01*
X02634Y02222*
X02629Y02218*
X02629Y02216*
X02625Y02214*
X0262Y02216*
X02614*
X02608Y02214*
X02604Y02209*
X02602Y02204*
Y02198*
X02604Y02193*
X02608Y02188*
X02614Y02186*
X0262*
X02625Y02188*
X02629Y02193*
X0263Y02195*
X02634Y02197*
X02639Y02195*
X02645*
X0265Y02197*
X02655Y02201*
X02657Y02206*
Y02212*
X02655Y02218*
X0265Y02222*
X02645Y02224*
G37*
G36*
X0256Y02237D02*
X02554D01*
X02549Y02235*
X02544Y02231*
X02542Y02225*
Y02219*
X02544Y02216*
X02541Y02212*
X0254Y02213*
X02536*
X02536Y02214*
Y02219*
X02533Y02225*
X02529Y02229*
X02524Y02231*
X02518*
X02512Y02229*
X02508Y02225*
X02506Y02219*
Y02216*
X02503Y02213*
X02502Y02213*
X02497*
X02491Y02211*
X02487Y02207*
X02485Y02201*
Y02195*
X02487Y0219*
X02491Y02186*
X02497Y02183*
X02503*
X02508Y02186*
X02512Y0219*
X02514Y02195*
Y02199*
X02518Y02202*
X02522Y02201*
X02522Y02201*
Y02195*
X02524Y0219*
X02528Y02185*
X02534Y02183*
X0254*
X02545Y02185*
X02549Y0219*
X02552Y02195*
Y02201*
X0255Y02205*
X02553Y02208*
X02554Y02207*
X0256*
X02565Y0221*
X0257Y02214*
X02572Y02219*
Y02225*
X0257Y02231*
X02565Y02235*
X0256Y02237*
G37*
G36*
X02195Y0222D02*
X02189D01*
X02184Y02218*
X0218Y02214*
X02178Y02208*
Y02202*
X0218Y02197*
X02184Y02193*
X02189Y02191*
X02195*
X02201Y02193*
X02205Y02197*
X02207Y02202*
Y02208*
X02205Y02214*
X02201Y02218*
X02195Y0222*
G37*
G36*
X02016Y0221D02*
X0201D01*
X02004Y02207*
X02Y02203*
X01998Y02198*
Y02192*
X02Y02186*
X02004Y02182*
X02Y02178*
X01998Y02173*
Y02167*
X02Y02161*
X02004Y02157*
X0201Y02155*
X02016*
X02021Y02157*
X02025Y02161*
X02028Y02167*
Y02173*
X02025Y02178*
X02021Y02182*
X02025Y02186*
X02028Y02192*
Y02198*
X02025Y02203*
X02021Y02207*
X02016Y0221*
G37*
G36*
X02194Y02172D02*
X02188D01*
X02183Y0217*
X02179Y02165*
X02176Y0216*
Y02154*
X02179Y02149*
X02183Y02144*
X02188Y02142*
X02194*
X022Y02144*
X02204Y02149*
X02206Y02154*
Y0216*
X02204Y02165*
X022Y0217*
X02194Y02172*
G37*
G36*
X02195Y02123D02*
X02189D01*
X02183Y02121*
X02179Y02117*
X02177Y02111*
Y02105*
X02179Y021*
X02183Y02096*
X02189Y02093*
X02195*
X022Y02096*
X02204Y021*
X02207Y02105*
Y02111*
X02204Y02117*
X022Y02121*
X02195Y02123*
G37*
G36*
X02239Y02113D02*
X02233D01*
X02227Y0211*
X02223Y02106*
X02221Y02101*
Y02095*
X02223Y02089*
X02227Y02085*
X02233Y02083*
X02239*
X02244Y02085*
X02248Y02089*
X0225Y02095*
Y02101*
X02248Y02106*
X02244Y0211*
X02239Y02113*
G37*
G36*
X01294D02*
X01288D01*
X01282Y0211*
X01278Y02106*
X01276Y02101*
Y02095*
X01278Y02089*
X01282Y02085*
X01288Y02083*
X01294*
X01299Y02085*
X01303Y02089*
X01306Y02095*
Y02101*
X01303Y02106*
X01299Y0211*
X01294Y02113*
G37*
G36*
X00979D02*
X00973D01*
X00967Y0211*
X00963Y02106*
X00961Y02101*
Y02095*
X00963Y02089*
X00967Y02085*
X00973Y02083*
X00979*
X00984Y02085*
X00988Y02089*
X00991Y02095*
Y02101*
X00988Y02106*
X00984Y0211*
X00979Y02113*
G37*
G36*
X00664D02*
X00658D01*
X00652Y0211*
X00648Y02106*
X00646Y02101*
Y02095*
X00648Y02089*
X00652Y02085*
X00658Y02083*
X00664*
X00669Y02085*
X00673Y02089*
X00676Y02095*
Y02101*
X00673Y02106*
X00669Y0211*
X00664Y02113*
G37*
G36*
X00349D02*
X00343D01*
X00337Y0211*
X00333Y02106*
X00331Y02101*
Y02095*
X00333Y02089*
X00337Y02085*
X00343Y02083*
X00349*
X00354Y02085*
X00358Y02089*
X00361Y02095*
Y02101*
X00358Y02106*
X00354Y0211*
X00349Y02113*
G37*
G36*
X00034D02*
X00028D01*
X00022Y0211*
X00018Y02106*
X00016Y02101*
Y02095*
X00018Y02089*
X00022Y02085*
X00028Y02083*
X00034*
X00039Y02085*
X00043Y02089*
X00046Y02095*
Y02101*
X00043Y02106*
X00039Y0211*
X00034Y02113*
G37*
G36*
X02485Y02109D02*
X02479D01*
X02474Y02106*
X02469Y02102*
X02467Y02097*
Y02091*
X02469Y02085*
X02474Y02081*
X02479Y02079*
X02485*
X0249Y02081*
X02495Y02085*
X02497Y02091*
Y02097*
X02495Y02102*
X0249Y02106*
X02485Y02109*
G37*
G36*
X02513Y0208D02*
X02507D01*
X02501Y02078*
X02497Y02073*
X02495Y02068*
Y02062*
X02497Y02057*
X02501Y02052*
X02507Y0205*
X02513*
X02518Y02052*
X02522Y02057*
X02525Y02062*
Y02068*
X02522Y02073*
X02518Y02078*
X02513Y0208*
G37*
G36*
X02318Y02078D02*
X02312D01*
X02306Y02076*
X02302Y02072*
X023Y02066*
Y0206*
X02302Y02055*
X02306Y02051*
X02312Y02049*
X02318*
X02323Y02051*
X02327Y02055*
X02329Y0206*
Y02066*
X02327Y02072*
X02323Y02076*
X02318Y02078*
G37*
G36*
X02464Y02078D02*
X02458D01*
X02453Y02075*
X02449Y02071*
X02447Y02066*
Y0206*
X02449Y02054*
X02453Y0205*
X02458Y02048*
X02464*
X0247Y0205*
X02474Y02054*
X02476Y0206*
Y02066*
X02474Y02071*
X0247Y02075*
X02464Y02078*
G37*
G36*
X02417Y02077D02*
X02411D01*
X02405Y02074*
X02401Y0207*
X02399Y02065*
Y02059*
X02401Y02053*
X02405Y02049*
X02411Y02047*
X02417*
X02422Y02049*
X02426Y02053*
X02429Y02059*
Y02065*
X02426Y0207*
X02422Y02074*
X02417Y02077*
G37*
G36*
X02366Y02077D02*
X02361D01*
X02355Y02074*
X02351Y0207*
X02349Y02065*
Y02059*
X02351Y02053*
X02355Y02049*
X02361Y02047*
X02366*
X02372Y02049*
X02376Y02053*
X02378Y02059*
Y02065*
X02376Y0207*
X02372Y02074*
X02366Y02077*
G37*
G36*
X00696Y0201D02*
X0069D01*
X00685Y02008*
X00683Y02006*
X0068Y02004*
X00677Y02006*
X00675Y02008*
X0067Y0201*
X00664*
X00659Y02008*
X00654Y02003*
X00652Y01998*
Y01992*
X00654Y01987*
X00659Y01982*
X00664Y0198*
X0067*
X00675Y01982*
X00677Y01984*
X0068Y01986*
X00683Y01984*
X00685Y01982*
X0069Y0198*
X00696*
X00701Y01982*
X00706Y01987*
X00708Y01992*
Y01998*
X00706Y02003*
X00701Y02008*
X00696Y0201*
G37*
G36*
X02549Y02032D02*
X02543D01*
X02538Y0203*
X02534Y02025*
X02531Y0202*
Y02014*
X02534Y02009*
X02538Y02004*
X02543Y02002*
X02549*
X02555Y02004*
X02559Y02009*
X02561Y02014*
Y0202*
X02559Y02025*
X02555Y0203*
X02549Y02032*
G37*
G36*
X02583Y02026D02*
X02577D01*
X02572Y02024*
X02567Y0202*
X02565Y02014*
Y02008*
X02567Y02003*
X02572Y01999*
X02577Y01996*
X02583*
X02588Y01999*
X02593Y02003*
X02595Y02008*
Y02014*
X02593Y0202*
X02588Y02024*
X02583Y02026*
G37*
G36*
X02632Y02034D02*
X02626D01*
X02621Y02032*
X02617Y02028*
X02615Y02022*
Y02016*
X02617Y02011*
X0262Y02008*
X02616Y02004*
X02614Y01998*
Y01993*
X02616Y01987*
X0262Y01983*
X02626Y01981*
X02632*
X02637Y01983*
X02641Y01987*
X02644Y01993*
Y01998*
X02641Y02004*
X02638Y02007*
X02642Y02011*
X02644Y02016*
Y02022*
X02642Y02028*
X02638Y02032*
X02632Y02034*
G37*
G36*
X0268Y02008D02*
X02674D01*
X02668Y02006*
X02664Y02002*
X02662Y01996*
Y0199*
X02664Y01985*
X02668Y01981*
X02674Y01978*
X0268*
X02685Y01981*
X02689Y01985*
X02692Y0199*
Y01996*
X02689Y02002*
X02685Y02006*
X0268Y02008*
G37*
G36*
X00157Y02142D02*
X00141D01*
X00125Y02139*
X00109Y02133*
X00096Y02123*
X00084Y02112*
X00075Y02098*
X00068Y02083*
X00065Y02067*
Y0205*
X00068Y02034*
X00075Y02019*
X00084Y02005*
X00096Y01993*
X00109Y01984*
X00125Y01978*
X00141Y01975*
X00157*
X00173Y01978*
X00189Y01984*
X00202Y01993*
X00214Y02005*
X00223Y02019*
X00229Y02034*
X00233Y0205*
Y02067*
X00229Y02083*
X00223Y02098*
X00214Y02112*
X00202Y02123*
X00189Y02133*
X00173Y02139*
X00157Y02142*
G37*
G36*
X02107Y02012D02*
X02101D01*
X02096Y0201*
X02091Y02006*
X02089Y02001*
Y01995*
X02091Y01989*
X02096Y01985*
X02101Y01983*
X02107*
Y01977*
X02109Y01971*
X02113Y01967*
X02119Y01965*
X02125*
X0213Y01967*
X02134Y01971*
X02137Y01977*
Y01983*
X02134Y01988*
X0213Y01992*
X02125Y01995*
X02119*
Y02001*
X02117Y02006*
X02112Y0201*
X02107Y02012*
G37*
G36*
X02514Y01991D02*
X02508D01*
X02503Y01989*
X02499Y01985*
X02496Y01979*
Y01973*
X02499Y01968*
X02503Y01964*
X02508Y01962*
X02514*
X0252Y01964*
X02524Y01968*
X02526Y01973*
Y01979*
X02524Y01985*
X0252Y01989*
X02514Y01991*
G37*
G36*
X02583Y01944D02*
X02577D01*
X02572Y01942*
X02567Y01938*
X02565Y01932*
Y01926*
X02567Y01921*
X02572Y01917*
X02577Y01914*
X02583*
X02588Y01917*
X02593Y01921*
X02595Y01926*
Y01932*
X02593Y01938*
X02588Y01942*
X02583Y01944*
G37*
G36*
X02758Y01933D02*
X02752D01*
X02746Y01931*
X02742Y01927*
X0274Y01921*
Y01915*
X02742Y0191*
X02746Y01906*
X02752Y01903*
X02758*
X02763Y01906*
X02767Y0191*
X02769Y01915*
Y01921*
X02767Y01927*
X02763Y01931*
X02758Y01933*
G37*
G36*
X02402Y01909D02*
X02397D01*
X02391Y01907*
X02387Y01902*
X02383Y01907*
X02377Y01909*
X02372*
X02366Y01907*
X02362Y01902*
X0236Y01897*
Y01891*
X02362Y01886*
X02366Y01881*
X02372Y01879*
X02377*
X02383Y01881*
X02387Y01885*
X02391Y01881*
X02397Y01879*
X02402*
X02408Y01881*
X02412Y01886*
X02414Y01891*
Y01897*
X02412Y01902*
X02408Y01907*
X02402Y01909*
G37*
G36*
X02503Y01908D02*
X02497D01*
X02491Y01905*
X02489Y01903*
X02487Y01901*
X02483Y01903*
X02482Y01904*
X02477Y01906*
X02471*
X02465Y01904*
X02461Y019*
X02459Y01895*
Y01889*
X02461Y01883*
X02465Y01879*
X02471Y01877*
X02477*
X02482Y01879*
X02485Y01881*
X02486Y01883*
X0249Y01881*
X02491Y0188*
X02497Y01878*
X02503*
X02508Y0188*
X02512Y01884*
X02514Y0189*
Y01896*
X02512Y01901*
X02508Y01905*
X02503Y01908*
G37*
G36*
X02632Y01925D02*
X02626D01*
X02621Y01922*
X02617Y01918*
X02614Y01913*
Y01907*
X02617Y01901*
X02621Y01897*
X02626Y01895*
X02632*
X02638Y01897*
X02642Y01901*
X02644Y01907*
Y01913*
X02642Y01918*
X02638Y01922*
X02632Y01925*
G37*
G36*
X01484Y01856D02*
X01478D01*
X01472Y01854*
X01468Y01849*
X01464Y01854*
X01459Y01856*
X01453*
X01447Y01854*
X01443Y01849*
X01441Y01844*
Y01838*
X01443Y01833*
X01447Y01828*
X01453Y01826*
X01459*
X01464Y01828*
X01468Y01833*
X01472Y01828*
X01478Y01826*
X01484*
X01489Y01828*
X01493Y01833*
X01496Y01838*
Y01844*
X01493Y01849*
X01489Y01854*
X01484Y01856*
G37*
G36*
X02718Y01843D02*
X02712D01*
X02706Y0184*
X02702Y01836*
X02699Y01838*
X02698Y0184*
X02692Y01842*
X02686*
X02681Y0184*
X02677Y01835*
X02674Y0183*
Y01824*
X02677Y01819*
X02681Y01814*
X02686Y01812*
X02692*
X02698Y01814*
X02702Y01819*
X02705Y01817*
X02706Y01815*
X02712Y01813*
X02718*
X02723Y01815*
X02727Y0182*
X0273Y01825*
Y01831*
X02727Y01836*
X02723Y0184*
X02718Y01843*
G37*
G36*
X02619Y01842D02*
X02613D01*
X02608Y0184*
X02604Y01836*
X02604Y01836*
X026Y0184*
X02594Y01842*
X02588*
X02583Y0184*
X02579Y01836*
X02577Y0183*
Y01824*
X02579Y01819*
X02583Y01815*
X02588Y01812*
X02594*
X026Y01815*
X02604Y01819*
X02604Y01819*
X02608Y01815*
X02613Y01812*
X02619*
X02625Y01815*
X02629Y01819*
X02631Y01824*
Y0183*
X02629Y01836*
X02625Y0184*
X02619Y01842*
G37*
G36*
X00758Y01862D02*
X00752D01*
X00747Y01859*
X00743Y01855*
X00741Y0185*
Y01844*
X00743Y01838*
X00747Y01834*
X00752Y01832*
X00758*
X00764Y01834*
X00768Y01838*
X0077Y01844*
Y0185*
X00768Y01855*
X00764Y01859*
X00758Y01862*
G37*
G36*
X00808Y01861D02*
X00802D01*
X00797Y01859*
X00793Y01854*
X00791Y01849*
Y01843*
X00793Y01838*
X00797Y01833*
X00802Y01831*
X00808*
X00814Y01833*
X00818Y01838*
X0082Y01843*
Y01849*
X00818Y01854*
X00814Y01859*
X00808Y01861*
G37*
G36*
X01396Y01861D02*
X0139D01*
X01385Y01858*
X0138Y01854*
X01378Y01849*
Y01843*
X0138Y01837*
X01385Y01833*
X0139Y01831*
X01396*
X01401Y01833*
X01406Y01837*
X01408Y01843*
Y01849*
X01406Y01854*
X01401Y01858*
X01396Y01861*
G37*
G36*
X00858Y0186D02*
X00852D01*
X00847Y01858*
X00843Y01854*
X00841Y01848*
Y01843*
X00843Y01837*
X00847Y01833*
X00852Y01831*
X00858*
X00864Y01833*
X00868Y01837*
X0087Y01843*
Y01848*
X00868Y01854*
X00864Y01858*
X00858Y0186*
G37*
G36*
X02778Y01855D02*
X02772D01*
X02767Y01853*
X02762Y01849*
X0276Y01843*
Y01837*
X02762Y01832*
X02767Y01828*
X02772Y01826*
X02778*
X02783Y01828*
X02788Y01832*
X0279Y01837*
Y01843*
X02788Y01849*
X02783Y01853*
X02778Y01855*
G37*
G36*
X01545Y01855D02*
X01539D01*
X01534Y01852*
X0153Y01848*
X01527Y01843*
Y01837*
X0153Y01831*
X01534Y01827*
X01539Y01825*
X01545*
X01551Y01827*
X01555Y01831*
X01557Y01837*
Y01843*
X01555Y01848*
X01551Y01852*
X01545Y01855*
G37*
G36*
X01595Y01854D02*
X01589D01*
X01584Y01852*
X0158Y01848*
X01577Y01842*
Y01836*
X0158Y01831*
X01584Y01827*
X01589Y01824*
X01595*
X01601Y01827*
X01605Y01831*
X01607Y01836*
Y01842*
X01605Y01848*
X01601Y01852*
X01595Y01854*
G37*
G36*
X01645Y01853D02*
X01639D01*
X01634Y01851*
X0163Y01847*
X01627Y01842*
Y01836*
X0163Y0183*
X01634Y01826*
X01639Y01824*
X01645*
X01651Y01826*
X01655Y0183*
X01657Y01836*
Y01842*
X01655Y01847*
X01651Y01851*
X01645Y01853*
G37*
G36*
X00606Y0184D02*
X006D01*
X00594Y01838*
X0059Y01834*
X00588Y01828*
Y01822*
X0059Y01817*
X00594Y01813*
X006Y0181*
X00606*
X00611Y01813*
X00615Y01817*
X00618Y01822*
Y01828*
X00615Y01834*
X00611Y01838*
X00606Y0184*
G37*
G36*
X01766Y01798D02*
X0176D01*
X01755Y01795*
X01751Y01791*
X01748Y01786*
Y0178*
X01751Y01774*
X01755Y0177*
X0176Y01768*
X01766*
X01772Y0177*
X01776Y01774*
X01778Y0178*
Y01786*
X01776Y01791*
X01772Y01795*
X01766Y01798*
G37*
G36*
X01451D02*
X01445D01*
X0144Y01795*
X01436Y01791*
X01433Y01786*
Y0178*
X01436Y01774*
X0144Y0177*
X01445Y01768*
X01451*
X01457Y0177*
X01461Y01774*
X01463Y0178*
Y01786*
X01461Y01791*
X01457Y01795*
X01451Y01798*
G37*
G36*
X00191D02*
X00185D01*
X0018Y01795*
X00176Y01791*
X00173Y01786*
Y0178*
X00176Y01774*
X0018Y0177*
X00185Y01768*
X00191*
X00197Y0177*
X00201Y01774*
X00203Y0178*
Y01786*
X00201Y01791*
X00197Y01795*
X00191Y01798*
G37*
G36*
X02264Y01718D02*
X02258D01*
X02253Y01716*
X02249Y01711*
X02246Y01706*
Y017*
X02249Y01695*
X02253Y01691*
X02258Y01688*
X02264*
X0227Y01691*
X02274Y01695*
X02276Y017*
Y01706*
X02274Y01711*
X0227Y01716*
X02264Y01718*
G37*
G36*
X02138Y0169D02*
X02132D01*
X02127Y01687*
X02123Y01683*
X0212Y01678*
Y01672*
X02123Y01666*
X02127Y01662*
X02132Y0166*
X02138*
X02144Y01662*
X02148Y01666*
X0215Y01672*
Y01678*
X02148Y01683*
X02144Y01687*
X02138Y0169*
G37*
G36*
X02047Y01679D02*
X02041D01*
X02036Y01676*
X02032Y01672*
X02029Y01667*
Y01661*
X02032Y01655*
X02036Y01651*
X02041Y01649*
X02047*
X02053Y01651*
X02057Y01655*
X02059Y01661*
Y01667*
X02057Y01672*
X02053Y01676*
X02047Y01679*
G37*
G36*
X02537Y01637D02*
X02531D01*
X02526Y01634*
X02522Y0163*
X02519Y01625*
Y01619*
X02522Y01613*
X02526Y01609*
X02531Y01607*
X02537*
X02543Y01609*
X02547Y01613*
X02549Y01619*
Y01625*
X02547Y0163*
X02543Y01634*
X02537Y01637*
G37*
G36*
X02448Y01586D02*
X02442D01*
X02436Y01584*
X02432Y0158*
X0243Y01574*
Y01568*
X02432Y01563*
X02436Y01559*
X02442Y01557*
X02448*
X02453Y01559*
X02457Y01563*
X0246Y01568*
Y01574*
X02457Y0158*
X02453Y01584*
X02448Y01586*
G37*
G36*
X02462Y01528D02*
X02456D01*
X02451Y01526*
X02447Y01522*
X02444Y01516*
Y0151*
X02447Y01505*
X02451Y01501*
X02456Y01498*
X02462*
X02467Y01501*
X02472Y01505*
X02474Y0151*
Y01516*
X02472Y01522*
X02467Y01526*
X02462Y01528*
G37*
G36*
X01924Y01483D02*
X01918D01*
X01912Y0148*
X01908Y01476*
X01906Y01471*
Y01465*
X01908Y01459*
X01912Y01455*
X01918Y01453*
X01924*
X01929Y01455*
X01933Y01459*
X01935Y01465*
Y01471*
X01933Y01476*
X01929Y0148*
X01924Y01483*
G37*
G36*
X01294D02*
X01288D01*
X01282Y0148*
X01278Y01476*
X01276Y01471*
Y01465*
X01278Y01459*
X01282Y01455*
X01288Y01453*
X01294*
X01299Y01455*
X01303Y01459*
X01306Y01465*
Y01471*
X01303Y01476*
X01299Y0148*
X01294Y01483*
G37*
G36*
X00979D02*
X00973D01*
X00967Y0148*
X00963Y01476*
X00961Y01471*
Y01465*
X00963Y01459*
X00967Y01455*
X00973Y01453*
X00979*
X00984Y01455*
X00988Y01459*
X00991Y01465*
Y01471*
X00988Y01476*
X00984Y0148*
X00979Y01483*
G37*
G36*
X00664D02*
X00658D01*
X00652Y0148*
X00648Y01476*
X00646Y01471*
Y01465*
X00648Y01459*
X00652Y01455*
X00658Y01453*
X00664*
X00669Y01455*
X00673Y01459*
X00676Y01465*
Y01471*
X00673Y01476*
X00669Y0148*
X00664Y01483*
G37*
G36*
X00349D02*
X00343D01*
X00337Y0148*
X00333Y01476*
X00331Y01471*
Y01465*
X00333Y01459*
X00337Y01455*
X00343Y01453*
X00349*
X00354Y01455*
X00358Y01459*
X00361Y01465*
Y01471*
X00358Y01476*
X00354Y0148*
X00349Y01483*
G37*
G36*
X00034D02*
X00028D01*
X00022Y0148*
X00018Y01476*
X00016Y01471*
Y01465*
X00018Y01459*
X00022Y01455*
X00028Y01453*
X00034*
X00039Y01455*
X00043Y01459*
X00046Y01465*
Y01471*
X00043Y01476*
X00039Y0148*
X00034Y01483*
G37*
G36*
X02155Y01478D02*
X02149D01*
X02143Y01476*
X02139Y01472*
X02137Y01466*
Y0146*
X02139Y01455*
X02143Y01451*
X02149Y01448*
X02155*
X0216Y01451*
X02164Y01455*
X02167Y0146*
Y01466*
X02164Y01472*
X0216Y01476*
X02155Y01478*
G37*
G36*
X02342Y01428D02*
X02336D01*
X02331Y01426*
X02327Y01422*
X02324Y01416*
Y0141*
X02327Y01405*
X02331Y01401*
X02336Y01398*
X02342*
X02348Y01401*
X02352Y01405*
X02354Y0141*
Y01416*
X02352Y01422*
X02348Y01426*
X02342Y01428*
G37*
G36*
X02485Y0141D02*
X02479D01*
X02473Y01407*
X02469Y01403*
X02467Y01398*
Y01392*
X02469Y01387*
X02473Y01382*
X02479Y0138*
X02485*
X0249Y01382*
X02494Y01387*
X02496Y01392*
Y01398*
X02494Y01403*
X0249Y01407*
X02485Y0141*
G37*
G36*
X02097Y01393D02*
X02091D01*
X02085Y01391*
X02081Y01387*
X02079Y01382*
Y01376*
X02081Y0137*
X02085Y01366*
X02091Y01364*
X02097*
X02102Y01366*
X02106Y0137*
X02108Y01376*
Y01382*
X02106Y01387*
X02102Y01391*
X02097Y01393*
G37*
G36*
X02552Y01353D02*
X02547D01*
X02541Y01351*
X02537Y01347*
X02535Y01341*
Y01335*
X02537Y0133*
X02541Y01326*
X02547Y01323*
X02552*
X02558Y01326*
X02562Y0133*
X02564Y01335*
Y01341*
X02562Y01347*
X02558Y01351*
X02552Y01353*
G37*
G36*
X02711Y01168D02*
X02705D01*
X027Y01165*
X02695Y01161*
X02693Y01156*
Y0115*
X02695Y01144*
X027Y0114*
X02705Y01138*
X02711*
X02716Y0114*
X02721Y01144*
X02723Y0115*
Y01156*
X02721Y01161*
X02716Y01165*
X02711Y01168*
G37*
G36*
X02396D02*
X0239D01*
X02385Y01165*
X0238Y01161*
X02378Y01156*
Y0115*
X0238Y01144*
X02385Y0114*
X0239Y01138*
X02396*
X02401Y0114*
X02406Y01144*
X02408Y0115*
Y01156*
X02406Y01161*
X02401Y01165*
X02396Y01168*
G37*
G36*
X02081D02*
X02075D01*
X0207Y01165*
X02066Y01161*
X02063Y01156*
Y0115*
X02066Y01144*
X0207Y0114*
X02075Y01138*
X02081*
X02086Y0114*
X02091Y01144*
X02093Y0115*
Y01156*
X02091Y01161*
X02086Y01165*
X02081Y01168*
G37*
G36*
X01766D02*
X0176D01*
X01755Y01165*
X01751Y01161*
X01748Y01156*
Y0115*
X01751Y01144*
X01755Y0114*
X0176Y01138*
X01766*
X01772Y0114*
X01776Y01144*
X01778Y0115*
Y01156*
X01776Y01161*
X01772Y01165*
X01766Y01168*
G37*
G36*
X00191D02*
X00185D01*
X0018Y01165*
X00176Y01161*
X00173Y01156*
Y0115*
X00176Y01144*
X0018Y0114*
X00185Y01138*
X00191*
X00197Y0114*
X00201Y01144*
X00203Y0115*
Y01156*
X00201Y01161*
X00197Y01165*
X00191Y01168*
G37*
G36*
X02272Y01036D02*
X02267D01*
X02261Y01034*
X02259Y01032*
X02257Y0103*
X02254Y01032*
X02253Y01034*
X02247Y01036*
X02241*
X02236Y01034*
X02232Y0103*
X02229Y01024*
Y01018*
X02232Y01013*
X02236Y01009*
X02241Y01007*
X02247*
X02253Y01009*
X02254Y0101*
X02257Y01013*
X02259Y0101*
X02261Y01009*
X02267Y01007*
X02272*
X02278Y01009*
X02282Y01013*
X02284Y01018*
Y01024*
X02282Y0103*
X02278Y01034*
X02272Y01036*
G37*
G36*
X01485Y01036D02*
X01479D01*
X01474Y01034*
X0147Y0103*
X01465Y01034*
X0146Y01036*
X01454*
X01449Y01034*
X01444Y0103*
X01442Y01024*
Y01018*
X01444Y01013*
X01449Y01009*
X01454Y01006*
X0146*
X01465Y01009*
X0147Y01013*
X01474Y01009*
X01479Y01006*
X01485*
X0149Y01009*
X01495Y01013*
X01497Y01018*
Y01024*
X01495Y0103*
X0149Y01034*
X01485Y01036*
G37*
G36*
X04634Y0103D02*
X04628D01*
X04622Y01028*
X04618Y01024*
X04614Y01028*
X04609Y0103*
X04603*
X04597Y01028*
X04593Y01024*
X04591Y01018*
Y01012*
X04593Y01007*
X04597Y01003*
X04603Y01*
X04609*
X04614Y01003*
X04618Y01007*
X04622Y01003*
X04628Y01*
X04634*
X04639Y01003*
X04643Y01007*
X04646Y01012*
Y01018*
X04643Y01024*
X04639Y01028*
X04634Y0103*
G37*
G36*
X00698Y01028D02*
X00693D01*
X00687Y01026*
X00685Y01024*
X00683Y01021*
X0068Y01024*
X00679Y01026*
X00673Y01028*
X00667*
X00662Y01026*
X00658Y01021*
X00655Y01016*
Y0101*
X00658Y01005*
X00662Y01*
X00667Y00998*
X00673*
X00679Y01*
X0068Y01002*
X00683Y01005*
X00685Y01002*
X00687Y01*
X00693Y00998*
X00698*
X00704Y01*
X00708Y01005*
X0071Y0101*
Y01016*
X00708Y01021*
X00704Y01026*
X00698Y01028*
G37*
G36*
X03846Y01026D02*
X0384D01*
X03835Y01024*
X03833Y01022*
X0383Y0102*
X03828Y01022*
X03826Y01024*
X0382Y01026*
X03814*
X03809Y01024*
X03805Y0102*
X03803Y01014*
Y01008*
X03805Y01003*
X03809Y00999*
X03814Y00997*
X0382*
X03826Y00999*
X03828Y01001*
X0383Y01003*
X03833Y01001*
X03835Y00999*
X0384Y00997*
X03846*
X03852Y00999*
X03856Y01003*
X03858Y01009*
Y01014*
X03856Y0102*
X03852Y01024*
X03846Y01026*
G37*
G36*
X03033Y01032D02*
X03027D01*
X03021Y0103*
X03017Y01026*
X03015Y0102*
Y01014*
X03017Y01009*
X03021Y01005*
X03027Y01003*
X03033*
X03038Y01005*
X0304Y01007*
X03044Y01006*
X03049Y01002*
X03054Y00999*
X0306*
X03065Y01002*
X0307Y01006*
X03072Y01011*
Y01017*
X0307Y01023*
X03065Y01027*
X0306Y01029*
X03054*
X03049Y01027*
X03047Y01025*
X03042Y01026*
X03038Y0103*
X03033Y01032*
G37*
G36*
X05395Y01028D02*
X05389D01*
X05383Y01026*
X05379Y01022*
X05377Y01016*
Y01011*
X05379Y01005*
X05383Y01001*
X05389Y00999*
X05395*
X054Y01001*
X05402Y01003*
X05405Y01005*
X05407Y01003*
X05409Y01001*
X05415Y00999*
X05421*
X05426Y01001*
X0543Y01005*
X05433Y0101*
Y01016*
X0543Y01022*
X05426Y01026*
X05421Y01028*
X05415*
X05409Y01026*
X05407Y01024*
X05405Y01022*
X05402Y01024*
X054Y01026*
X05395Y01028*
G37*
G36*
X0297Y00876D02*
X02964D01*
X02958Y00874*
X02954Y0087*
X02952Y00865*
Y00859*
X02954Y00853*
X02958Y00849*
X02964Y00847*
X0297*
X02975Y00849*
X02979Y00853*
X02982Y00859*
Y00865*
X02979Y0087*
X02975Y00874*
X0297Y00876*
G37*
G36*
X03122Y00876D02*
X03116D01*
X03111Y00874*
X03106Y0087*
X03104Y00864*
Y00859*
X03106Y00853*
X03111Y00849*
X03116Y00847*
X03122*
X03127Y00849*
X03132Y00853*
X03134Y00859*
Y00864*
X03132Y0087*
X03127Y00874*
X03122Y00876*
G37*
G36*
X03222Y00875D02*
X03216D01*
X03211Y00873*
X03206Y00869*
X03204Y00863*
Y00857*
X03206Y00852*
X03211Y00848*
X03216Y00845*
X03222*
X03227Y00848*
X03232Y00852*
X03234Y00857*
Y00863*
X03232Y00869*
X03227Y00873*
X03222Y00875*
G37*
G36*
X05333Y00874D02*
X05327D01*
X05322Y00872*
X05317Y00868*
X05315Y00863*
Y00857*
X05317Y00851*
X05322Y00847*
X05327Y00845*
X05333*
X05338Y00847*
X05343Y00851*
X05345Y00857*
Y00863*
X05343Y00868*
X05338Y00872*
X05333Y00874*
G37*
G36*
X03911Y00874D02*
X03905D01*
X039Y00872*
X03896Y00868*
X03894Y00862*
Y00857*
X03896Y00851*
X039Y00847*
X03905Y00845*
X03911*
X03917Y00847*
X03921Y00851*
X03923Y00857*
Y00862*
X03921Y00868*
X03917Y00872*
X03911Y00874*
G37*
G36*
X03961Y00874D02*
X03955D01*
X0395Y00871*
X03946Y00867*
X03944Y00862*
Y00856*
X03946Y0085*
X0395Y00846*
X03955Y00844*
X03961*
X03967Y00846*
X03971Y0085*
X03973Y00856*
Y00862*
X03971Y00867*
X03967Y00871*
X03961Y00874*
G37*
G36*
X03757Y00873D02*
X03751D01*
X03746Y00871*
X03742Y00867*
X03739Y00862*
Y00856*
X03742Y0085*
X03746Y00846*
X03751Y00844*
X03757*
X03763Y00846*
X03767Y0085*
X03769Y00856*
Y00862*
X03767Y00867*
X03763Y00871*
X03757Y00873*
G37*
G36*
X00609D02*
X00603D01*
X00597Y00871*
X00593Y00867*
X00591Y00862*
Y00856*
X00593Y0085*
X00597Y00846*
X00603Y00844*
X00609*
X00614Y00846*
X00618Y0085*
X0062Y00856*
Y00862*
X00618Y00867*
X00614Y00871*
X00609Y00873*
G37*
G36*
X05483Y00873D02*
X05477D01*
X05472Y00871*
X05468Y00867*
X05465Y00862*
Y00856*
X05468Y0085*
X05472Y00846*
X05477Y00844*
X05483*
X05489Y00846*
X05493Y0085*
X05495Y00856*
Y00862*
X05493Y00867*
X05489Y00871*
X05483Y00873*
G37*
G36*
X04011Y00873D02*
X04005D01*
X04Y00871*
X03996Y00867*
X03994Y00861*
Y00855*
X03996Y0085*
X04Y00846*
X04005Y00843*
X04011*
X04017Y00846*
X04021Y0085*
X04023Y00855*
Y00861*
X04021Y00867*
X04017Y00871*
X04011Y00873*
G37*
G36*
X05533Y00873D02*
X05527D01*
X05522Y0087*
X05518Y00866*
X05515Y00861*
Y00855*
X05518Y00849*
X05522Y00845*
X05527Y00843*
X05533*
X05539Y00845*
X05543Y00849*
X05545Y00855*
Y00861*
X05543Y00866*
X05539Y0087*
X05533Y00873*
G37*
G36*
X04694Y00872D02*
X04688D01*
X04682Y0087*
X04678Y00866*
X04676Y00861*
Y00855*
X04678Y00849*
X04682Y00845*
X04688Y00843*
X04694*
X04699Y00845*
X04703Y00849*
X04706Y00855*
Y00861*
X04703Y00866*
X04699Y0087*
X04694Y00872*
G37*
G36*
X01544D02*
X01538D01*
X01533Y0087*
X01529Y00866*
X01526Y00861*
Y00855*
X01529Y00849*
X01533Y00845*
X01538Y00843*
X01544*
X0155Y00845*
X01554Y00849*
X01556Y00855*
Y00861*
X01554Y00866*
X0155Y0087*
X01544Y00872*
G37*
G36*
X05583Y00872D02*
X05577D01*
X05572Y0087*
X05568Y00866*
X05565Y0086*
Y00854*
X05568Y00849*
X05572Y00845*
X05577Y00842*
X05583*
X05589Y00845*
X05593Y00849*
X05595Y00854*
Y0086*
X05593Y00866*
X05589Y0087*
X05583Y00872*
G37*
G36*
X04744Y00872D02*
X04738D01*
X04732Y00869*
X04728Y00865*
X04726Y0086*
Y00854*
X04728Y00848*
X04732Y00844*
X04738Y00842*
X04744*
X04749Y00844*
X04753Y00848*
X04756Y00854*
Y0086*
X04753Y00865*
X04749Y00869*
X04744Y00872*
G37*
G36*
X01594D02*
X01588D01*
X01583Y00869*
X01579Y00865*
X01576Y0086*
Y00854*
X01579Y00848*
X01583Y00844*
X01588Y00842*
X01594*
X016Y00844*
X01604Y00848*
X01606Y00854*
Y0086*
X01604Y00865*
X016Y00869*
X01594Y00872*
G37*
G36*
X02179Y00871D02*
X02174D01*
X02168Y00869*
X02164Y00865*
X02162Y0086*
Y00854*
X02164Y00848*
X02168Y00844*
X02174Y00842*
X02179*
X02185Y00844*
X02189Y00848*
X02191Y00854*
Y0086*
X02189Y00865*
X02185Y00869*
X02179Y00871*
G37*
G36*
X01398D02*
X01392D01*
X01387Y00869*
X01382Y00865*
X0138Y0086*
Y00854*
X01382Y00848*
X01387Y00844*
X01392Y00842*
X01398*
X01403Y00844*
X01408Y00848*
X0141Y00854*
Y0086*
X01408Y00865*
X01403Y00869*
X01398Y00871*
G37*
G36*
X02334Y00871D02*
X02328D01*
X02322Y00869*
X02318Y00865*
X02316Y0086*
Y00854*
X02318Y00848*
X02322Y00844*
X02328Y00842*
X02334*
X02339Y00844*
X02343Y00848*
X02345Y00854*
Y0086*
X02343Y00865*
X02339Y00869*
X02334Y00871*
G37*
G36*
X00758D02*
X00752D01*
X00746Y00869*
X00742Y00865*
X0074Y0086*
Y00854*
X00742Y00848*
X00746Y00844*
X00752Y00842*
X00758*
X00763Y00844*
X00767Y00848*
X0077Y00854*
Y0086*
X00767Y00865*
X00763Y00869*
X00758Y00871*
G37*
G36*
X04794Y00871D02*
X04788D01*
X04782Y00869*
X04778Y00865*
X04776Y00859*
Y00853*
X04778Y00848*
X04782Y00844*
X04788Y00841*
X04794*
X04799Y00844*
X04803Y00848*
X04806Y00853*
Y00859*
X04803Y00865*
X04799Y00869*
X04794Y00871*
G37*
G36*
X01644D02*
X01638D01*
X01633Y00869*
X01629Y00865*
X01626Y00859*
Y00853*
X01629Y00848*
X01633Y00844*
X01638Y00841*
X01644*
X0165Y00844*
X01654Y00848*
X01656Y00853*
Y00859*
X01654Y00865*
X0165Y00869*
X01644Y00871*
G37*
G36*
X02384Y00871D02*
X02378D01*
X02372Y00868*
X02368Y00864*
X02366Y00859*
Y00853*
X02368Y00847*
X02372Y00843*
X02378Y00841*
X02384*
X02389Y00843*
X02393Y00847*
X02395Y00853*
Y00859*
X02393Y00864*
X02389Y00868*
X02384Y00871*
G37*
G36*
X00808D02*
X00802D01*
X00796Y00868*
X00792Y00864*
X0079Y00859*
Y00853*
X00792Y00847*
X00796Y00843*
X00802Y00841*
X00808*
X00813Y00843*
X00817Y00847*
X0082Y00853*
Y00859*
X00817Y00864*
X00813Y00868*
X00808Y00871*
G37*
G36*
X04544Y0087D02*
X04538D01*
X04532Y00868*
X04528Y00864*
X04526Y00859*
Y00853*
X04528Y00847*
X04532Y00843*
X04538Y00841*
X04544*
X04549Y00843*
X04553Y00847*
X04556Y00853*
Y00859*
X04553Y00864*
X04549Y00868*
X04544Y0087*
G37*
G36*
X02434Y0087D02*
X02428D01*
X02422Y00868*
X02418Y00864*
X02416Y00858*
Y00852*
X02418Y00847*
X02422Y00843*
X02428Y0084*
X02434*
X02439Y00843*
X02443Y00847*
X02445Y00852*
Y00858*
X02443Y00864*
X02439Y00868*
X02434Y0087*
G37*
G36*
X00858D02*
X00852D01*
X00846Y00868*
X00842Y00864*
X0084Y00858*
Y00852*
X00842Y00847*
X00846Y00843*
X00852Y0084*
X00858*
X00863Y00843*
X00867Y00847*
X0087Y00852*
Y00858*
X00867Y00864*
X00863Y00868*
X00858Y0087*
G37*
G36*
X05388Y00853D02*
X05382D01*
X05377Y00851*
X05373Y00846*
X0537Y00841*
Y00835*
X05373Y0083*
X05377Y00825*
X05382Y00823*
X05388*
X05394Y00825*
X05398Y0083*
X054Y00835*
Y00841*
X05398Y00846*
X05394Y00851*
X05388Y00853*
G37*
G36*
X05073D02*
X05067D01*
X05062Y00851*
X05058Y00846*
X05055Y00841*
Y00835*
X05058Y0083*
X05062Y00825*
X05067Y00823*
X05073*
X05079Y00825*
X05083Y0083*
X05085Y00835*
Y00841*
X05083Y00846*
X05079Y00851*
X05073Y00853*
G37*
G36*
X04128D02*
X04122D01*
X04117Y00851*
X04113Y00846*
X0411Y00841*
Y00835*
X04113Y0083*
X04117Y00825*
X04122Y00823*
X04128*
X04134Y00825*
X04138Y0083*
X0414Y00835*
Y00841*
X04138Y00846*
X04134Y00851*
X04128Y00853*
G37*
G36*
X03813D02*
X03807D01*
X03802Y00851*
X03798Y00846*
X03796Y00841*
Y00835*
X03798Y0083*
X03802Y00825*
X03807Y00823*
X03813*
X03819Y00825*
X03823Y0083*
X03825Y00835*
Y00841*
X03823Y00846*
X03819Y00851*
X03813Y00853*
G37*
G36*
X03498D02*
X03492D01*
X03487Y00851*
X03483Y00846*
X03481Y00841*
Y00835*
X03483Y0083*
X03487Y00825*
X03492Y00823*
X03498*
X03504Y00825*
X03508Y0083*
X0351Y00835*
Y00841*
X03508Y00846*
X03504Y00851*
X03498Y00853*
G37*
G36*
X03172Y00876D02*
X03166D01*
X03161Y00873*
X03156Y00869*
X03154Y00864*
Y00858*
X03156Y00852*
X03161Y00848*
X03164Y00847*
X03166Y00842*
X03166Y00841*
Y00835*
X03168Y0083*
X03172Y00825*
X03177Y00823*
X03183*
X03189Y00825*
X03193Y0083*
X03195Y00835*
Y00841*
X03193Y00846*
X03189Y00851*
X03185Y00852*
X03183Y00856*
X03184Y00858*
Y00864*
X03182Y00869*
X03177Y00873*
X03172Y00876*
G37*
G36*
X02553Y00853D02*
X02548D01*
X02542Y00851*
X02538Y00846*
X02536Y00841*
Y00835*
X02538Y0083*
X02542Y00825*
X02548Y00823*
X02553*
X02559Y00825*
X02563Y0083*
X02565Y00835*
Y00841*
X02563Y00846*
X02559Y00851*
X02553Y00853*
G37*
G36*
X02239D02*
X02233D01*
X02227Y00851*
X02223Y00846*
X02221Y00841*
Y00835*
X02223Y0083*
X02227Y00825*
X02233Y00823*
X02239*
X02244Y00825*
X02248Y0083*
X0225Y00835*
Y00841*
X02248Y00846*
X02244Y00851*
X02239Y00853*
G37*
G36*
X01924D02*
X01918D01*
X01912Y00851*
X01908Y00846*
X01906Y00841*
Y00835*
X01908Y0083*
X01912Y00825*
X01918Y00823*
X01924*
X01929Y00825*
X01933Y0083*
X01935Y00835*
Y00841*
X01933Y00846*
X01929Y00851*
X01924Y00853*
G37*
G36*
X00979D02*
X00973D01*
X00967Y00851*
X00963Y00846*
X00961Y00841*
Y00835*
X00963Y0083*
X00967Y00825*
X00973Y00823*
X00979*
X00984Y00825*
X00988Y0083*
X00991Y00835*
Y00841*
X00988Y00846*
X00984Y00851*
X00979Y00853*
G37*
G36*
X00664D02*
X00658D01*
X00652Y00851*
X00648Y00846*
X00646Y00841*
Y00835*
X00648Y0083*
X00652Y00825*
X00658Y00823*
X00664*
X00669Y00825*
X00673Y0083*
X00676Y00835*
Y00841*
X00673Y00846*
X00669Y00851*
X00664Y00853*
G37*
G36*
X00349D02*
X00343D01*
X00337Y00851*
X00333Y00846*
X00331Y00841*
Y00835*
X00333Y0083*
X00337Y00825*
X00343Y00823*
X00349*
X00354Y00825*
X00358Y0083*
X00361Y00835*
Y00841*
X00358Y00846*
X00354Y00851*
X00349Y00853*
G37*
G36*
X00034D02*
X00028D01*
X00022Y00851*
X00018Y00846*
X00016Y00841*
Y00835*
X00018Y0083*
X00022Y00825*
X00028Y00823*
X00034*
X00039Y00825*
X00043Y0083*
X00046Y00835*
Y00841*
X00043Y00846*
X00039Y00851*
X00034Y00853*
G37*
G36*
X05546Y00538D02*
X0554D01*
X05534Y00536*
X0553Y00531*
X05528Y00526*
Y0052*
X0553Y00515*
X05534Y0051*
X0554Y00508*
X05546*
X05551Y0051*
X05555Y00515*
X05557Y0052*
Y00526*
X05555Y00531*
X05551Y00536*
X05546Y00538*
G37*
G36*
X05231D02*
X05225D01*
X05219Y00536*
X05215Y00531*
X05213Y00526*
Y0052*
X05215Y00515*
X05219Y0051*
X05225Y00508*
X05231*
X05236Y0051*
X0524Y00515*
X05243Y0052*
Y00526*
X0524Y00531*
X05236Y00536*
X05231Y00538*
G37*
G36*
X04916D02*
X0491D01*
X04904Y00536*
X049Y00531*
X04898Y00526*
Y0052*
X049Y00515*
X04904Y0051*
X0491Y00508*
X04916*
X04921Y0051*
X04925Y00515*
X04928Y0052*
Y00526*
X04925Y00531*
X04921Y00536*
X04916Y00538*
G37*
G36*
X04601D02*
X04595D01*
X04589Y00536*
X04585Y00531*
X04583Y00526*
Y0052*
X04585Y00515*
X04589Y0051*
X04595Y00508*
X04601*
X04606Y0051*
X0461Y00515*
X04613Y0052*
Y00526*
X0461Y00531*
X04606Y00536*
X04601Y00538*
G37*
G36*
X04286D02*
X0428D01*
X04274Y00536*
X0427Y00531*
X04268Y00526*
Y0052*
X0427Y00515*
X04274Y0051*
X0428Y00508*
X04286*
X04291Y0051*
X04295Y00515*
X04298Y0052*
Y00526*
X04295Y00531*
X04291Y00536*
X04286Y00538*
G37*
G36*
X03971D02*
X03965D01*
X03959Y00536*
X03955Y00531*
X03953Y00526*
Y0052*
X03955Y00515*
X03959Y0051*
X03965Y00508*
X03971*
X03976Y0051*
X0398Y00515*
X03983Y0052*
Y00526*
X0398Y00531*
X03976Y00536*
X03971Y00538*
G37*
G36*
X03656D02*
X0365D01*
X03644Y00536*
X0364Y00531*
X03638Y00526*
Y0052*
X0364Y00515*
X03644Y0051*
X0365Y00508*
X03656*
X03661Y0051*
X03665Y00515*
X03668Y0052*
Y00526*
X03665Y00531*
X03661Y00536*
X03656Y00538*
G37*
G36*
X03341D02*
X03335D01*
X0333Y00536*
X03325Y00531*
X03323Y00526*
Y0052*
X03325Y00515*
X0333Y0051*
X03335Y00508*
X03341*
X03346Y0051*
X03351Y00515*
X03353Y0052*
Y00526*
X03351Y00531*
X03346Y00536*
X03341Y00538*
G37*
G36*
X03026D02*
X0302D01*
X03015Y00536*
X0301Y00531*
X03008Y00526*
Y0052*
X0301Y00515*
X03015Y0051*
X0302Y00508*
X03026*
X03031Y0051*
X03036Y00515*
X03038Y0052*
Y00526*
X03036Y00531*
X03031Y00536*
X03026Y00538*
G37*
G36*
X02711D02*
X02705D01*
X027Y00536*
X02695Y00531*
X02693Y00526*
Y0052*
X02695Y00515*
X027Y0051*
X02705Y00508*
X02711*
X02716Y0051*
X02721Y00515*
X02723Y0052*
Y00526*
X02721Y00531*
X02716Y00536*
X02711Y00538*
G37*
G36*
X02396D02*
X0239D01*
X02385Y00536*
X0238Y00531*
X02378Y00526*
Y0052*
X0238Y00515*
X02385Y0051*
X0239Y00508*
X02396*
X02401Y0051*
X02406Y00515*
X02408Y0052*
Y00526*
X02406Y00531*
X02401Y00536*
X02396Y00538*
G37*
G36*
X02081D02*
X02075D01*
X0207Y00536*
X02066Y00531*
X02063Y00526*
Y0052*
X02066Y00515*
X0207Y0051*
X02075Y00508*
X02081*
X02086Y0051*
X02091Y00515*
X02093Y0052*
Y00526*
X02091Y00531*
X02086Y00536*
X02081Y00538*
G37*
G36*
X01766D02*
X0176D01*
X01755Y00536*
X01751Y00531*
X01748Y00526*
Y0052*
X01751Y00515*
X01755Y0051*
X0176Y00508*
X01766*
X01772Y0051*
X01776Y00515*
X01778Y0052*
Y00526*
X01776Y00531*
X01772Y00536*
X01766Y00538*
G37*
G36*
X01451D02*
X01445D01*
X0144Y00536*
X01436Y00531*
X01433Y00526*
Y0052*
X01436Y00515*
X0144Y0051*
X01445Y00508*
X01451*
X01457Y0051*
X01461Y00515*
X01463Y0052*
Y00526*
X01461Y00531*
X01457Y00536*
X01451Y00538*
G37*
G36*
X01136D02*
X0113D01*
X01125Y00536*
X01121Y00531*
X01118Y00526*
Y0052*
X01121Y00515*
X01125Y0051*
X0113Y00508*
X01136*
X01142Y0051*
X01146Y00515*
X01148Y0052*
Y00526*
X01146Y00531*
X01142Y00536*
X01136Y00538*
G37*
G36*
X00821D02*
X00815D01*
X0081Y00536*
X00806Y00531*
X00803Y00526*
Y0052*
X00806Y00515*
X0081Y0051*
X00815Y00508*
X00821*
X00827Y0051*
X00831Y00515*
X00833Y0052*
Y00526*
X00831Y00531*
X00827Y00536*
X00821Y00538*
G37*
G36*
X00506D02*
X005D01*
X00495Y00536*
X00491Y00531*
X00488Y00526*
Y0052*
X00491Y00515*
X00495Y0051*
X005Y00508*
X00506*
X00512Y0051*
X00516Y00515*
X00518Y0052*
Y00526*
X00516Y00531*
X00512Y00536*
X00506Y00538*
G37*
G36*
X00191D02*
X00185D01*
X0018Y00536*
X00176Y00531*
X00173Y00526*
Y0052*
X00176Y00515*
X0018Y0051*
X00185Y00508*
X00191*
X00197Y0051*
X00201Y00515*
X00203Y0052*
Y00526*
X00201Y00531*
X00197Y00536*
X00191Y00538*
G37*
G36*
X05388Y00223D02*
X05382D01*
X05377Y00221*
X05373Y00216*
X0537Y00211*
Y00205*
X05373Y002*
X05377Y00195*
X05382Y00193*
X05388*
X05394Y00195*
X05398Y002*
X054Y00205*
Y00211*
X05398Y00216*
X05394Y00221*
X05388Y00223*
G37*
G36*
X05073D02*
X05067D01*
X05062Y00221*
X05058Y00216*
X05055Y00211*
Y00205*
X05058Y002*
X05062Y00195*
X05067Y00193*
X05073*
X05079Y00195*
X05083Y002*
X05085Y00205*
Y00211*
X05083Y00216*
X05079Y00221*
X05073Y00223*
G37*
G36*
X04128D02*
X04122D01*
X04117Y00221*
X04113Y00216*
X0411Y00211*
Y00205*
X04113Y002*
X04117Y00195*
X04122Y00193*
X04128*
X04134Y00195*
X04138Y002*
X0414Y00205*
Y00211*
X04138Y00216*
X04134Y00221*
X04128Y00223*
G37*
G36*
X03813D02*
X03807D01*
X03802Y00221*
X03798Y00216*
X03796Y00211*
Y00205*
X03798Y002*
X03802Y00195*
X03807Y00193*
X03813*
X03819Y00195*
X03823Y002*
X03825Y00205*
Y00211*
X03823Y00216*
X03819Y00221*
X03813Y00223*
G37*
G36*
X03498D02*
X03492D01*
X03487Y00221*
X03483Y00216*
X03481Y00211*
Y00205*
X03483Y002*
X03487Y00195*
X03492Y00193*
X03498*
X03504Y00195*
X03508Y002*
X0351Y00205*
Y00211*
X03508Y00216*
X03504Y00221*
X03498Y00223*
G37*
G36*
X02553D02*
X02548D01*
X02542Y00221*
X02538Y00216*
X02536Y00211*
Y00205*
X02538Y002*
X02542Y00195*
X02548Y00193*
X02553*
X02559Y00195*
X02563Y002*
X02565Y00205*
Y00211*
X02563Y00216*
X02559Y00221*
X02553Y00223*
G37*
G36*
X02239D02*
X02233D01*
X02227Y00221*
X02223Y00216*
X02221Y00211*
Y00205*
X02223Y002*
X02227Y00195*
X02233Y00193*
X02239*
X02244Y00195*
X02248Y002*
X0225Y00205*
Y00211*
X02248Y00216*
X02244Y00221*
X02239Y00223*
G37*
G36*
X01924D02*
X01918D01*
X01912Y00221*
X01908Y00216*
X01906Y00211*
Y00205*
X01908Y002*
X01912Y00195*
X01918Y00193*
X01924*
X01929Y00195*
X01933Y002*
X01935Y00205*
Y00211*
X01933Y00216*
X01929Y00221*
X01924Y00223*
G37*
G36*
X00979D02*
X00973D01*
X00967Y00221*
X00963Y00216*
X00961Y00211*
Y00205*
X00963Y002*
X00967Y00195*
X00973Y00193*
X00979*
X00984Y00195*
X00988Y002*
X00991Y00205*
Y00211*
X00988Y00216*
X00984Y00221*
X00979Y00223*
G37*
G36*
X00664D02*
X00658D01*
X00652Y00221*
X00648Y00216*
X00646Y00211*
Y00205*
X00648Y002*
X00652Y00195*
X00658Y00193*
X00664*
X00669Y00195*
X00673Y002*
X00676Y00205*
Y00211*
X00673Y00216*
X00669Y00221*
X00664Y00223*
G37*
G36*
X00349D02*
X00343D01*
X00337Y00221*
X00333Y00216*
X00331Y00211*
Y00205*
X00333Y002*
X00337Y00195*
X00343Y00193*
X00349*
X00354Y00195*
X00358Y002*
X00361Y00205*
Y00211*
X00358Y00216*
X00354Y00221*
X00349Y00223*
G37*
G36*
X00034D02*
X00028D01*
X00022Y00221*
X00018Y00216*
X00016Y00211*
Y00205*
X00018Y002*
X00022Y00195*
X00028Y00193*
X00034*
X00039Y00195*
X00043Y002*
X00046Y00205*
Y00211*
X00043Y00216*
X00039Y00221*
X00034Y00223*
G37*
G36*
X00157Y00292D02*
X00141D01*
X00125Y00289*
X00109Y00282*
X00096Y00273*
X00084Y00261*
X00075Y00248*
X00068Y00232*
X00065Y00216*
Y002*
X00068Y00184*
X00075Y00168*
X00084Y00155*
X00096Y00143*
X00109Y00134*
X00125Y00127*
X00141Y00124*
X00157*
X00173Y00127*
X00189Y00134*
X00202Y00143*
X00214Y00155*
X00223Y00168*
X00229Y00184*
X00233Y002*
Y00216*
X00229Y00232*
X00223Y00248*
X00214Y00261*
X00202Y00273*
X00189Y00282*
X00173Y00289*
X00157Y00292*
G37*
G36*
X04716Y05729D02*
X0471D01*
X04705Y05727*
X04701Y05723*
X04698Y05717*
Y05711*
X04701Y05706*
X04705Y05702*
X0471Y05699*
X04716*
X04722Y05702*
X04726Y05706*
X04728Y05711*
Y05717*
X04726Y05723*
X04722Y05727*
X04716Y05729*
G37*
G36*
X00732Y05723D02*
X00726D01*
X00721Y05721*
X00717Y05716*
X00714Y05711*
Y05705*
X00717Y057*
X00721Y05695*
X00726Y05693*
X00732*
X00738Y05695*
X00742Y057*
X00744Y05705*
Y05711*
X00742Y05716*
X00738Y05721*
X00732Y05723*
G37*
G36*
X02726D02*
X0272D01*
X02715Y05721*
X02711Y05716*
X02708Y05711*
Y05705*
X02711Y057*
X02715Y05695*
X0272Y05693*
X02726*
X02732Y05695*
X02736Y057*
X02738Y05705*
Y05711*
X02736Y05716*
X02732Y05721*
X02726Y05723*
G37*
G36*
X02101Y05676D02*
X02095D01*
X02089Y05673*
X02085Y05669*
X02083Y05664*
Y05658*
X02085Y05652*
X02089Y05648*
X02095Y05646*
X02101*
X02106Y05648*
X0211Y05652*
X02113Y05658*
Y05664*
X0211Y05669*
X02106Y05673*
X02101Y05676*
G37*
G36*
X05201Y05636D02*
X05195D01*
X0519Y05634*
X05186Y0563*
X05183Y05624*
Y05618*
X05186Y05613*
X0519Y05609*
X05195Y05607*
X05201*
X05207Y05609*
X05211Y05613*
X05213Y05618*
Y05624*
X05211Y0563*
X05207Y05634*
X05201Y05636*
G37*
G36*
X02652Y05597D02*
X02646D01*
X02641Y05595*
X02636Y0559*
X02634Y05585*
Y05579*
X02636Y05574*
X02641Y05569*
X02646Y05567*
X02652*
X02657Y05569*
X02662Y05574*
X02664Y05579*
Y05585*
X02662Y0559*
X02657Y05595*
X02652Y05597*
G37*
G36*
X03262Y05538D02*
X03256D01*
X03251Y05536*
X03247Y05531*
X03244Y05526*
Y0552*
X03247Y05515*
X03251Y0551*
X03256Y05508*
X03262*
X03268Y0551*
X03272Y05515*
X03274Y0552*
Y05526*
X03272Y05531*
X03268Y05536*
X03262Y05538*
G37*
G36*
X01957Y05512D02*
X01951D01*
X01946Y0551*
X01941Y05506*
X01939Y055*
Y05494*
X01941Y05489*
X01946Y05485*
X01951Y05483*
X01957*
X01962Y05485*
X01967Y05489*
X01969Y05494*
Y055*
X01967Y05506*
X01962Y0551*
X01957Y05512*
G37*
G36*
X05004Y05498D02*
X04998D01*
X04993Y05496*
X04989Y05492*
X04986Y05487*
Y05481*
X04989Y05475*
X04993Y05471*
X04998Y05469*
X05004*
X0501Y05471*
X05014Y05475*
X05016Y05481*
Y05487*
X05014Y05492*
X0501Y05496*
X05004Y05498*
G37*
G36*
X01977Y05482D02*
X01971D01*
X01965Y05479*
X01961Y05475*
X01959Y0547*
Y05464*
X01961Y05458*
X01965Y05454*
X01971Y05452*
X01977*
X01982Y05454*
X01986Y05458*
X01989Y05464*
Y0547*
X01986Y05475*
X01982Y05479*
X01977Y05482*
G37*
G36*
X03422Y05429D02*
X03416D01*
X0341Y05426*
X03406Y05422*
X03404Y05417*
Y05411*
X03406Y05405*
X0341Y05401*
X03416Y05399*
X03422*
X03427Y05401*
X03431Y05405*
X03433Y05411*
Y05417*
X03431Y05422*
X03427Y05426*
X03422Y05429*
G37*
G36*
X02693Y0542D02*
X02687D01*
X02682Y05417*
X02678Y05413*
X02675Y05408*
Y05402*
X02678Y05396*
X02682Y05392*
X02687Y0539*
X02693*
X02699Y05392*
X02703Y05396*
X02705Y05402*
Y05408*
X02703Y05413*
X02699Y05417*
X02693Y0542*
G37*
G36*
X02079Y0527D02*
X02073D01*
X02067Y05268*
X02063Y05264*
X02061Y05258*
Y05252*
X02063Y05247*
X02067Y05243*
X02073Y0524*
X02079*
X02084Y05243*
X02088Y05247*
X02091Y05252*
Y05258*
X02088Y05264*
X02084Y05268*
X02079Y0527*
G37*
G36*
X0297Y05258D02*
X02964D01*
X02958Y05256*
X02954Y05252*
X02952Y05246*
Y0524*
X02954Y05235*
X02958Y05231*
X02964Y05229*
X0297*
X02975Y05231*
X02979Y05235*
X02982Y0524*
Y05246*
X02979Y05252*
X02975Y05256*
X0297Y05258*
G37*
G36*
X03341Y05237D02*
X03335D01*
X0333Y05234*
X03325Y0523*
X03323Y05225*
Y05219*
X03325Y05213*
X0333Y05209*
X03335Y05207*
X03341*
X03346Y05209*
X03351Y05213*
X03353Y05219*
Y05225*
X03351Y0523*
X03346Y05234*
X03341Y05237*
G37*
G36*
X02435Y05216D02*
X02429D01*
X02424Y05214*
X0242Y0521*
X02418Y05204*
Y05198*
X0242Y05193*
X02424Y05189*
X02429Y05186*
X02435*
X02441Y05189*
X02445Y05193*
X02447Y05198*
Y05204*
X02445Y0521*
X02441Y05214*
X02435Y05216*
G37*
G36*
X02459Y05175D02*
X02453D01*
X02448Y05173*
X02443Y05169*
X02441Y05164*
Y05158*
X02443Y05152*
X02448Y05148*
X02453Y05146*
X02459*
X02464Y05148*
X02469Y05152*
X02471Y05158*
Y05164*
X02469Y05169*
X02464Y05173*
X02459Y05175*
G37*
G36*
X02576Y05116D02*
X0257D01*
X02565Y05114*
X02561Y0511*
X02558Y05104*
Y05098*
X02561Y05093*
X02565Y05089*
X0257Y05086*
X02576*
X02582Y05089*
X02586Y05093*
X02588Y05098*
Y05104*
X02586Y0511*
X02582Y05114*
X02576Y05116*
G37*
G36*
X00197Y05252D02*
X0018D01*
X00164Y05249*
X00149Y05243*
X00135Y05234*
X00123Y05222*
X00114Y05208*
X00108Y05193*
X00105Y05177*
Y0516*
X00108Y05144*
X00114Y05129*
X00123Y05115*
X00135Y05104*
X00149Y05094*
X00164Y05088*
X0018Y05085*
X00197*
X00213Y05088*
X00228Y05094*
X00242Y05104*
X00253Y05115*
X00263Y05129*
X00269Y05144*
X00272Y0516*
Y05177*
X00269Y05193*
X00263Y05208*
X00253Y05222*
X00242Y05234*
X00228Y05243*
X00213Y05249*
X00197Y05252*
G37*
G36*
X03036Y05085D02*
X0303D01*
X03024Y05083*
X0302Y05079*
X03018Y05073*
Y05067*
X0302Y05062*
X03024Y05058*
X0303Y05055*
X03036*
X03041Y05058*
X03045Y05062*
X03048Y05067*
Y05073*
X03045Y05079*
X03041Y05083*
X03036Y05085*
G37*
G36*
X0088Y05075D02*
X00874D01*
X00869Y05073*
X00865Y05069*
X00862Y05063*
Y05057*
X00865Y05052*
X00869Y05048*
X00874Y05046*
X0088*
X00886Y05048*
X0089Y05052*
X00892Y05057*
Y05063*
X0089Y05069*
X00886Y05073*
X0088Y05075*
G37*
G36*
X0214Y04937D02*
X02134D01*
X02129Y04935*
X02125Y04931*
X02122Y04926*
Y0492*
X02125Y04914*
X02129Y0491*
X02134Y04908*
X0214*
X02146Y0491*
X0215Y04914*
X02152Y0492*
Y04926*
X0215Y04931*
X02146Y04935*
X0214Y04937*
G37*
G36*
X01569D02*
X01563D01*
X01558Y04935*
X01554Y04931*
X01551Y04926*
Y0492*
X01554Y04914*
X01558Y0491*
X01563Y04908*
X01569*
X01575Y0491*
X01579Y04914*
X01581Y0492*
Y04926*
X01579Y04931*
X01575Y04935*
X01569Y04937*
G37*
G36*
X01246D02*
X0124D01*
X01235Y04935*
X01231Y04931*
X01229Y04926*
Y0492*
X01231Y04914*
X01235Y0491*
X0124Y04908*
X01246*
X01252Y0491*
X01256Y04914*
X01258Y0492*
Y04926*
X01256Y04931*
X01252Y04935*
X01246Y04937*
G37*
G36*
X04713Y04935D02*
X04707D01*
X04702Y04933*
X04697Y04929*
X04695Y04924*
Y04918*
X04697Y04912*
X04702Y04908*
X04707Y04906*
X04713*
X04718Y04908*
X04723Y04912*
X04725Y04918*
Y04924*
X04723Y04929*
X04718Y04933*
X04713Y04935*
G37*
G36*
X02732D02*
X02726D01*
X0272Y04933*
X02716Y04929*
X02714Y04924*
Y04918*
X02716Y04912*
X0272Y04908*
X02726Y04906*
X02732*
X02737Y04908*
X02741Y04912*
X02743Y04918*
Y04924*
X02741Y04929*
X02737Y04933*
X02732Y04935*
G37*
G36*
X00743D02*
X00737D01*
X00732Y04933*
X00728Y04929*
X00725Y04924*
Y04918*
X00728Y04912*
X00732Y04908*
X00737Y04906*
X00743*
X00749Y04908*
X00753Y04912*
X00755Y04918*
Y04924*
X00753Y04929*
X00749Y04933*
X00743Y04935*
G37*
G36*
X03097Y04784D02*
X03091D01*
X03086Y04782*
X03082Y04777*
X03079Y04772*
Y04766*
X03082Y04761*
X03086Y04756*
X03091Y04754*
X03097*
X03103Y04756*
X03107Y04761*
X03109Y04766*
Y04772*
X03107Y04777*
X03103Y04782*
X03097Y04784*
G37*
G36*
X01784Y04744D02*
X01778D01*
X01772Y04741*
X01768Y04737*
X01766Y04732*
Y04726*
X01768Y0472*
X01772Y04716*
X01778Y04714*
X01784*
X01789Y04716*
X01793Y0472*
X01796Y04726*
Y04732*
X01793Y04737*
X01789Y04741*
X01784Y04744*
G37*
G36*
X04709Y04662D02*
X04703D01*
X04698Y0466*
X04693Y04655*
X04691Y0465*
Y04644*
X04693Y04639*
X04698Y04634*
X04703Y04632*
X04709*
X04714Y04634*
X04719Y04639*
X04721Y04644*
Y0465*
X04719Y04655*
X04714Y0466*
X04709Y04662*
G37*
G36*
X01927D02*
X01921D01*
X01915Y0466*
X01911Y04655*
X01909Y0465*
Y04644*
X01911Y04639*
X01915Y04634*
X01921Y04632*
X01927*
X01932Y04634*
X01936Y04639*
X01938Y04644*
Y0465*
X01936Y04655*
X01932Y0466*
X01927Y04662*
G37*
G36*
X01809Y04632D02*
X01803D01*
X01798Y0463*
X01794Y04626*
X01792Y0462*
Y04615*
X01794Y04609*
X01798Y04605*
X01803Y04603*
X01809*
X01815Y04605*
X01819Y04609*
X01821Y04615*
Y0462*
X01819Y04626*
X01815Y0463*
X01809Y04632*
G37*
G36*
X04994Y04622D02*
X04989D01*
X04983Y0462*
X04979Y04616*
X04977Y04611*
Y04605*
X04979Y04599*
X04983Y04595*
X04989Y04593*
X04994*
X05Y04595*
X05004Y04599*
X05006Y04605*
Y04611*
X05004Y04616*
X05Y0462*
X04994Y04622*
G37*
G36*
X01901Y04606D02*
X01895D01*
X0189Y04603*
X01885Y04599*
X01883Y04594*
Y04588*
X01885Y04582*
X0189Y04578*
X01895Y04576*
X01901*
X01906Y04578*
X01911Y04582*
X01913Y04588*
Y04594*
X01911Y04599*
X01906Y04603*
X01901Y04606*
G37*
G36*
X00835Y04579D02*
X00829D01*
X00824Y04577*
X0082Y04573*
X00817Y04567*
Y04561*
X0082Y04556*
X00824Y04552*
X00829Y04549*
X00835*
X00841Y04552*
X00845Y04556*
X00847Y04561*
Y04567*
X00845Y04573*
X00841Y04577*
X00835Y04579*
G37*
G36*
X02918Y04578D02*
X02912D01*
X02906Y04576*
X02902Y04571*
X029Y04566*
Y0456*
X02902Y04555*
X02906Y0455*
X02912Y04548*
X02918*
X02923Y0455*
X02927Y04555*
X0293Y0456*
Y04566*
X02927Y04571*
X02923Y04576*
X02918Y04578*
G37*
G36*
X0301Y04527D02*
X03004D01*
X02999Y04525*
X02995Y04521*
X02992Y04515*
Y04509*
X02995Y04504*
X02999Y045*
X03004Y04497*
X0301*
X03016Y045*
X0302Y04504*
X03022Y04509*
Y04515*
X0302Y04521*
X03016Y04525*
X0301Y04527*
G37*
G36*
X02898Y04524D02*
X02892D01*
X02887Y04522*
X02882Y04518*
X0288Y04512*
Y04506*
X02882Y04501*
X02887Y04497*
X02892Y04494*
X02898*
X02903Y04497*
X02908Y04501*
X0291Y04506*
Y04512*
X02908Y04518*
X02903Y04522*
X02898Y04524*
G37*
G36*
X01116D02*
X01111D01*
X01105Y04522*
X01101Y04518*
X01099Y04512*
Y04506*
X01101Y04501*
X01105Y04497*
X01111Y04494*
X01116*
X01122Y04497*
X01126Y04501*
X01128Y04506*
Y04512*
X01126Y04518*
X01122Y04522*
X01116Y04524*
G37*
G36*
X03074Y04492D02*
X03068D01*
X03063Y04489*
X03058Y04485*
X03056Y0448*
Y04474*
X03058Y04468*
X03059Y04468*
X03057Y04464*
X03055Y04465*
X0305*
X03044Y04463*
X0304Y04459*
X03038Y04453*
Y04447*
X0304Y04442*
X03044Y04438*
X0305Y04435*
X03055*
X03061Y04438*
X03065Y04442*
X03067Y04447*
Y04453*
X03065Y04459*
X03064Y04459*
X03067Y04463*
X03068Y04462*
X03074*
X03079Y04464*
X03084Y04468*
X03086Y04474*
Y0448*
X03084Y04485*
X03079Y04489*
X03074Y04492*
G37*
G36*
X02674Y04407D02*
X02668D01*
X02663Y04405*
X02659Y04401*
X02656Y04395*
Y04389*
X02659Y04384*
X02663Y0438*
X02668Y04377*
X02674*
X0268Y0438*
X02684Y04384*
X02686Y04389*
Y04395*
X02684Y04401*
X0268Y04405*
X02674Y04407*
G37*
G36*
X0154Y04376D02*
X01534D01*
X01528Y04374*
X01524Y0437*
X01522Y04365*
Y04359*
X01524Y04353*
X01528Y04349*
X01534Y04347*
X0154*
X01545Y04349*
X01549Y04353*
X01552Y04359*
Y04365*
X01549Y0437*
X01545Y04374*
X0154Y04376*
G37*
G36*
X03582Y04386D02*
X03566D01*
X0355Y04383*
X03534Y04377*
X03521Y04368*
X03509Y04356*
X035Y04342*
X03494Y04327*
X0349Y04311*
Y04294*
X03494Y04278*
X035Y04263*
X03509Y04249*
X03521Y04237*
X03534Y04228*
X0355Y04222*
X03566Y04219*
X03582*
X03599Y04222*
X03614Y04228*
X03628Y04237*
X03639Y04249*
X03648Y04263*
X03655Y04278*
X03658Y04294*
Y04311*
X03655Y04327*
X03648Y04342*
X03639Y04356*
X03628Y04368*
X03614Y04377*
X03599Y04383*
X03582Y04386*
G37*
G36*
X04709Y0415D02*
X04703D01*
X04698Y04148*
X04693Y04144*
X04691Y04138*
Y04132*
X04693Y04127*
X04698Y04123*
X04703Y0412*
X04709*
X04714Y04123*
X04719Y04127*
X04721Y04132*
Y04138*
X04719Y04144*
X04714Y04148*
X04709Y0415*
G37*
G36*
X02726Y04148D02*
X0272D01*
X02715Y04146*
X0271Y04142*
X02708Y04136*
Y0413*
X0271Y04125*
X02715Y04121*
X0272Y04118*
X02726*
X02731Y04121*
X02736Y04125*
X02738Y0413*
Y04136*
X02736Y04142*
X02731Y04146*
X02726Y04148*
G37*
G36*
X00737D02*
X00731D01*
X00725Y04146*
X00721Y04142*
X00719Y04136*
Y0413*
X00721Y04125*
X00725Y04121*
X00731Y04118*
X00737*
X00742Y04121*
X00746Y04125*
X00749Y0413*
Y04136*
X00746Y04142*
X00742Y04146*
X00737Y04148*
G37*
G36*
X05211Y0413D02*
X05205D01*
X052Y04128*
X05195Y04124*
X05193Y04118*
Y04113*
X05195Y04107*
X052Y04103*
X05205Y04101*
X05211*
X05216Y04103*
X05221Y04107*
X05223Y04113*
Y04118*
X05221Y04124*
X05216Y04128*
X05211Y0413*
G37*
G36*
X02953Y04008D02*
X02947D01*
X02941Y04006*
X02937Y04002*
X02935Y03996*
Y0399*
X02937Y03985*
X02941Y03981*
X02947Y03979*
X02953*
X02958Y03981*
X02962Y03985*
X02965Y0399*
Y03996*
X02962Y04002*
X02958Y04006*
X02953Y04008*
G37*
G36*
X01845Y03987D02*
X01839D01*
X01834Y03985*
X0183Y03981*
X01828Y03976*
Y0397*
X0183Y03964*
X01834Y0396*
X01839Y03958*
X01845*
X01851Y0396*
X01855Y03964*
X01857Y0397*
Y03976*
X01855Y03981*
X01851Y03985*
X01845Y03987*
G37*
G36*
X03007Y03908D02*
X03001D01*
X02996Y03906*
X02992Y03901*
X02989Y03896*
Y0389*
X02992Y03885*
X02996Y0388*
X03001Y03878*
X03007*
X03013Y0388*
X03017Y03885*
X03019Y0389*
Y03896*
X03017Y03901*
X03013Y03906*
X03007Y03908*
G37*
G36*
X01877Y03865D02*
X01871D01*
X01866Y03863*
X01862Y03858*
X01859Y03853*
Y03847*
X01862Y03842*
X01866Y03837*
X01871Y03835*
X01877*
X01882Y03837*
X01887Y03842*
X01889Y03847*
Y03853*
X01887Y03858*
X01882Y03863*
X01877Y03865*
G37*
G36*
X05009Y03825D02*
X05003D01*
X04998Y03823*
X04993Y03819*
X04991Y03813*
Y03807*
X04993Y03802*
X04998Y03798*
X05003Y03795*
X05009*
X05014Y03798*
X05019Y03802*
X05021Y03807*
Y03813*
X05019Y03819*
X05014Y03823*
X05009Y03825*
G37*
G36*
X03323Y03748D02*
X03317D01*
X03312Y03745*
X03308Y03741*
X03305Y03736*
Y0373*
X03308Y03724*
X03312Y0372*
X03317Y03718*
X03323*
X03329Y0372*
X03333Y03724*
X03335Y0373*
Y03736*
X03333Y03741*
X03329Y03745*
X03323Y03748*
G37*
G36*
X02991Y03732D02*
X02985D01*
X02979Y0373*
X02975Y03725*
X02973Y0372*
Y03714*
X02975Y03709*
X02979Y03704*
X02985Y03702*
X02991*
X02996Y03704*
X03Y03709*
X03003Y03714*
Y0372*
X03Y03725*
X02996Y0373*
X02991Y03732*
G37*
G36*
X0088Y03727D02*
X00874D01*
X00869Y03725*
X00865Y0372*
X00862Y03715*
Y03709*
X00865Y03704*
X00869Y03699*
X00874Y03697*
X0088*
X00886Y03699*
X0089Y03704*
X00892Y03709*
Y03715*
X0089Y0372*
X00886Y03725*
X0088Y03727*
G37*
G36*
X02707Y0372D02*
X02701D01*
X02695Y03718*
X02691Y03714*
X02689Y03708*
Y03703*
X02691Y03697*
X02695Y03693*
X02701Y03691*
X02707*
X02712Y03693*
X02716Y03697*
X02718Y03703*
Y03708*
X02716Y03714*
X02712Y03718*
X02707Y0372*
G37*
G36*
X00979Y03707D02*
X00973D01*
X00967Y03705*
X00963Y03701*
X00961Y03695*
Y03689*
X00963Y03684*
X00967Y0368*
X00973Y03677*
X00979*
X00984Y0368*
X00988Y03684*
X00991Y03689*
Y03695*
X00988Y03701*
X00984Y03705*
X00979Y03707*
G37*
G36*
X02885Y03702D02*
X0288D01*
X02874Y037*
X0287Y03695*
X02868Y0369*
Y03684*
X0287Y03679*
X02874Y03674*
X0288Y03672*
X02885*
X02891Y03674*
X02895Y03679*
X02897Y03684*
Y0369*
X02895Y03695*
X02891Y037*
X02885Y03702*
G37*
G36*
X03656Y03687D02*
X0365D01*
X03644Y03685*
X0364Y03681*
X03638Y03676*
Y0367*
X0364Y03664*
X03644Y0366*
X0365Y03658*
X03656*
X03661Y0366*
X03665Y03664*
X03668Y0367*
Y03676*
X03665Y03681*
X03661Y03685*
X03656Y03687*
G37*
G36*
X00506D02*
X005D01*
X00495Y03685*
X00491Y03681*
X00488Y03676*
Y0367*
X00491Y03664*
X00495Y0366*
X005Y03658*
X00506*
X00512Y0366*
X00516Y03664*
X00518Y0367*
Y03676*
X00516Y03681*
X00512Y03685*
X00506Y03687*
G37*
G36*
X00191D02*
X00185D01*
X0018Y03685*
X00176Y03681*
X00173Y03676*
Y0367*
X00176Y03664*
X0018Y0366*
X00185Y03658*
X00191*
X00197Y0366*
X00201Y03664*
X00203Y0367*
Y03676*
X00201Y03681*
X00197Y03685*
X00191Y03687*
G37*
G36*
X02481Y03704D02*
X02475D01*
X02469Y03702*
X02465Y03698*
X02463Y03692*
Y03686*
X02465Y03681*
X02469Y03677*
X02475Y03674*
X02481*
X02481Y03671*
Y03668*
X02484Y03663*
X02488Y03659*
X02493Y03657*
X02499*
X02504Y03659*
X02509Y03663*
X02511Y03668*
Y03674*
X02509Y0368*
X02504Y03684*
X02499Y03686*
X02493*
X02493Y0369*
Y03692*
X0249Y03698*
X02486Y03702*
X02481Y03704*
G37*
G36*
X04274Y03659D02*
X04268D01*
X04262Y03657*
X04259Y03654*
X04257Y03653*
X04254Y03654*
X04252Y03657*
X04246Y03659*
X0424*
X04235Y03657*
X04231Y03653*
X04228Y03647*
Y03641*
X04231Y03636*
X04233Y03633*
X04234Y03631*
X04233Y03628*
X04231Y03625*
X04228Y0362*
Y03614*
X04231Y03608*
X04233Y03606*
X04234Y03603*
X04233Y036*
X04231Y03598*
X04228Y03592*
Y03586*
X04231Y03581*
X04233Y03578*
X04234Y03575*
X04233Y03573*
X04231Y0357*
X04228Y03565*
Y03559*
X04231Y03553*
X04235Y03549*
X0424Y03547*
X04246*
X04252Y03549*
X04256Y03553*
X04258Y03559*
Y03565*
X04256Y0357*
X04253Y03573*
X04252Y03575*
X04253Y03578*
X04254Y03579*
X04257Y0358*
X04259Y03579*
X04262Y03577*
X04268Y03574*
X04274*
X04279Y03577*
X04283Y03581*
X04286Y03586*
Y03592*
X04283Y03598*
X0428Y036*
X0428Y03603*
X0428Y03606*
X04283Y03608*
X04286Y03614*
Y0362*
X04283Y03625*
X0428Y03628*
X0428Y03631*
X0428Y03633*
X04283Y03636*
X04286Y03641*
Y03647*
X04283Y03653*
X04279Y03657*
X04274Y03659*
G37*
G36*
X02817Y03675D02*
X02811D01*
X02806Y03672*
X02802Y03668*
X02799Y03663*
Y03657*
X02802Y03651*
X02806Y03647*
X02811Y03645*
X02817*
X02823Y03647*
X02827Y03651*
X02829Y03657*
Y03663*
X02827Y03668*
X02823Y03672*
X02817Y03675*
G37*
G36*
X03007Y03671D02*
X03001D01*
X02995Y03669*
X02991Y03665*
X02989Y03659*
Y03653*
X02991Y03648*
X02995Y03644*
X03001Y03641*
X03007*
X03012Y03644*
X03016Y03648*
X03019Y03653*
Y03659*
X03016Y03665*
X03012Y03669*
X03007Y03671*
G37*
G36*
X04084Y03653D02*
X04078D01*
X04073Y03651*
X04068Y03647*
X04066Y03641*
Y03635*
X04068Y0363*
X04073Y03626*
X04078Y03623*
X04084*
X04089Y03626*
X04094Y0363*
X04096Y03635*
Y03641*
X04094Y03647*
X04089Y03651*
X04084Y03653*
G37*
G36*
X04044D02*
X04038D01*
X04033Y03651*
X04028Y03647*
X04026Y03641*
Y03635*
X04028Y0363*
X04033Y03626*
X04038Y03623*
X04044*
X04049Y03626*
X04054Y0363*
X04056Y03635*
Y03641*
X04054Y03647*
X04049Y03651*
X04044Y03653*
G37*
G36*
X04004D02*
X03998D01*
X03993Y03651*
X03988Y03647*
X03986Y03641*
Y03635*
X03988Y0363*
X03993Y03626*
X03998Y03623*
X04004*
X04009Y03626*
X04014Y0363*
X04016Y03635*
Y03641*
X04014Y03647*
X04009Y03651*
X04004Y03653*
G37*
G36*
X00979Y03638D02*
X00973D01*
X00967Y03636*
X00963Y03632*
X00961Y03626*
Y0362*
X00963Y03615*
X00967Y03611*
X00973Y03609*
X00979*
X00984Y03611*
X00988Y03615*
X00991Y0362*
Y03626*
X00988Y03632*
X00984Y03636*
X00979Y03638*
G37*
G36*
X0088Y03628D02*
X00874D01*
X00869Y03626*
X00865Y03622*
X00862Y03616*
Y03611*
X00865Y03605*
X00869Y03601*
X00874Y03599*
X0088*
X00886Y03601*
X0089Y03605*
X00892Y03611*
Y03616*
X0089Y03622*
X00886Y03626*
X0088Y03628*
G37*
G36*
X03449Y03627D02*
X03443D01*
X03437Y03625*
X03433Y03621*
X03431Y03616*
Y0361*
X03433Y03604*
X03437Y036*
X03443Y03598*
X03449*
X03454Y036*
X03458Y03604*
X03461Y0361*
Y03616*
X03458Y03621*
X03454Y03625*
X03449Y03627*
G37*
G36*
X02828Y03617D02*
X02822D01*
X02817Y03614*
X02813Y0361*
X0281Y03605*
Y03599*
X02813Y03593*
X02817Y03589*
X02822Y03587*
X02828*
X02834Y03589*
X02838Y03593*
X0284Y03599*
Y03605*
X02838Y0361*
X02834Y03614*
X02828Y03617*
G37*
G36*
X02707Y03616D02*
X02701D01*
X02695Y03614*
X02691Y03609*
X02689Y03604*
Y03598*
X02691Y03593*
X02695Y03588*
X02701Y03586*
X02707*
X02712Y03588*
X02716Y03593*
X02718Y03598*
Y03604*
X02716Y03609*
X02712Y03614*
X02707Y03616*
G37*
G36*
X02664Y03616D02*
X02658D01*
X02652Y03613*
X02648Y03609*
X02646Y03604*
Y03598*
X02648Y03592*
X02652Y03588*
X02658Y03586*
X02664*
X02669Y03588*
X02673Y03592*
X02676Y03598*
Y03604*
X02673Y03609*
X02669Y03613*
X02664Y03616*
G37*
G36*
X02627D02*
X02621D01*
X02616Y03613*
X02612Y03609*
X0261Y03604*
Y03598*
X02612Y03592*
X02616Y03588*
X02621Y03586*
X02627*
X02633Y03588*
X02637Y03592*
X02639Y03598*
Y03604*
X02637Y03609*
X02633Y03613*
X02627Y03616*
G37*
G36*
X04084Y03613D02*
X04078D01*
X04073Y03611*
X04068Y03607*
X04066Y03601*
Y03595*
X04068Y0359*
X04073Y03586*
X04078Y03583*
X04084*
X04089Y03586*
X04094Y0359*
X04096Y03595*
Y03601*
X04094Y03607*
X04089Y03611*
X04084Y03613*
G37*
G36*
X04044D02*
X04038D01*
X04033Y03611*
X04028Y03607*
X04026Y03601*
Y03595*
X04028Y0359*
X04033Y03586*
X04038Y03583*
X04044*
X04049Y03586*
X04054Y0359*
X04056Y03595*
Y03601*
X04054Y03607*
X04049Y03611*
X04044Y03613*
G37*
G36*
X04004D02*
X03998D01*
X03993Y03611*
X03988Y03607*
X03986Y03601*
Y03595*
X03988Y0359*
X03993Y03586*
X03998Y03583*
X04004*
X04009Y03586*
X04014Y0359*
X04016Y03595*
Y03601*
X04014Y03607*
X04009Y03611*
X04004Y03613*
G37*
G36*
X0154Y03579D02*
X01534D01*
X01528Y03577*
X01524Y03573*
X01522Y03567*
Y03561*
X01524Y03556*
X01528Y03552*
X01534Y03549*
X0154*
X01545Y03552*
X01549Y03556*
X01552Y03561*
Y03567*
X01549Y03573*
X01545Y03577*
X0154Y03579*
G37*
G36*
X04343Y03572D02*
X04337D01*
X04332Y0357*
X04328Y03566*
X04325Y0356*
Y03554*
X04328Y03549*
X04332Y03545*
X04337Y03542*
X04343*
X04349Y03545*
X04353Y03549*
X04355Y03554*
Y0356*
X04353Y03566*
X04349Y0357*
X04343Y03572*
G37*
G36*
X04432Y03562D02*
X04426D01*
X04421Y0356*
X04416Y03556*
X04414Y0355*
Y03544*
X04416Y03539*
X04421Y03535*
X04426Y03533*
X04432*
X04437Y03535*
X04442Y03539*
X04444Y03544*
Y0355*
X04442Y03556*
X04437Y0356*
X04432Y03562*
G37*
G36*
X02608Y03531D02*
X02602D01*
X02597Y03529*
X02593Y03525*
X02591Y0352*
Y03514*
X02593Y03508*
X02597Y03504*
X02602Y03502*
X02608*
X02614Y03504*
X02618Y03508*
X0262Y03514*
Y0352*
X02618Y03525*
X02614Y03529*
X02608Y03531*
G37*
G36*
X02683Y03531D02*
X02677D01*
X02672Y03529*
X02668Y03524*
X02666Y03519*
Y03513*
X02668Y03508*
X02672Y03503*
X02677Y03501*
X02683*
X02689Y03503*
X02693Y03508*
X02695Y03513*
Y03519*
X02693Y03524*
X02689Y03529*
X02683Y03531*
G37*
G36*
X02646Y0353D02*
X0264D01*
X02635Y03528*
X0263Y03524*
X02628Y03518*
Y03512*
X0263Y03507*
X02635Y03503*
X0264Y035*
X02646*
X02651Y03503*
X02656Y03507*
X02658Y03512*
Y03518*
X02656Y03524*
X02651Y03528*
X02646Y0353*
G37*
G36*
X02805Y0353D02*
X028D01*
X02794Y03527*
X0279Y03523*
X02788Y03518*
Y03512*
X0279Y03506*
X02794Y03502*
X028Y035*
X02805*
X02811Y03502*
X02815Y03506*
X02817Y03512*
Y03518*
X02815Y03523*
X02811Y03527*
X02805Y0353*
G37*
G36*
X02763Y03529D02*
X02757D01*
X02752Y03527*
X02748Y03523*
X02745Y03517*
Y03511*
X02748Y03506*
X02752Y03502*
X02757Y03499*
X02763*
X02769Y03502*
X02773Y03506*
X02775Y03511*
Y03517*
X02773Y03523*
X02769Y03527*
X02763Y03529*
G37*
G36*
X02724D02*
X02718D01*
X02712Y03527*
X02708Y03523*
X02706Y03517*
Y03511*
X02708Y03506*
X02712Y03502*
X02718Y03499*
X02724*
X02729Y03502*
X02733Y03506*
X02736Y03511*
Y03517*
X02733Y03523*
X02729Y03527*
X02724Y03529*
G37*
G36*
X02548Y03552D02*
X02542D01*
X02536Y03549*
X02532Y03545*
X0253Y0354*
Y03534*
X02532Y03528*
X02536Y03524*
X02542Y03522*
X02546*
X02549Y03519*
X02549Y03518*
X02548Y03515*
Y03509*
X0255Y03503*
X02554Y03499*
X0256Y03497*
X02566*
X02571Y03499*
X02575Y03503*
X02577Y03509*
Y03515*
X02575Y0352*
X02571Y03524*
X02566Y03527*
X02561*
X02559Y03529*
X02558Y0353*
X02559Y03534*
Y0354*
X02557Y03545*
X02553Y03549*
X02548Y03552*
G37*
G36*
X04659Y0352D02*
X04653D01*
X04648Y03518*
X04643Y03514*
X04641Y03508*
Y03502*
X04643Y03497*
X04648Y03493*
X04653Y03491*
X04659*
X04664Y03493*
X04669Y03497*
X04671Y03502*
Y03508*
X04669Y03514*
X04664Y03518*
X04659Y0352*
G37*
G36*
X00839Y03514D02*
X00833D01*
X00827Y03511*
X00823Y03507*
X00821Y03502*
Y03496*
X00823Y0349*
X00827Y03486*
X00833Y03484*
X00839*
X00844Y03486*
X00848Y0349*
X00851Y03496*
Y03502*
X00848Y03507*
X00844Y03511*
X00839Y03514*
G37*
G36*
X02435Y0353D02*
X02429D01*
X02424Y03528*
X0242Y03524*
X02418Y03518*
Y03514*
X02416Y03511*
X02414Y0351*
X0241*
X02404Y03508*
X024Y03504*
X02398Y03498*
Y03492*
X024Y03487*
X02404Y03483*
X0241Y03481*
X02416*
X02421Y03483*
X02425Y03487*
X02428Y03492*
Y03497*
X02429Y03499*
X02431Y035*
X02435*
X02441Y03503*
X02445Y03507*
X02447Y03512*
Y03518*
X02445Y03524*
X02441Y03528*
X02435Y0353*
G37*
G36*
X0214Y0351D02*
X02134D01*
X02129Y03508*
X02125Y03504*
X02122Y03498*
Y03492*
X02125Y03487*
X02129Y03483*
X02134Y03481*
X0214*
X02146Y03483*
X0215Y03487*
X02152Y03492*
Y03498*
X0215Y03504*
X02146Y03508*
X0214Y0351*
G37*
G36*
X025Y0352D02*
X02494D01*
X02489Y03517*
X02484Y03513*
X02482Y03508*
Y03504*
X0248Y03501*
X02478Y03501*
X02474*
X02468Y03498*
X02464Y03494*
X02462Y03489*
Y03483*
X02464Y03477*
X02468Y03474*
X02468Y03473*
X02466Y0347*
X02466Y0347*
X02464Y03471*
X02458*
X02453Y03469*
X02448Y03464*
X02446Y03459*
Y03453*
X02448Y03448*
X02453Y03443*
X02458Y03441*
X02464*
X02469Y03443*
X02473Y03448*
X02476Y03453*
Y03459*
X02473Y03464*
X0247Y03468*
X02469Y03469*
X02471Y03472*
X02472Y03472*
X02474Y03471*
X0248*
X02485Y03473*
X02489Y03477*
X02491Y03483*
Y03487*
X02494Y03489*
X02495Y0349*
X025*
X02505Y03492*
X0251Y03496*
X02512Y03502*
Y03508*
X0251Y03513*
X02505Y03517*
X025Y0352*
G37*
G36*
X02853Y035D02*
X02847D01*
X02842Y03498*
X02837Y03494*
X02835Y03489*
Y03483*
X02837Y03477*
X02842Y03473*
X02847Y03471*
X02853*
X02858Y03473*
X02863Y03477*
X02865Y03483*
Y03489*
X02863Y03494*
X02858Y03498*
X02853Y035*
G37*
G36*
X04535Y03492D02*
X04529D01*
X04524Y0349*
X04519Y03486*
X04517Y0348*
Y03474*
X04519Y03469*
X04524Y03465*
X04529Y03463*
X04535*
X0454Y03465*
X04545Y03469*
X04547Y03474*
Y0348*
X04545Y03486*
X0454Y0349*
X04535Y03492*
G37*
G36*
X02081Y0351D02*
X02075D01*
X0207Y03508*
X02066Y03504*
X02063Y03498*
Y03492*
X02066Y03487*
X0207Y03483*
X02075Y03481*
X02079*
X02082Y03479*
X02083Y03477*
Y03473*
X02085Y03467*
X02089Y03463*
X02095Y03461*
X02101*
X02106Y03463*
X0211Y03467*
X02113Y03473*
Y03479*
X0211Y03484*
X02106Y03488*
X02101Y03491*
X02096*
X02094Y03492*
X02093Y03494*
Y03498*
X02091Y03504*
X02086Y03508*
X02081Y0351*
G37*
G36*
X03169Y03481D02*
X03163D01*
X03157Y03478*
X03153Y03474*
X03151Y03469*
Y03463*
X03153Y03458*
X03157Y03453*
X03163Y03451*
X03169*
X03174Y03453*
X03178Y03458*
X03181Y03463*
Y03469*
X03178Y03474*
X03174Y03478*
X03169Y03481*
G37*
G36*
X03832Y03476D02*
X03827D01*
X03821Y03474*
X03817Y0347*
X03815Y03465*
Y03459*
X03817Y03453*
X03821Y03449*
X03827Y03447*
X03832*
X03838Y03449*
X03842Y03453*
X03844Y03459*
Y03465*
X03842Y0347*
X03838Y03474*
X03832Y03476*
G37*
G36*
X04281Y03443D02*
X04275D01*
X0427Y03441*
X04266Y03436*
X04266Y03436*
X04262*
X04261Y03436*
X04257Y03441*
X04252Y03443*
X04246*
X0424Y03441*
X04236Y03436*
X04236Y03436*
X04232*
X04232Y03436*
X04228Y03441*
X04222Y03443*
X04216*
X04211Y03441*
X04207Y03436*
X04204Y03431*
Y03425*
X04207Y0342*
X04211Y03415*
X04216Y03413*
X04216Y03409*
X04216*
X0421Y03407*
X04206Y03403*
X04204Y03397*
Y03391*
X04206Y03386*
X0421Y03382*
X04216Y0338*
X04222*
X04227Y03382*
X04231Y03386*
X04231Y03386*
X04235*
X04236Y03386*
X0424Y03382*
X04245Y0338*
X04251*
X04257Y03382*
X04261Y03386*
X04261Y03386*
X04265*
X04265Y03386*
X04269Y03382*
X04275Y0338*
X04281*
X04283Y0338*
X04287Y03378*
X04288Y03376*
X04292Y03368*
X04299Y03362*
X04307Y03357*
X04316Y03355*
X04325*
X04334Y03357*
X04342Y03362*
X04348Y03368*
X04353Y03376*
X04355Y03385*
Y03395*
X04353Y03403*
X04348Y03411*
X04342Y03418*
X04334Y03423*
X04325Y03425*
X04316*
X04307Y03423*
X04299Y03418*
X04292Y03411*
X0429Y03407*
X04286Y03407*
X04286Y03407*
X04281Y03409*
X04281Y03413*
X04281*
X04287Y03415*
X04291Y0342*
X04293Y03425*
Y03431*
X04291Y03436*
X04287Y03441*
X04281Y03443*
G37*
G36*
X04354Y03523D02*
X04348D01*
X04342Y03521*
X04338Y03517*
X04336Y03511*
Y03505*
X04338Y035*
X0434Y03498*
X04342Y03495*
X0434Y03492*
X04338Y0349*
X04336Y03485*
Y03479*
X04338Y03473*
X04341Y0347*
X04342Y03468*
X04341Y03465*
X04338Y03462*
X04336Y03457*
Y03451*
X04338Y03446*
X04342Y03441*
X04348Y03439*
X04354*
X04355Y0344*
X04356Y03439*
X04359Y03437*
Y03432*
X04361Y03427*
X04365Y03423*
X0437Y03421*
X04376*
X04382Y03423*
X04386Y03427*
X04388Y03432*
Y03438*
X04386Y03444*
X04382Y03448*
X04376Y0345*
X0437*
X04369Y0345*
X04368Y0345*
X04366Y03453*
Y03457*
X04363Y03462*
X04361Y03465*
X0436Y03468*
X04361Y0347*
X04363Y03473*
X04366Y03479*
Y03485*
X04363Y0349*
X04361Y03492*
X0436Y03495*
X04361Y03498*
X04363Y035*
X04366Y03505*
Y03511*
X04363Y03517*
X04359Y03521*
X04354Y03523*
G37*
G36*
X03643Y03441D02*
X03637D01*
X03632Y03439*
X03627Y03435*
X03625Y0343*
Y03424*
X03627Y03418*
X03632Y03414*
X03637Y03412*
X03643*
X03648Y03414*
X03653Y03418*
X03655Y03424*
Y0343*
X03653Y03435*
X03648Y03439*
X03643Y03441*
G37*
G36*
X03131Y03427D02*
X03125D01*
X0312Y03425*
X03116Y03421*
X03114Y03416*
Y0341*
X03116Y03404*
X0312Y034*
X03125Y03398*
X03131*
X03137Y034*
X03141Y03404*
X03143Y0341*
Y03416*
X03141Y03421*
X03137Y03425*
X03131Y03427*
G37*
G36*
X02788Y03427D02*
X02782D01*
X02776Y03424*
X02772Y0342*
X0277Y03415*
Y03409*
X02772Y03403*
X02776Y03399*
X02782Y03397*
X02788*
X02793Y03399*
X02797Y03403*
X028Y03409*
Y03415*
X02797Y0342*
X02793Y03424*
X02788Y03427*
G37*
G36*
X02744Y03426D02*
X02739D01*
X02733Y03424*
X02729Y0342*
X02727Y03414*
Y03408*
X02729Y03403*
X02733Y03399*
X02739Y03396*
X02744*
X0275Y03399*
X02754Y03403*
X02756Y03408*
Y03414*
X02754Y0342*
X0275Y03424*
X02744Y03426*
G37*
G36*
X02705D02*
X02699D01*
X02694Y03424*
X0269Y0342*
X02687Y03414*
Y03408*
X0269Y03403*
X02694Y03399*
X02699Y03396*
X02705*
X02711Y03399*
X02715Y03403*
X02717Y03408*
Y03414*
X02715Y0342*
X02711Y03424*
X02705Y03426*
G37*
G36*
X02666D02*
X0266D01*
X02654Y03424*
X0265Y0342*
X02648Y03414*
Y03408*
X0265Y03403*
X02654Y03399*
X0266Y03396*
X02666*
X02671Y03399*
X02675Y03403*
X02678Y03408*
Y03414*
X02675Y0342*
X02671Y03424*
X02666Y03426*
G37*
G36*
X02587D02*
X02581D01*
X02576Y03424*
X02571Y0342*
X02569Y03414*
Y03408*
X02571Y03403*
X02576Y03399*
X02581Y03396*
X02587*
X02592Y03399*
X02597Y03403*
X02599Y03408*
Y03414*
X02597Y0342*
X02592Y03424*
X02587Y03426*
G37*
G36*
X02548D02*
X02542D01*
X02536Y03424*
X02532Y0342*
X0253Y03414*
Y03408*
X02532Y03403*
X02536Y03399*
X02542Y03396*
X02548*
X02553Y03399*
X02557Y03403*
X02559Y03408*
Y03414*
X02557Y0342*
X02553Y03424*
X02548Y03426*
G37*
G36*
X02626Y03426D02*
X0262D01*
X02615Y03424*
X02611Y0342*
X02609Y03414*
Y03408*
X02611Y03403*
X02615Y03399*
X0262Y03396*
X02626*
X02632Y03399*
X02636Y03403*
X02638Y03408*
Y03414*
X02636Y0342*
X02632Y03424*
X02626Y03426*
G37*
G36*
X02827Y03424D02*
X02821D01*
X02816Y03422*
X02812Y03418*
X02809Y03412*
Y03406*
X02812Y03401*
X02816Y03397*
X02821Y03394*
X02827*
X02833Y03397*
X02837Y03401*
X02839Y03406*
Y03412*
X02837Y03418*
X02833Y03422*
X02827Y03424*
G37*
G36*
X03449Y03412D02*
X03443D01*
X03437Y0341*
X03433Y03406*
X03431Y034*
Y03394*
X03433Y03389*
X03437Y03385*
X03443Y03383*
X03449*
X03454Y03385*
X03458Y03389*
X03461Y03394*
Y034*
X03458Y03406*
X03454Y0341*
X03449Y03412*
G37*
G36*
X03682Y03374D02*
X03676D01*
X03671Y03372*
X03667Y03367*
X03664Y03362*
Y03356*
X03667Y03351*
X03671Y03346*
X03676Y03344*
X03682*
X03688Y03346*
X03692Y03351*
X03694Y03356*
Y03362*
X03692Y03367*
X03688Y03372*
X03682Y03374*
G37*
G36*
X01609Y03372D02*
X01603D01*
X01597Y0337*
X01593Y03366*
X01591Y03361*
Y03355*
X01593Y03349*
X01597Y03345*
X01603Y03343*
X01609*
X01614Y03345*
X01618Y03349*
X0162Y03355*
Y03361*
X01618Y03366*
X01614Y0337*
X01609Y03372*
G37*
G36*
X01294D02*
X01288D01*
X01282Y0337*
X01278Y03366*
X01276Y03361*
Y03355*
X01278Y03349*
X01282Y03345*
X01288Y03343*
X01294*
X01299Y03345*
X01303Y03349*
X01306Y03355*
Y03361*
X01303Y03366*
X01299Y0337*
X01294Y03372*
G37*
G36*
X00979D02*
X00973D01*
X00967Y0337*
X00963Y03366*
X00961Y03361*
Y03355*
X00963Y03349*
X00967Y03345*
X00973Y03343*
X00979*
X00984Y03345*
X00988Y03349*
X00991Y03355*
Y03361*
X00988Y03366*
X00984Y0337*
X00979Y03372*
G37*
G36*
X00664D02*
X00658D01*
X00652Y0337*
X00648Y03366*
X00646Y03361*
Y03355*
X00648Y03349*
X00652Y03345*
X00658Y03343*
X00664*
X00669Y03345*
X00673Y03349*
X00676Y03355*
Y03361*
X00673Y03366*
X00669Y0337*
X00664Y03372*
G37*
G36*
X00349D02*
X00343D01*
X00337Y0337*
X00333Y03366*
X00331Y03361*
Y03355*
X00333Y03349*
X00337Y03345*
X00343Y03343*
X00349*
X00354Y03345*
X00358Y03349*
X00361Y03355*
Y03361*
X00358Y03366*
X00354Y0337*
X00349Y03372*
G37*
G36*
X00034D02*
X00028D01*
X00022Y0337*
X00018Y03366*
X00016Y03361*
Y03355*
X00018Y03349*
X00022Y03345*
X00028Y03343*
X00034*
X00039Y03345*
X00043Y03349*
X00046Y03355*
Y03361*
X00043Y03366*
X00039Y0337*
X00034Y03372*
G37*
G36*
X03132Y03364D02*
X03126D01*
X03121Y03362*
X03117Y03358*
X03115Y03353*
Y03347*
X03117Y03341*
X03121Y03337*
X03126Y03335*
X03132*
X03138Y03337*
X03142Y03341*
X03144Y03347*
Y03353*
X03142Y03358*
X03138Y03362*
X03132Y03364*
G37*
G36*
X03553Y03364D02*
X03548D01*
X03542Y03362*
X03538Y03358*
X03536Y03352*
Y03346*
X03538Y03341*
X03542Y03337*
X03548Y03334*
X03553*
X03559Y03337*
X03563Y03341*
X03565Y03346*
Y03352*
X03563Y03358*
X03559Y03362*
X03553Y03364*
G37*
G36*
X03881Y03348D02*
X03875D01*
X0387Y03346*
X03866Y03341*
X03863Y03336*
Y0333*
X03866Y03325*
X0387Y0332*
X03875Y03318*
X03881*
X03887Y0332*
X03891Y03325*
X03893Y0333*
Y03336*
X03891Y03341*
X03887Y03346*
X03881Y03348*
G37*
G36*
X02742Y03333D02*
X02737D01*
X02731Y03331*
X02727Y03327*
X02725Y03321*
Y03315*
X02727Y0331*
X02731Y03306*
X02737Y03303*
X02742*
X02748Y03306*
X02752Y0331*
X02754Y03315*
Y03321*
X02752Y03327*
X02748Y03331*
X02742Y03333*
G37*
G36*
X02703D02*
X02697D01*
X02692Y03331*
X02688Y03327*
X02685Y03321*
Y03315*
X02688Y0331*
X02692Y03306*
X02697Y03303*
X02703*
X02709Y03306*
X02713Y0331*
X02715Y03315*
Y03321*
X02713Y03327*
X02709Y03331*
X02703Y03333*
G37*
G36*
X02624D02*
X02618D01*
X02613Y03331*
X02609Y03327*
X02607Y03321*
Y03315*
X02609Y0331*
X02613Y03306*
X02618Y03303*
X02624*
X0263Y03306*
X02634Y0331*
X02636Y03315*
Y03321*
X02634Y03327*
X0263Y03331*
X02624Y03333*
G37*
G36*
X02546D02*
X0254D01*
X02534Y03331*
X0253Y03327*
X02528Y03321*
Y03315*
X0253Y0331*
X02534Y03306*
X0254Y03303*
X02546*
X02551Y03306*
X02555Y0331*
X02557Y03315*
Y03321*
X02555Y03327*
X02551Y03331*
X02546Y03333*
G37*
G36*
X03079Y0333D02*
X03073D01*
X03068Y03328*
X03064Y03323*
X03062Y03318*
Y03312*
X03064Y03307*
X03068Y03302*
X03073Y033*
X03079*
X03085Y03302*
X03089Y03307*
X03091Y03312*
Y03318*
X03089Y03323*
X03085Y03328*
X03079Y0333*
G37*
G36*
X02825Y03329D02*
X02819D01*
X02814Y03327*
X0281Y03323*
X02807Y03317*
Y03311*
X0281Y03306*
X02814Y03302*
X02819Y03299*
X02825*
X02831Y03302*
X02835Y03306*
X02837Y03311*
Y03317*
X02835Y03323*
X02831Y03327*
X02825Y03329*
G37*
G36*
X02786D02*
X0278D01*
X02774Y03327*
X0277Y03323*
X02768Y03317*
Y03311*
X0277Y03306*
X02774Y03302*
X0278Y03299*
X02786*
X02791Y03302*
X02795Y03306*
X02798Y03311*
Y03317*
X02795Y03323*
X02791Y03327*
X02786Y03329*
G37*
G36*
X02668D02*
X02662D01*
X02656Y03327*
X02652Y03323*
X0265Y03317*
Y03311*
X02652Y03306*
X02656Y03302*
X02662Y03299*
X02668*
X02673Y03302*
X02677Y03306*
X0268Y03311*
Y03317*
X02677Y03323*
X02673Y03327*
X02668Y03329*
G37*
G36*
X02585D02*
X02579D01*
X02574Y03327*
X02569Y03323*
X02567Y03317*
Y03311*
X02569Y03306*
X02574Y03302*
X02579Y03299*
X02585*
X0259Y03302*
X02595Y03306*
X02597Y03311*
Y03317*
X02595Y03323*
X0259Y03327*
X02585Y03329*
G37*
G36*
X04461Y03324D02*
X04455D01*
X0445Y03322*
X04445Y03318*
X04443Y03312*
Y03306*
X04445Y03301*
X0445Y03297*
X04455Y03295*
X04461*
X04466Y03297*
X04471Y03301*
X04473Y03306*
Y03312*
X04471Y03318*
X04466Y03322*
X04461Y03324*
G37*
G36*
X02975Y03294D02*
X02969D01*
X02963Y03291*
X02961Y03289*
X02958Y03288*
X02955Y03289*
X02953Y03291*
X02947Y03294*
X02941*
X02936Y03291*
X02932Y03287*
X02931Y03287*
X02927*
X02927Y03287*
X02923Y03291*
X02918Y03294*
X02912*
X02906Y03291*
X02902Y03287*
X029Y03282*
Y03276*
X02902Y0327*
X02906Y03266*
X0291Y03265*
X0291Y03263*
X0291Y03261*
X02905Y03259*
X02901Y03254*
X02899Y03249*
Y03243*
X02901Y03238*
X02905Y03233*
X02911Y03231*
X02916*
X02922Y03233*
X02926Y03238*
X02928Y03243*
Y03249*
X02926Y03254*
X02922Y03259*
X02918Y0326*
X02918Y03261*
X02918Y03264*
X02923Y03266*
X02927Y0327*
X02927Y03271*
X02931*
X02932Y0327*
X02936Y03266*
X02941Y03264*
X02947*
X02953Y03266*
X02955Y03269*
X02958Y0327*
X02961Y03269*
X02963Y03266*
X02969Y03264*
X02975*
X0298Y03266*
X02984Y0327*
X02987Y03276*
Y03282*
X02984Y03287*
X0298Y03291*
X02975Y03294*
G37*
G36*
X02882Y0329D02*
X02876D01*
X0287Y03287*
X02866Y03283*
X02864Y03279*
X02861Y03278*
X0286Y03278*
X02859Y0328*
X02855Y03284*
X0285Y03287*
X02844*
X02838Y03284*
X02834Y0328*
X02832Y03275*
Y03269*
X02834Y03263*
X02838Y03259*
X02844Y03257*
X0285*
X02855Y03259*
X02859Y03263*
X02861Y03268*
X02865Y03268*
X02865Y03268*
X02866Y03267*
X0287Y03262*
X02876Y0326*
X02882*
X02887Y03262*
X02891Y03267*
X02894Y03272*
Y03278*
X02891Y03283*
X02887Y03287*
X02882Y0329*
G37*
G36*
X02995Y03325D02*
X02989D01*
X02984Y03323*
X0298Y03319*
X02977Y03313*
Y03307*
X0298Y03302*
X02984Y03298*
X02989Y03295*
X02993*
X02996Y03292*
X02996Y03292*
X02995Y03289*
Y03283*
X02997Y03278*
X03002Y03274*
X03007Y03271*
X03013*
X03018Y03274*
X03023Y03278*
X03025Y03283*
Y03289*
X03028Y0329*
X03031Y03287*
Y03284*
X03034Y03278*
X03038Y03274*
X03043Y03272*
X03049*
X03055Y03274*
X03059Y03278*
X03061Y03284*
Y0329*
X03059Y03295*
X03055Y03299*
X03049Y03301*
X03047*
X03044Y03305*
Y03311*
X03042Y03316*
X03038Y0332*
X03032Y03322*
X03026*
X03021Y0332*
X03017Y03316*
X03014Y03311*
Y03305*
X03012Y03302*
X03008Y03302*
X03006Y03305*
X03007Y03307*
Y03313*
X03005Y03319*
X03001Y03323*
X02995Y03325*
G37*
G36*
X03187Y03292D02*
X03181D01*
X03175Y0329*
X03171Y03286*
X03169Y0328*
Y03274*
X03171Y03269*
X03175Y03265*
X03181Y03262*
X03187*
X03192Y03265*
X03196Y03269*
X03199Y03274*
Y0328*
X03196Y03286*
X03192Y0329*
X03187Y03292*
G37*
G36*
X02731Y03289D02*
X02725D01*
X02719Y03286*
X02715Y03282*
X02713Y03277*
Y03271*
X02715Y03265*
X02719Y03261*
X02725Y03259*
X02731*
X02736Y03261*
X0274Y03265*
X02743Y03271*
Y03277*
X0274Y03282*
X02736Y03286*
X02731Y03289*
G37*
G36*
X02772Y03287D02*
X02766D01*
X02761Y03285*
X02757Y03281*
X02754Y03276*
Y0327*
X02757Y03264*
X02761Y0326*
X02766Y03258*
X02772*
X02778Y0326*
X02782Y03264*
X02784Y0327*
Y03276*
X02782Y03281*
X02778Y03285*
X02772Y03287*
G37*
G36*
X03143Y03286D02*
X03137D01*
X03132Y03284*
X03128Y0328*
X03125Y03275*
Y03269*
X03128Y03263*
X03132Y03259*
X03137Y03257*
X03143*
X03149Y03259*
X03153Y03263*
X03155Y03269*
Y03275*
X03153Y0328*
X03149Y03284*
X03143Y03286*
G37*
G36*
X02562Y03286D02*
X02556D01*
X0255Y03283*
X02546Y03279*
X02544Y03274*
Y03268*
X02546Y03262*
X0255Y03258*
X02556Y03256*
X02562*
X02567Y03258*
X02571Y03262*
X02574Y03268*
Y03274*
X02571Y03279*
X02567Y03283*
X02562Y03286*
G37*
G36*
X02523Y03285D02*
X02517D01*
X02511Y03283*
X02507Y03279*
X02505Y03273*
Y03267*
X02507Y03262*
X02511Y03258*
X02517Y03255*
X02523*
X02528Y03258*
X02532Y03262*
X02535Y03267*
Y03273*
X02532Y03279*
X02528Y03283*
X02523Y03285*
G37*
G36*
X04325Y03325D02*
X04316D01*
X04307Y03323*
X04299Y03318*
X04292Y03311*
X04288Y03303*
X04285Y03295*
Y03285*
X04288Y03276*
X04292Y03268*
X04299Y03262*
X04307Y03257*
X04316Y03255*
X04325*
X04334Y03257*
X04342Y03262*
X04348Y03268*
X04353Y03276*
X04355Y03285*
Y03295*
X04353Y03303*
X04348Y03311*
X04342Y03318*
X04334Y03323*
X04325Y03325*
G37*
G36*
X04225D02*
X04216D01*
X04207Y03323*
X04199Y03318*
X04192Y03311*
X04188Y03303*
X04185Y03295*
Y03285*
X04188Y03276*
X04192Y03268*
X04199Y03262*
X04207Y03257*
X04216Y03255*
X04225*
X04234Y03257*
X04242Y03262*
X04248Y03268*
X04253Y03276*
X04255Y03285*
Y03295*
X04253Y03303*
X04248Y03311*
X04242Y03318*
X04234Y03323*
X04225Y03325*
G37*
G36*
X03233Y03284D02*
X03227D01*
X03221Y03282*
X03217Y03277*
X03215Y03272*
Y03266*
X03217Y03261*
X03221Y03256*
X03227Y03254*
X03233*
X03238Y03256*
X03242Y03261*
X03245Y03266*
Y03272*
X03242Y03277*
X03238Y03282*
X03233Y03284*
G37*
G36*
X04507Y03276D02*
X04501D01*
X04496Y03274*
X04491Y0327*
X04489Y03264*
Y03258*
X04491Y03253*
X04496Y03249*
X04501Y03247*
X04507*
X04512Y03249*
X04517Y03253*
X04519Y03258*
Y03264*
X04517Y0327*
X04512Y03274*
X04507Y03276*
G37*
G36*
X04057Y03311D02*
X04048D01*
X04039Y03309*
X04031Y03304*
X04024Y03298*
X0402Y0329*
X04017Y03281*
Y03272*
X0402Y03263*
X04024Y03255*
X04031Y03248*
X04039Y03244*
X04048Y03241*
X04057*
X04066Y03244*
X04074Y03248*
X04081Y03255*
X04085Y03263*
X04087Y03272*
Y03281*
X04085Y0329*
X04081Y03298*
X04074Y03304*
X04066Y03309*
X04057Y03311*
G37*
G36*
X03565Y03255D02*
X03559D01*
X03553Y03253*
X03549Y03248*
X03547Y03243*
Y03237*
X03549Y03232*
X03553Y03227*
X03559Y03225*
X03565*
X0357Y03227*
X03574Y03232*
X03577Y03237*
Y03243*
X03574Y03248*
X0357Y03253*
X03565Y03255*
G37*
G36*
X03427Y03253D02*
X03421D01*
X03416Y03251*
X03412Y03247*
X03409Y03241*
Y03235*
X03412Y0323*
X03416Y03226*
X03421Y03223*
X03427*
X03433Y03226*
X03437Y0323*
X03439Y03235*
Y03241*
X03437Y03247*
X03433Y03251*
X03427Y03253*
G37*
G36*
X00653Y03246D02*
X00647D01*
X00642Y03244*
X00637Y0324*
X00635Y03235*
Y03229*
X00637Y03223*
X00642Y03219*
X00647Y03217*
X00653*
X00658Y03219*
X00663Y03223*
X00665Y03229*
Y03235*
X00663Y0324*
X00658Y03244*
X00653Y03246*
G37*
G36*
X03095Y03245D02*
X03089D01*
X03083Y03242*
X03079Y03238*
X03077Y03233*
Y03227*
X03079Y03221*
X03083Y03217*
X03089Y03215*
X03095*
X031Y03217*
X03104Y03221*
X03107Y03227*
Y03233*
X03104Y03238*
X031Y03242*
X03095Y03245*
G37*
G36*
X03262Y03235D02*
X03256D01*
X03251Y03232*
X03247Y03228*
X03244Y03223*
Y03217*
X03247Y03211*
X03251Y03207*
X03256Y03205*
X03262*
X03268Y03207*
X03272Y03211*
X03274Y03217*
Y03223*
X03272Y03228*
X03268Y03232*
X03262Y03235*
G37*
G36*
X03277Y03191D02*
X03271D01*
X03266Y03189*
X03261Y03185*
X03259Y03179*
Y03174*
X03261Y03168*
X03266Y03164*
X03271Y03162*
X03277*
X03282Y03164*
X03287Y03168*
X03289Y03174*
Y03179*
X03287Y03185*
X03282Y03189*
X03277Y03191*
G37*
G36*
X04246Y03156D02*
X0424D01*
X04235Y03154*
X04231Y03149*
X04231Y03149*
X04227*
X04226Y03149*
X04222Y03154*
X04217Y03156*
X04211*
X04206Y03154*
X04201Y03149*
X04201Y03149*
X04197*
X04197Y03149*
X04193Y03154*
X04187Y03156*
X04181*
X04176Y03154*
X04172Y03149*
X0417Y03144*
Y03138*
X04172Y03133*
X04176Y03128*
X04176Y03128*
Y03124*
X04176Y03124*
X04172Y0312*
X0417Y03115*
Y03109*
X04172Y03103*
X04176Y03099*
X04176Y03099*
Y03095*
X04176Y03095*
X04172Y0309*
X0417Y03085*
Y03079*
X04172Y03074*
X04176Y03069*
X04181Y03067*
X04187*
X04193Y03069*
X04197Y03074*
X04197Y03074*
X04201*
X04201Y03074*
X04206Y03069*
X04211Y03067*
X04217*
X04222Y03069*
X04226Y03074*
X04227Y03074*
X04231*
X04231Y03074*
X04235Y03069*
X0424Y03067*
X04246*
X04252Y03069*
X04256Y03074*
X04258Y03079*
Y03085*
X04256Y0309*
X04252Y03095*
X04251Y03095*
Y03099*
X04252Y03099*
X04256Y03103*
X04258Y03109*
Y03115*
X04256Y0312*
X04252Y03124*
X04251Y03124*
Y03128*
X04252Y03128*
X04256Y03133*
X04258Y03138*
Y03144*
X04256Y03149*
X04252Y03154*
X04246Y03156*
G37*
G36*
X02002Y03164D02*
X01996D01*
X01991Y03162*
X01987Y03158*
X01984Y03152*
Y03147*
X01987Y03141*
X01991Y03137*
X01996Y03135*
X02002*
X02008Y03137*
X02012Y03141*
X02014Y03147*
Y03152*
X02012Y03158*
X02008Y03162*
X02002Y03164*
G37*
G36*
X00653Y03147D02*
X00647D01*
X00642Y03144*
X00637Y0314*
X00635Y03135*
Y03129*
X00637Y03123*
X00642Y03119*
X00647Y03117*
X00653*
X00658Y03119*
X00663Y03123*
X00665Y03129*
Y03135*
X00663Y0314*
X00658Y03144*
X00653Y03147*
G37*
G36*
X02103Y03146D02*
X02097D01*
X02092Y03144*
X02088Y0314*
X02085Y03134*
Y03128*
X02088Y03123*
X02092Y03119*
X02097Y03116*
X02103*
X02109Y03119*
X02113Y03123*
X02115Y03128*
Y03134*
X02113Y0314*
X02109Y03144*
X02103Y03146*
G37*
G36*
X03323Y03141D02*
X03317D01*
X03312Y03139*
X03307Y03134*
X03305Y03129*
Y03123*
X03307Y03118*
X03312Y03113*
X03317Y03111*
X03323*
X03328Y03113*
X03333Y03118*
X03335Y03123*
Y03129*
X03333Y03134*
X03328Y03139*
X03323Y03141*
G37*
G36*
X04442Y03125D02*
X04436D01*
X04431Y03123*
X04427Y03119*
X04424Y03113*
Y03107*
X04427Y03102*
X04431Y03098*
X04436Y03095*
X04442*
X04448Y03098*
X04452Y03102*
X04454Y03107*
Y03113*
X04452Y03119*
X04448Y03123*
X04442Y03125*
G37*
G36*
X04403D02*
X04397D01*
X04391Y03123*
X04387Y03119*
X04385Y03113*
Y03107*
X04387Y03102*
X04391Y03098*
X04397Y03095*
X04403*
X04408Y03098*
X04412Y03102*
X04415Y03107*
Y03113*
X04412Y03119*
X04408Y03123*
X04403Y03125*
G37*
G36*
X02004Y0312D02*
X01998D01*
X01992Y03117*
X01988Y03113*
X01986Y03108*
Y03102*
X01988Y03096*
X01992Y03092*
X01998Y0309*
X02004*
X02009Y03092*
X02013Y03096*
X02015Y03102*
Y03108*
X02013Y03113*
X02009Y03117*
X02004Y0312*
G37*
G36*
X03555Y03118D02*
X0355D01*
X03544Y03115*
X0354Y03111*
X03538Y03106*
Y031*
X0354Y03094*
X03544Y0309*
X0355Y03088*
X03555*
X03561Y0309*
X03565Y03094*
X03567Y031*
Y03106*
X03565Y03111*
X03561Y03115*
X03555Y03118*
G37*
G36*
X02332Y03108D02*
X02326D01*
X02321Y03105*
X02316Y03101*
X02314Y03096*
Y0309*
X02316Y03084*
X02321Y0308*
X02326Y03078*
X02332*
X02337Y0308*
X02342Y03084*
X02344Y0309*
Y03096*
X02342Y03101*
X02337Y03105*
X02332Y03108*
G37*
G36*
X03174Y03108D02*
X03168D01*
X03162Y03105*
X03158Y03101*
X03156Y03096*
Y0309*
X03158Y03084*
X03162Y0308*
X03168Y03078*
X03174*
X03179Y0308*
X03183Y03084*
X03186Y0309*
Y03096*
X03183Y03101*
X03179Y03105*
X03174Y03108*
G37*
G36*
X02103Y03107D02*
X02097D01*
X02092Y03104*
X02088Y031*
X02085Y03095*
Y03089*
X02088Y03083*
X02092Y03079*
X02097Y03077*
X02103*
X02109Y03079*
X02113Y03083*
X02115Y03089*
Y03095*
X02113Y031*
X02109Y03104*
X02103Y03107*
G37*
G36*
X02534Y03106D02*
X02528D01*
X02522Y03104*
X02518Y031*
X02516Y03094*
Y03088*
X02518Y03083*
X02522Y03079*
X02528Y03076*
X02534*
X02539Y03079*
X02543Y03083*
X02546Y03088*
Y03094*
X02543Y031*
X02539Y03104*
X02534Y03106*
G37*
G36*
X02852Y03105D02*
X02846D01*
X0284Y03103*
X02836Y03099*
X02834Y03093*
Y03087*
X02836Y03082*
X0284Y03078*
X02846Y03075*
X02852*
X02857Y03078*
X02861Y03082*
X02864Y03087*
Y03093*
X02861Y03099*
X02857Y03103*
X02852Y03105*
G37*
G36*
X02761Y03104D02*
X02755D01*
X0275Y03101*
X02746Y03097*
X02743Y03092*
Y03086*
X02746Y0308*
X0275Y03076*
X02755Y03074*
X02761*
X02767Y03076*
X02771Y0308*
X02773Y03086*
Y03092*
X02771Y03097*
X02767Y03101*
X02761Y03104*
G37*
G36*
X02583Y03109D02*
X02577D01*
X02572Y03107*
X02568Y03103*
X02565Y03097*
Y03091*
X02568Y03086*
X02572Y03082*
X02577Y0308*
X02582*
X02583Y03079*
Y03073*
X02585Y03068*
X02589Y03063*
X02595Y03061*
X02601*
X02606Y03063*
X0261Y03068*
X02612Y03073*
Y03078*
X02613Y03078*
X02619*
X02619Y03078*
Y03073*
X02621Y03067*
X02626Y03063*
X02631Y03061*
X02637*
X02642Y03063*
X02647Y03067*
X02649Y03073*
Y03076*
X02653Y03079*
X02654Y03078*
X0266*
X02662Y03077*
Y03073*
X02664Y03068*
X02668Y03064*
X02673Y03061*
X02679*
X02685Y03064*
X02689Y03068*
X02691Y03073*
Y03075*
X02693Y03079*
X02699*
X02701Y03077*
Y03074*
X02704Y03068*
X02708Y03064*
X02713Y03062*
X02719*
X02725Y03064*
X02729Y03068*
X02731Y03074*
Y0308*
X02729Y03085*
X02725Y03089*
X02719Y03092*
X02713*
X02711Y03093*
Y03097*
X02709Y03102*
X02705Y03106*
X02699Y03108*
X02693*
X02688Y03106*
X02684Y03102*
X02681Y03097*
Y03095*
X02679Y03091*
X02673*
X02671Y03092*
Y03096*
X02669Y03101*
X02665Y03106*
X0266Y03108*
X02654*
X02648Y03106*
X02644Y03101*
X02642Y03096*
Y03093*
X02638Y0309*
X02637Y03091*
X02631*
X02631Y03091*
Y03096*
X02629Y03101*
X02625Y03105*
X02619Y03108*
X02613*
X02608Y03105*
X02604Y03101*
X02601Y03096*
Y03091*
X02601Y03091*
X02596*
X02595Y03091*
Y03097*
X02593Y03103*
X02589Y03107*
X02583Y03109*
G37*
G36*
X04442Y03086D02*
X04436D01*
X04431Y03084*
X04427Y03079*
X04424Y03074*
Y03068*
X04427Y03063*
X04431Y03058*
X04436Y03056*
X04442*
X04448Y03058*
X04452Y03063*
X04454Y03068*
Y03074*
X04452Y03079*
X04448Y03084*
X04442Y03086*
G37*
G36*
X04403D02*
X04397D01*
X04391Y03084*
X04387Y03079*
X04385Y03074*
Y03068*
X04387Y03063*
X04391Y03058*
X04397Y03056*
X04403*
X04408Y03058*
X04412Y03063*
X04415Y03068*
Y03074*
X04412Y03079*
X04408Y03084*
X04403Y03086*
G37*
G36*
X02004Y03081D02*
X01998D01*
X01992Y03078*
X01988Y03074*
X01986Y03069*
Y03063*
X01988Y03057*
X01992Y03053*
X01998Y03051*
X02004*
X02009Y03053*
X02013Y03057*
X02016Y03063*
Y03069*
X02013Y03074*
X02009Y03078*
X02004Y03081*
G37*
G36*
X02219Y03075D02*
X02213D01*
X02208Y03073*
X02204Y03069*
X02201Y03063*
Y03057*
X02204Y03052*
X02208Y03048*
X02213Y03046*
X02219*
X02225Y03048*
X02229Y03052*
X02231Y03057*
Y03063*
X02229Y03069*
X02225Y03073*
X02219Y03075*
G37*
G36*
X03093Y03088D02*
X03087D01*
X03082Y03085*
X03077Y03081*
X03075Y03076*
Y0307*
X03077Y03064*
X03082Y0306*
X03087Y03058*
X03093*
X03098Y0306*
X031Y03059*
X031Y03059*
X03102Y03058*
Y03053*
X03104Y03047*
X03108Y03043*
X03113Y03041*
X03119*
X03125Y03043*
X03129Y03047*
X03131Y03053*
Y03059*
X03129Y03064*
X03125Y03068*
X03119Y0307*
X03113*
X03109Y03068*
X03107Y03069*
X03107Y03069*
X03105Y03071*
Y03076*
X03103Y03081*
X03098Y03085*
X03093Y03088*
G37*
G36*
X04598Y03069D02*
X04592D01*
X04586Y03067*
X04582Y03063*
X0458Y03058*
Y03052*
X04582Y03046*
X04586Y03042*
X04592Y0304*
X04598*
X04603Y03042*
X04607Y03046*
X0461Y03052*
Y03058*
X04607Y03063*
X04603Y03067*
X04598Y03069*
G37*
G36*
X02103Y03067D02*
X02097D01*
X02092Y03065*
X02088Y03061*
X02085Y03055*
Y0305*
X02088Y03044*
X02092Y0304*
X02097Y03038*
X02103*
X02109Y0304*
X02113Y03044*
X02115Y0305*
Y03055*
X02113Y03061*
X02109Y03065*
X02103Y03067*
G37*
G36*
X04266Y03037D02*
X0426D01*
X04254Y03035*
X0425Y03031*
X0425Y0303*
X04246*
X04246Y03031*
X04242Y03035*
X04236Y03037*
X0423*
X04225Y03035*
X04221Y03031*
X04221Y0303*
X04217*
X04216Y03031*
X04212Y03035*
X04207Y03037*
X04201*
X04195Y03035*
X04191Y03031*
X04189Y03025*
Y03019*
X04191Y03014*
X04195Y0301*
X04196Y0301*
Y03006*
X04195Y03005*
X04191Y03001*
X04189Y02996*
Y0299*
X04191Y02984*
X04195Y0298*
X04196Y0298*
Y02976*
X04195Y02976*
X04191Y02972*
X04189Y02966*
Y0296*
X04191Y02955*
X04195Y02951*
X04201Y02948*
X04207*
X04212Y02951*
X04216Y02955*
X04217Y02955*
X04221*
X04221Y02955*
X04225Y02951*
X0423Y02948*
X04236*
X04242Y02951*
X04246Y02955*
X04246Y02955*
X0425*
X0425Y02955*
X04254Y02951*
X0426Y02948*
X04266*
X04271Y02951*
X04275Y02955*
X04278Y0296*
Y02966*
X04275Y02972*
X04271Y02976*
X04271Y02976*
Y0298*
X04271Y0298*
X04275Y02984*
X04278Y0299*
Y02996*
X04275Y03001*
X04271Y03005*
X04271Y03006*
Y0301*
X04271Y0301*
X04275Y03014*
X04278Y03019*
Y03025*
X04275Y03031*
X04271Y03035*
X04266Y03037*
G37*
G36*
X03026Y03057D02*
X0302D01*
X03015Y03055*
X0301Y03051*
X03008Y03046*
Y0304*
X0301Y03034*
X03015Y0303*
X0302Y03028*
X03026*
X03031Y0303*
X03036Y03034*
X03038Y0304*
Y03046*
X03036Y03051*
X03031Y03055*
X03026Y03057*
G37*
G36*
X01451D02*
X01445D01*
X0144Y03055*
X01436Y03051*
X01433Y03046*
Y0304*
X01436Y03034*
X0144Y0303*
X01445Y03028*
X01451*
X01457Y0303*
X01461Y03034*
X01463Y0304*
Y03046*
X01461Y03051*
X01457Y03055*
X01451Y03057*
G37*
G36*
X01136D02*
X0113D01*
X01125Y03055*
X01121Y03051*
X01118Y03046*
Y0304*
X01121Y03034*
X01125Y0303*
X0113Y03028*
X01136*
X01142Y0303*
X01146Y03034*
X01148Y0304*
Y03046*
X01146Y03051*
X01142Y03055*
X01136Y03057*
G37*
G36*
X00821D02*
X00815D01*
X0081Y03055*
X00806Y03051*
X00803Y03046*
Y0304*
X00806Y03034*
X0081Y0303*
X00815Y03028*
X00821*
X00827Y0303*
X00831Y03034*
X00833Y0304*
Y03046*
X00831Y03051*
X00827Y03055*
X00821Y03057*
G37*
G36*
X00506D02*
X005D01*
X00495Y03055*
X00491Y03051*
X00488Y03046*
Y0304*
X00491Y03034*
X00495Y0303*
X005Y03028*
X00506*
X00512Y0303*
X00516Y03034*
X00518Y0304*
Y03046*
X00516Y03051*
X00512Y03055*
X00506Y03057*
G37*
G36*
X00191D02*
X00185D01*
X0018Y03055*
X00176Y03051*
X00173Y03046*
Y0304*
X00176Y03034*
X0018Y0303*
X00185Y03028*
X00191*
X00197Y0303*
X00201Y03034*
X00203Y0304*
Y03046*
X00201Y03051*
X00197Y03055*
X00191Y03057*
G37*
G36*
X03194Y03056D02*
X03188D01*
X03182Y03054*
X03178Y03049*
X03176Y03044*
Y03038*
X03178Y03033*
X03182Y03028*
X03188Y03026*
X03194*
X03199Y03028*
X03203Y03033*
X03206Y03038*
Y03044*
X03203Y03049*
X03199Y03054*
X03194Y03056*
G37*
G36*
X02004Y03043D02*
X01998D01*
X01992Y0304*
X01988Y03036*
X01986Y03031*
Y03025*
X01988Y03019*
X01992Y03015*
X01998Y03013*
X02004*
X02009Y03015*
X02013Y03019*
X02016Y03025*
Y03031*
X02013Y03036*
X02009Y0304*
X02004Y03043*
G37*
G36*
X02103Y03028D02*
X02097D01*
X02092Y03026*
X02088Y03022*
X02085Y03016*
Y0301*
X02088Y03005*
X02092Y03001*
X02097Y02998*
X02103*
X02109Y03001*
X02113Y03005*
X02115Y0301*
Y03016*
X02113Y03022*
X02109Y03026*
X02103Y03028*
G37*
G36*
X02432Y03027D02*
X02426D01*
X02421Y03025*
X02416Y03021*
X02414Y03015*
Y03009*
X02416Y03004*
X02421Y03*
X02426Y02997*
X02432*
X02437Y03*
X02442Y03004*
X02444Y03009*
Y03015*
X02442Y03021*
X02437Y03025*
X02432Y03027*
G37*
G36*
X03136Y03017D02*
X0313D01*
X03125Y03015*
X03121Y0301*
X03119Y03005*
Y02999*
X03121Y02994*
X03125Y02989*
X0313Y02987*
X03136*
X03142Y02989*
X03146Y02994*
X03148Y02999*
Y03005*
X03146Y0301*
X03142Y03015*
X03136Y03017*
G37*
G36*
X03461Y03015D02*
X03455D01*
X0345Y03013*
X03445Y03008*
X03443Y03003*
Y02997*
X03445Y02992*
X0345Y02987*
X03455Y02985*
X03461*
X03466Y02987*
X03471Y02992*
X03473Y02997*
Y03003*
X03471Y03008*
X03466Y03013*
X03461Y03015*
G37*
G36*
X00361Y03008D02*
X00355D01*
X00349Y03006*
X00345Y03002*
X00343Y02996*
Y0299*
X00345Y02985*
X00349Y02981*
X00355Y02979*
X00361*
X00366Y02981*
X0037Y02985*
X00372Y0299*
Y02996*
X0037Y03002*
X00366Y03006*
X00361Y03008*
G37*
G36*
X02002Y03002D02*
X01996D01*
X01991Y02999*
X01987Y02995*
X01984Y0299*
Y02984*
X01987Y02978*
X01991Y02974*
X01996Y02972*
X02002*
X02008Y02974*
X02012Y02978*
X02014Y02984*
Y0299*
X02012Y02995*
X02008Y02999*
X02002Y03002*
G37*
G36*
X02103Y02989D02*
X02097D01*
X02092Y02986*
X02088Y02982*
X02085Y02977*
Y02971*
X02088Y02965*
X02092Y02961*
X02097Y02959*
X02103*
X02109Y02961*
X02113Y02965*
X02115Y02971*
Y02977*
X02113Y02982*
X02109Y02986*
X02103Y02989*
G37*
G36*
X03462Y02974D02*
X03456D01*
X03451Y02972*
X03447Y02968*
X03444Y02962*
Y02956*
X03447Y02951*
X03451Y02947*
X03456Y02944*
X03462*
X03468Y02947*
X03472Y02951*
X03474Y02956*
Y02962*
X03472Y02968*
X03468Y02972*
X03462Y02974*
G37*
G36*
X04305Y02998D02*
X04299D01*
X04294Y02996*
X0429Y02991*
X04287Y02986*
Y0298*
X0429Y02975*
X04294Y0297*
X04294Y0297*
Y02966*
X04294Y02966*
X0429Y02962*
X04287Y02956*
Y0295*
X0429Y02945*
X04294Y02941*
X04299Y02939*
X04305*
X04311Y02941*
X04315Y02945*
X04317Y0295*
Y02956*
X04315Y02962*
X04311Y02966*
X0431Y02966*
Y0297*
X04311Y0297*
X04315Y02975*
X04317Y0298*
Y02986*
X04315Y02991*
X04311Y02996*
X04305Y02998*
G37*
G36*
X03261Y02966D02*
X03255D01*
X0325Y02964*
X03246Y0296*
X03243Y02954*
Y02948*
X03246Y02943*
X0325Y02939*
X03255Y02937*
X03261*
X03267Y02939*
X03271Y02943*
X03273Y02948*
Y02954*
X03271Y0296*
X03267Y02964*
X03261Y02966*
G37*
G36*
X02003Y02962D02*
X01997D01*
X01991Y02959*
X01987Y02955*
X01985Y0295*
Y02944*
X01987Y02938*
X01991Y02934*
X01997Y02932*
X02003*
X02008Y02934*
X02012Y02938*
X02014Y02944*
Y0295*
X02012Y02955*
X02008Y02959*
X02003Y02962*
G37*
G36*
X02103Y02949D02*
X02097D01*
X02092Y02947*
X02088Y02943*
X02085Y02937*
Y02931*
X02088Y02926*
X02092Y02922*
X02097Y0292*
X02103*
X02109Y02922*
X02113Y02926*
X02115Y02931*
Y02937*
X02113Y02943*
X02109Y02947*
X02103Y02949*
G37*
G36*
X01881Y0294D02*
X01875D01*
X0187Y02937*
X01866Y02933*
X01863Y02928*
Y02922*
X01866Y02916*
X0187Y02912*
X01875Y0291*
X01881*
X01887Y02912*
X01891Y02916*
X01893Y02922*
Y02928*
X01891Y02933*
X01887Y02937*
X01881Y0294*
G37*
G36*
X0346Y02935D02*
X03454D01*
X03449Y02932*
X03444Y02928*
X03442Y02923*
Y02917*
X03444Y02911*
X03449Y02907*
X03454Y02905*
X0346*
X03465Y02907*
X0347Y02911*
X03472Y02917*
Y02923*
X0347Y02928*
X03465Y02932*
X0346Y02935*
G37*
G36*
X0363Y02934D02*
X03624D01*
X03619Y02931*
X03615Y02927*
X03613Y02922*
Y02916*
X03615Y0291*
X03619Y02906*
X03624Y02904*
X0363*
X03636Y02906*
X0364Y0291*
X03642Y02916*
Y02922*
X0364Y02927*
X03636Y02931*
X0363Y02934*
G37*
G36*
X02006Y02924D02*
X02D01*
X01994Y02922*
X0199Y02918*
X01988Y02912*
Y02906*
X0199Y02901*
X01994Y02897*
X02Y02894*
X02006*
X02011Y02897*
X02015Y02901*
X02018Y02906*
Y02912*
X02015Y02918*
X02011Y02922*
X02006Y02924*
G37*
G36*
X02382Y02915D02*
X02376D01*
X0237Y02912*
X02366Y02908*
X02364Y02903*
Y02897*
X02366Y02891*
X0237Y02887*
X02376Y02885*
X02382*
X02387Y02887*
X02391Y02891*
X02394Y02897*
Y02903*
X02391Y02908*
X02387Y02912*
X02382Y02915*
G37*
G36*
X02103Y0291D02*
X02097D01*
X02092Y02908*
X02088Y02903*
X02085Y02898*
Y02892*
X02088Y02887*
X02092Y02882*
X02097Y0288*
X02103*
X02109Y02882*
X02113Y02887*
X02115Y02892*
Y02898*
X02113Y02903*
X02109Y02908*
X02103Y0291*
G37*
G36*
X01975Y02908D02*
X01969D01*
X01963Y02906*
X01959Y02901*
X01957Y02896*
Y0289*
X01959Y02885*
X01963Y0288*
X01969Y02878*
X01975*
X0198Y0288*
X01984Y02885*
X01987Y0289*
Y02896*
X01984Y02901*
X0198Y02906*
X01975Y02908*
G37*
G36*
X04123Y02943D02*
X04114D01*
X04105Y0294*
X04097Y02936*
X0409Y02929*
X04086Y02921*
X04083Y02912*
Y02903*
X04086Y02894*
X0409Y02886*
X04097Y0288*
X04105Y02875*
X04114Y02873*
X04123*
X04132Y02875*
X0414Y0288*
X04146Y02886*
X04151Y02894*
X04153Y02903*
Y02912*
X04151Y02921*
X04146Y02929*
X0414Y02936*
X04132Y0294*
X04123Y02943*
G37*
G36*
X04023D02*
X04014D01*
X04005Y0294*
X03997Y02936*
X0399Y02929*
X03986Y02921*
X03983Y02912*
Y02903*
X03986Y02894*
X0399Y02886*
X03997Y0288*
X04005Y02875*
X04014Y02873*
X04023*
X04032Y02875*
X0404Y0288*
X04046Y02886*
X04051Y02894*
X04053Y02903*
Y02912*
X04051Y02921*
X04046Y02929*
X0404Y02936*
X04032Y0294*
X04023Y02943*
G37*
G36*
X01884Y029D02*
X01878D01*
X01872Y02898*
X01868Y02894*
X01866Y02888*
Y02882*
X01868Y02877*
X01872Y02873*
X01878Y02871*
X01884*
X01889Y02873*
X01893Y02877*
X01895Y02882*
Y02888*
X01893Y02894*
X01889Y02898*
X01884Y029*
G37*
G36*
X02003Y02888D02*
X01997D01*
X01992Y02885*
X01988Y02881*
X01985Y02876*
Y02872*
X01982Y02869*
X01982Y02869*
X0198Y0287*
X01974*
X01968Y02868*
X01964Y02864*
X01962Y02858*
Y02852*
X01964Y02847*
X01968Y02843*
X01974Y0284*
X0198*
X01985Y02843*
X01989Y02847*
X01991Y02852*
Y02856*
X01995Y02859*
X01995Y02859*
X01997Y02858*
X02003*
X02009Y0286*
X02013Y02864*
X02015Y0287*
Y02876*
X02013Y02881*
X02009Y02885*
X02003Y02888*
G37*
G36*
X0338Y02886D02*
X03374D01*
X03368Y02884*
X03364Y0288*
X03362Y02875*
Y02869*
X03364Y02863*
X03368Y02859*
X03374Y02857*
X0338*
X03385Y02859*
X03389Y02863*
X03392Y02869*
Y02875*
X03389Y0288*
X03385Y02884*
X0338Y02886*
G37*
G36*
X02196Y02871D02*
X0219D01*
X02185Y02868*
X0218Y02864*
X02178Y02859*
Y02853*
X0218Y02847*
X02185Y02843*
X0219Y02841*
X02196*
X02201Y02843*
X02206Y02847*
X02208Y02853*
Y02859*
X02206Y02864*
X02201Y02868*
X02196Y02871*
G37*
G36*
X02103Y0287D02*
X02097D01*
X02092Y02868*
X02088Y02864*
X02085Y02859*
Y02853*
X02088Y02847*
X02092Y02843*
X02097Y02841*
X02103*
X02109Y02843*
X02113Y02847*
X02115Y02853*
Y02859*
X02113Y02864*
X02109Y02868*
X02103Y0287*
G37*
G36*
X01895Y02866D02*
X01889D01*
X01883Y02864*
X01879Y0286*
X01877Y02854*
Y02848*
X01879Y02843*
X01883Y02839*
X01889Y02836*
X01895*
X019Y02839*
X01904Y02843*
X01906Y02848*
Y02854*
X01904Y0286*
X019Y02864*
X01895Y02866*
G37*
G36*
X0346Y0286D02*
X03454D01*
X03449Y02858*
X03445Y02854*
X03442Y02848*
Y02842*
X03445Y02837*
X03449Y02833*
X03454Y02831*
X0346*
X03466Y02833*
X0347Y02837*
X03472Y02842*
Y02848*
X0347Y02854*
X03466Y02858*
X0346Y0286*
G37*
G36*
X01597Y02823D02*
X01591D01*
X01585Y02821*
X01581Y02816*
X0158Y02815*
X01576*
X01576Y02816*
X01571Y0282*
X01566Y02822*
X0156*
X01555Y0282*
X0155Y02816*
X0155Y02815*
X01546*
X01546Y02816*
X01542Y0282*
X01536Y02822*
X01531*
X01525Y0282*
X01521Y02816*
X01521Y02815*
X01517*
X01517Y02816*
X01512Y0282*
X01507Y02822*
X01501*
X01496Y0282*
X01491Y02816*
X01489Y0281*
Y02804*
X01491Y02799*
X01496Y02795*
X01501Y02792*
X01507*
X01512Y02795*
X01517Y02799*
X01517Y02799*
X01521*
X01521Y02799*
X01525Y02795*
X01531Y02792*
X01536*
X01542Y02795*
X01546Y02799*
X01546Y02799*
X0155*
X0155Y02799*
X01555Y02795*
X0156Y02792*
X01566*
X01571Y02795*
X01576Y02799*
X01576Y028*
X01581*
X01581Y028*
X01585Y02795*
X01591Y02793*
X01597*
X01602Y02795*
X01606Y028*
X01608Y02805*
Y02811*
X01606Y02816*
X01602Y02821*
X01597Y02823*
G37*
G36*
X02382Y02867D02*
X02376D01*
X0237Y02865*
X02366Y02861*
X02364Y02855*
Y02849*
X02366Y02844*
X0237Y0284*
X02376Y02838*
X02379*
X02382Y02837*
X02383Y02834*
Y02831*
X02383Y0283*
X02382Y02829*
X0238Y02827*
X02375*
X02369Y02825*
X02365Y02821*
X02363Y02815*
Y02809*
X02365Y02804*
X02369Y028*
X02375Y02797*
X02381*
X02386Y028*
X0239Y02804*
X02393Y02809*
Y02815*
X02393Y02816*
X02394Y02818*
X02395Y02819*
X02401*
X02406Y02821*
X02411Y02825*
X02413Y02831*
Y02837*
X02411Y02842*
X02406Y02846*
X02401Y02849*
X02397*
X02395Y02849*
X02394Y02852*
Y02855*
X02391Y02861*
X02387Y02865*
X02382Y02867*
G37*
G36*
X03462Y02821D02*
X03456D01*
X03451Y02819*
X03447Y02814*
X03444Y02809*
Y02803*
X03447Y02798*
X03451Y02793*
X03456Y02791*
X03462*
X03467Y02793*
X03472Y02798*
X03474Y02803*
Y02809*
X03472Y02814*
X03467Y02819*
X03462Y02821*
G37*
G36*
X01645Y02822D02*
X01639D01*
X01633Y0282*
X01629Y02816*
X01627Y0281*
Y02804*
X01629Y02799*
X01633Y02795*
X01639Y02792*
X01645*
X0165Y02795*
X01654Y02799*
X01656Y02803*
X0166Y02802*
X01662Y02798*
X01666Y02794*
X01672Y02792*
X01677*
X01683Y02794*
X01687Y02798*
X01687Y02798*
X01691*
X01691Y02798*
X01693Y02796*
X01696Y02794*
X01693Y02791*
X01691Y02789*
X01689Y02784*
Y02778*
X01691Y02773*
X01696Y02768*
X01701Y02766*
X01707*
X01712Y02768*
X01717Y02773*
X01719Y02778*
Y02784*
X01717Y02789*
X01715Y02791*
X01713Y02794*
X01715Y02796*
X01717Y02798*
X01719Y02803*
Y02809*
X01717Y02815*
X01712Y02819*
X01707Y02821*
X01701*
X01696Y02819*
X01691Y02815*
X01691Y02814*
X01687*
X01687Y02815*
X01683Y02819*
X01677Y02821*
X01672*
X01666Y02819*
X01662Y02815*
X0166Y02811*
X01656Y02811*
X01654Y02816*
X0165Y0282*
X01645Y02822*
G37*
G36*
X02001Y02795D02*
X01995D01*
X0199Y02793*
X01986Y02789*
X01984Y02783*
Y02777*
X01986Y02772*
X0199Y02768*
X01995Y02765*
X02001*
X02007Y02768*
X02011Y02772*
X02013Y02777*
Y02783*
X02011Y02789*
X02007Y02793*
X02001Y02795*
G37*
G36*
X03275Y02791D02*
X03269D01*
X03264Y02789*
X0326Y02785*
X03257Y0278*
Y02774*
X0326Y02768*
X03264Y02764*
X03269Y02762*
X03275*
X03281Y02764*
X03285Y02768*
X03287Y02774*
Y0278*
X03285Y02785*
X03281Y02789*
X03275Y02791*
G37*
G36*
X01545Y02787D02*
X01539D01*
X01533Y02785*
X01529Y02781*
X01527Y02775*
Y0277*
X01529Y02764*
X01533Y0276*
X01539Y02758*
X01545*
X0155Y0276*
X01554Y02764*
X01557Y0277*
Y02775*
X01554Y02781*
X0155Y02785*
X01545Y02787*
G37*
G36*
X02196Y02806D02*
X0219D01*
X02185Y02804*
X02181Y028*
X02179Y02794*
Y02788*
X02181Y02783*
X02182Y02782*
X02181Y02781*
X02179Y02775*
Y02769*
X02181Y02764*
X02185Y0276*
X02191Y02757*
X02196*
X02202Y0276*
X02206Y02764*
X02208Y02769*
Y02775*
X02206Y02781*
X02205Y02782*
X02206Y02783*
X02208Y02788*
Y02794*
X02206Y028*
X02202Y02804*
X02196Y02806*
G37*
G36*
X02103Y02782D02*
X02097D01*
X02092Y0278*
X02088Y02775*
X02085Y0277*
Y02764*
X02088Y02759*
X02092Y02754*
X02097Y02752*
X02103*
X02109Y02754*
X02113Y02759*
X02115Y02764*
Y0277*
X02113Y02775*
X02109Y0278*
X02103Y02782*
G37*
G36*
X03462Y02781D02*
X03456D01*
X03451Y02779*
X03447Y02775*
X03444Y02769*
Y02764*
X03447Y02758*
X03451Y02754*
X03456Y02752*
X03462*
X03468Y02754*
X03472Y02758*
X03474Y02764*
Y02769*
X03472Y02775*
X03468Y02779*
X03462Y02781*
G37*
G36*
X02945Y02781D02*
X02939D01*
X02934Y02779*
X02929Y02774*
X02927Y02769*
Y02763*
X02929Y02758*
X02934Y02753*
X02939Y02751*
X02945*
X0295Y02753*
X02955Y02758*
X02957Y02763*
Y02769*
X02955Y02774*
X0295Y02779*
X02945Y02781*
G37*
G36*
X02866D02*
X0286D01*
X02855Y02779*
X02851Y02774*
X02848Y02769*
Y02763*
X02851Y02758*
X02855Y02753*
X0286Y02751*
X02866*
X02872Y02753*
X02876Y02758*
X02878Y02763*
Y02769*
X02876Y02774*
X02872Y02779*
X02866Y02781*
G37*
G36*
X02788D02*
X02782D01*
X02776Y02779*
X02772Y02774*
X0277Y02769*
Y02763*
X02772Y02758*
X02776Y02753*
X02782Y02751*
X02788*
X02793Y02753*
X02797Y02758*
X02799Y02763*
Y02769*
X02797Y02774*
X02793Y02779*
X02788Y02781*
G37*
G36*
X02709D02*
X02703D01*
X02697Y02779*
X02693Y02774*
X02691Y02769*
Y02763*
X02693Y02758*
X02697Y02753*
X02703Y02751*
X02709*
X02714Y02753*
X02718Y02758*
X02721Y02763*
Y02769*
X02718Y02774*
X02714Y02779*
X02709Y02781*
G37*
G36*
X02384Y02779D02*
X02378D01*
X02373Y02777*
X02369Y02772*
X02366Y02767*
Y02761*
X02369Y02756*
X02373Y02751*
X02378Y02749*
X02384*
X0239Y02751*
X02394Y02756*
X02396Y02761*
Y02767*
X02394Y02772*
X0239Y02777*
X02384Y02779*
G37*
G36*
X01969Y02758D02*
X01963D01*
X01957Y02756*
X01953Y02752*
X01951Y02746*
Y0274*
X01953Y02735*
X01957Y02731*
X01963Y02729*
X01969*
X01974Y02731*
X01978Y02735*
X01981Y0274*
Y02746*
X01978Y02752*
X01974Y02756*
X01969Y02758*
G37*
G36*
X02004Y02758D02*
X01998D01*
X01993Y02755*
X01989Y02751*
X01986Y02746*
Y0274*
X01989Y02734*
X01993Y0273*
X01998Y02728*
X02004*
X0201Y0273*
X02014Y02734*
X02016Y0274*
Y02746*
X02014Y02751*
X0201Y02755*
X02004Y02758*
G37*
G36*
X01544Y02752D02*
X01538D01*
X01533Y0275*
X01529Y02746*
X01527Y0274*
Y02734*
X01529Y02729*
X01533Y02725*
X01538Y02723*
X01544*
X0155Y02725*
X01554Y02729*
X01556Y02734*
Y0274*
X01554Y02746*
X0155Y0275*
X01544Y02752*
G37*
G36*
X01508Y02785D02*
X01503D01*
X01497Y02782*
X01493Y02778*
X01491Y02773*
Y02767*
X01493Y02761*
X01497Y02757*
X01503Y02755*
X01502Y02751*
X01501*
X01496Y02749*
X01492Y02745*
X01489Y02739*
Y02733*
X01492Y02728*
X01496Y02724*
X01501Y02721*
X01507*
X01513Y02724*
X01517Y02728*
X01519Y02733*
Y02739*
X01517Y02745*
X01513Y02749*
X01507Y02751*
X01507Y02755*
X01508*
X01514Y02757*
X01518Y02761*
X0152Y02767*
Y02773*
X01518Y02778*
X01514Y02782*
X01508Y02785*
G37*
G36*
X01673Y02724D02*
X01667D01*
X01662Y02722*
X01657Y02718*
X01657Y02717*
X01653*
X01653Y02718*
X01649Y02722*
X01643Y02724*
X01638*
X01632Y02722*
X01628Y02718*
X01626Y02712*
Y02707*
X01628Y02701*
X01632Y02697*
X01638Y02695*
X01643*
X01649Y02697*
X01653Y02701*
X01653Y02702*
X01657*
X01657Y02701*
X01662Y02697*
X01667Y02695*
X01673*
X01678Y02697*
X01683Y02701*
X01685Y02707*
Y02712*
X01683Y02718*
X01678Y02722*
X01673Y02724*
G37*
G36*
X03463Y02744D02*
X03457D01*
X03451Y02742*
X03447Y02737*
X03445Y02732*
Y02726*
X03447Y02721*
X03451Y02716*
X03457Y02714*
X03463*
X03468Y02716*
X03472Y02721*
X03474Y02726*
Y02732*
X03472Y02737*
X03468Y02742*
X03463Y02744*
G37*
G36*
X05398Y02743D02*
X05392D01*
X05387Y0274*
X05382Y02736*
X0538Y02731*
Y02725*
X05382Y02719*
X05387Y02715*
X05392Y02713*
X05398*
X05403Y02715*
X05408Y02719*
X0541Y02725*
Y02731*
X05408Y02736*
X05403Y0274*
X05398Y02743*
G37*
G36*
X0526D02*
X05254D01*
X05249Y0274*
X05245Y02736*
X05242Y02731*
Y02725*
X05245Y02719*
X05249Y02715*
X05254Y02713*
X0526*
X05266Y02715*
X0527Y02719*
X05272Y02725*
Y02731*
X0527Y02736*
X05266Y0274*
X0526Y02743*
G37*
G36*
X05122D02*
X05116D01*
X05111Y0274*
X05107Y02736*
X05105Y02731*
Y02725*
X05107Y02719*
X05111Y02715*
X05116Y02713*
X05122*
X05128Y02715*
X05132Y02719*
X05134Y02725*
Y02731*
X05132Y02736*
X05128Y0274*
X05122Y02743*
G37*
G36*
X04985D02*
X04979D01*
X04973Y0274*
X04969Y02736*
X04967Y02731*
Y02725*
X04969Y02719*
X04973Y02715*
X04979Y02713*
X04985*
X0499Y02715*
X04994Y02719*
X04996Y02725*
Y02731*
X04994Y02736*
X0499Y0274*
X04985Y02743*
G37*
G36*
X04847D02*
X04841D01*
X04835Y0274*
X04831Y02736*
X04829Y02731*
Y02725*
X04831Y02719*
X04835Y02715*
X04841Y02713*
X04847*
X04852Y02715*
X04856Y02719*
X04859Y02725*
Y02731*
X04856Y02736*
X04852Y0274*
X04847Y02743*
G37*
G36*
X04709D02*
X04703D01*
X04698Y0274*
X04693Y02736*
X04691Y02731*
Y02725*
X04693Y02719*
X04698Y02715*
X04703Y02713*
X04709*
X04714Y02715*
X04719Y02719*
X04721Y02725*
Y02731*
X04719Y02736*
X04714Y0274*
X04709Y02743*
G37*
G36*
X04571D02*
X04565D01*
X0456Y0274*
X04556Y02736*
X04553Y02731*
Y02725*
X04556Y02719*
X0456Y02715*
X04565Y02713*
X04571*
X04577Y02715*
X04581Y02719*
X04583Y02725*
Y02731*
X04581Y02736*
X04577Y0274*
X04571Y02743*
G37*
G36*
X04433D02*
X04427D01*
X04422Y0274*
X04418Y02736*
X04416Y02731*
Y02725*
X04418Y02719*
X04422Y02715*
X04427Y02713*
X04433*
X04439Y02715*
X04443Y02719*
X04445Y02725*
Y02731*
X04443Y02736*
X04439Y0274*
X04433Y02743*
G37*
G36*
X04296D02*
X0429D01*
X04284Y0274*
X0428Y02736*
X04278Y02731*
Y02725*
X0428Y02719*
X04284Y02715*
X0429Y02713*
X04296*
X04301Y02715*
X04305Y02719*
X04307Y02725*
Y02731*
X04305Y02736*
X04301Y0274*
X04296Y02743*
G37*
G36*
X04158D02*
X04152D01*
X04146Y0274*
X04142Y02736*
X0414Y02731*
Y02725*
X04142Y02719*
X04146Y02715*
X04152Y02713*
X04158*
X04163Y02715*
X04167Y02719*
X0417Y02725*
Y02731*
X04167Y02736*
X04163Y0274*
X04158Y02743*
G37*
G36*
X02908D02*
X02902D01*
X02896Y0274*
X02892Y02736*
X0289Y02731*
Y02725*
X02892Y02719*
X02896Y02715*
X02902Y02713*
X02908*
X02913Y02715*
X02917Y02719*
X0292Y02725*
Y02731*
X02917Y02736*
X02913Y0274*
X02908Y02743*
G37*
G36*
X02829D02*
X02823D01*
X02818Y0274*
X02814Y02736*
X02811Y02731*
Y02725*
X02814Y02719*
X02818Y02715*
X02823Y02713*
X02829*
X02835Y02715*
X02839Y02719*
X02841Y02725*
Y02731*
X02839Y02736*
X02835Y0274*
X02829Y02743*
G37*
G36*
X0275D02*
X02744D01*
X02739Y0274*
X02735Y02736*
X02733Y02731*
Y02725*
X02735Y02719*
X02739Y02715*
X02744Y02713*
X0275*
X02756Y02715*
X0276Y02719*
X02762Y02725*
Y02731*
X0276Y02736*
X02756Y0274*
X0275Y02743*
G37*
G36*
X02103D02*
X02097D01*
X02092Y0274*
X02088Y02736*
X02085Y02731*
Y02725*
X02088Y02719*
X02092Y02715*
X02097Y02713*
X02103*
X02109Y02715*
X02113Y02719*
X02115Y02725*
Y02731*
X02113Y02736*
X02109Y0274*
X02103Y02743*
G37*
G36*
X03183D02*
X03177D01*
X03172Y0274*
X03168Y02736*
X03166Y02731*
Y02725*
X03168Y02719*
X03172Y02715*
X03177Y02713*
X03183*
X03189Y02715*
X03193Y02719*
X03195Y02725*
Y02731*
X03193Y02736*
X03189Y0274*
X03183Y02743*
G37*
G36*
X02553D02*
X02548D01*
X02542Y0274*
X02538Y02736*
X02536Y02731*
Y02725*
X02538Y02719*
X02542Y02715*
X02548Y02713*
X02553*
X02559Y02715*
X02563Y02719*
X02565Y02725*
Y02731*
X02563Y02736*
X02559Y0274*
X02553Y02743*
G37*
G36*
X00349D02*
X00343D01*
X00337Y0274*
X00333Y02736*
X00331Y02731*
Y02725*
X00333Y02719*
X00337Y02715*
X00343Y02713*
X00349*
X00354Y02715*
X00358Y02719*
X00361Y02725*
Y02731*
X00358Y02736*
X00354Y0274*
X00349Y02743*
G37*
G36*
X00034D02*
X00028D01*
X00022Y0274*
X00018Y02736*
X00016Y02731*
Y02725*
X00018Y02719*
X00022Y02715*
X00028Y02713*
X00034*
X00039Y02715*
X00043Y02719*
X00046Y02725*
Y02731*
X00043Y02736*
X00039Y0274*
X00034Y02743*
G37*
G36*
X01707Y02758D02*
X01701D01*
X01696Y02756*
X01691Y02752*
X01689Y02746*
Y0274*
X01691Y02735*
X01693Y02733*
X01696Y02731*
X01693Y02728*
X01691Y02726*
X01689Y02721*
Y02715*
X01691Y02709*
X01696Y02705*
X01701Y02703*
X01707*
X01712Y02705*
X01717Y02709*
X01719Y02715*
Y02721*
X01717Y02726*
X01715Y02728*
X01713Y02731*
X01715Y02733*
X01717Y02735*
X01719Y0274*
Y02746*
X01717Y02752*
X01712Y02756*
X01707Y02758*
G37*
G36*
X02195Y02721D02*
X02189D01*
X02184Y02719*
X0218Y02715*
X02177Y02709*
Y02703*
X0218Y02698*
X02184Y02694*
X02189Y02692*
X02195*
X02201Y02694*
X02205Y02698*
X02207Y02703*
Y02709*
X02205Y02715*
X02201Y02719*
X02195Y02721*
G37*
G36*
X03618Y02743D02*
X03612D01*
X03607Y0274*
X03603Y02736*
X036Y02731*
Y02725*
X03603Y02719*
X03605Y02718*
X03605Y02713*
X03605Y02712*
X03603Y02707*
Y02702*
X03605Y02696*
X03609Y02692*
X03614Y0269*
X0362*
X03626Y02692*
X0363Y02696*
X03632Y02702*
Y02707*
X0363Y02713*
X03628Y02715*
X03628Y02719*
X03628Y0272*
X0363Y02725*
Y02731*
X03628Y02736*
X03624Y0274*
X03618Y02743*
G37*
G36*
X01994Y02711D02*
X01988D01*
X01982Y02709*
X01978Y02705*
X01976Y02699*
Y02693*
X01978Y02688*
X01982Y02684*
X01988Y02682*
X01994*
X01999Y02684*
X02003Y02688*
X02006Y02693*
Y02699*
X02003Y02705*
X01999Y02709*
X01994Y02711*
G37*
G36*
X0339Y02707D02*
X03384D01*
X03379Y02705*
X03375Y02701*
X03372Y02695*
Y02689*
X03375Y02684*
X03379Y0268*
X03384Y02677*
X0339*
X03396Y0268*
X034Y02684*
X03402Y02689*
Y02695*
X034Y02701*
X03396Y02705*
X0339Y02707*
G37*
G36*
X02945Y02702D02*
X02939D01*
X02934Y027*
X02929Y02696*
X02927Y0269*
Y02684*
X02929Y02679*
X02934Y02675*
X02939Y02672*
X02945*
X0295Y02675*
X02955Y02679*
X02957Y02684*
Y0269*
X02955Y02696*
X0295Y027*
X02945Y02702*
G37*
G36*
X02866D02*
X0286D01*
X02855Y027*
X02851Y02696*
X02848Y0269*
Y02684*
X02851Y02679*
X02855Y02675*
X0286Y02672*
X02866*
X02872Y02675*
X02876Y02679*
X02878Y02684*
Y0269*
X02876Y02696*
X02872Y027*
X02866Y02702*
G37*
G36*
X02788D02*
X02782D01*
X02776Y027*
X02772Y02696*
X0277Y0269*
Y02684*
X02772Y02679*
X02776Y02675*
X02782Y02672*
X02788*
X02793Y02675*
X02797Y02679*
X02799Y02684*
Y0269*
X02797Y02696*
X02793Y027*
X02788Y02702*
G37*
G36*
X02709D02*
X02703D01*
X02697Y027*
X02693Y02696*
X02691Y0269*
Y02684*
X02693Y02679*
X02697Y02675*
X02703Y02672*
X02709*
X02714Y02675*
X02718Y02679*
X02721Y02684*
Y0269*
X02718Y02696*
X02714Y027*
X02709Y02702*
G37*
G36*
X03253Y02687D02*
X03247D01*
X03242Y02685*
X03238Y02681*
X03235Y02676*
Y0267*
X03238Y02664*
X03242Y0266*
X03247Y02658*
X03253*
X03259Y0266*
X03263Y02664*
X03265Y0267*
Y02676*
X03263Y02681*
X03259Y02685*
X03253Y02687*
G37*
G36*
X02126Y0268D02*
X0212D01*
X02115Y02678*
X02111Y02674*
X02108Y02668*
Y02662*
X02111Y02657*
X02115Y02653*
X0212Y02651*
X02126*
X02132Y02653*
X02136Y02657*
X02138Y02662*
Y02668*
X02136Y02674*
X02132Y02678*
X02126Y0268*
G37*
G36*
X02908Y02664D02*
X02902D01*
X02896Y02662*
X02892Y02657*
X0289Y02652*
Y02646*
X02892Y02641*
X02896Y02636*
X02902Y02634*
X02908*
X02913Y02636*
X02917Y02641*
X0292Y02646*
Y02652*
X02917Y02657*
X02913Y02662*
X02908Y02664*
G37*
G36*
X02829D02*
X02823D01*
X02818Y02662*
X02814Y02657*
X02811Y02652*
Y02646*
X02814Y02641*
X02818Y02636*
X02823Y02634*
X02829*
X02835Y02636*
X02839Y02641*
X02841Y02646*
Y02652*
X02839Y02657*
X02835Y02662*
X02829Y02664*
G37*
G36*
X0275D02*
X02744D01*
X02739Y02662*
X02735Y02657*
X02733Y02652*
Y02646*
X02735Y02641*
X02739Y02636*
X02744Y02634*
X0275*
X02756Y02636*
X0276Y02641*
X02762Y02646*
Y02652*
X0276Y02657*
X02756Y02662*
X0275Y02664*
G37*
G36*
X02379Y0269D02*
X02373D01*
X02368Y02688*
X02363Y02684*
X02361Y02678*
Y02672*
X02363Y02667*
X02368Y02663*
X02373Y0266*
X02375*
X02376Y02656*
X02376Y02656*
X02374Y02651*
Y02645*
X02375Y02643*
X02376Y02639*
X0237Y02637*
X02366Y02633*
X02364Y02628*
Y02622*
X02366Y02616*
X0237Y02612*
X02376Y0261*
X02382*
X02387Y02612*
X02391Y02616*
X02394Y02622*
Y02628*
X02393Y0263*
X02392Y02633*
X02397Y02635*
X02402Y0264*
X02404Y02645*
Y02651*
X02402Y02656*
X02397Y02661*
X02392Y02663*
X0239*
X02388Y02667*
X02388Y02667*
X02391Y02672*
Y02678*
X02388Y02684*
X02384Y02688*
X02379Y0269*
G37*
G36*
X03381Y02667D02*
X03375D01*
X0337Y02664*
X03365Y0266*
X03363Y02655*
Y02649*
X03365Y02643*
X0337Y02639*
X03375Y02637*
X03381*
X03381Y02637*
X03383Y02634*
X0338Y0263*
X03378Y02625*
Y02619*
X0338Y02613*
X03384Y02609*
X0339Y02607*
X03395*
X03401Y02609*
X03405Y02613*
X03407Y02619*
Y02625*
X03405Y0263*
X03401Y02634*
X03395Y02637*
X0339*
X03389Y02637*
X03387Y0264*
X03391Y02643*
X03393Y02649*
Y02655*
X03391Y0266*
X03386Y02664*
X03381Y02667*
G37*
G36*
X0325Y0265D02*
X03244D01*
X03239Y02647*
X03234Y02643*
X03232Y02638*
Y02632*
X03234Y02626*
X03239Y02622*
X03244Y0262*
X03249*
X0325Y02619*
X03253Y02617*
Y02613*
X03255Y02607*
X03259Y02603*
X03265Y02601*
X0327*
X03276Y02603*
X0328Y02607*
X03282Y02613*
Y02619*
X0328Y02624*
X03276Y02628*
X0327Y02631*
X03266*
X03264Y02631*
X03262Y02634*
Y02638*
X0326Y02643*
X03255Y02647*
X0325Y0265*
G37*
G36*
X02945Y02623D02*
X02939D01*
X02934Y02621*
X02929Y02617*
X02927Y02611*
Y02606*
X02929Y026*
X02934Y02596*
X02939Y02594*
X02945*
X0295Y02596*
X02955Y026*
X02957Y02606*
Y02611*
X02955Y02617*
X0295Y02621*
X02945Y02623*
G37*
G36*
X02866D02*
X0286D01*
X02855Y02621*
X02851Y02617*
X02848Y02611*
Y02606*
X02851Y026*
X02855Y02596*
X0286Y02594*
X02866*
X02872Y02596*
X02876Y026*
X02878Y02606*
Y02611*
X02876Y02617*
X02872Y02621*
X02866Y02623*
G37*
G36*
X02788D02*
X02782D01*
X02776Y02621*
X02772Y02617*
X0277Y02611*
Y02606*
X02772Y026*
X02776Y02596*
X02782Y02594*
X02788*
X02793Y02596*
X02797Y026*
X02799Y02606*
Y02611*
X02797Y02617*
X02793Y02621*
X02788Y02623*
G37*
G36*
X02709D02*
X02703D01*
X02697Y02621*
X02693Y02617*
X02691Y02611*
Y02606*
X02693Y026*
X02697Y02596*
X02703Y02594*
X02709*
X02714Y02596*
X02718Y026*
X02721Y02606*
Y02611*
X02718Y02617*
X02714Y02621*
X02709Y02623*
G37*
G36*
X05467Y02605D02*
X05461D01*
X05456Y02602*
X05451Y02598*
X05449Y02593*
Y02587*
X05451Y02581*
X05456Y02577*
X05461Y02575*
X05467*
X05472Y02577*
X05476Y02581*
X05479Y02587*
Y02593*
X05476Y02598*
X05472Y02602*
X05467Y02605*
G37*
G36*
X05329D02*
X05323D01*
X05318Y02602*
X05314Y02598*
X05311Y02593*
Y02587*
X05314Y02581*
X05318Y02577*
X05323Y02575*
X05329*
X05335Y02577*
X05339Y02581*
X05341Y02587*
Y02593*
X05339Y02598*
X05335Y02602*
X05329Y02605*
G37*
G36*
X05191D02*
X05185D01*
X0518Y02602*
X05176Y02598*
X05173Y02593*
Y02587*
X05176Y02581*
X0518Y02577*
X05185Y02575*
X05191*
X05197Y02577*
X05201Y02581*
X05203Y02587*
Y02593*
X05201Y02598*
X05197Y02602*
X05191Y02605*
G37*
G36*
X05053D02*
X05048D01*
X05042Y02602*
X05038Y02598*
X05036Y02593*
Y02587*
X05038Y02581*
X05042Y02577*
X05048Y02575*
X05053*
X05059Y02577*
X05063Y02581*
X05065Y02587*
Y02593*
X05063Y02598*
X05059Y02602*
X05053Y02605*
G37*
G36*
X04916D02*
X0491D01*
X04904Y02602*
X049Y02598*
X04898Y02593*
Y02587*
X049Y02581*
X04904Y02577*
X0491Y02575*
X04916*
X04921Y02577*
X04925Y02581*
X04928Y02587*
Y02593*
X04925Y02598*
X04921Y02602*
X04916Y02605*
G37*
G36*
X04502D02*
X04496D01*
X04491Y02602*
X04487Y02598*
X04485Y02593*
Y02587*
X04487Y02581*
X04491Y02577*
X04496Y02575*
X04502*
X04508Y02577*
X04512Y02581*
X04514Y02587*
Y02593*
X04512Y02598*
X04508Y02602*
X04502Y02605*
G37*
G36*
X04365D02*
X04359D01*
X04353Y02602*
X04349Y02598*
X04347Y02593*
Y02587*
X04349Y02581*
X04353Y02577*
X04359Y02575*
X04365*
X0437Y02577*
X04374Y02581*
X04376Y02587*
Y02593*
X04374Y02598*
X0437Y02602*
X04365Y02605*
G37*
G36*
X04227D02*
X04221D01*
X04215Y02602*
X04211Y02598*
X04209Y02593*
Y02587*
X04211Y02581*
X04215Y02577*
X04221Y02575*
X04227*
X04232Y02577*
X04236Y02581*
X04239Y02587*
Y02593*
X04236Y02598*
X04232Y02602*
X04227Y02605*
G37*
G36*
X04089D02*
X04083D01*
X04078Y02602*
X04073Y02598*
X04071Y02593*
Y02587*
X04073Y02581*
X04078Y02577*
X04083Y02575*
X04089*
X04094Y02577*
X04099Y02581*
X04101Y02587*
Y02593*
X04099Y02598*
X04094Y02602*
X04089Y02605*
G37*
G36*
X02908Y02585D02*
X02902D01*
X02896Y02583*
X02892Y02579*
X0289Y02573*
Y02567*
X02892Y02562*
X02896Y02558*
X02902Y02555*
X02908*
X02913Y02558*
X02917Y02562*
X0292Y02567*
Y02573*
X02917Y02579*
X02913Y02583*
X02908Y02585*
G37*
G36*
X02829D02*
X02823D01*
X02818Y02583*
X02814Y02579*
X02811Y02573*
Y02567*
X02814Y02562*
X02818Y02558*
X02823Y02555*
X02829*
X02835Y02558*
X02839Y02562*
X02841Y02567*
Y02573*
X02839Y02579*
X02835Y02583*
X02829Y02585*
G37*
G36*
X0275D02*
X02744D01*
X02739Y02583*
X02735Y02579*
X02733Y02573*
Y02567*
X02735Y02562*
X02739Y02558*
X02744Y02555*
X0275*
X02756Y02558*
X0276Y02562*
X02762Y02567*
Y02573*
X0276Y02579*
X02756Y02583*
X0275Y02585*
G37*
G36*
X03462Y02581D02*
X03456D01*
X03451Y02579*
X03447Y02575*
X03444Y0257*
Y02564*
X03447Y02558*
X03451Y02554*
X03456Y02552*
X03462*
X03468Y02554*
X03472Y02558*
X03474Y02564*
Y0257*
X03472Y02575*
X03468Y02579*
X03462Y02581*
G37*
G36*
X03588Y02577D02*
X03582D01*
X03577Y02575*
X03573Y02571*
X0357Y02565*
Y02559*
X03573Y02554*
X03577Y0255*
X03582Y02547*
X03588*
X03594Y0255*
X03598Y02554*
X036Y02559*
Y02565*
X03598Y02571*
X03594Y02575*
X03588Y02577*
G37*
G36*
X03657Y02551D02*
X03651D01*
X03645Y02549*
X03641Y02545*
X03639Y02539*
Y02534*
X03641Y02528*
X03645Y02524*
X03651Y02522*
X03657*
X03662Y02524*
X03666Y02528*
X03669Y02534*
Y02539*
X03666Y02545*
X03662Y02549*
X03657Y02551*
G37*
G36*
X0388Y02545D02*
X03874D01*
X03869Y02543*
X03865Y02539*
X03862Y02533*
Y02528*
X03865Y02522*
X03869Y02518*
X03874Y02516*
X0388*
X03886Y02518*
X0389Y02522*
X03892Y02528*
Y02533*
X0389Y02539*
X03886Y02543*
X0388Y02545*
G37*
G36*
X02945Y02545D02*
X02939D01*
X02934Y02542*
X02929Y02538*
X02927Y02533*
Y02527*
X02929Y02521*
X02934Y02517*
X02939Y02515*
X02945*
X0295Y02517*
X02955Y02521*
X02957Y02527*
Y02533*
X02955Y02538*
X0295Y02542*
X02945Y02545*
G37*
G36*
X02866D02*
X0286D01*
X02855Y02542*
X02851Y02538*
X02848Y02533*
Y02527*
X02851Y02521*
X02855Y02517*
X0286Y02515*
X02866*
X02872Y02517*
X02876Y02521*
X02878Y02527*
Y02533*
X02876Y02538*
X02872Y02542*
X02866Y02545*
G37*
G36*
X02788D02*
X02782D01*
X02776Y02542*
X02772Y02538*
X0277Y02533*
Y02527*
X02772Y02521*
X02776Y02517*
X02782Y02515*
X02788*
X02793Y02517*
X02797Y02521*
X02799Y02527*
Y02533*
X02797Y02538*
X02793Y02542*
X02788Y02545*
G37*
G36*
X02709D02*
X02703D01*
X02697Y02542*
X02693Y02538*
X02691Y02533*
Y02527*
X02693Y02521*
X02697Y02517*
X02703Y02515*
X02709*
X02714Y02517*
X02718Y02521*
X02721Y02527*
Y02533*
X02718Y02538*
X02714Y02542*
X02709Y02545*
G37*
G36*
X05573Y0263D02*
X05561D01*
X05549Y02628*
X05538Y02623*
X05529Y02617*
X0552Y02608*
X05514Y02599*
X05509Y02588*
X05507Y02576*
Y02564*
X05509Y02553*
X05514Y02542*
X0552Y02532*
X05529Y02523*
X05538Y02517*
X05549Y02512*
X05561Y0251*
X05573*
X05584Y02512*
X05595Y02517*
X05605Y02523*
X05614Y02532*
X0562Y02542*
X05625Y02553*
X05627Y02564*
Y02576*
X05625Y02588*
X0562Y02599*
X05614Y02608*
X05605Y02617*
X05595Y02623*
X05584Y02628*
X05573Y0263*
G37*
G36*
X03731Y02534D02*
X03726D01*
X0372Y02532*
X03716Y02527*
X03714Y02522*
Y02516*
X03716Y02511*
X0372Y02506*
X03726Y02504*
X03731*
X03737Y02506*
X03741Y02511*
X03743Y02516*
Y02522*
X03741Y02527*
X03737Y02532*
X03731Y02534*
G37*
G36*
X04118Y02532D02*
X04113D01*
X04107Y0253*
X04103Y02526*
X04101Y0252*
Y02514*
X04103Y02509*
X04107Y02505*
X04113Y02502*
X04118*
X04124Y02505*
X04128Y02509*
X0413Y02514*
Y0252*
X04128Y02526*
X04124Y0253*
X04118Y02532*
G37*
G36*
X04588Y02529D02*
X04582D01*
X04577Y02527*
X04572Y02523*
X0457Y02517*
Y02512*
X04572Y02506*
X04577Y02502*
X04582Y025*
X04588*
X04593Y02502*
X04598Y02506*
X046Y02512*
Y02517*
X04598Y02523*
X04593Y02527*
X04588Y02529*
G37*
G36*
X03956Y02522D02*
X0395D01*
X03945Y02519*
X03941Y02515*
X03938Y0251*
Y02504*
X03941Y02498*
X03945Y02494*
X0395Y02492*
X03956*
X03961Y02494*
X03966Y02498*
X03968Y02504*
Y0251*
X03966Y02515*
X03961Y02519*
X03956Y02522*
G37*
G36*
X04162Y02504D02*
X04156D01*
X0415Y02502*
X04146Y02498*
X04144Y02492*
Y02487*
X04146Y02481*
X0415Y02477*
X04156Y02475*
X04162*
X04167Y02477*
X04171Y02481*
X04174Y02487*
Y02492*
X04171Y02498*
X04167Y02502*
X04162Y02504*
G37*
G36*
X03861Y02502D02*
X03855D01*
X0385Y02499*
X03846Y02495*
X03844Y0249*
Y02484*
X03846Y02478*
X0385Y02474*
X03855Y02472*
X03861*
X03867Y02474*
X03871Y02478*
X03873Y02484*
Y0249*
X03871Y02495*
X03867Y02499*
X03861Y02502*
G37*
G36*
X04298Y02482D02*
X04292D01*
X04287Y02479*
X04282Y02475*
X0428Y0247*
Y02464*
X04282Y02458*
X04287Y02454*
X04292Y02452*
X04298*
X04303Y02454*
X04308Y02458*
X0431Y02464*
Y0247*
X04308Y02475*
X04303Y02479*
X04298Y02482*
G37*
G36*
X03794Y02471D02*
X03788D01*
X03783Y02469*
X03778Y02465*
X03776Y02459*
Y02453*
X03778Y02448*
X03783Y02444*
X03788Y02441*
X03794*
X03799Y02444*
X03804Y02448*
X03806Y02453*
Y02459*
X03804Y02465*
X03799Y02469*
X03794Y02471*
G37*
G36*
X05674Y02467D02*
X05668D01*
X05662Y02465*
X05658Y02461*
X05656Y02455*
Y02449*
X05658Y02444*
X05662Y0244*
X05668Y02437*
X05674*
X05679Y0244*
X05683Y02444*
X05685Y02449*
Y02455*
X05683Y02461*
X05679Y02465*
X05674Y02467*
G37*
G36*
X05536D02*
X0553D01*
X05524Y02465*
X0552Y02461*
X05518Y02455*
Y02449*
X0552Y02444*
X05524Y0244*
X0553Y02437*
X05536*
X05541Y0244*
X05545Y02444*
X05548Y02449*
Y02455*
X05545Y02461*
X05541Y02465*
X05536Y02467*
G37*
G36*
X05398D02*
X05392D01*
X05387Y02465*
X05382Y02461*
X0538Y02455*
Y02449*
X05382Y02444*
X05387Y0244*
X05392Y02437*
X05398*
X05403Y0244*
X05408Y02444*
X0541Y02449*
Y02455*
X05408Y02461*
X05403Y02465*
X05398Y02467*
G37*
G36*
X0526D02*
X05254D01*
X05249Y02465*
X05245Y02461*
X05242Y02455*
Y02449*
X05245Y02444*
X05249Y0244*
X05254Y02437*
X0526*
X05266Y0244*
X0527Y02444*
X05272Y02449*
Y02455*
X0527Y02461*
X05266Y02465*
X0526Y02467*
G37*
G36*
X05122D02*
X05116D01*
X05111Y02465*
X05107Y02461*
X05105Y02455*
Y02449*
X05107Y02444*
X05111Y0244*
X05116Y02437*
X05122*
X05128Y0244*
X05132Y02444*
X05134Y02449*
Y02455*
X05132Y02461*
X05128Y02465*
X05122Y02467*
G37*
G36*
X04985D02*
X04979D01*
X04973Y02465*
X04969Y02461*
X04967Y02455*
Y02449*
X04969Y02444*
X04973Y0244*
X04979Y02437*
X04985*
X0499Y0244*
X04994Y02444*
X04996Y02449*
Y02455*
X04994Y02461*
X0499Y02465*
X04985Y02467*
G37*
G36*
X04209Y02459D02*
X04203D01*
X04198Y02457*
X04193Y02453*
X04191Y02447*
Y02442*
X04193Y02436*
X04198Y02432*
X04203Y0243*
X04209*
X04214Y02432*
X04219Y02436*
X04221Y02442*
Y02447*
X04219Y02453*
X04214Y02457*
X04209Y02459*
G37*
G36*
X03455Y02468D02*
X03449D01*
X03444Y02465*
X0344Y02461*
X03437Y02456*
Y0245*
X0344Y02444*
X03444Y0244*
X03449Y02438*
X03455*
X03456Y02436*
X03457Y02435*
X03457Y02434*
Y02428*
X0346Y02423*
X03464Y02419*
X03469Y02416*
X03475*
X0348Y02419*
X03485Y02423*
X03487Y02428*
Y02434*
X03485Y0244*
X0348Y02444*
X03475Y02446*
X0347*
X03468Y02448*
X03467Y02449*
X03467Y0245*
Y02456*
X03465Y02461*
X03461Y02465*
X03455Y02468*
G37*
G36*
X03531Y02426D02*
X03525D01*
X0352Y02424*
X03516Y0242*
X03514Y02416*
X0351Y02416*
X03506Y0242*
X035Y02422*
X03494*
X03489Y0242*
X03485Y02416*
X03483Y02411*
Y02405*
X03485Y02399*
X03489Y02395*
X03494Y02393*
X035*
X03506Y02395*
X0351Y02399*
X03511Y02403*
X03516Y02403*
X0352Y02399*
X03525Y02397*
X03531*
X03537Y02399*
X03541Y02403*
X03543Y02408*
Y02414*
X03541Y0242*
X03537Y02424*
X03531Y02426*
G37*
G36*
X03656Y02428D02*
X0365D01*
X03644Y02425*
X0364Y02421*
X03638Y02416*
Y02411*
X03636Y02409*
X03634Y02408*
X03633Y02409*
X03627*
X03622Y02406*
X03618Y02402*
X03615Y02397*
Y02391*
X03618Y02385*
X03622Y02381*
X03627Y02379*
X03633*
X03639Y02381*
X03643Y02385*
X03645Y02391*
Y02396*
X03648Y02398*
X03649Y02398*
X0365Y02398*
X03656*
X03661Y024*
X03665Y02404*
X03668Y0241*
Y02416*
X03665Y02421*
X03661Y02425*
X03656Y02428*
G37*
G36*
X03026D02*
X0302D01*
X03015Y02425*
X0301Y02421*
X03008Y02416*
Y0241*
X0301Y02404*
X03015Y024*
X0302Y02398*
X03026*
X03031Y024*
X03036Y02404*
X03038Y0241*
Y02416*
X03036Y02421*
X03031Y02425*
X03026Y02428*
G37*
G36*
X02711D02*
X02705D01*
X027Y02425*
X02695Y02421*
X02693Y02416*
Y0241*
X02695Y02404*
X027Y024*
X02705Y02398*
X02711*
X02716Y024*
X02721Y02404*
X02723Y0241*
Y02416*
X02721Y02421*
X02716Y02425*
X02711Y02428*
G37*
G36*
X0409Y02424D02*
X04084D01*
X04078Y02422*
X04074Y02418*
X04072Y02412*
Y02406*
X04074Y02401*
X04078Y02397*
X04084Y02394*
X0409*
X04095Y02397*
X04099Y02401*
X04102Y02406*
Y02412*
X04099Y02418*
X04095Y02422*
X0409Y02424*
G37*
G36*
X04166Y02419D02*
X0416D01*
X04154Y02417*
X0415Y02413*
X04148Y02407*
Y02401*
X0415Y02396*
X04154Y02392*
X0416Y02389*
X04166*
X04171Y02392*
X04175Y02396*
X04178Y02401*
Y02407*
X04175Y02413*
X04171Y02417*
X04166Y02419*
G37*
G36*
X03886Y02412D02*
X0388D01*
X03875Y0241*
X03871Y02405*
X03868Y024*
Y02394*
X03871Y02389*
X03875Y02384*
X0388Y02382*
X03886*
X03892Y02384*
X03896Y02389*
X03898Y02394*
Y024*
X03896Y02405*
X03892Y0241*
X03886Y02412*
G37*
G36*
X04562Y02401D02*
X04556D01*
X04551Y02399*
X04546Y02395*
X04544Y02389*
Y02383*
X04546Y02378*
X04551Y02374*
X04556Y02371*
X04562*
X04567Y02374*
X04572Y02378*
X04574Y02383*
Y02389*
X04572Y02395*
X04567Y02399*
X04562Y02401*
G37*
G36*
X04506Y02367D02*
X045D01*
X04495Y02365*
X04491Y0236*
X04488Y02355*
Y02349*
X04491Y02344*
X04495Y02339*
X045Y02337*
X04506*
X04512Y02339*
X04516Y02344*
X04518Y02349*
Y02355*
X04516Y0236*
X04512Y02365*
X04506Y02367*
G37*
G36*
X04015Y02359D02*
X04009D01*
X04004Y02356*
X04Y02352*
X03997Y02347*
Y02341*
X04Y02335*
X04004Y02331*
X04009Y02329*
X04015*
X04021Y02331*
X04025Y02335*
X04027Y02341*
Y02347*
X04025Y02352*
X04021Y02356*
X04015Y02359*
G37*
G36*
X03976D02*
X0397D01*
X03964Y02356*
X0396Y02352*
X03958Y02347*
Y02341*
X0396Y02335*
X03964Y02331*
X0397Y02329*
X03976*
X03981Y02331*
X03985Y02335*
X03988Y02341*
Y02347*
X03985Y02352*
X03981Y02356*
X03976Y02359*
G37*
G36*
X03936D02*
X0393D01*
X03925Y02356*
X03921Y02352*
X03919Y02347*
Y02341*
X03921Y02335*
X03925Y02331*
X0393Y02329*
X03936*
X03942Y02331*
X03946Y02335*
X03948Y02341*
Y02347*
X03946Y02352*
X03942Y02356*
X03936Y02359*
G37*
G36*
X03439Y02355D02*
X03433D01*
X03427Y02352*
X03423Y02348*
X03421Y02343*
Y02337*
X03423Y02331*
X03427Y02327*
X03433Y02325*
X03439*
X03444Y02327*
X03448Y02331*
X0345Y02337*
Y02343*
X03448Y02348*
X03444Y02352*
X03439Y02355*
G37*
G36*
X04559Y02349D02*
X04553D01*
X04547Y02347*
X04543Y02342*
X04541Y02337*
Y02331*
X04543Y02326*
X04547Y02321*
X04553Y02319*
X04559*
X04564Y02321*
X04568Y02326*
X04571Y02331*
Y02337*
X04568Y02342*
X04564Y02347*
X04559Y02349*
G37*
G36*
X04293Y02335D02*
X04287D01*
X04281Y02333*
X04277Y02329*
X04275Y02323*
Y02317*
X04277Y02312*
X04281Y02308*
X04287Y02305*
X04293*
X04298Y02308*
X04302Y02312*
X04305Y02317*
Y02323*
X04302Y02329*
X04298Y02333*
X04293Y02335*
G37*
G36*
X03394Y02335D02*
X03388D01*
X03383Y02333*
X03378Y02328*
X03376Y02323*
Y02317*
X03378Y02312*
X03383Y02307*
X03388Y02305*
X03394*
X03399Y02307*
X03404Y02312*
X03406Y02317*
Y02323*
X03404Y02328*
X03399Y02333*
X03394Y02335*
G37*
G36*
X03676Y02309D02*
X0367D01*
X03665Y02307*
X03661Y02304*
X0366Y02303*
X03656Y02303*
X03654Y02306*
X03649Y02308*
X03643*
X03637Y02306*
X03633Y02301*
X03633Y02301*
X03629Y02305*
X03624Y02307*
X03618*
X03612Y02305*
X03608Y02301*
X03606Y02295*
Y02294*
X03602Y02293*
X03602Y02294*
X03597Y02298*
X03592Y02301*
X03586*
X03581Y02298*
X03576Y02294*
X03574Y02289*
Y02283*
X03576Y02277*
X03581Y02273*
X03586Y02271*
X03592*
X03597Y02273*
X03602Y02277*
X03604Y02283*
Y02284*
X03608Y02285*
X03608Y02284*
X03612Y0228*
X03618Y02277*
X03624*
X03629Y0228*
X03633Y02284*
X03634Y02284*
X03637Y0228*
X03643Y02278*
X03649*
X03654Y0228*
X03658Y02284*
X03659Y02285*
X03663Y02284*
X03665Y02282*
X0367Y0228*
X03676*
X03679Y02281*
X03682Y02278*
X03681Y02277*
Y02271*
X03684Y02266*
X03688Y02261*
X03693Y02259*
X03699*
X03705Y02261*
X03709Y02266*
X03711Y02271*
Y02277*
X03709Y02282*
X03705Y02287*
X03699Y02289*
X03693*
X03691Y02288*
X03688Y02291*
X03688Y02292*
Y02297*
X03686Y02303*
X03682Y02307*
X03676Y02309*
G37*
G36*
X05605Y02329D02*
X05599D01*
X05593Y02327*
X05589Y02323*
X05587Y02317*
Y02311*
X05589Y02306*
X05593Y02302*
X05599Y02299*
X05605*
X0561Y02302*
X05614Y02306*
X05617Y02311*
Y02317*
X05614Y02323*
X0561Y02327*
X05605Y02329*
G37*
G36*
X05467D02*
X05461D01*
X05456Y02327*
X05451Y02323*
X05449Y02317*
Y02311*
X05451Y02306*
X05456Y02302*
X05461Y02299*
X05467*
X05472Y02302*
X05476Y02306*
X05479Y02311*
Y02317*
X05476Y02323*
X05472Y02327*
X05467Y02329*
G37*
G36*
X05329D02*
X05323D01*
X05318Y02327*
X05314Y02323*
X05311Y02317*
Y02311*
X05314Y02306*
X05318Y02302*
X05323Y02299*
X05329*
X05335Y02302*
X05339Y02306*
X05341Y02311*
Y02317*
X05339Y02323*
X05335Y02327*
X05329Y02329*
G37*
G36*
X05191D02*
X05185D01*
X0518Y02327*
X05176Y02323*
X05173Y02317*
Y02311*
X05176Y02306*
X0518Y02302*
X05185Y02299*
X05191*
X05197Y02302*
X05201Y02306*
X05203Y02311*
Y02317*
X05201Y02323*
X05197Y02327*
X05191Y02329*
G37*
G36*
X05053D02*
X05048D01*
X05042Y02327*
X05038Y02323*
X05036Y02317*
Y02311*
X05038Y02306*
X05042Y02302*
X05048Y02299*
X05053*
X05059Y02302*
X05063Y02306*
X05065Y02311*
Y02317*
X05063Y02323*
X05059Y02327*
X05053Y02329*
G37*
G36*
X04916D02*
X0491D01*
X04904Y02327*
X049Y02323*
X04898Y02317*
Y02311*
X049Y02306*
X04904Y02302*
X0491Y02299*
X04916*
X04921Y02302*
X04925Y02306*
X04928Y02311*
Y02317*
X04925Y02323*
X04921Y02327*
X04916Y02329*
G37*
G36*
X0354Y02327D02*
X03534D01*
X03528Y02325*
X03524Y02321*
X03522Y02316*
Y0231*
X03524Y02304*
X03528Y023*
X03534Y02298*
X0354*
X03545Y023*
X03549Y02304*
X03552Y0231*
Y02316*
X03549Y02321*
X03545Y02325*
X0354Y02327*
G37*
G36*
X0348Y02326D02*
X03474D01*
X03469Y02323*
X03464Y02319*
X03462Y02314*
Y02308*
X03464Y02302*
X03469Y02298*
X03474Y02296*
X0348*
X03485Y02298*
X0349Y02302*
X03492Y02308*
Y02314*
X0349Y02319*
X03485Y02323*
X0348Y02326*
G37*
G36*
X04015Y02319D02*
X04009D01*
X04004Y02317*
X04Y02313*
X03997Y02307*
Y02301*
X04Y02296*
X04004Y02292*
X04009Y0229*
X04015*
X04021Y02292*
X04025Y02296*
X04027Y02301*
Y02307*
X04025Y02313*
X04021Y02317*
X04015Y02319*
G37*
G36*
X03976D02*
X0397D01*
X03964Y02317*
X0396Y02313*
X03958Y02307*
Y02301*
X0396Y02296*
X03964Y02292*
X0397Y0229*
X03976*
X03981Y02292*
X03985Y02296*
X03988Y02301*
Y02307*
X03985Y02313*
X03981Y02317*
X03976Y02319*
G37*
G36*
X03936D02*
X0393D01*
X03925Y02317*
X03921Y02313*
X03919Y02307*
Y02301*
X03921Y02296*
X03925Y02292*
X0393Y0229*
X03936*
X03942Y02292*
X03946Y02296*
X03948Y02301*
Y02307*
X03946Y02313*
X03942Y02317*
X03936Y02319*
G37*
G36*
X03482Y0229D02*
X03476D01*
X03471Y02288*
X03467Y02284*
X03464Y02279*
Y02273*
X03467Y02267*
X03471Y02263*
X03476Y02261*
X03482*
X03488Y02263*
X03492Y02267*
X03494Y02273*
Y02279*
X03492Y02284*
X03488Y02288*
X03482Y0229*
G37*
G36*
X04015Y0228D02*
X04009D01*
X04004Y02278*
X04Y02273*
X03997Y02268*
Y02262*
X04Y02257*
X04004Y02252*
X04009Y0225*
X04015*
X04021Y02252*
X04025Y02257*
X04027Y02262*
Y02268*
X04025Y02273*
X04021Y02278*
X04015Y0228*
G37*
G36*
X03976D02*
X0397D01*
X03964Y02278*
X0396Y02273*
X03958Y02268*
Y02262*
X0396Y02257*
X03964Y02252*
X0397Y0225*
X03976*
X03981Y02252*
X03985Y02257*
X03988Y02262*
Y02268*
X03985Y02273*
X03981Y02278*
X03976Y0228*
G37*
G36*
X03936D02*
X0393D01*
X03925Y02278*
X03921Y02273*
X03919Y02268*
Y02262*
X03921Y02257*
X03925Y02252*
X0393Y0225*
X03936*
X03942Y02252*
X03946Y02257*
X03948Y02262*
Y02268*
X03946Y02273*
X03942Y02278*
X03936Y0228*
G37*
G36*
X04618Y0225D02*
X04613D01*
X04607Y02248*
X04603Y02244*
X04601Y02239*
Y02233*
X04603Y02227*
X04607Y02223*
X04613Y02221*
X04618*
X04624Y02223*
X04628Y02227*
X0463Y02233*
Y02239*
X04628Y02244*
X04624Y02248*
X04618Y0225*
G37*
G36*
X03457Y02245D02*
X03451D01*
X03445Y02243*
X03441Y02239*
X03439Y02233*
Y02228*
X03441Y02222*
X03445Y02218*
X03451Y02216*
X03457*
X03462Y02218*
X03466Y02222*
X03469Y02228*
Y02233*
X03466Y02239*
X03462Y02243*
X03457Y02245*
G37*
G36*
X03095Y02217D02*
X03089D01*
X03083Y02215*
X0308Y02212*
X03078Y02215*
X03072Y02217*
X03066*
X03061Y02215*
X03057Y0221*
X03054Y02205*
Y02199*
X03057Y02194*
X03061Y02189*
X03066Y02187*
X03072*
X03078Y02189*
X0308Y02192*
X03083Y02189*
X03089Y02187*
X03095*
X031Y02189*
X03104Y02194*
X03107Y02199*
Y02205*
X03104Y0221*
X031Y02215*
X03095Y02217*
G37*
G36*
X03779Y02211D02*
X03773D01*
X03767Y02209*
X03763Y02204*
X03761Y02199*
Y02194*
X03761Y02193*
X03758Y0219*
X03754*
X03751Y02193*
Y02196*
X03748Y02202*
X03744Y02206*
X03739Y02208*
X03733*
X03727Y02206*
X03723Y02202*
X03721Y02196*
Y0219*
X03721Y0219*
X03719Y02186*
X03716*
X0371Y02183*
X03706Y02179*
X03704Y02174*
Y02168*
X03706Y02162*
X0371Y02158*
X03716Y02156*
X03722*
X03727Y02158*
X03731Y02162*
X03734Y02168*
Y02174*
X03733Y02174*
X03736Y02177*
X03739Y02178*
X03742Y02175*
Y02173*
X03744Y02167*
X03749Y02163*
X03754Y02161*
X0376*
X03765Y02163*
X0377Y02167*
X03772Y02173*
Y02178*
X03772Y02179*
X03775Y02181*
X03779*
X0378Y0218*
Y02177*
X03782Y02172*
X03786Y02168*
X03792Y02165*
X03798*
X03803Y02168*
X03807Y02172*
X0381Y02177*
X03811Y02179*
X03813Y02178*
X03819*
X03825Y0218*
X03829Y02184*
X03831Y0219*
Y02196*
X03829Y02201*
X03825Y02205*
X03819Y02207*
X03813*
X03808Y02205*
X03804Y02201*
X03802Y02196*
X038Y02194*
X03798Y02195*
X03792*
X03791Y02196*
Y02199*
X03788Y02204*
X03784Y02209*
X03779Y02211*
G37*
G36*
X0333Y02218D02*
X03324D01*
X03319Y02216*
X03315Y02211*
X03312Y02206*
Y022*
X03315Y02195*
X03319Y02191*
X03324Y02188*
X0333*
X03336Y02191*
X0334Y02195*
X03342Y022*
Y02206*
X0334Y02211*
X03336Y02216*
X0333Y02218*
G37*
G36*
X03166Y02225D02*
X0316D01*
X03154Y02223*
X0315Y02218*
X03148Y02213*
Y02207*
X0315Y02202*
X03154Y02197*
X0316Y02195*
X03166*
X03171Y02197*
X03174Y02197*
X03175Y02195*
X03179Y02191*
X03184Y02188*
X0319*
X03196Y02191*
X032Y02195*
X03202Y022*
Y02206*
X032Y02211*
X03196Y02216*
X0319Y02218*
X03184*
X03179Y02216*
X03176Y02216*
X03175Y02218*
X03171Y02223*
X03166Y02225*
G37*
G36*
X03013Y02217D02*
X03007D01*
X03002Y02215*
X02998Y02211*
X02995Y02205*
Y02199*
X02998Y02194*
X03002Y0219*
X03007Y02188*
X03013*
X03019Y0219*
X03023Y02194*
X03025Y02199*
Y02205*
X03023Y02211*
X03019Y02215*
X03013Y02217*
G37*
G36*
X04524Y02195D02*
X04518D01*
X04512Y02193*
X04508Y02189*
X04506Y02183*
Y02177*
X04508Y02172*
X04512Y02168*
X04518Y02166*
X04524*
X04529Y02168*
X04533Y02172*
X04536Y02177*
Y02183*
X04533Y02189*
X04529Y02193*
X04524Y02195*
G37*
G36*
X05674Y02191D02*
X05668D01*
X05662Y02189*
X05658Y02185*
X05656Y02179*
Y02174*
X05658Y02168*
X05662Y02164*
X05668Y02162*
X05674*
X05679Y02164*
X05683Y02168*
X05685Y02174*
Y02179*
X05683Y02185*
X05679Y02189*
X05674Y02191*
G37*
G36*
X05536D02*
X0553D01*
X05524Y02189*
X0552Y02185*
X05518Y02179*
Y02174*
X0552Y02168*
X05524Y02164*
X0553Y02162*
X05536*
X05541Y02164*
X05545Y02168*
X05548Y02174*
Y02179*
X05545Y02185*
X05541Y02189*
X05536Y02191*
G37*
G36*
X05398D02*
X05392D01*
X05387Y02189*
X05382Y02185*
X0538Y02179*
Y02174*
X05382Y02168*
X05387Y02164*
X05392Y02162*
X05398*
X05403Y02164*
X05408Y02168*
X0541Y02174*
Y02179*
X05408Y02185*
X05403Y02189*
X05398Y02191*
G37*
G36*
X0526D02*
X05254D01*
X05249Y02189*
X05245Y02185*
X05242Y02179*
Y02174*
X05245Y02168*
X05249Y02164*
X05254Y02162*
X0526*
X05266Y02164*
X0527Y02168*
X05272Y02174*
Y02179*
X0527Y02185*
X05266Y02189*
X0526Y02191*
G37*
G36*
X05122D02*
X05116D01*
X05111Y02189*
X05107Y02185*
X05105Y02179*
Y02174*
X05107Y02168*
X05111Y02164*
X05116Y02162*
X05122*
X05128Y02164*
X05132Y02168*
X05134Y02174*
Y02179*
X05132Y02185*
X05128Y02189*
X05122Y02191*
G37*
G36*
X04985D02*
X04979D01*
X04973Y02189*
X04969Y02185*
X04967Y02179*
Y02174*
X04969Y02168*
X04973Y02164*
X04979Y02162*
X04985*
X0499Y02164*
X04994Y02168*
X04996Y02174*
Y02179*
X04994Y02185*
X0499Y02189*
X04985Y02191*
G37*
G36*
X04433D02*
X04427D01*
X04422Y02189*
X04418Y02185*
X04416Y02179*
Y02174*
X04418Y02168*
X04422Y02164*
X04427Y02162*
X04433*
X04439Y02164*
X04443Y02168*
X04445Y02174*
Y02179*
X04443Y02185*
X04439Y02189*
X04433Y02191*
G37*
G36*
X04296D02*
X0429D01*
X04284Y02189*
X0428Y02185*
X04278Y02179*
Y02174*
X0428Y02168*
X04284Y02164*
X0429Y02162*
X04296*
X04301Y02164*
X04305Y02168*
X04307Y02174*
Y02179*
X04305Y02185*
X04301Y02189*
X04296Y02191*
G37*
G36*
X04052Y02175D02*
X04046D01*
X0404Y02172*
X04036Y02168*
X04034Y02163*
Y02157*
X04036Y02151*
X0404Y02147*
X04046Y02145*
X04052*
X04057Y02147*
X04061Y02151*
X04063Y02157*
Y02163*
X04061Y02168*
X04057Y02172*
X04052Y02175*
G37*
G36*
X04067Y02141D02*
X04061D01*
X04056Y02139*
X04052Y02135*
X04049Y02129*
Y02123*
X04052Y02118*
X04056Y02114*
X04061Y02111*
X04067*
X04073Y02114*
X04077Y02118*
X04079Y02123*
Y02129*
X04077Y02135*
X04073Y02139*
X04067Y02141*
G37*
G36*
X03314Y02133D02*
X03308D01*
X03302Y02131*
X03298Y02127*
X03296Y02121*
Y02115*
X03298Y0211*
X03302Y02106*
X03308Y02104*
X03314*
X03319Y02106*
X03323Y0211*
X03326Y02115*
Y02121*
X03323Y02127*
X03319Y02131*
X03314Y02133*
G37*
G36*
X03498Y02113D02*
X03492D01*
X03487Y0211*
X03483Y02106*
X03481Y02101*
Y02095*
X03483Y02089*
X03487Y02085*
X03492Y02083*
X03498*
X03504Y02085*
X03508Y02089*
X0351Y02095*
Y02101*
X03508Y02106*
X03504Y0211*
X03498Y02113*
G37*
G36*
X03014Y02034D02*
X03008D01*
X03002Y02032*
X02998Y02027*
X02997Y02026*
X02993*
X02993Y02027*
X02988Y02032*
X02983Y02034*
X02977*
X02972Y02032*
X02967Y02027*
X02965Y02022*
Y02016*
X02967Y02011*
X02972Y02006*
X02977Y02004*
X02983*
X02988Y02006*
X02993Y02011*
X02993Y02012*
X02997*
X02998Y02011*
X03002Y02006*
X03008Y02004*
X03011*
X03012Y02001*
X03012Y02*
X03008Y01996*
X03006Y01991*
Y01985*
X03008Y01979*
X03011Y01977*
X03012Y01975*
X03011Y01972*
X03009Y0197*
X03007Y01964*
Y01958*
X03009Y01953*
X03013Y01949*
X03019Y01947*
X03025*
X0303Y01949*
X03034Y01953*
X03037Y01958*
Y01964*
X03034Y0197*
X03032Y01972*
X0303Y01974*
X03032Y01978*
X03034Y01979*
X03036Y01985*
Y01991*
X03034Y01996*
X03029Y02*
X03024Y02003*
X0302*
X03019Y02006*
X03019Y02007*
X03023Y02011*
X03025Y02016*
Y02022*
X03023Y02027*
X03019Y02032*
X03014Y02034*
G37*
G36*
X05329Y02054D02*
X05323D01*
X05318Y02051*
X05314Y02047*
X05311Y02042*
Y02036*
X05314Y0203*
X05318Y02026*
X05323Y02024*
X05329*
X05335Y02026*
X05339Y0203*
X05341Y02036*
Y02042*
X05339Y02047*
X05335Y02051*
X05329Y02054*
G37*
G36*
X05191D02*
X05185D01*
X0518Y02051*
X05176Y02047*
X05173Y02042*
Y02036*
X05176Y0203*
X0518Y02026*
X05185Y02024*
X05191*
X05197Y02026*
X05201Y0203*
X05203Y02036*
Y02042*
X05201Y02047*
X05197Y02051*
X05191Y02054*
G37*
G36*
X05053D02*
X05048D01*
X05042Y02051*
X05038Y02047*
X05036Y02042*
Y02036*
X05038Y0203*
X05042Y02026*
X05048Y02024*
X05053*
X05059Y02026*
X05063Y0203*
X05065Y02036*
Y02042*
X05063Y02047*
X05059Y02051*
X05053Y02054*
G37*
G36*
X04916D02*
X0491D01*
X04904Y02051*
X049Y02047*
X04898Y02042*
Y02036*
X049Y0203*
X04904Y02026*
X0491Y02024*
X04916*
X04921Y02026*
X04925Y0203*
X04928Y02036*
Y02042*
X04925Y02047*
X04921Y02051*
X04916Y02054*
G37*
G36*
X04502D02*
X04496D01*
X04491Y02051*
X04487Y02047*
X04485Y02042*
Y02036*
X04487Y0203*
X04491Y02026*
X04496Y02024*
X04502*
X04508Y02026*
X04512Y0203*
X04514Y02036*
Y02042*
X04512Y02047*
X04508Y02051*
X04502Y02054*
G37*
G36*
X04365D02*
X04359D01*
X04353Y02051*
X04349Y02047*
X04347Y02042*
Y02036*
X04349Y0203*
X04353Y02026*
X04359Y02024*
X04365*
X0437Y02026*
X04374Y0203*
X04376Y02036*
Y02042*
X04374Y02047*
X0437Y02051*
X04365Y02054*
G37*
G36*
X04227D02*
X04221D01*
X04215Y02051*
X04211Y02047*
X04209Y02042*
Y02036*
X04211Y0203*
X04215Y02026*
X04221Y02024*
X04227*
X04232Y02026*
X04236Y0203*
X04239Y02036*
Y02042*
X04236Y02047*
X04232Y02051*
X04227Y02054*
G37*
G36*
X04089D02*
X04083D01*
X04078Y02051*
X04073Y02047*
X04071Y02042*
Y02036*
X04073Y0203*
X04078Y02026*
X04083Y02024*
X04089*
X04094Y02026*
X04099Y0203*
X04101Y02036*
Y02042*
X04099Y02047*
X04094Y02051*
X04089Y02054*
G37*
G36*
X0317Y02047D02*
X03164D01*
X03159Y02045*
X03154Y02041*
X03152Y02036*
Y0203*
X03154Y02024*
X03159Y0202*
X03164Y02018*
X0317*
X03175Y0202*
X0318Y02024*
X03182Y0203*
Y02036*
X0318Y02041*
X03175Y02045*
X0317Y02047*
G37*
G36*
X05573Y0213D02*
X05561D01*
X05549Y02128*
X05538Y02123*
X05529Y02117*
X0552Y02108*
X05514Y02099*
X05509Y02088*
X05507Y02076*
Y02064*
X05509Y02053*
X05514Y02042*
X0552Y02032*
X05529Y02023*
X05538Y02017*
X05549Y02012*
X05561Y0201*
X05573*
X05584Y02012*
X05595Y02017*
X05605Y02023*
X05614Y02032*
X0562Y02042*
X05625Y02053*
X05627Y02064*
Y02076*
X05625Y02088*
X0562Y02099*
X05614Y02108*
X05605Y02117*
X05595Y02123*
X05584Y02128*
X05573Y0213*
G37*
G36*
X0294Y02031D02*
X02934D01*
X02928Y02028*
X02924Y02024*
X02922Y02019*
Y02013*
X02924Y02007*
X02928Y02003*
X02934Y02001*
X0294*
X02945Y02003*
X02949Y02007*
X02952Y02013*
Y02019*
X02949Y02024*
X02945Y02028*
X0294Y02031*
G37*
G36*
X03143Y0201D02*
X03137D01*
X03132Y02007*
X03127Y02003*
X03125Y01998*
Y01992*
X03127Y01986*
X03132Y01982*
X03137Y0198*
X03143*
X03148Y01982*
X03152Y01986*
X03155Y01992*
Y01998*
X03152Y02003*
X03148Y02007*
X03143Y0201*
G37*
G36*
X03217Y02008D02*
X03211D01*
X03205Y02006*
X03201Y02001*
X03199Y01996*
Y0199*
X03201Y01985*
X03205Y0198*
X03211Y01978*
X03217*
X03222Y0198*
X03226Y01985*
X03229Y0199*
Y01996*
X03226Y02001*
X03222Y02006*
X03217Y02008*
G37*
G36*
X03069Y01992D02*
X03063D01*
X03058Y01989*
X03054Y01985*
X03051Y0198*
Y01974*
X03054Y01968*
X03058Y01964*
X03063Y01962*
X03069*
X03075Y01964*
X03079Y01968*
X03081Y01974*
Y0198*
X03079Y01985*
X03075Y01989*
X03069Y01992*
G37*
G36*
X03532Y01959D02*
X03526D01*
X0352Y01957*
X03516Y01953*
X03514Y01948*
Y01942*
X03516Y01936*
X0352Y01932*
X03526Y0193*
X03532*
X03537Y01932*
X03541Y01936*
X03544Y01942*
Y01948*
X03541Y01953*
X03537Y01957*
X03532Y01959*
G37*
G36*
X03064Y01936D02*
X03059D01*
X03053Y01934*
X03049Y0193*
X03047Y01925*
Y01919*
X03049Y01913*
X03053Y01909*
X03059Y01907*
X03064*
X0307Y01909*
X03074Y01913*
X03076Y01919*
Y01925*
X03074Y0193*
X0307Y01934*
X03064Y01936*
G37*
G36*
X03874Y01923D02*
X03868D01*
X03863Y01921*
X03858Y01917*
X03856Y01911*
Y01905*
X03858Y019*
X03863Y01896*
X03868Y01893*
X03874*
X03879Y01896*
X03884Y019*
X03886Y01905*
Y01911*
X03884Y01917*
X03879Y01921*
X03874Y01923*
G37*
G36*
X05398Y01916D02*
X05392D01*
X05387Y01914*
X05382Y01909*
X0538Y01904*
Y01898*
X05382Y01893*
X05387Y01888*
X05392Y01886*
X05398*
X05403Y01888*
X05408Y01893*
X0541Y01898*
Y01904*
X05408Y01909*
X05403Y01914*
X05398Y01916*
G37*
G36*
X0526D02*
X05254D01*
X05249Y01914*
X05245Y01909*
X05242Y01904*
Y01898*
X05245Y01893*
X05249Y01888*
X05254Y01886*
X0526*
X05266Y01888*
X0527Y01893*
X05272Y01898*
Y01904*
X0527Y01909*
X05266Y01914*
X0526Y01916*
G37*
G36*
X05122D02*
X05116D01*
X05111Y01914*
X05107Y01909*
X05105Y01904*
Y01898*
X05107Y01893*
X05111Y01888*
X05116Y01886*
X05122*
X05128Y01888*
X05132Y01893*
X05134Y01898*
Y01904*
X05132Y01909*
X05128Y01914*
X05122Y01916*
G37*
G36*
X04985D02*
X04979D01*
X04973Y01914*
X04969Y01909*
X04967Y01904*
Y01898*
X04969Y01893*
X04973Y01888*
X04979Y01886*
X04985*
X0499Y01888*
X04994Y01893*
X04996Y01898*
Y01904*
X04994Y01909*
X0499Y01914*
X04985Y01916*
G37*
G36*
X04847D02*
X04841D01*
X04835Y01914*
X04831Y01909*
X04829Y01904*
Y01898*
X04831Y01893*
X04835Y01888*
X04841Y01886*
X04847*
X04852Y01888*
X04856Y01893*
X04859Y01898*
Y01904*
X04856Y01909*
X04852Y01914*
X04847Y01916*
G37*
G36*
X04709D02*
X04703D01*
X04698Y01914*
X04693Y01909*
X04691Y01904*
Y01898*
X04693Y01893*
X04698Y01888*
X04703Y01886*
X04709*
X04714Y01888*
X04719Y01893*
X04721Y01898*
Y01904*
X04719Y01909*
X04714Y01914*
X04709Y01916*
G37*
G36*
X04571D02*
X04565D01*
X0456Y01914*
X04556Y01909*
X04553Y01904*
Y01898*
X04556Y01893*
X0456Y01888*
X04565Y01886*
X04571*
X04577Y01888*
X04581Y01893*
X04583Y01898*
Y01904*
X04581Y01909*
X04577Y01914*
X04571Y01916*
G37*
G36*
X04433D02*
X04427D01*
X04422Y01914*
X04418Y01909*
X04416Y01904*
Y01898*
X04418Y01893*
X04422Y01888*
X04427Y01886*
X04433*
X04439Y01888*
X04443Y01893*
X04445Y01898*
Y01904*
X04443Y01909*
X04439Y01914*
X04433Y01916*
G37*
G36*
X04158D02*
X04152D01*
X04146Y01914*
X04142Y01909*
X0414Y01904*
Y01898*
X04142Y01893*
X04146Y01888*
X04152Y01886*
X04158*
X04163Y01888*
X04167Y01893*
X0417Y01898*
Y01904*
X04167Y01909*
X04163Y01914*
X04158Y01916*
G37*
G36*
X05425Y01856D02*
X05419D01*
X05414Y01853*
X0541Y01849*
X05408Y01844*
Y01838*
X0541Y01832*
X05414Y01828*
X05419Y01826*
X05425*
X05431Y01828*
X05435Y01832*
X05437Y01838*
Y01844*
X05435Y01849*
X05431Y01853*
X05425Y01856*
G37*
G36*
X03793Y01847D02*
X03787D01*
X03781Y01845*
X03777Y0184*
X03775Y01835*
Y01829*
X03777Y01824*
X03781Y01819*
X03787Y01817*
X03793*
X03798Y01819*
X03802Y01824*
X03805Y01829*
Y01835*
X03802Y0184*
X03798Y01845*
X03793Y01847*
G37*
G36*
X03627Y01827D02*
X03621D01*
X03616Y01825*
X03611Y01821*
X03609Y01815*
Y01809*
X03611Y01804*
X03616Y018*
X03621Y01797*
X03627*
X03632Y018*
X03637Y01804*
X03639Y01809*
Y01815*
X03637Y01821*
X03632Y01825*
X03627Y01827*
G37*
G36*
X03754Y01814D02*
X03748D01*
X03743Y01812*
X03739Y01808*
X03736Y01802*
Y01797*
X03739Y01791*
X03743Y01787*
X03748Y01785*
X03754*
X0376Y01787*
X03764Y01791*
X03766Y01797*
Y01802*
X03764Y01808*
X0376Y01812*
X03754Y01814*
G37*
G36*
X05546Y01798D02*
X0554D01*
X05534Y01795*
X0553Y01791*
X05528Y01786*
Y0178*
X0553Y01774*
X05534Y0177*
X0554Y01768*
X05546*
X05551Y0177*
X05555Y01774*
X05557Y0178*
Y01786*
X05555Y01791*
X05551Y01795*
X05546Y01798*
G37*
G36*
X05231D02*
X05225D01*
X05219Y01795*
X05215Y01791*
X05213Y01786*
Y0178*
X05215Y01774*
X05219Y0177*
X05225Y01768*
X05231*
X05236Y0177*
X0524Y01774*
X05243Y0178*
Y01786*
X0524Y01791*
X05236Y01795*
X05231Y01798*
G37*
G36*
X04601D02*
X04595D01*
X04589Y01795*
X04585Y01791*
X04583Y01786*
Y0178*
X04585Y01774*
X04589Y0177*
X04595Y01768*
X04601*
X04606Y0177*
X0461Y01774*
X04613Y0178*
Y01786*
X0461Y01791*
X04606Y01795*
X04601Y01798*
G37*
G36*
X04286D02*
X0428D01*
X04274Y01795*
X0427Y01791*
X04268Y01786*
Y0178*
X0427Y01774*
X04274Y0177*
X0428Y01768*
X04286*
X04291Y0177*
X04295Y01774*
X04298Y0178*
Y01786*
X04295Y01791*
X04291Y01795*
X04286Y01798*
G37*
G36*
X03971D02*
X03965D01*
X03959Y01795*
X03955Y01791*
X03953Y01786*
Y0178*
X03955Y01774*
X03959Y0177*
X03965Y01768*
X03971*
X03976Y0177*
X0398Y01774*
X03983Y0178*
Y01786*
X0398Y01791*
X03976Y01795*
X03971Y01798*
G37*
G36*
X03656D02*
X0365D01*
X03644Y01795*
X0364Y01791*
X03638Y01786*
Y0178*
X0364Y01774*
X03644Y0177*
X0365Y01768*
X03656*
X03661Y0177*
X03665Y01774*
X03668Y0178*
Y01786*
X03665Y01791*
X03661Y01795*
X03656Y01798*
G37*
G36*
X03026D02*
X0302D01*
X03015Y01795*
X0301Y01791*
X03008Y01786*
Y0178*
X0301Y01774*
X03015Y0177*
X0302Y01768*
X03026*
X03031Y0177*
X03036Y01774*
X03038Y0178*
Y01786*
X03036Y01791*
X03031Y01795*
X03026Y01798*
G37*
G36*
X05605Y01778D02*
X05599D01*
X05593Y01776*
X05589Y01772*
X05587Y01766*
Y0176*
X05589Y01755*
X05593Y01751*
X05599Y01748*
X05605*
X0561Y01751*
X05614Y01755*
X05617Y0176*
Y01766*
X05614Y01772*
X0561Y01776*
X05605Y01778*
G37*
G36*
X05467D02*
X05461D01*
X05456Y01776*
X05451Y01772*
X05449Y01766*
Y0176*
X05451Y01755*
X05456Y01751*
X05461Y01748*
X05467*
X05472Y01751*
X05476Y01755*
X05479Y0176*
Y01766*
X05476Y01772*
X05472Y01776*
X05467Y01778*
G37*
G36*
X05329D02*
X05323D01*
X05318Y01776*
X05314Y01772*
X05311Y01766*
Y0176*
X05314Y01755*
X05318Y01751*
X05323Y01748*
X05329*
X05335Y01751*
X05339Y01755*
X05341Y0176*
Y01766*
X05339Y01772*
X05335Y01776*
X05329Y01778*
G37*
G36*
X05191D02*
X05185D01*
X0518Y01776*
X05176Y01772*
X05173Y01766*
Y0176*
X05176Y01755*
X0518Y01751*
X05185Y01748*
X05191*
X05197Y01751*
X05201Y01755*
X05203Y0176*
Y01766*
X05201Y01772*
X05197Y01776*
X05191Y01778*
G37*
G36*
X05053D02*
X05048D01*
X05042Y01776*
X05038Y01772*
X05036Y01766*
Y0176*
X05038Y01755*
X05042Y01751*
X05048Y01748*
X05053*
X05059Y01751*
X05063Y01755*
X05065Y0176*
Y01766*
X05063Y01772*
X05059Y01776*
X05053Y01778*
G37*
G36*
X04916Y01798D02*
X0491D01*
X04904Y01795*
X049Y01791*
X04898Y01786*
Y0178*
X049Y01774*
X04902Y01773*
X049Y01772*
X04898Y01766*
Y0176*
X049Y01755*
X04904Y01751*
X0491Y01748*
X04916*
X04921Y01751*
X04925Y01755*
X04928Y0176*
Y01766*
X04925Y01772*
X04924Y01773*
X04925Y01774*
X04928Y0178*
Y01786*
X04925Y01791*
X04921Y01795*
X04916Y01798*
G37*
G36*
X04778Y01778D02*
X04772D01*
X04767Y01776*
X04762Y01772*
X0476Y01766*
Y0176*
X04762Y01755*
X04767Y01751*
X04772Y01748*
X04778*
X04783Y01751*
X04788Y01755*
X0479Y0176*
Y01766*
X04788Y01772*
X04783Y01776*
X04778Y01778*
G37*
G36*
X0464D02*
X04634D01*
X04629Y01776*
X04625Y01772*
X04622Y01766*
Y0176*
X04625Y01755*
X04629Y01751*
X04634Y01748*
X0464*
X04646Y01751*
X0465Y01755*
X04652Y0176*
Y01766*
X0465Y01772*
X04646Y01776*
X0464Y01778*
G37*
G36*
X04502D02*
X04496D01*
X04491Y01776*
X04487Y01772*
X04485Y01766*
Y0176*
X04487Y01755*
X04491Y01751*
X04496Y01748*
X04502*
X04508Y01751*
X04512Y01755*
X04514Y0176*
Y01766*
X04512Y01772*
X04508Y01776*
X04502Y01778*
G37*
G36*
X04227D02*
X04221D01*
X04215Y01776*
X04211Y01772*
X04209Y01766*
Y0176*
X04211Y01755*
X04215Y01751*
X04221Y01748*
X04227*
X04232Y01751*
X04236Y01755*
X04239Y0176*
Y01766*
X04236Y01772*
X04232Y01776*
X04227Y01778*
G37*
G36*
X0526Y0164D02*
X05254D01*
X05249Y01638*
X05245Y01634*
X05242Y01628*
Y01622*
X05245Y01617*
X05249Y01613*
X05254Y0161*
X0526*
X05266Y01613*
X0527Y01617*
X05272Y01622*
Y01628*
X0527Y01634*
X05266Y01638*
X0526Y0164*
G37*
G36*
X05122D02*
X05116D01*
X05111Y01638*
X05107Y01634*
X05105Y01628*
Y01622*
X05107Y01617*
X05111Y01613*
X05116Y0161*
X05122*
X05128Y01613*
X05132Y01617*
X05134Y01622*
Y01628*
X05132Y01634*
X05128Y01638*
X05122Y0164*
G37*
G36*
X04985D02*
X04979D01*
X04973Y01638*
X04969Y01634*
X04967Y01628*
Y01622*
X04969Y01617*
X04973Y01613*
X04979Y0161*
X04985*
X0499Y01613*
X04994Y01617*
X04996Y01622*
Y01628*
X04994Y01634*
X0499Y01638*
X04985Y0164*
G37*
G36*
X04709D02*
X04703D01*
X04698Y01638*
X04693Y01634*
X04691Y01628*
Y01622*
X04693Y01617*
X04698Y01613*
X04703Y0161*
X04709*
X04714Y01613*
X04719Y01617*
X04721Y01622*
Y01628*
X04719Y01634*
X04714Y01638*
X04709Y0164*
G37*
G36*
X04433D02*
X04427D01*
X04422Y01638*
X04418Y01634*
X04416Y01628*
Y01622*
X04418Y01617*
X04422Y01613*
X04427Y0161*
X04433*
X04439Y01613*
X04443Y01617*
X04445Y01622*
Y01628*
X04443Y01634*
X04439Y01638*
X04433Y0164*
G37*
G36*
X04158D02*
X04152D01*
X04146Y01638*
X04142Y01634*
X0414Y01628*
Y01622*
X04142Y01617*
X04146Y01613*
X04152Y0161*
X04158*
X04163Y01613*
X04167Y01617*
X0417Y01622*
Y01628*
X04167Y01634*
X04163Y01638*
X04158Y0164*
G37*
G36*
X04563Y01632D02*
X04557D01*
X04552Y0163*
X04547Y01626*
X04545Y0162*
Y01614*
X04547Y01609*
X04552Y01605*
X04557Y01602*
X04563*
X04568Y01605*
X04573Y01609*
X04575Y01614*
Y0162*
X04573Y01626*
X04568Y0163*
X04563Y01632*
G37*
G36*
X03622Y01627D02*
X03616D01*
X03611Y01625*
X03607Y0162*
X03604Y01615*
Y01609*
X03607Y01604*
X03611Y01599*
X03616Y01597*
X03622*
X03628Y01599*
X03632Y01604*
X03634Y01609*
Y01615*
X03632Y0162*
X03628Y01625*
X03622Y01627*
G37*
G36*
X05299Y01617D02*
X05293D01*
X05288Y01614*
X05283Y0161*
X05281Y01605*
Y01599*
X05283Y01593*
X05288Y01589*
X05293Y01587*
X05299*
X05304Y01589*
X05309Y01593*
X05311Y01599*
Y01605*
X05309Y0161*
X05304Y01614*
X05299Y01617*
G37*
G36*
X04997Y01535D02*
X04991D01*
X04986Y01533*
X04981Y01529*
X04979Y01523*
Y01518*
X04981Y01512*
X04986Y01508*
X04991Y01506*
X04997*
X05002Y01508*
X05007Y01512*
X05009Y01518*
Y01523*
X05007Y01529*
X05002Y01533*
X04997Y01535*
G37*
G36*
X03622Y01527D02*
X03616D01*
X0361Y01524*
X03606Y0152*
X03604Y01515*
Y01509*
X03606Y01503*
X0361Y01499*
X03616Y01497*
X03622*
X03627Y01499*
X03631Y01503*
X03633Y01509*
Y01515*
X03631Y0152*
X03627Y01524*
X03622Y01527*
G37*
G36*
X05292Y01509D02*
X05286D01*
X05281Y01507*
X05277Y01503*
X05274Y01497*
Y01491*
X05277Y01486*
X05281Y01482*
X05286Y0148*
X05292*
X05298Y01482*
X05302Y01486*
X05304Y01491*
Y01497*
X05302Y01503*
X05298Y01507*
X05292Y01509*
G37*
G36*
X04869Y01505D02*
X04863D01*
X04858Y01503*
X04854Y01499*
X04851Y01493*
Y01487*
X04854Y01482*
X04858Y01478*
X04863Y01475*
X04869*
X04875Y01478*
X04879Y01482*
X04881Y01487*
Y01493*
X04879Y01499*
X04875Y01503*
X04869Y01505*
G37*
G36*
X04778Y01502D02*
X04772D01*
X04767Y015*
X04762Y01496*
X0476Y0149*
Y01485*
X04762Y01479*
X04767Y01475*
X04772Y01473*
X04778*
X04783Y01475*
X04788Y01479*
X0479Y01485*
Y0149*
X04788Y01496*
X04783Y015*
X04778Y01502*
G37*
G36*
X04502D02*
X04496D01*
X04491Y015*
X04487Y01496*
X04485Y0149*
Y01485*
X04487Y01479*
X04491Y01475*
X04496Y01473*
X04502*
X04508Y01475*
X04512Y01479*
X04514Y01485*
Y0149*
X04512Y01496*
X04508Y015*
X04502Y01502*
G37*
G36*
X05264Y01489D02*
X05258D01*
X05252Y01487*
X05248Y01482*
X05246Y01477*
Y01471*
X05248Y01466*
X05252Y01461*
X05258Y01459*
X05264*
X05269Y01461*
X05273Y01466*
X05276Y01471*
Y01477*
X05273Y01482*
X05269Y01487*
X05264Y01489*
G37*
G36*
X05184Y01489D02*
X05178D01*
X05173Y01486*
X05169Y01482*
X05167Y01477*
Y01471*
X05169Y01465*
X05173Y01461*
X05178Y01459*
X05184*
X0519Y01461*
X05194Y01465*
X05196Y01471*
Y01477*
X05194Y01482*
X0519Y01486*
X05184Y01489*
G37*
G36*
X05073Y01483D02*
X05067D01*
X05062Y0148*
X05058Y01476*
X05055Y01471*
Y01465*
X05058Y01459*
X05062Y01455*
X05067Y01453*
X05073*
X05079Y01455*
X05083Y01459*
X05085Y01465*
Y01471*
X05083Y01476*
X05079Y0148*
X05073Y01483*
G37*
G36*
X04443D02*
X04437D01*
X04432Y0148*
X04428Y01476*
X04425Y01471*
Y01465*
X04428Y01459*
X04432Y01455*
X04437Y01453*
X04443*
X04449Y01455*
X04453Y01459*
X04455Y01465*
Y01471*
X04453Y01476*
X04449Y0148*
X04443Y01483*
G37*
G36*
X04128D02*
X04122D01*
X04117Y0148*
X04113Y01476*
X0411Y01471*
Y01465*
X04113Y01459*
X04117Y01455*
X04122Y01453*
X04128*
X04134Y01455*
X04138Y01459*
X0414Y01465*
Y01471*
X04138Y01476*
X04134Y0148*
X04128Y01483*
G37*
G36*
X03813D02*
X03807D01*
X03802Y0148*
X03798Y01476*
X03796Y01471*
Y01465*
X03798Y01459*
X03802Y01455*
X03807Y01453*
X03813*
X03819Y01455*
X03823Y01459*
X03825Y01465*
Y01471*
X03823Y01476*
X03819Y0148*
X03813Y01483*
G37*
G36*
X03498D02*
X03492D01*
X03487Y0148*
X03483Y01476*
X03481Y01471*
Y01465*
X03483Y01459*
X03487Y01455*
X03492Y01453*
X03498*
X03504Y01455*
X03508Y01459*
X0351Y01465*
Y01471*
X03508Y01476*
X03504Y0148*
X03498Y01483*
G37*
G36*
X03183D02*
X03177D01*
X03172Y0148*
X03168Y01476*
X03166Y01471*
Y01465*
X03168Y01459*
X03172Y01455*
X03177Y01453*
X03183*
X03189Y01455*
X03193Y01459*
X03195Y01465*
Y01471*
X03193Y01476*
X03189Y0148*
X03183Y01483*
G37*
G36*
X04968Y01469D02*
X04962D01*
X04957Y01466*
X04953Y01462*
X0495Y01457*
Y01451*
X04953Y01445*
X04957Y01441*
X04962Y01439*
X04968*
X04974Y01441*
X04978Y01445*
X0498Y01451*
Y01457*
X04978Y01462*
X04974Y01466*
X04968Y01469*
G37*
G36*
X04905Y01468D02*
X04899D01*
X04894Y01466*
X0489Y01462*
X04887Y01456*
Y01451*
X0489Y01445*
X04894Y01441*
X04899Y01439*
X04905*
X04911Y01441*
X04915Y01445*
X04917Y01451*
Y01456*
X04915Y01462*
X04911Y01466*
X04905Y01468*
G37*
G36*
X0405Y01458D02*
X04044D01*
X04038Y01455*
X04034Y01451*
X04032Y01446*
Y0144*
X04034Y01434*
X04038Y0143*
X04044Y01428*
X0405*
X04055Y0143*
X04059Y01434*
X04061Y0144*
Y01446*
X04059Y01451*
X04055Y01455*
X0405Y01458*
G37*
G36*
X04938Y0145D02*
X04932D01*
X04926Y01448*
X04922Y01443*
X0492Y01438*
Y01432*
X04922Y01427*
X04926Y01422*
X04932Y0142*
X04938*
X04943Y01422*
X04945Y01424*
X04948Y01423*
X04949Y01422*
Y01417*
X04951Y01411*
X04955Y01407*
X04961Y01405*
X04966*
X04972Y01407*
X04976Y01411*
X04978Y01417*
Y01423*
X04976Y01428*
X04972Y01432*
X04966Y01435*
X04961*
X04955Y01432*
X04953Y01431*
X04951Y01432*
X0495Y01433*
Y01438*
X04947Y01443*
X04943Y01448*
X04938Y0145*
G37*
G36*
X04904Y01434D02*
X04898D01*
X04893Y01432*
X04889Y01428*
X04886Y01422*
Y01417*
X04889Y01411*
X04893Y01407*
X04898Y01405*
X04904*
X0491Y01407*
X04914Y01411*
X04916Y01417*
Y01422*
X04914Y01428*
X0491Y01432*
X04904Y01434*
G37*
G36*
X03627Y01428D02*
X03621D01*
X03616Y01426*
X03611Y01421*
X03609Y01416*
Y0141*
X03611Y01405*
X03616Y014*
X03621Y01398*
X03627*
X03632Y014*
X03637Y01405*
X03639Y0141*
Y01416*
X03637Y01421*
X03632Y01426*
X03627Y01428*
G37*
G36*
X05184Y01405D02*
X05178D01*
X05173Y01403*
X05169Y01399*
X05167Y01393*
Y01387*
X05169Y01382*
X05173Y01378*
X05178Y01375*
X05184*
X0519Y01378*
X05194Y01382*
X05196Y01387*
Y01393*
X05194Y01399*
X0519Y01403*
X05184Y01405*
G37*
G36*
X05389Y01398D02*
X05383D01*
X05378Y01396*
X05374Y01392*
X05371Y01386*
Y0138*
X05374Y01375*
X05378Y01371*
X05383Y01368*
X05389*
X05395Y01371*
X05399Y01375*
X05401Y0138*
Y01386*
X05399Y01392*
X05395Y01396*
X05389Y01398*
G37*
G36*
X05398Y01365D02*
X05392D01*
X05387Y01362*
X05382Y01358*
X0538Y01353*
Y01347*
X05382Y01341*
X05387Y01337*
X05392Y01335*
X05398*
X05403Y01337*
X05408Y01341*
X0541Y01347*
Y01353*
X05408Y01358*
X05403Y01362*
X05398Y01365*
G37*
G36*
X04847D02*
X04841D01*
X04835Y01362*
X04831Y01358*
X04829Y01353*
Y01347*
X04831Y01341*
X04835Y01337*
X04841Y01335*
X04847*
X04852Y01337*
X04856Y01341*
X04859Y01347*
Y01353*
X04856Y01358*
X04852Y01362*
X04847Y01365*
G37*
G36*
X04709D02*
X04703D01*
X04698Y01362*
X04693Y01358*
X04691Y01353*
Y01347*
X04693Y01341*
X04698Y01337*
X04703Y01335*
X04709*
X04714Y01337*
X04719Y01341*
X04721Y01347*
Y01353*
X04719Y01358*
X04714Y01362*
X04709Y01365*
G37*
G36*
X04571D02*
X04565D01*
X0456Y01362*
X04556Y01358*
X04553Y01353*
Y01347*
X04556Y01341*
X0456Y01337*
X04565Y01335*
X04571*
X04577Y01337*
X04581Y01341*
X04583Y01347*
Y01353*
X04581Y01358*
X04577Y01362*
X04571Y01365*
G37*
G36*
X04931Y01362D02*
X04925D01*
X04919Y0136*
X04915Y01356*
X04913Y01351*
Y01345*
X04915Y01339*
X04919Y01335*
X04925Y01333*
X04931*
X04936Y01335*
X0494Y01339*
X04943Y01345*
Y01351*
X0494Y01356*
X04936Y0136*
X04931Y01362*
G37*
G36*
X04433Y01345D02*
X04427D01*
X04422Y01343*
X04418Y01339*
X04416Y01333*
Y01328*
X04418Y01322*
X04422Y01318*
X04427Y01316*
X04433*
X04439Y01318*
X04443Y01322*
X04445Y01328*
Y01333*
X04443Y01339*
X04439Y01343*
X04433Y01345*
G37*
G36*
X04296D02*
X0429D01*
X04284Y01343*
X0428Y01339*
X04278Y01333*
Y01328*
X0428Y01322*
X04284Y01318*
X0429Y01316*
X04296*
X04301Y01318*
X04305Y01322*
X04307Y01328*
Y01333*
X04305Y01339*
X04301Y01343*
X04296Y01345*
G37*
G36*
X04158D02*
X04152D01*
X04146Y01343*
X04142Y01339*
X0414Y01333*
Y01328*
X04142Y01322*
X04146Y01318*
X04152Y01316*
X04158*
X04163Y01318*
X04167Y01322*
X0417Y01328*
Y01333*
X04167Y01339*
X04163Y01343*
X04158Y01345*
G37*
G36*
X0534Y0134D02*
X05334D01*
X05329Y01337*
X05325Y01333*
X05322Y01328*
Y01322*
X05325Y01316*
X05329Y01312*
X05334Y0131*
X0534*
X05346Y01312*
X0535Y01316*
X05352Y01322*
Y01328*
X0535Y01333*
X05346Y01337*
X0534Y0134*
G37*
G36*
X05282Y01331D02*
X05276D01*
X0527Y01329*
X05266Y01325*
X05264Y01319*
Y01313*
X05266Y01308*
X0527Y01304*
X05276Y01301*
X05282*
X05287Y01304*
X05291Y01308*
X05294Y01313*
Y01319*
X05291Y01325*
X05287Y01329*
X05282Y01331*
G37*
G36*
X05191Y01227D02*
X05185D01*
X0518Y01225*
X05176Y0122*
X05173Y01215*
Y01209*
X05176Y01204*
X0518Y01199*
X05185Y01197*
X05191*
X05197Y01199*
X05201Y01204*
X05203Y01209*
Y01215*
X05201Y0122*
X05197Y01225*
X05191Y01227*
G37*
G36*
X05053D02*
X05048D01*
X05042Y01225*
X05038Y0122*
X05036Y01215*
Y01209*
X05038Y01204*
X05042Y01199*
X05048Y01197*
X05053*
X05059Y01199*
X05063Y01204*
X05065Y01209*
Y01215*
X05063Y0122*
X05059Y01225*
X05053Y01227*
G37*
G36*
X04916D02*
X0491D01*
X04904Y01225*
X049Y0122*
X04898Y01215*
Y01209*
X049Y01204*
X04904Y01199*
X0491Y01197*
X04916*
X04921Y01199*
X04925Y01204*
X04928Y01209*
Y01215*
X04925Y0122*
X04921Y01225*
X04916Y01227*
G37*
G36*
X04778D02*
X04772D01*
X04767Y01225*
X04762Y0122*
X0476Y01215*
Y01209*
X04762Y01204*
X04767Y01199*
X04772Y01197*
X04778*
X04783Y01199*
X04788Y01204*
X0479Y01209*
Y01215*
X04788Y0122*
X04783Y01225*
X04778Y01227*
G37*
G36*
X0464D02*
X04634D01*
X04629Y01225*
X04625Y0122*
X04622Y01215*
Y01209*
X04625Y01204*
X04629Y01199*
X04634Y01197*
X0464*
X04646Y01199*
X0465Y01204*
X04652Y01209*
Y01215*
X0465Y0122*
X04646Y01225*
X0464Y01227*
G37*
G36*
X04365D02*
X04359D01*
X04353Y01225*
X04349Y0122*
X04347Y01215*
Y01209*
X04349Y01204*
X04353Y01199*
X04359Y01197*
X04365*
X0437Y01199*
X04374Y01204*
X04376Y01209*
Y01215*
X04374Y0122*
X0437Y01225*
X04365Y01227*
G37*
G36*
X05546Y01168D02*
X0554D01*
X05534Y01165*
X0553Y01161*
X05528Y01156*
Y0115*
X0553Y01144*
X05534Y0114*
X0554Y01138*
X05546*
X05551Y0114*
X05555Y01144*
X05557Y0115*
Y01156*
X05555Y01161*
X05551Y01165*
X05546Y01168*
G37*
G36*
X05231D02*
X05225D01*
X05219Y01165*
X05215Y01161*
X05213Y01156*
Y0115*
X05215Y01144*
X05219Y0114*
X05225Y01138*
X05231*
X05236Y0114*
X0524Y01144*
X05243Y0115*
Y01156*
X0524Y01161*
X05236Y01165*
X05231Y01168*
G37*
G36*
X04916D02*
X0491D01*
X04904Y01165*
X049Y01161*
X04898Y01156*
Y0115*
X049Y01144*
X04904Y0114*
X0491Y01138*
X04916*
X04921Y0114*
X04925Y01144*
X04928Y0115*
Y01156*
X04925Y01161*
X04921Y01165*
X04916Y01168*
G37*
G36*
X04601D02*
X04595D01*
X04589Y01165*
X04585Y01161*
X04583Y01156*
Y0115*
X04585Y01144*
X04589Y0114*
X04595Y01138*
X04601*
X04606Y0114*
X0461Y01144*
X04613Y0115*
Y01156*
X0461Y01161*
X04606Y01165*
X04601Y01168*
G37*
G36*
X04286D02*
X0428D01*
X04274Y01165*
X0427Y01161*
X04268Y01156*
Y0115*
X0427Y01144*
X04274Y0114*
X0428Y01138*
X04286*
X04291Y0114*
X04295Y01144*
X04298Y0115*
Y01156*
X04295Y01161*
X04291Y01165*
X04286Y01168*
G37*
G36*
X03971D02*
X03965D01*
X03959Y01165*
X03955Y01161*
X03953Y01156*
Y0115*
X03955Y01144*
X03959Y0114*
X03965Y01138*
X03971*
X03976Y0114*
X0398Y01144*
X03983Y0115*
Y01156*
X0398Y01161*
X03976Y01165*
X03971Y01168*
G37*
G36*
X03026D02*
X0302D01*
X03015Y01165*
X0301Y01161*
X03008Y01156*
Y0115*
X0301Y01144*
X03015Y0114*
X0302Y01138*
X03026*
X03031Y0114*
X03036Y01144*
X03038Y0115*
Y01156*
X03036Y01161*
X03031Y01165*
X03026Y01168*
G37*
%LNmdriver2_control-3*%
%LPD*%
G54D16*
X02198Y02601D02*
X02198Y02601D01*
G54D148*
X05567Y0257D03*
Y0207D03*
G54D149*
X05627Y03532D03*
Y03036D03*
G54D150*
X01383Y02531D03*
X0422Y0329D03*
X0432D03*
Y0339D03*
X04052Y03276D03*
X04118Y02908D03*
X01283Y02531D03*
X04018Y02908D03*
X04052Y03376D03*
G54D151*
X05543Y01783D03*
Y01153D03*
X05385Y00838D03*
X05543Y00523D03*
X05385Y00208D03*
X05228Y01783D03*
X0507Y01468D03*
X05228Y01153D03*
X0507Y00838D03*
X05228Y00523D03*
X0507Y00208D03*
X04913Y01783D03*
Y01153D03*
Y00523D03*
X04598Y01783D03*
X0444Y01468D03*
X04598Y01153D03*
Y00523D03*
X04283Y01783D03*
X04125Y01468D03*
X04283Y01153D03*
X04125Y00838D03*
X04283Y00523D03*
X04125Y00208D03*
X03968Y01783D03*
X0381Y01468D03*
X03968Y01153D03*
X0381Y00838D03*
X03968Y00523D03*
X0381Y00208D03*
X03653Y03673D03*
Y02413D03*
X03495Y02098D03*
X03653Y01783D03*
X03495Y01468D03*
Y00838D03*
X03653Y00523D03*
X03495Y00208D03*
X0318Y02728D03*
Y01468D03*
Y00838D03*
X03338Y00523D03*
X03023Y03043D03*
Y02413D03*
Y01783D03*
Y01153D03*
Y00523D03*
X02551Y02728D03*
X02708Y02413D03*
Y01153D03*
X02551Y00838D03*
X02708Y00523D03*
X02551Y00208D03*
X02236Y02098D03*
X02393Y01153D03*
X02236Y00838D03*
X02393Y00523D03*
X02236Y00208D03*
X01921Y01468D03*
X02078Y01153D03*
X01921Y00838D03*
X02078Y00523D03*
X01921Y00208D03*
X01606Y03358D03*
X01763Y01783D03*
Y01153D03*
Y00523D03*
X01291Y03358D03*
X01448Y03043D03*
X01291Y02098D03*
X01448Y01783D03*
X01291Y01468D03*
X01448Y00523D03*
X00976Y03358D03*
X01133Y03043D03*
X00976Y02098D03*
Y01468D03*
Y00838D03*
X01133Y00523D03*
X00976Y00208D03*
X00661Y03358D03*
X00818Y03043D03*
X00661Y02098D03*
Y01468D03*
Y00838D03*
X00818Y00523D03*
X00661Y00208D03*
X00503Y03673D03*
X00346Y03358D03*
X00503Y03043D03*
X00346Y02728D03*
Y02098D03*
Y01468D03*
Y00838D03*
X00503Y00523D03*
X00346Y00208D03*
X00188Y03673D03*
X00031Y03358D03*
X00188Y03043D03*
X00031Y02728D03*
X00188Y02413D03*
X00031Y02098D03*
X00188Y01783D03*
X00031Y01468D03*
X00188Y01153D03*
X00031Y00838D03*
X00188Y00523D03*
X00031Y00208D03*
X04055Y01087D03*
X04882Y03284D03*
X04862Y03255D03*
X04901D03*
Y03314D03*
X04862D03*
X04535Y02134D03*
X04075Y01124D03*
X04087Y02409D03*
X04116Y02517D03*
X03673Y02295D03*
X03327Y02203D03*
X0456Y01617D03*
X04499Y01763D03*
X04775Y01488D03*
X04844Y0135D03*
X03214Y01993D03*
X03529Y01945D03*
X02858Y02015D03*
X03166Y03466D03*
X03147Y04737D03*
X0325Y02673D03*
X03267Y02714D03*
X0321Y03907D03*
X03338Y05222D03*
X03274Y03177D03*
X03552Y03103D03*
X04012Y02265D03*
X04049Y0216D03*
X03378Y02652D03*
X03729Y02519D03*
X03654Y02536D03*
X03585Y02562D03*
X03387Y02692D03*
X02154Y01432D03*
X02459Y01513D03*
X02094Y01379D03*
X05386Y01383D03*
X05261Y01474D03*
X05181Y0139D03*
Y01474D03*
X05289Y01494D03*
X04426Y02665D03*
X0314Y01995D03*
X03066Y01977D03*
X03061Y01922D03*
X04293Y0133D03*
X0443D03*
X04155D03*
X03624Y01413D03*
X04047Y01443D03*
X03751Y018D03*
X0379Y01832D03*
X03163Y0221D03*
X03128Y02203D03*
X03187Y02203D03*
X04047Y01251D03*
X05671Y02452D03*
X05602Y02314D03*
X05671Y02177D03*
X05602Y01763D03*
X05464Y03141D03*
Y0259D03*
X05533Y02452D03*
X05464Y02314D03*
X05533Y02177D03*
X05464Y01763D03*
X05395Y02728D03*
X05326Y0259D03*
X05395Y02452D03*
X05326Y02314D03*
X05395Y02177D03*
X05326Y02039D03*
X05395Y01901D03*
X05326Y01763D03*
X05395Y0135D03*
X05257Y02728D03*
X05188Y0259D03*
X05257Y02452D03*
X05188Y02314D03*
X05257Y02177D03*
X05188Y02039D03*
X05257Y01901D03*
X05188Y01763D03*
X05257Y01625D03*
X05188Y01212D03*
X05119Y02728D03*
X05051Y0259D03*
X05119Y02452D03*
X05051Y02314D03*
X05119Y02177D03*
X05051Y02039D03*
X05119Y01901D03*
X05051Y01763D03*
X05119Y01625D03*
X05051Y01212D03*
X04982Y02728D03*
X04913Y0259D03*
X04982Y02452D03*
X04913Y02314D03*
X04982Y02177D03*
X04913Y02039D03*
X04982Y01901D03*
X04913Y01763D03*
X04982Y01625D03*
X04913Y01212D03*
X04844Y02728D03*
Y01901D03*
X04775Y01763D03*
Y01212D03*
X04706Y02728D03*
Y01901D03*
X04637Y01763D03*
X04706Y01625D03*
Y0135D03*
X04637Y01212D03*
X04568Y02728D03*
X04499Y0259D03*
Y02039D03*
X04568Y01901D03*
X04499Y01488D03*
X04568Y0135D03*
X0443Y02728D03*
X04362Y0259D03*
X0443Y02177D03*
X04362Y02039D03*
X0443Y01901D03*
Y01625D03*
X04362Y01212D03*
X04293Y02728D03*
X04224Y0259D03*
X04293Y02177D03*
X04224Y02039D03*
Y01763D03*
X04155Y02728D03*
X04086Y0259D03*
Y02039D03*
X04155Y01901D03*
Y01625D03*
X0321Y01658D03*
X05296Y01602D03*
X03164Y02066D03*
X02152Y01463D03*
X04373Y03435D03*
X04351Y03454D03*
X04248Y03394D03*
X04219D03*
X03094Y04769D03*
X03004Y03893D03*
X02814Y0366D03*
X01874Y0385D03*
X0269Y05405D03*
X0332Y03733D03*
X02704Y03601D03*
Y03705D03*
X02967Y05243D03*
X02432Y05201D03*
X02478Y03689D03*
X02496Y03671D03*
X02456Y05161D03*
X02573Y05101D03*
X0295Y03993D03*
X02988Y03717D03*
X03029Y03308D03*
X02882Y03687D03*
X03004Y03656D03*
X03007Y04512D03*
X02671Y04392D03*
X03205Y05365D03*
X04706Y04135D03*
X04854Y03682D03*
X05006Y0381D03*
X05208Y04115D03*
X05196Y0383D03*
X04706Y04647D03*
X04991Y04608D03*
X05195D03*
X05195Y05411D03*
X05001Y05484D03*
X05198Y05621D03*
X02723Y04133D03*
X03272Y02777D03*
X03269Y0275D03*
X0255Y01338D03*
X05418Y01013D03*
X05392Y01014D03*
X04631Y01015D03*
X04606D03*
X03843Y01011D03*
X03817Y01011D03*
X03057Y01014D03*
X0303Y01017D03*
X00693Y01995D03*
X00667Y01995D03*
X00805Y01846D03*
X00855Y01846D03*
X00755Y01847D03*
X0067Y01013D03*
X00696D03*
X01482Y01021D03*
X01457D03*
X02244Y01021D03*
X02269Y01021D03*
X02131Y0086D03*
X02079Y00861D03*
X03022Y01961D03*
X02474Y01892D03*
X025Y01893D03*
X02715Y01828D03*
X02689Y01827D03*
X02193Y02791D03*
X03537Y02313D03*
X03646Y02293D03*
X03621Y02292D03*
X03528Y02411D03*
X03871Y01908D03*
X02732Y01994D03*
X02758Y03089D03*
X02556Y03082D03*
X0164Y02451D03*
X01669D03*
X01699D03*
X04928Y01348D03*
X0383Y03462D03*
X03808Y03429D03*
X03436Y0234D03*
X03776Y02196D03*
X03816Y02193D03*
X03757Y02176D03*
X03795Y0218D03*
X03719Y02171D03*
X03736Y02193D03*
X02376Y02576D03*
X02378Y03029D03*
X02534Y01622D03*
X03273Y02928D03*
X03271Y02973D03*
X03258Y02951D03*
X03116Y03056D03*
X03145Y03092D03*
X03191Y03041D03*
X03076Y03315D03*
X02992Y0331D03*
X0301Y03286D03*
X03046Y03287D03*
X02605Y03517D03*
X02643Y03515D03*
X02884Y03409D03*
X02887Y03348D03*
X02879Y03275D03*
X02915Y03279D03*
X02873Y03089D03*
X02849Y0309D03*
X02546Y02017D03*
X02693Y02199D03*
X02721Y02201D03*
X02617Y02201D03*
X02642Y02209D03*
X02557Y02222D03*
X02576Y02199D03*
X02537Y02198D03*
X025Y02198D03*
X02521Y02217D03*
X02563Y03512D03*
X02461Y03456D03*
X02375Y02378D03*
X02098Y03476D03*
X02001Y03028D03*
X02266Y02321D03*
X02189Y02461D03*
X02228Y02453D03*
X02192Y02706D03*
X02123Y02665D03*
X01991Y02696D03*
X02003Y02909D03*
X02Y02873D03*
X02001Y03105D03*
X02001Y03066D03*
X02245Y02844D03*
X02Y02947D03*
X02193Y02856D03*
X021Y02856D03*
X01977Y02855D03*
X02001Y02743D03*
X01173Y05287D03*
X02379Y02625D03*
X02376Y02675D03*
X02382Y027D03*
X02193Y0266D03*
X02389Y02648D03*
X02381Y02764D03*
X02378Y02812D03*
X02394Y0279D03*
X02379Y029D03*
X02379Y02852D03*
X02386Y02876D03*
X02398Y02834D03*
X04791Y03265D03*
X02364Y02062D03*
X02193Y02344D03*
X02229Y02321D03*
X02194Y02502D03*
X03092Y0323D03*
X03377Y02872D03*
X02677Y01993D03*
X02482Y02094D03*
X02461Y02063D03*
X02414Y02062D03*
X03926Y02487D03*
X01504Y02736D03*
X01594Y02808D03*
X01704Y02781D03*
X01642Y02807D03*
X01675Y02806D03*
X01541Y02737D03*
X01542Y02773D03*
X01563Y02807D03*
X01704Y02743D03*
X01506Y0277D03*
X01534Y02807D03*
X01878Y02925D03*
X01504Y02807D03*
X0167Y0271D03*
X02676Y03076D03*
X02634Y03076D03*
X02616Y03093D03*
X02598Y03076D03*
X0258Y03094D03*
X02531Y03091D03*
X0251Y02065D03*
X02629Y01995D03*
X02629Y02019D03*
X02511Y01976D03*
X0258Y02011D03*
X0301Y02202D03*
X02982Y02201D03*
X0238Y02337D03*
X02404Y02376D03*
X02101Y02403D03*
Y02354D03*
X02189Y02293D03*
X02192Y02205D03*
X02339Y01413D03*
X02177Y00857D03*
X02967Y00862D03*
X03754Y00859D03*
X04541Y00856D03*
X0533Y0086D03*
X01395Y00857D03*
X00606Y00859D03*
X00603Y01825D03*
X01393Y01846D03*
X02135Y01675D03*
X02201Y01641D03*
X02482Y01395D03*
X02445Y01571D03*
X02044Y01664D03*
X02261Y01703D03*
X00437Y02358D03*
Y02533D03*
X04866Y0149D03*
X04964Y0142D03*
X04965Y01454D03*
X04935Y01435D03*
X04901Y01419D03*
X04902Y01454D03*
X04994Y0152D03*
X04882Y01524D03*
X0482Y01511D03*
X03021Y01988D03*
X03167Y02033D03*
X02755Y01918D03*
X02713Y02011D03*
X02783Y02005D03*
X02775Y02071D03*
X02754Y02008D03*
X03908Y0086D03*
X03958Y00859D03*
X04008Y00858D03*
X04691Y00858D03*
X04741Y00857D03*
X04791Y00856D03*
X0548Y00859D03*
X0553Y00858D03*
X0558Y00857D03*
X02331Y00857D03*
X02381Y00856D03*
X02431Y00855D03*
X03119Y00862D03*
X03169Y00861D03*
X03219Y0086D03*
X01542Y0184D03*
X01592Y01839D03*
X01642Y01839D03*
X01541Y00858D03*
X01591Y00857D03*
X01641Y00856D03*
X00755Y00857D03*
X00805Y00856D03*
X00855Y00855D03*
X00555Y01845D03*
X00506Y01843D03*
X00734Y02294D03*
X021Y02895D03*
X02122Y0198D03*
X02775Y0184D03*
X00741Y02494D03*
X02012Y02551D03*
X02868Y0086D03*
X02918Y00859D03*
X01341Y0086D03*
X01292Y00856D03*
X01293Y01869D03*
X01343D03*
X01456Y01841D03*
X01481D03*
X00555Y00857D03*
X00505Y00856D03*
X0528Y00862D03*
X0523Y00859D03*
X04492Y00857D03*
X04442Y00859D03*
X03705Y00861D03*
X03655Y00862D03*
X02011Y02465D03*
Y0249D03*
X02011Y02367D03*
X02012Y02392D03*
X0201Y02267D03*
Y02292D03*
X02013Y02195D03*
Y0217D03*
X02591Y01827D03*
X02616Y01827D03*
X024Y01894D03*
X02375D03*
X02104Y01998D03*
X03619Y01512D03*
X03464Y01213D03*
X02629Y0191D03*
X01483Y02562D03*
Y02532D03*
X00571Y02394D03*
X00574Y02594D03*
X00358D03*
X00358Y02294D03*
X00358Y02993D03*
X01892Y02851D03*
X01881Y02885D03*
X02198Y02601D03*
X01966Y02743D03*
X01704Y02806D03*
X0065Y03132D03*
Y03232D03*
X00354Y03094D03*
X00357Y03194D03*
X02193Y02772D03*
X01704Y0248D03*
X03092Y02202D03*
X03069D03*
X03011Y02019D03*
X00836Y03499D03*
X0327Y02419D03*
X03266Y02557D03*
X02905Y0257D03*
X02826D03*
X02747D03*
Y02649D03*
X02826D03*
X02905D03*
Y02728D03*
X02826D03*
X02747D03*
X02706Y0253D03*
X02785D03*
X02863D03*
X02942D03*
X02706Y02609D03*
X02785D03*
X02863D03*
X02942D03*
X02706Y02687D03*
X02785D03*
X02863D03*
X02942D03*
Y02766D03*
X02863D03*
X02785D03*
X02706D03*
X02971Y03091D03*
X04521Y0218D03*
X03908Y02533D03*
X04295Y02467D03*
X04119Y02327D03*
X0423Y0239D03*
X05422Y01841D03*
X04859Y0234D03*
X04859Y0238D03*
X04495Y02207D03*
X04497Y02513D03*
X04386Y02355D03*
X04416Y02351D03*
X03933Y02265D03*
X03973D03*
X04012Y02304D03*
X03973D03*
X03933D03*
X04012Y02344D03*
X03973D03*
X03933D03*
X04175Y02178D03*
X04559Y02386D03*
X04556Y02334D03*
X0454Y02578D03*
X04585Y02514D03*
X04526Y02062D03*
X04503Y02352D03*
X05478Y02787D03*
X04159Y0249D03*
X04163Y02404D03*
X04206Y02444D03*
X04064Y02126D03*
X03883Y02397D03*
X03791Y02456D03*
X03858Y02487D03*
X03953Y02507D03*
X03877Y0253D03*
X03524Y0272D03*
X03516Y02788D03*
X03627Y02919D03*
X03391Y03151D03*
X0332Y03126D03*
X02735Y03096D03*
X03171Y03093D03*
X0309Y03073D03*
X03271Y02833D03*
X03391Y02205D03*
X03268Y02262D03*
X03277Y02172D03*
X02853Y02203D03*
X02931Y02202D03*
X01898Y04591D03*
X01842Y03973D03*
X021Y03013D03*
X01924Y04647D03*
X021Y03052D03*
X01954Y05497D03*
X021Y03092D03*
X01974Y05467D03*
X021Y03131D03*
X03419Y05414D03*
X021Y02728D03*
X01781Y04729D03*
X021Y02767D03*
X01806Y04617D03*
X021Y02974D03*
Y02934D03*
X01972Y02893D03*
X04713Y05714D03*
X0471Y04921D03*
X02729D03*
X02723Y05708D03*
X00734Y04133D03*
X0074Y04921D03*
X00729Y05708D03*
X02429Y03012D03*
X02329Y03093D03*
X00877Y0506D03*
X03267Y02616D03*
X03247Y02635D03*
X02584Y03411D03*
X00877Y03614D03*
X01998Y0278D03*
X01999Y02987D03*
Y0315D03*
X02802Y03515D03*
X0276Y03514D03*
X02721D03*
X0268Y03516D03*
X0285Y03486D03*
X02825Y03602D03*
X02661Y03601D03*
X02624D03*
X03071Y04477D03*
X03133Y03002D03*
X03129Y0335D03*
X01243Y04923D03*
X01566D03*
X02137D03*
Y03495D03*
X00877Y03712D03*
X02078Y03495D03*
X02098Y05661D03*
X02076Y05255D03*
X0355Y03349D03*
X04961Y03127D03*
X04214Y03082D03*
X04243Y03112D03*
X04931Y03091D03*
X04184Y03082D03*
X0323Y03269D03*
X03259Y05523D03*
Y0322D03*
X0252Y0327D03*
X01114Y04509D03*
X02895D03*
X00832Y04564D03*
X02915Y04563D03*
X02649Y05582D03*
X02413Y03495D03*
X02432Y03515D03*
X02477Y03486D03*
X02497Y03505D03*
X02914Y03246D03*
X02944Y03279D03*
X02972D03*
X03052Y0445D03*
X03033Y0507D03*
X01537Y04362D03*
Y03564D03*
X00976Y03623D03*
Y03692D03*
X02824Y03409D03*
X02785Y03412D03*
X02741Y03411D03*
X02702D03*
X02663D03*
X02623Y03411D03*
X02545Y03537D03*
Y03411D03*
X01217Y04616D03*
X01217Y03828D03*
X03424Y03238D03*
X03679Y03359D03*
X03881Y0337D03*
X03876Y03193D03*
X03446Y03613D03*
Y03397D03*
X0364Y03427D03*
X03603Y03158D03*
X03452Y02453D03*
X03472Y02431D03*
X03497Y02408D03*
X03589Y02286D03*
X03615Y02728D03*
X03617Y02705D03*
X04278Y03394D03*
X04351Y03508D03*
Y03482D03*
X04278Y03428D03*
X04249D03*
X04219D03*
X0169Y02513D03*
Y02542D03*
X017Y02572D03*
X0167D03*
X01675Y0248D03*
X0164Y02572D03*
X01645Y0248D03*
X01483Y02473D03*
X01513D03*
Y02503D03*
X01483D03*
X01513Y02532D03*
X01542Y02562D03*
X01513D03*
X0164Y0271D03*
X01704Y02718D03*
X03786Y03177D03*
X03693Y03174D03*
X03562Y0324D03*
X03878Y03333D03*
X0258Y01929D03*
X02376Y02419D03*
X02374Y0244D03*
X02383Y0246D03*
X02191Y02388D03*
X02191Y02411D03*
X03128Y03413D03*
X02783Y03314D03*
X02696Y03094D03*
X02716Y03077D03*
X0274Y03318D03*
X027D03*
X02657Y03093D03*
X02665Y03314D03*
X02621Y03318D03*
X02582Y03314D03*
X02543Y03318D03*
X02822Y03314D03*
X02559Y03271D03*
X02937Y02016D03*
X0298Y02019D03*
X03624Y01812D03*
X03619Y01612D03*
X03454Y0223D03*
X03479Y02276D03*
X03311Y02118D03*
X03459Y02567D03*
X03393Y02622D03*
X03457Y0292D03*
X03459Y02959D03*
X03458Y03D03*
X0346Y02729D03*
X03459Y02767D03*
X03459Y02806D03*
X03457Y02845D03*
X03184Y03277D03*
X0314Y03272D03*
X02847Y03272D03*
X02769Y03273D03*
X02728Y03274D03*
X02315Y02063D03*
X02192Y02108D03*
X02191Y02157D03*
X02194Y02256D03*
X02189Y02551D03*
X02216Y0306D03*
X04204Y02963D03*
X04233D03*
X04263D03*
X04302Y02953D03*
Y02983D03*
X04204Y02993D03*
X04233D03*
X04263D03*
X04204Y03022D03*
X04233D03*
X04263D03*
X04243Y03082D03*
X04214Y03112D03*
X04184D03*
X04243Y03141D03*
X04214D03*
X04184D03*
X05002Y03239D03*
X05035Y03377D03*
X04243Y03562D03*
X04271Y03644D03*
X04243D03*
X04271Y03617D03*
X04243D03*
X04271Y03589D03*
X04243D03*
X03958Y03455D03*
X03987D03*
X04017D03*
X04047Y03456D03*
X03958Y03495D03*
X03987D03*
X04017D03*
X04081Y03598D03*
X04041D03*
X04081Y03638D03*
X04041D03*
X04001D03*
Y03598D03*
X05073Y03271D03*
X04831Y02982D03*
X04909Y03159D03*
X04841Y03184D03*
X04764Y03283D03*
X04781Y03117D03*
X04823Y03546D03*
X05279Y01316D03*
X05337Y01325D03*
X04615Y02236D03*
X0429Y0232D03*
X03477Y02311D03*
X0363Y02394D03*
X03413Y01212D03*
X03696Y02274D03*
X03391Y0232D03*
X05266Y03127D03*
X05099Y03377D03*
X04982Y03309D03*
X05107Y03127D03*
X05143Y0333D03*
X05227Y03166D03*
Y03127D03*
Y03087D03*
X05266Y03166D03*
Y03087D03*
X04429Y03547D03*
X04504Y03261D03*
X04458Y03309D03*
X04439Y03071D03*
Y0311D03*
X044D03*
Y03071D03*
X0434Y03557D03*
X04532Y03477D03*
X0494Y03354D03*
X04943Y03219D03*
X05308Y03398D03*
X05386Y03477D03*
X05347D03*
X05229D03*
X05268D03*
X05426D03*
X05308D03*
X05229Y03437D03*
X05268D03*
X05347D03*
X05386D03*
X05426D03*
X05308D03*
X05229Y03398D03*
X05268D03*
X05306Y03166D03*
Y03127D03*
Y03087D03*
X05345Y03127D03*
Y03087D03*
X05385Y03127D03*
Y03087D03*
X05424Y03127D03*
Y03087D03*
X04656Y03505D03*
X04595Y03055D03*
X04784Y02989D03*
G54D152*
X05014Y01104D03*
X03574Y04302D03*
X05582Y05169D03*
X00188D03*
X00149Y02058D03*
Y00208D03*
M02*