%FSTAX23Y23*%
%MOIN*%
%SFA1B1*%

%IPPOS*%
%AMD32*
4,1,8,0.010900,0.027600,-0.010900,0.027600,-0.016800,0.021700,-0.016800,-0.021700,-0.010900,-0.027600,0.010900,-0.027600,0.016800,-0.021700,0.016800,0.021700,0.010900,0.027600,0.0*
1,1,0.011843,0.010900,0.021700*
1,1,0.011843,-0.010900,0.021700*
1,1,0.011843,-0.010900,-0.021700*
1,1,0.011843,0.010900,-0.021700*
%
%ADD16R,0.159921X0.040157*%
%ADD17R,0.160921X0.040157*%
%ADD19R,0.035433X0.029527*%
%ADD21R,0.031496X0.035433*%
%ADD23R,0.027559X0.025591*%
%ADD25R,0.070866X0.023622*%
%ADD30R,0.041464X0.037527*%
%ADD31R,0.061149X0.053275*%
G04~CAMADD=32~8~0.0~0.0~335.9~552.4~59.2~0.0~15~0.0~0.0~0.0~0.0~0~0.0~0.0~0.0~0.0~0~0.0~0.0~0.0~0.0~335.9~552.4*
%ADD32D32*%
%ADD33R,0.039496X0.043433*%
%ADD34R,0.032803X0.040677*%
%ADD35R,0.052882X0.043827*%
%ADD36R,0.041464X0.045401*%
%ADD37R,0.045401X0.041464*%
%ADD38R,0.037527X0.041464*%
%ADD39C,0.098551*%
%ADD40C,0.120078*%
%ADD41C,0.108268*%
%ADD42R,0.108268X0.108268*%
%ADD43C,0.110362*%
%LNcapbank-1*%
%LPD*%
G54D16*
X01477Y02519D03*
Y02598D03*
Y02677D03*
G54D17*
X01278Y02519D03*
Y02598D03*
Y02677D03*
G54D19*
X02284Y02449D03*
Y02402D03*
X02411Y02574D03*
Y02622D03*
G54D21*
X02364Y02795D03*
X02401Y02716D03*
X02326D03*
G54D23*
X02245Y02719D03*
Y02666D03*
G54D25*
X01685Y02349D03*
Y02399D03*
Y02449D03*
Y02499D03*
X02114D03*
Y02449D03*
Y02399D03*
Y02349D03*
G54D30*
X03385Y02842D03*
Y02795D03*
Y02606D03*
Y02559D03*
Y0307D03*
Y03023D03*
G54D31*
X02332Y02563D03*
Y02632D03*
G54D32*
X0217Y02633D03*
X02095D03*
Y02749D03*
X02133D03*
X0217D03*
G54D33*
X02168Y02814D03*
X02217D03*
X02219Y02334D03*
X02268D03*
X01611Y02358D03*
X01562D03*
G54D34*
X02582Y02795D03*
X02669D03*
G54D35*
X01767Y02766D03*
Y02666D03*
X02012Y02766D03*
Y02666D03*
G54D36*
X01632Y02766D03*
X01684D03*
G54D37*
X02206Y0245D03*
Y02399D03*
G54D38*
X03228Y0248D03*
X03181D03*
X0296D03*
X02913D03*
X02724D03*
X02677D03*
X02543Y02401D03*
X02496D03*
G54D39*
X01594Y03149D03*
Y03346D03*
Y03546D03*
G54D40*
X02055Y03425D03*
X03141D03*
G54D41*
X02204Y02952D03*
G54D42*
X0307Y02952D03*
G54D43*
X03543Y02598D03*
Y02796D03*
Y03248D03*
Y03446D03*
X02933Y037D03*
X03131D03*
X02067D03*
X02265D03*
M02*