%FSTAX23Y23*%
%MOIN*%
%SFA1B1*%

%IPPOS*%
%AMD22*
4,1,8,0.010900,0.023600,-0.010900,0.023600,-0.012800,0.021700,-0.012800,-0.021700,-0.010900,-0.023600,0.010900,-0.023600,0.012800,-0.021700,0.012800,0.021700,0.010900,0.023600,0.0*
1,1,0.003843,0.010900,0.021700*
1,1,0.003843,-0.010900,0.021700*
1,1,0.003843,-0.010900,-0.021700*
1,1,0.003843,0.010900,-0.021700*
%
%ADD10C,0.010000*%
%ADD16R,0.159921X0.040157*%
%ADD17R,0.160921X0.040157*%
%ADD18R,0.033465X0.029527*%
%ADD19R,0.035433X0.029527*%
%ADD20R,0.053150X0.045275*%
%ADD21R,0.031496X0.035433*%
G04~CAMADD=22~8~0.0~0.0~255.9~472.4~19.2~0.0~15~0.0~0.0~0.0~0.0~0~0.0~0.0~0.0~0.0~0~0.0~0.0~0.0~0.0~255.9~472.4*
%ADD22D22*%
%ADD23R,0.027559X0.025591*%
%ADD24R,0.024803X0.032677*%
%ADD25R,0.070866X0.023622*%
%ADD26R,0.044882X0.035827*%
%ADD27R,0.033465X0.037401*%
%ADD28R,0.037401X0.033465*%
%ADD29R,0.029527X0.033465*%
%ADD40C,0.120078*%
%ADD41C,0.108268*%
%ADD42R,0.108268X0.108268*%
%ADD44C,0.025000*%
%ADD45C,0.020000*%
%ADD46C,0.050000*%
%ADD47C,0.090551*%
%ADD48C,0.102362*%
%ADD49C,0.017716*%
%ADD50C,0.118110*%
%ADD51C,0.019685*%
%LNcapbank-1*%
%LPD*%
G36*
X03408Y03769D02*
X03405Y03751D01*
Y03729*
X03408Y03707*
X03415Y03687*
X03425Y03667*
X03438Y0365*
X03453Y03635*
X03471Y03622*
X0349Y03612*
X03511Y03605*
X03532Y03602*
X03554*
X03575Y03605*
X03596Y03612*
X03615Y03622*
X03633Y03635*
X03648Y0365*
X03661Y03667*
X03671Y03687*
X03671Y03687*
X03681Y03685*
Y03188*
X03464*
Y03233*
X03543*
X03549Y03234*
X03554Y03237*
X03557Y03242*
X03558Y03248*
X03557Y03254*
X03554Y03259*
X03549Y03262*
X03543Y03263*
X03464*
Y03346*
X0307*
Y03622*
X02874*
Y03779*
X03402*
X03408Y03769*
G37*
G54D10*
X02132Y02757D02*
Y02791D01*
X02132Y02757D02*
X02132Y02757D01*
X02132Y02791D02*
X02132Y02791D01*
X01376Y02481D02*
X01393Y02464D01*
X01338Y02598D02*
X01376Y0256D01*
Y02481D02*
Y0256D01*
X02167Y02473D02*
Y02653D01*
X01293Y02477D02*
Y02519D01*
Y02477D02*
X01366Y02405D01*
X01586*
X02115Y024D02*
X02282D01*
X02114Y02449D02*
X02284D01*
X02283Y0245D02*
Y02484D01*
Y0245D02*
X02284Y02449D01*
X02094Y02817D02*
X02095Y02816D01*
Y02749D02*
Y02816D01*
X02243Y02721D02*
Y02751D01*
Y02721D02*
X02245Y02719D01*
X01462Y02598D02*
X01477D01*
X01577*
X01579Y02599*
X03385Y0307D02*
Y03206D01*
X03427Y03248D02*
X03543D01*
X03385Y03206D02*
X03427Y03248D01*
X02167Y02653D02*
X0217Y02656D01*
X0217*
X02169Y0233D02*
Y02362D01*
X02268Y02334D02*
X02311D01*
X02442Y02716D02*
X02443Y02716D01*
X02401Y02716D02*
X02442D01*
X02114Y02499D02*
Y02527D01*
Y02499D02*
X02114Y02499D01*
X02206Y02493D02*
X02207Y02494D01*
X02206Y0245D02*
Y02493D01*
X02409Y02527D02*
Y02569D01*
X02411Y02571*
X02332Y02513D02*
X02332Y02512D01*
X02332Y02513D02*
Y02563D01*
X02217Y02814D02*
X02217Y02815D01*
Y02854*
X01523Y02358D02*
X01524Y02358D01*
X01562*
X01606Y02362D02*
X0162Y02349D01*
X01606Y02362D02*
Y02385D01*
X01586Y02405D02*
X01606Y02385D01*
X0162Y02349D02*
X01685D01*
X01589Y02464D02*
X01632Y02422D01*
X01648*
X01654Y02416*
Y02405D02*
X01661Y02399D01*
X01685*
X01654Y02405D02*
Y02416D01*
X01393Y02464D02*
X01589D01*
X01462Y02519D02*
X01562D01*
X01637Y02444D02*
X0168D01*
X01562Y02519D02*
X01637Y02444D01*
X01297Y0268D02*
Y02716D01*
X01293Y02677D02*
X01297Y0268D01*
X0168Y02444D02*
X01685Y02449D01*
X01293Y02598D02*
X01338D01*
X01632Y02727D02*
Y02766D01*
X01582Y02677D02*
X01632Y02727D01*
X01462Y02677D02*
X01582D01*
X01685Y02499D02*
X01685Y02499D01*
X01685Y02499D02*
Y02531D01*
X01684Y02766D02*
X01684Y02766D01*
X01767*
X01766Y02665D02*
X01767Y02666D01*
X0172Y02665D02*
X01766D01*
X02114Y02449D02*
X02114Y02449D01*
X02284D02*
X02284Y02449D01*
X02114Y02399D02*
X02115Y024D01*
X02282D02*
X02284Y02402D01*
X02495*
X02496Y02401*
X02667Y02468D02*
X02677Y02478D01*
X02665Y02468D02*
X02667D01*
X02677Y02478D02*
Y0248D01*
X02598Y02401D02*
X02665Y02468D01*
X02543Y02401D02*
X02598D01*
X02724Y0248D02*
X02913D01*
X0296D02*
X03181D01*
X03228D02*
X03331D01*
X03385Y02534*
Y02559*
Y02606D02*
Y02795D01*
Y02842D02*
Y03023D01*
G54D16*
X01477Y02519D03*
Y02598D03*
Y02677D03*
G54D17*
X01278Y02519D03*
Y02598D03*
Y02677D03*
G54D18*
X03385Y02842D03*
Y02795D03*
Y02606D03*
Y02559D03*
Y0307D03*
Y03023D03*
G54D19*
X02284Y02449D03*
Y02402D03*
X02411Y02574D03*
Y02622D03*
G54D20*
X02332Y02563D03*
Y02632D03*
G54D21*
X02364Y02795D03*
X02401Y02716D03*
X02326D03*
X02168Y02814D03*
X02217D03*
X02219Y02334D03*
X02268D03*
X01611Y02358D03*
X01562D03*
G54D22*
X0217Y02633D03*
X02095D03*
Y02749D03*
X02133D03*
X0217D03*
G54D23*
X02245Y02719D03*
Y02666D03*
G54D24*
X02582Y02795D03*
X02669D03*
G54D25*
X01685Y02349D03*
Y02399D03*
Y02449D03*
Y02499D03*
X02114D03*
Y02449D03*
Y02399D03*
Y02349D03*
G54D26*
X01767Y02766D03*
Y02666D03*
X02012Y02766D03*
Y02666D03*
G54D27*
X01632Y02766D03*
X01684D03*
G54D28*
X02206Y0245D03*
Y02399D03*
G54D29*
X03228Y0248D03*
X03181D03*
X0296D03*
X02913D03*
X02724D03*
X02677D03*
X02543Y02401D03*
X02496D03*
G54D40*
X02055Y03425D03*
X03141D03*
G54D41*
X02204Y02952D03*
G54D42*
X0307Y02952D03*
G54D44*
X02364Y02795D02*
Y02887D01*
Y02795D02*
X02582D01*
X02134Y02586D02*
X02135Y02586D01*
X02033Y02586D02*
X02134D01*
X02329Y02635D02*
X02332Y02632D01*
X02329Y02635D02*
Y02713D01*
X02326Y02716D02*
X02329Y02713D01*
X02231Y02626D02*
X02326D01*
X02332Y02632*
X02018Y026D02*
X02033Y02586D01*
X02018Y026D02*
Y02661D01*
X02013Y02666D02*
X02018Y02661D01*
X02012Y02666D02*
X02013D01*
X02913Y02795D02*
X0307Y02952D01*
X02669Y02795D02*
X02913D01*
X02332Y02632D02*
X02401D01*
X02409Y02625*
X02411*
X02299Y02952D02*
X02364Y02887D01*
X02204Y02952D02*
X02299D01*
G54D45*
X02168Y02666D02*
X02168Y02666D01*
X02239*
X02168Y02666D02*
Y02671D01*
X02014Y0282D02*
X02162D01*
X02168Y02658D02*
Y02666D01*
Y02658D02*
X0217Y02656D01*
X02169Y0233D02*
X02215D01*
X02156D02*
X02169D01*
X02215D02*
X02219Y02334D01*
X02114Y02349D02*
X02137D01*
X02156Y0233*
X02012Y02818D02*
Y03224D01*
Y02766D02*
Y02818D01*
X02162Y0282D02*
X02168Y02815D01*
X02012Y02818D02*
X02014Y0282D01*
X02168Y02814D02*
Y02815D01*
X02007Y03228D02*
X02012Y03224D01*
X02168Y02755D02*
Y02814D01*
G54D46*
X01594Y03346D02*
X01722D01*
X0184Y03228D02*
X02007D01*
X01722Y03346D02*
X0184Y03228D01*
X02007D02*
X02795D01*
X0307Y02952*
G54D47*
X01594Y03149D03*
Y03346D03*
Y03546D03*
G54D48*
X03543Y02598D03*
Y02796D03*
Y03248D03*
Y03446D03*
X02933Y037D03*
X03131D03*
X02067D03*
X02265D03*
G54D49*
X02132Y02791D03*
X02135Y02586D03*
X02283Y02484D03*
X02231Y02626D03*
X02243Y02751D03*
X01579Y02599D03*
X02167Y02473D03*
X02169Y02362D03*
X02311Y02334D03*
X02443Y02716D03*
X02114Y02527D03*
X02207Y02494D03*
X02409Y02527D03*
X02332Y02512D03*
X02217Y02854D03*
X01523Y02358D03*
X01297Y02716D03*
X01685Y02531D03*
G54D50*
X03543Y02362D03*
Y0374D03*
X01279Y02362D03*
X01299Y0374D03*
G54D51*
X0172Y02665D03*
M02*