%FSTAX23Y23*%
%MOIN*%
%SFA1B1*%

%IPPOS*%
%AMD22*
4,1,8,0.010900,0.023600,-0.010900,0.023600,-0.012800,0.021700,-0.012800,-0.021700,-0.010900,-0.023600,0.010900,-0.023600,0.012800,-0.021700,0.012800,0.021700,0.010900,0.023600,0.0*
1,1,0.003843,0.010900,0.021700*
1,1,0.003843,-0.010900,0.021700*
1,1,0.003843,-0.010900,-0.021700*
1,1,0.003843,0.010900,-0.021700*
%
%ADD16R,0.159921X0.040157*%
%ADD17R,0.160921X0.040157*%
%ADD18R,0.033465X0.029527*%
%ADD19R,0.035433X0.029527*%
%ADD20R,0.053150X0.045275*%
%ADD21R,0.031496X0.035433*%
G04~CAMADD=22~8~0.0~0.0~255.9~472.4~19.2~0.0~15~0.0~0.0~0.0~0.0~0~0.0~0.0~0.0~0.0~0~0.0~0.0~0.0~0.0~255.9~472.4*
%ADD22D22*%
%ADD23R,0.027559X0.025591*%
%ADD24R,0.024803X0.032677*%
%ADD25R,0.070866X0.023622*%
%ADD26R,0.044882X0.035827*%
%ADD27R,0.033465X0.037401*%
%ADD28R,0.037401X0.033465*%
%ADD29R,0.029527X0.033465*%
%LNcapbank-1*%
%LPD*%
G54D16*
X01477Y02519D03*
Y02598D03*
Y02677D03*
G54D17*
X01278Y02519D03*
Y02598D03*
Y02677D03*
G54D18*
X03385Y02842D03*
Y02795D03*
Y02606D03*
Y02559D03*
Y0307D03*
Y03023D03*
G54D19*
X02284Y02449D03*
Y02402D03*
X02411Y02574D03*
Y02622D03*
G54D20*
X02332Y02563D03*
Y02632D03*
G54D21*
X02364Y02795D03*
X02401Y02716D03*
X02326D03*
X02168Y02814D03*
X02217D03*
X02219Y02334D03*
X02268D03*
X01611Y02358D03*
X01562D03*
G54D22*
X0217Y02633D03*
X02095D03*
Y02749D03*
X02133D03*
X0217D03*
G54D23*
X02245Y02719D03*
Y02666D03*
G54D24*
X02582Y02795D03*
X02669D03*
G54D25*
X01685Y02349D03*
Y02399D03*
Y02449D03*
Y02499D03*
X02114D03*
Y02449D03*
Y02399D03*
Y02349D03*
G54D26*
X01767Y02766D03*
Y02666D03*
X02012Y02766D03*
Y02666D03*
G54D27*
X01632Y02766D03*
X01684D03*
G54D28*
X02206Y0245D03*
Y02399D03*
G54D29*
X03228Y0248D03*
X03181D03*
X0296D03*
X02913D03*
X02724D03*
X02677D03*
X02543Y02401D03*
X02496D03*
M02*